<?xml version="1.0" encoding="UTF-8" standalone="no"?>
<svg viewBox="0 0 265 188" version="1.1" xmlns="http://www.w3.org/2000/svg" xmlns:xlink="http://www.w3.org/1999/xlink">
  <title>Club First</title>
  <g stroke="none" stroke-width="1" fill="none" fill-rule="evenodd">
    <g transform="translate(140.000000, 104.500000) rotate(-11.000000) translate(-140.000000, -104.500000) translate(5.000000, 13.000000)" fill="#6BBEDF">
      <path d="M216.687385,33.0639069 C213.099206,33.5321383 212.883616,38.6525967 216.687385,38.8312392 C219.686908,38.9722727 224.188066,39.3671667 225.963409,42.2592948 C227.433175,44.6531044 225.603466,48.2109109 224.369912,50.2718813 C219.679409,58.1039448 209.299186,60.9133332 201.32983,56.8797735 C197.05176,54.7134981 192.023811,50.2643595 191.7801,45.113814 C191.596379,41.2006029 195.021459,37.8816132 197.917873,35.7943166 C200.773043,33.7352267 214.7077,26.5274717 217.206677,32.0259 C217.660355,33.0206567 219.437572,32.5580666 219.304469,31.4561244 C218.084038,21.279143 199.920054,28.8009326 195.448891,31.559549 C190.726517,34.476123 187.0671,38.7823475 186.467195,44.4312116 C185.74356,51.2534748 191.778225,57.1110685 196.806175,60.6218638 C207.896909,68.3674268 222.165263,63.6211775 229.649072,53.3652173 C232.436753,49.5460286 234.302081,44.147264 232.376763,39.5476896 C229.703438,33.1673315 222.808286,32.2684777 216.687385,33.0639069" id="Fill-1"></path>
      <path d="M103.950329,111.192736 C86.6393347,106.252801 68.9290286,101.997348 52.459775,94.5658202 C39.3181168,88.6367695 29.1834799,80.9589027 25.1041292,66.7088721 C24.2605135,63.762211 20.38738,64.6309777 20.0874277,67.3895941 C18.6757774,80.3515181 30.495771,90.2144649 40.5216752,96.0664172 C54.8125256,104.404321 71.3905119,108.827133 87.2129934,113.18413 C103.541644,117.68028 120.05964,121.540838 135.906493,127.609042 C146.457314,131.650124 160.688173,138.884205 158.712238,152.385817 C158.474151,154.003002 160.768786,154.745779 161.218714,153.079702 C168.681901,125.510463 121.514409,116.204129 103.950329,111.192736" id="Fill-2"></path>
      <path d="M224.285551,2.6965616 C203.661958,-1.64915239 180.406285,-0.498318566 161.061239,8.28713177 C150.555411,13.0578269 138.577943,23.0768507 140.22768,35.9485133 C140.47889,37.9004177 143.189709,38.5566938 143.813984,36.4336687 C149.561819,16.8657329 169.767353,10.7317134 188.221916,9.02426716 C208.485566,7.14758063 233.488461,10.2183513 249.500287,23.9794655 C272.705344,43.9197299 249.547155,75.6786063 234.905735,93.140441 C214.518355,117.456507 188.501246,136.183882 167.894526,160.146424 C166.306654,161.993023 164.641919,164.003222 163.170278,166.143171 C158.965323,161.848229 155.703342,156.099701 151.354034,152.152642 C144.020201,145.497738 135.319711,140.664989 126.334267,136.659636 C110.911096,129.782839 94.4455922,125.2472 78.4993803,119.756294 C52.7934719,110.905028 18.0777476,98.5316838 9.96028963,69.2267912 C6.66268951,57.3179177 9.2235319,43.1054962 17.1047775,33.5340188 C24.1911495,24.9290914 34.9669344,20.6134646 45.5514996,18.2779489 C69.1614916,13.0653487 96.4027807,17.8661309 118.064958,28.1070475 C123.942147,30.8863488 129.508136,34.4009051 134.749802,38.2351373 C137.284399,40.0892585 139.865863,36.1986128 137.949918,34.0737072 C123.239134,17.7721085 97.4319919,11.5045773 76.5384425,9.20102921 C54.7506604,6.79969786 29.1966028,9.62036899 12.9129447,25.8223039 C-5.1385571,43.7862181 -2.42211447,73.4333521 12.6223659,92.1043145 C30.3045515,114.049136 61.042159,123.361111 86.5662214,132.276313 C101.228263,137.396771 116.214627,141.860953 129.978686,149.187176 C136.935704,152.889777 143.427796,157.590896 148.502613,163.664741 C151.916445,167.749073 154.674131,173.085783 159.036561,176.31075 C159.068431,182.495541 168.644407,184.817894 169.772977,178.16111 C170.715952,172.617551 175.668914,167.912672 179.298336,163.950569 C184.781838,157.963224 190.801505,152.457274 196.764931,146.956966 C207.803174,136.774343 218.665195,126.362306 229.081037,115.53845 C247.983654,95.8971769 275.573637,66.1259334 268.417901,36.0857859 C263.723648,16.3862188 242.209573,6.47250001 224.285551,2.6965616" id="Fill-5"></path>
    </g>
  </g>
</svg>