<?xml version="1.0" encoding="UTF-8" standalone="no"?>
<svg viewBox="0 0 247 456" version="1.1" xmlns="http://www.w3.org/2000/svg" xmlns:xlink="http://www.w3.org/1999/xlink">
  <title>Club Fourth</title>
  <g stroke="none" stroke-width="1" fill-rule="evenodd" fill="#6BBEDF">
    <path d="M245.60084,352.752682 C244.467447,342.582977 245.901869,332.213795 245.671563,322.011448 C245.408616,310.320277 242.4219,298.547501 241.308455,286.90892 C239.386222,266.803442 234.578824,247.831356 231.343668,228.023281 C229.795,218.528171 225.992241,211.939987 222.028087,203.407807 C218.872722,196.618332 216.023827,191.685808 211.94724,186.729708 C211.637144,186.00071 211.325234,185.268085 211.013325,184.522766 C210.795713,184.002313 210.180961,184.065783 210.006872,184.475617 C209.646,184.071223 209.299635,183.672269 208.918815,183.262434 C210.944414,178.788707 212.554739,174.108249 213.849526,169.386082 C215.637567,162.866808 219.45846,152.979997 217.62327,145.532248 C222.196736,145.497793 227.040403,143.143963 230.362603,140.554388 C236.901825,135.455028 234.430122,125.089472 232.718246,118.336266 C231.162325,112.195998 222.847757,107.185496 216.758265,108.356971 C212.676238,109.142185 208.115467,111.095247 205.825107,114.388433 C199.875249,106.131895 196.689056,95.4653102 189.197784,88.4727313 C179.427033,79.3493743 171.302875,68.7462599 159.122078,62.4464105 C148.664038,57.0369544 140.342217,53.5769335 128.475143,52.3093472 C124.131982,51.8451096 119.961098,51.821535 115.851869,52.0609075 C116.394084,51.5604014 116.961687,51.0780295 117.558305,50.6065382 C118.945578,49.5094141 117.104948,47.1301964 115.665086,48.1547833 C113.973158,49.360713 112.611273,50.8096421 111.432545,52.4254066 C110.467801,52.528772 109.499431,52.6194434 108.5365,52.7518237 C108.541941,52.6448314 108.578209,52.5596003 108.563702,52.4417274 C108.491165,51.8414827 108.425881,51.2466783 108.369665,50.6536873 C108.492978,50.3254568 108.592717,49.9881592 108.752298,49.6671824 C109.849422,47.442106 111.764402,45.6395585 113.082765,43.5396087 C114.310455,41.5829197 111.318299,39.9163792 110.030765,41.7551954 C109.48855,42.5277158 108.91188,43.2694079 108.333396,44.0074731 C108.545567,41.9981948 108.995298,40.0106775 109.829475,38.0322274 C110.18672,37.7565863 110.538525,37.500893 110.877636,37.285095 C111.347314,36.9876928 111.175038,36.3965152 110.788778,36.2278664 C112.954011,33.9266261 114.952409,31.5038861 116.511957,28.8109453 C119.596599,23.48128 120.755379,15.0125705 118.129535,9.3111524 C114.533507,1.50797113 109.753311,0.5976302 101.761533,0.70643588 C100.726065,0.72094331 100.724252,2.31313322 101.761533,2.31313322 C120.675588,2.30406608 117.255463,21.8165529 109.588289,31.0197008 C105.471807,35.9631059 100.165716,39.9018718 95.646653,44.464457 C92.0034759,48.1439027 89.2815202,52.465302 88.314963,57.0605289 C86.8225117,57.513886 85.3463811,58.0162056 83.8938252,58.5928757 C84.6119427,55.4284436 86.8243251,52.6593388 89.5081987,48.7949234 C92.859414,43.9675777 96.6893742,40.3969377 101.208437,36.7573874 C107.548182,31.6471469 110.835927,25.4180212 111.39265,17.3319451 C112.35558,3.33772012 96.9613884,-0.47229241 90.2154357,10.8525664 C89.6133776,11.8608324 91.1040155,12.6823154 91.7604765,11.7556536 C94.2811416,11.973265 96.8018067,12.1908763 99.320658,12.4084877 C98.5644589,19.9487219 95.4090939,26.3483099 86.8188848,27.2713448 C83.9373475,27.581441 81.4982866,27.9731415 78.7491296,28.9922881 C75.0424824,30.3632398 72.4438399,33.4424408 70.2858604,36.590552 C67.6056136,40.50393 67.5004348,44.5388076 68.3817608,48.5881926 C68.3182909,48.653476 68.2457537,48.6933715 68.1913509,48.7731623 C64.6533526,53.8725223 65.2971196,60.7345344 66.9672869,66.611855 C65.8737897,67.1395626 64.782106,67.670897 63.6958625,68.2112986 C62.5860445,65.790372 63.0684164,62.8453647 63.0956178,60.2775505 C63.1173789,58.3516898 60.1487971,58.3553166 60.1107151,60.2775505 C60.0599391,62.9287824 59.8205666,65.4984101 60.4298784,68.1061198 C60.5513781,68.6302005 60.7363478,69.1270798 60.9521457,69.6094517 C59.4887092,70.3729049 58.0597278,71.1798805 56.6525076,72.0140574 C56.3714262,71.0511271 56.1683223,70.0664356 56.0794643,69.0926247 C55.9235095,67.4025096 53.2777178,67.3753082 53.4155384,69.0926247 C53.537038,70.5905163 53.8271865,72.0593931 54.2968644,73.4629865 C44.3357036,79.9478056 35.014683,90.1555926 29.6686968,100.695237 C23.9201296,112.023723 18.9404559,124.014109 17.6910039,136.729868 C17.1342815,142.38051 18.1117192,148.149025 19.0565153,153.705369 C19.567902,156.708406 20.1790273,159.715069 20.7847123,162.701786 C20.8445554,163.002815 20.9678686,163.363687 21.1093159,163.74632 C18.0228612,161.348968 13.9027525,160.342516 10.2269336,162.224854 C3.13280274,165.858964 -1.11243254,171.863225 0.29297427,180.029091 C1.81806734,188.893128 6.62546535,193.238102 14.7532503,196.177669 C20.0484605,198.092649 25.9529825,192.646925 28.8472138,187.703519 C30.3958815,194.133936 34.7589896,201.249828 38.2879208,205.460608 C41.0806001,208.791875 43.9548837,211.972628 46.9923759,214.937583 C43.4525641,223.585822 44.1851891,233.148029 44.6657476,242.354803 C44.9141872,247.133187 43.1787365,252.602486 43.1279605,257.516876 C43.0644905,263.602741 44.7255907,269.811919 46.1164901,275.676546 C48.8765277,287.326008 48.5446704,298.585583 52.9132188,309.770808 C55.2960633,315.869367 55.3214513,322.851065 56.7105373,329.207131 C58.170347,335.893241 60.6674375,342.454224 63.0774835,348.841118 C67.1304954,359.583866 72.516377,369.836989 77.6937144,380.06835 C80.2705958,385.16227 83.6707735,389.392998 87.5768978,393.498599 C92.9500854,399.145614 95.6502799,405.532508 99.973493,411.826917 C111.499642,428.601128 126.794095,448.115428 148.074674,451.671561 C149.028537,451.831142 149.821005,451.537367 150.395862,451.027794 C155.663871,452.870237 162.112421,453.475922 166.707648,454.574859 C179.022639,457.518053 191.101884,455.690117 202.736839,451.243591 C213.383475,447.176072 219.801198,441.937078 226.712172,432.782893 C232.301158,425.380479 239.257468,413.362891 240.43257,404.070885 C240.439823,404.012855 240.434383,403.962079 240.43801,403.905863 C246.237353,387.534234 247.5267,370.04916 245.60084,352.752682 L245.60084,352.752682 L245.60084,352.752682 Z M230.547573,253.846498 C232.718246,266.005533 234.702137,278.168196 235.875425,290.648208 C236.756751,300.005498 238.524843,309.201392 239.578445,318.533293 C239.796056,320.455527 239.897608,322.388641 239.955638,324.325382 C239.602019,324.526673 239.320938,324.834956 239.230267,325.266552 C237.763203,332.31172 233.097253,338.393958 228.609018,343.845123 C224.294873,349.08593 219.21546,355.811935 212.598261,358.414205 C213.107834,356.98885 213.619221,355.563496 214.101593,354.11094 C221.56929,331.724169 226.162703,308.436125 228.784921,285.012074 C229.943701,274.666466 230.569334,264.255575 230.547573,253.846498 L230.547573,253.846498 L230.547573,253.846498 Z M239.500468,349.383333 C239.591139,352.914077 239.767041,356.379538 239.917556,359.832306 C235.605224,368.990118 226.443785,377.863222 219.576332,384.106855 C212.003457,390.992441 202.553682,396.008384 192.659619,398.61972 C200.602434,386.709124 206.793477,374.210977 211.798539,360.648348 C219.387736,360.10432 224.915065,354.087365 230.052507,348.518327 C233.084559,345.228769 237.128503,340.773176 239.788803,335.980285 C239.600206,340.461266 239.386222,344.942247 239.500468,349.383333 L239.500468,349.383333 L239.500468,349.383333 Z M211.484816,192.568947 C211.530152,192.793812 211.573674,193.016864 211.617196,193.241729 C208.639547,204.630058 197.039047,212.395157 188.051698,218.996035 C178.141313,226.273323 165.322189,229.633605 153.569361,232.542344 C140.447395,235.790194 126.64358,236.834728 112.988466,236.044073 C121.556914,235.576209 129.956714,234.388414 137.645649,232.761769 C160.273605,227.972505 182.506234,215.733678 198.460775,199.168012 C202.328817,195.151269 205.369936,190.536094 207.827132,185.605383 C209.031248,187.932011 210.260752,190.249573 211.484816,192.568947 L211.484816,192.568947 L211.484816,192.568947 Z M99.672463,47.480188 C98.2815641,49.8993012 97.2207086,52.4580483 96.7383368,54.9460717 C96.0129655,55.1110937 95.2930345,55.2670485 94.562223,55.4411376 C95.7046827,52.5360257 97.5289914,49.9464503 99.672463,47.480188 L99.672463,47.480188 L99.672463,47.480188 Z M105.020263,42.9865131 C104.644883,45.2895668 104.556025,47.6307026 104.632189,50.0606963 C104.254996,51.1632606 104.01381,52.3202278 103.895938,53.5043963 C102.450635,53.7619031 101.007147,54.0194099 99.550964,54.3276927 C100.269081,50.4143148 102.47421,46.2996463 105.020263,42.9865131 L105.020263,42.9865131 L105.020263,42.9865131 Z M94.7816478,28.1961931 C99.623501,23.8258313 101.629152,19.0311273 102.187688,12.6551139 C103.707341,12.7856808 105.22518,12.9162476 106.744833,13.0486278 C107.439376,15.9700606 107.321503,18.8588516 106.391215,21.7186278 C105.040211,27.4236728 100.415969,31.0197008 95.9984581,34.3128863 C90.763091,38.2153836 87.3719804,42.825118 82.9816708,47.5654192 C81.9335094,48.6988118 80.995967,49.9500772 80.1762975,51.266626 C80.8545196,48.2799099 82.0223674,45.2895668 83.6780273,42.2774627 C86.4652663,37.2016773 91.0822544,34.1659986 93.4542184,29.1772578 C93.9130157,28.8889227 94.3609325,28.5751996 94.7816478,28.1961931 L94.7816478,28.1961931 L94.7816478,28.1961931 Z M77.1315516,35.7545617 C80.7330199,31.4095878 86.3002443,31.935482 90.9480607,30.3505458 C88.1789559,34.0354318 83.9899369,36.8807005 81.2153918,40.3788034 C79.1589643,42.9720057 77.967542,46.0820349 76.8033212,49.1340345 C75.7950551,51.7743859 75.3761532,54.5271698 75.3888472,57.2890209 C73.7767096,49.9609577 71.5316855,42.5132083 77.1315516,35.7545617 L77.1315516,35.7545617 L77.1315516,35.7545617 Z M69.5314743,52.6339508 C70.7736726,56.3170234 72.3948773,59.9855885 73.2199871,63.5598554 C72.164572,64.0893764 71.0892091,64.6062034 70.017473,65.1248439 C68.9493639,61.0065486 68.1768435,56.5418885 69.5314743,52.6339508 L69.5314743,52.6339508 L69.5314743,52.6339508 Z M46.4120789,206.066293 C40.8702424,200.384822 31.846624,190.681168 30.2544341,182.442764 C30.1891507,182.0964 29.9842333,181.896922 29.7357936,181.797184 C28.6350428,180.506023 26.4951975,180.056293 25.1314996,181.499782 C23.1059003,183.639627 21.7059338,186.250963 19.7111628,188.441585 C15.6871658,192.862722 8.88499682,187.875795 6.77597989,184.005939 C4.39494873,179.635578 4.14106879,173.475362 7.70082824,169.785036 C12.0893244,165.236958 18.5868374,164.38102 22.7051327,169.420537 C22.6869984,169.536596 22.6888119,169.66535 22.6525433,169.770528 C22.4313051,170.407042 23.138542,170.891227 23.6825705,170.699004 C24.3861806,171.330077 25.71361,170.76066 25.3799392,169.703432 C25.2802007,169.384268 25.1550741,169.072359 25.0245073,168.760449 C26.3918321,165.017533 24.2447332,159.185548 23.7424136,155.727341 C21.4012779,139.618659 24.2701212,126.531148 31.1448273,111.91129 C36.8244843,99.833859 43.4706984,91.406858 53.2414493,82.3070756 C56.9607904,78.8434278 60.8215789,77.0771488 64.9761428,75.1132061 C65.7686109,75.44325 66.713407,74.9862661 66.8530409,74.2137458 C67.620121,73.8401796 68.3944548,73.4557328 69.1832961,73.0386443 C70.6032103,72.2896985 71.99955,71.5298721 73.3922628,70.775486 C72.9933086,72.3948773 72.2352957,73.981627 70.9767765,75.5266677 C70.4998449,76.112405 71.2596713,76.921194 71.8200206,76.3717253 C74.1031266,74.1357683 75.3688995,71.796446 75.9909053,69.3882135 C76.5276801,69.1016918 77.0698951,68.8242373 77.6084832,68.5413425 C78.18334,70.0736893 78.8434278,71.5625138 79.5669856,72.9806146 C80.6768037,75.154915 83.8648103,73.249002 82.8184623,71.0819554 C82.6987761,70.8335157 82.5972241,70.5868895 82.4829781,70.3384498 C84.3181674,70.8951723 86.120715,68.958431 85.1940532,66.9201378 C84.9165987,66.3090125 84.6917336,65.7341558 84.4922565,65.1738065 C85.7090668,64.6370317 86.9512651,64.1347121 88.2152245,63.6614074 C88.5525221,65.4802758 89.187222,67.3136517 90.2027417,69.1452141 C91.3506417,71.2125222 94.4842456,69.7871677 93.9365903,67.5711585 C93.439711,65.5582532 93.2438607,63.6922357 93.274689,61.9332104 C94.4552307,61.5687113 95.6629739,61.2223465 96.883411,60.8923026 C97.5054169,62.9995061 98.8237791,64.8818445 101.07787,66.345281 C102.354524,67.1722043 103.935833,65.171993 102.719023,64.2181298 C101.261027,63.0720432 100.332551,61.6883976 99.813911,60.1578642 C101.59107,59.733522 103.397245,59.3635827 105.210673,59.0353522 C105.823612,59.2058144 106.496394,59.1060759 106.964258,58.7325097 C113.267734,57.7169899 119.640121,57.3778789 125.444904,58.1540261 C131.29321,58.9374271 137.078046,59.5576195 142.803039,61.0446306 C147.991256,62.3920077 153.650966,66.662631 158.436603,69.1415872 C163.86238,71.9505874 168.198286,76.6455529 172.838849,80.5661846 C178.021627,84.9438001 183.955163,90.1791672 187.398863,96.1326518 C192.030359,104.138937 196.600198,113.017481 202.332444,120.338291 C203.286307,121.555101 204.515812,121.676601 205.551279,121.183348 C206.035465,121.114438 206.512396,120.775327 206.695552,120.282074 C207.275849,119.609293 207.645789,118.722526 207.618587,117.792238 C209.945216,114.190769 216.375632,112.899608 219.90275,113.474465 C225.504429,114.384806 227.196358,120.695536 227.845565,125.259935 C228.51472,129.983915 228.431302,134.259979 223.993843,136.945666 C220.671643,138.958571 217.048414,138.380087 213.421557,138.657542 C211.506577,138.804429 210.336916,140.548947 210.596236,142.141137 C210.122932,142.973501 210.044954,144.030729 210.685094,145.13148 C214.351846,151.422262 208.042929,164.143461 206.27665,170.62284 C203.219211,181.828012 197.225831,190.697489 189.096232,198.80714 C174.606941,213.260162 154.876843,220.073212 135.863049,226.291457 C116.780345,232.533277 92.5692654,230.057947 73.6697173,224.728282 C62.7583202,221.652708 54.1354693,213.985533 46.4120789,206.066293 L46.4120789,206.066293 L46.4120789,206.066293 Z M49.2954296,217.088309 C54.0103428,221.387947 59.1477847,225.159878 65.0541202,228.101258 C73.5917399,232.35012 83.3280356,234.685816 93.3798678,235.679574 C94.2992759,235.924387 95.2023631,236.181894 96.16348,236.384998 C103.11979,237.853875 110.039832,238.804111 117.141217,239.121461 C132.223499,239.79787 146.58585,238.559298 161.189386,234.77286 C174.935172,231.209474 186.25459,225.609608 197.695508,217.320428 C203.349777,213.223894 209.70403,207.333879 212.906544,200.52627 C213.640982,205.603869 213.931131,210.734057 213.131409,216.457236 C212.589194,220.345226 211.210988,224.318447 209.473724,228.251773 C209.112852,228.244519 208.744726,228.362392 208.431003,228.654354 C187.857661,247.862185 160.569194,255.092323 133.676055,260.489085 C105.760142,266.090764 73.3179123,259.527968 49.6309138,243.381204 C49.7596672,238.891156 48.8239383,234.183496 48.6462223,229.756918 C48.4775735,225.533444 48.9019157,221.300903 49.2954296,217.088309 L49.2954296,217.088309 L49.2954296,217.088309 Z M53.185233,281.087815 C50.8150824,268.825414 47.9698136,258.204165 49.4822127,245.571825 C72.2298554,265.383527 105.455486,269.128257 134.321635,265.254774 C148.894344,263.298085 163.673783,258.517888 177.528374,253.744946 C186.764164,250.564193 197.155107,245.111214 204.697155,237.828487 C203.219211,240.588524 201.752147,243.270585 200.480934,245.820265 C198.395492,249.99659 196.139587,254.035094 193.785757,257.999248 C193.684205,257.319212 192.875416,256.847721 192.153672,257.431645 C183.353105,264.576552 174.995015,271.705138 165.193436,277.499041 C154.617523,283.748114 140.53988,289.188399 128.868657,293.007478 C106.868146,300.203161 75.6118989,309.776248 55.0258626,293.894245 C54.9061763,293.80176 54.7828632,293.781812 54.6686172,293.803573 C54.3730284,289.498495 54.0194099,285.403774 53.185233,281.087815 L53.185233,281.087815 L53.185233,281.087815 Z M78.4027648,368.212157 C74.4458646,360.311051 70.8534634,352.146997 67.7271133,343.98657 C63.6124448,333.252889 61.9277701,322.530089 59.5558061,311.386573 C58.3535032,305.734117 55.1691234,301.331114 54.7792363,295.39395 C54.773796,295.306905 54.7665423,295.225301 54.761102,295.138256 C72.8246598,312.665039 102.120591,306.328922 123.509976,300.068968 C149.5907,292.439875 175.335939,281.158539 192.75029,259.780034 C184.361371,273.591103 174.476374,286.272406 163.947611,298.746978 C151.211905,313.836514 136.176772,326.994749 121.921413,340.619034 C114.519,347.693218 104.120803,353.570538 95.4508028,359.090613 C90.3188011,362.356597 82.8057683,363.856303 78.509757,368.085217 C78.4662348,368.125112 78.4408468,368.170448 78.4027648,368.212157 L78.4027648,368.212157 L78.4027648,368.212157 Z M101.692622,402.808739 C96.6603593,393.177622 88.2424259,386.502393 82.9889246,376.972828 C82.118479,375.395146 81.2933692,373.773941 80.453752,372.167244 C80.9524447,372.132789 81.4583912,371.933312 81.9171885,371.492648 C83.4930576,369.98569 87.5351889,368.768879 89.4447288,367.811389 C94.2738879,365.388649 98.8836223,363.043887 103.375484,360.010021 C111.764402,354.344872 120.630253,349.341624 128.065308,342.412515 C144.320878,327.264949 160.231896,311.910653 174.380263,294.748369 C188.537696,277.580645 199.985868,259.174349 209.266993,238.954626 C213.15861,230.476849 216.827175,222.90216 217.918859,213.54487 C218.150978,211.550099 218.190873,209.655067 218.102015,207.819878 C219.173751,215.907767 219.768556,227.359566 219.71234,229.009786 C219.320639,240.456144 216.370192,251.759242 213.347207,262.743176 C207.235954,284.93591 200.02395,306.805853 190.305789,327.703799 C173.061901,364.784778 146.049075,396.652151 117.574626,425.605344 C111.162344,418.561989 105.765582,410.599226 101.692622,402.808739 L101.692622,402.808739 L101.692622,402.808739 Z M146.219537,444.998145 C145.934829,445.077936 145.70271,445.199435 145.499606,445.342696 C136.561219,442.156503 128.371777,436.429697 121.255885,429.449812 C152.673528,397.357574 181.037358,362.213337 198.667506,320.546198 C208.215205,297.981712 215.264,274.158706 220.334345,250.19788 C222.539474,239.777922 223.281166,229.336203 222.561235,218.714954 C222.501392,217.828188 222.456056,216.876138 222.408907,215.889633 C224.010164,220.272689 225.314019,224.771804 226.137315,229.459516 C226.269696,230.212089 226.405703,230.961034 226.539897,231.713607 C226.918903,234.856278 227.254387,238.002576 227.408529,241.14706 C227.947117,252.136435 227.437543,263.038765 226.47824,273.988244 C224.449014,297.165669 219.859227,320.103722 213.278297,342.403448 C207.15979,363.129118 198.841595,382.821134 185.888278,400.220977 C178.805027,409.734221 171.154174,418.853951 163.626634,428.017204 C161.102342,431.089151 158.597998,434.13027 155.827079,436.986419 C154.467008,438.386386 148.234256,444.432355 146.219537,444.998145 L146.219537,444.998145 L146.219537,444.998145 Z M222.981951,426.887438 C217.394778,436.80689 208.304063,441.960653 198.10897,445.908486 C187.219334,450.124706 176.099393,450.115639 164.694743,448.427338 C161.044312,447.886936 155.741848,448.391069 151.210091,448.02113 C151.179263,447.943152 151.130301,447.874242 151.092219,447.799891 C155.727341,445.15954 159.92724,440.241523 163.10618,436.580211 C164.935929,434.473008 166.731223,432.331349 168.510196,430.171556 C174.316793,434.590881 192.630604,433.067601 196.159535,432.380312 C204.925646,430.673876 213.85678,426.196522 221.551156,421.76813 C225.114542,419.717143 227.840125,417.058658 230.284626,414.160799 C227.916289,418.464064 225.352101,422.683912 222.981951,426.887438 L222.981951,426.887438 L222.981951,426.887438 Z M240.008227,376.16948 C239.498654,384.964606 237.547405,392.869339 235.160934,401.022512 C231.684592,404.471653 229.236464,408.747716 225.571526,412.093491 C220.176577,417.020576 214.594845,420.014545 207.977646,422.888829 C200.908903,425.957149 195.044277,427.835861 187.311819,428.323673 C185.395025,428.443359 175.604327,428.572113 170.679056,427.49675 C175.638782,421.37099 180.462501,415.118289 185.284406,408.918179 C187.315446,406.306842 189.215918,403.66105 191.058361,400.998938 C201.130141,401.096863 211.99983,395.143378 219.570892,389.043006 C225.109102,384.581973 230.489543,379.718359 234.607838,373.866426 C236.48655,371.195246 238.254642,368.460597 240.13154,365.789417 C240.214958,369.211356 240.211331,372.655056 240.008227,376.16948 L240.008227,376.16948 L240.008227,376.16948 Z" id="Fill-1"></path>
    <path d="M128.515038,46.3939446 C127.827749,46.8527419 127.069736,47.0467787 126.248253,46.9851222 C125.410449,46.9234656 124.710466,47.7322546 124.710466,48.5247227 C124.710466,49.4441307 125.417703,49.9555175 126.248253,50.0625097 C128.014532,50.2891882 129.289372,49.5964587 130.33572,48.2164399 C131.151763,47.1428904 129.581334,45.6848942 128.515038,46.3939446" id="Fill-2"></path>
    <path d="M82.1511208,143.813118 C79.064666,140.188075 73.9399181,138.204185 69.4154149,140.200769 C64.3940324,142.416778 64.3015475,147.958615 67.8177847,151.630807 C68.6374542,152.486745 69.6493471,153.121445 70.7446577,153.54216 C72.630623,154.650165 75.0098407,154.983835 77.2947602,154.468822 C82.1384268,153.375325 85.8142456,148.116383 82.1511208,143.813118" id="Fill-3"></path>
    <path d="M158.980631,124.191825 C159.268966,120.7717 157.326785,117.246396 153.538533,116.524651 C152.472237,116.321547 151.480292,116.394084 150.577205,116.660658 C149.953386,116.742263 149.369462,116.919979 148.82906,117.181112 C148.582434,117.152097 148.328554,117.210127 148.127264,117.416858 C148.018458,117.527477 147.949548,117.654417 147.847996,117.768663 C145.164122,119.754367 143.992647,123.867222 145.519554,126.911968 C146.275753,128.418926 147.383758,129.532371 148.654971,130.221474 C148.673105,130.235981 148.683986,130.254116 148.700307,130.270437 C152.38882,133.708696 158.115626,131.657709 158.946176,126.752386 C159.09125,125.896448 159.073116,125.038696 158.980631,124.191825" id="Fill-4"></path>
    <path d="M123.310499,137.234001 C121.816235,137.110688 120.58673,137.72544 119.257487,138.329311 C117.418671,139.165302 115.764825,139.58783 113.741039,139.77824 C109.662639,140.160874 110.95924,135.62005 112.776295,133.793927 C114.464597,132.098372 116.268958,132.301476 118.41243,132.466498 C119.201271,132.528155 119.331838,131.309531 118.595586,131.115494 C115.710422,130.346601 113.869792,130.052825 111.280217,131.855373 C108.681575,133.666988 107.522794,136.77339 108.304381,139.803628 C109.031566,142.614442 111.956626,143.408724 114.475477,143.47582 C116.062227,143.517529 117.960886,143.240075 119.406189,142.585427 C120.925841,141.898138 122.122704,140.556201 123.682252,139.984971 C125.189211,139.433689 124.90813,137.368194 123.310499,137.234001" id="Fill-5"></path>
    <path d="M168.883762,148.50627 C167.249863,148.199801 165.498092,147.044647 164.208744,146.02006 C162.130556,144.3644 162.108795,141.860056 161.145864,139.566069 C160.997163,139.210637 160.763231,138.991213 160.362463,138.969451 C160.092262,138.954944 159.820248,138.940437 159.550047,138.925929 C158.726751,138.882407 158.677788,140.024867 159.366891,140.278747 C159.439428,140.304135 159.510152,140.331336 159.580876,140.356724 C159.689681,142.398644 159.499271,144.348079 160.088636,146.177828 C148.667665,153.380765 137.620261,161.247416 124.443892,164.997586 C116.936299,167.133804 109.330782,169.184791 101.520347,169.730633 C95.7064961,170.138654 89.4773705,172.927707 84.0425263,170.251087 C83.9282803,167.630683 83.1285585,164.979451 81.906308,162.705412 C81.4656449,161.883929 80.0946932,162.447906 80.3957223,163.341926 C82.1474939,168.52289 80.28873,172.472536 77.5286924,176.81751 C76.2846807,178.777826 79.0229572,180.680112 80.6296545,179.209422 C82.6171718,177.390554 83.6381318,175.056671 83.9500415,172.581342 C91.8420808,178.101417 107.613465,173.857995 115.6669,172.068142 C132.268834,168.379629 149.750282,161.423319 162.166824,149.356768 C163.827924,151.066831 165.884352,152.294521 168.365122,152.339857 C170.530355,152.379753 171.07801,148.919732 168.883762,148.50627" id="Fill-6"></path>
    <path d="M130.205153,172.954908 C128.482396,175.03491 125.595419,175.477387 123.127343,176.170116 C122.401972,176.37322 122.519845,177.620859 123.310499,177.522934 C126.391514,177.142114 129.655684,177.009734 132.087492,174.837247 C133.384093,173.678466 131.29321,171.638359 130.205153,172.954908" id="Fill-7"></path>
    <path d="M22.1955594,177.488479 C21.8473812,176.799376 21.4139719,176.302497 20.9352268,175.939811 C20.6505186,175.573499 20.3531164,175.218067 19.9741099,174.920664 C18.9821647,174.14089 17.8088767,173.852555 16.5594247,173.952294 C14.4540347,174.117316 11.9279292,175.241641 11.3693934,177.464904 C11.101006,178.5312 12.1799958,179.316414 13.0395607,179.073415 C12.7457853,179.695421 12.6913825,180.538665 13.1030307,181.113522 C13.4040598,181.534237 13.6815143,181.90599 14.0750282,182.245101 C15.7705835,183.70491 18.2114578,182.072825 17.5169148,180.058106 C17.649295,179.894898 17.7780484,179.729876 17.9303764,179.570294 C18.1171595,179.378071 18.3166366,179.223929 18.5251808,179.078855 C18.873359,179.42522 19.2469252,179.746197 19.6404392,180.043599 C21.2652708,181.265849 22.9535724,178.989997 22.1955594,177.488479" id="Fill-8"></path>
    <path d="M220.276316,122.489016 C219.737728,122.418293 219.191886,122.423733 218.655111,122.487203 C218.881789,122.353009 219.030491,122.108197 218.916245,121.819861 C217.713942,118.807757 215.349231,120.399947 214.413503,122.6758 C213.276483,125.444904 212.241016,129.24585 212.843074,132.25614 C213.057058,133.327876 214.17413,133.677868 215.108046,133.541861 C216.910593,133.282541 217.60695,131.719366 217.521718,130.047385 C217.481823,129.244036 217.206182,128.578508 217.766531,127.885779 C218.393977,127.113258 219.402243,127.242012 220.276316,127.356258 C221.596491,127.52672 222.709936,126.1195 222.709936,124.922637 C222.709936,123.466454 221.592865,122.659479 220.276316,122.489016" id="Fill-9"></path>
    <path d="M54.6232815,217.761091 C50.9674104,220.381495 48.8330054,225.488108 47.2571364,229.550187 C46.9470402,230.349909 48.2073727,230.667259 48.5265361,229.900179 C49.3788473,227.847378 50.3036957,225.827219 51.3264691,223.854209 C52.3800709,221.82317 53.8362537,220.073212 54.9587657,218.094762 C55.0730117,217.895285 54.8318257,217.610576 54.6232815,217.761091" id="Fill-10"></path>
    <path d="M58.2320035,221.456857 C54.4745804,225.747428 48.9091694,231.418018 49.1467285,237.560099 C49.1811836,238.481321 50.4687176,238.452306 50.5539487,237.560099 C51.1215518,231.601175 55.3939885,226.723053 59.0988222,222.321863 C59.6011418,221.725245 58.7560842,220.858426 58.2320035,221.456857" id="Fill-11"></path>
    <path d="M61.1389288,223.382718 C54.8916689,228.473011 53.7891046,237.097675 51.0997906,244.222634 C50.7643064,245.114841 52.1751535,245.47934 52.5178914,244.612521 C55.2289665,237.745069 56.1048523,229.316255 62.0692175,224.31482 C62.723865,223.765351 61.7881361,222.853197 61.1389288,223.382718" id="Fill-12"></path>
    <path d="M66.1947665,223.848769 C66.2600499,222.974697 64.9326205,222.998271 64.8473894,223.848769 C64.0349736,231.954793 55.7548607,237.857502 57.0061261,246.56377 C57.0532752,246.884747 57.2835806,247.037075 57.5429008,247.060649 C55.2960633,251.211586 54.5054087,255.86303 53.5479186,260.469137 C52.2948398,266.515107 50.4868519,272.459524 51.1124846,278.69953 C51.2013426,279.57723 52.4834363,279.613498 52.5051974,278.69953 C52.6520851,272.582837 53.714754,266.825203 54.9769,260.862651 C56.0141809,255.973649 56.6107988,251.077393 59.2275756,246.705218 C59.5757538,246.123107 58.9211062,245.602653 58.4224135,245.789436 C58.6073831,241.148874 60.4879081,236.927213 62.6948502,232.881455 C64.265279,229.999917 65.9481403,227.183664 66.1947665,223.848769" id="Fill-13"></path>
    <path d="M70.1425996,226.786523 C70.1335324,225.879809 68.7390062,225.877995 68.7353793,226.786523 C68.7226853,230.420633 66.1258562,233.273155 64.4738232,236.316088 C63.7013028,237.737815 63.2207443,239.409796 62.6785293,240.922195 C62.0474563,242.684847 60.932198,245.435818 61.1806377,247.662708 C61.0790857,247.724364 60.9866009,247.807782 60.9303846,247.941976 C55.595279,260.467324 56.023248,274.204042 52.8968979,287.273419 C52.6266971,288.406811 54.3694016,288.885556 54.6377889,287.753977 C57.6444528,275.125263 57.2146703,261.80382 61.9459044,249.608516 C61.9966803,249.675613 62.0220683,249.755404 62.080098,249.81706 C62.6495145,250.439066 63.5526017,249.650225 63.1971698,248.955682 C61.7518675,246.123107 64.3051744,241.103538 65.3134404,238.376142 C66.7950112,234.368466 70.1897487,231.269317 70.1425996,226.786523" id="Fill-14"></path>
    <path d="M73.6660905,228.560056 C72.7031601,231.787958 70.5705686,234.488152 69.361012,237.627196 C67.9265904,241.350164 66.9654735,245.332452 66.7079667,249.314741 C66.6517504,250.177932 68.1006795,250.384663 68.225806,249.519658 C68.7915956,245.586332 69.5749966,241.808962 70.8443963,238.035218 C71.923386,234.829077 74.0849924,232.194166 75.0080273,228.931808 C75.2528401,228.06499 73.9217838,227.702304 73.6660905,228.560056" id="Fill-15"></path>
    <path d="M77.7952663,233.182484 C72.7158541,238.412411 71.5062975,247.274634 71.6277972,254.21281 C71.6441181,255.179367 73.1166217,255.179367 73.1275023,254.21281 C73.2036663,247.650014 73.9344778,239.16861 78.7146744,234.103705 C79.2895311,233.494393 78.3810036,232.580426 77.7952663,233.182484" id="Fill-16"></path>
    <path d="M81.5980252,237.224615 C79.721127,240.053563 78.7817713,243.221622 77.7481172,246.427763 C76.6183515,249.931306 75.116833,253.402208 75.6137123,257.150564 C75.7261448,257.991994 76.9737834,258.055464 76.9774103,257.150564 C76.9864774,253.880953 77.8061469,250.966774 78.8107861,247.893013 C79.9314847,244.460193 80.7692885,240.967531 82.7477386,237.897397 C83.2156031,237.172026 82.0695165,236.513751 81.5980252,237.224615" id="Fill-17"></path>
    <path d="M87.6512483,238.541164 C87.6113529,237.795845 86.4707066,237.786778 86.4888409,238.541164 C86.5668183,242.066468 84.6083159,245.53193 83.3461699,248.741697 C82.2689936,251.489041 81.5980252,254.20737 81.4456972,257.150564 C81.3967346,258.09536 82.8202757,258.071785 82.9000666,257.150564 C83.4422816,250.801752 87.9867325,244.837387 87.6512483,238.541164" id="Fill-18"></path>
    <path d="M91.8275733,247.825916 C88.441903,248.284713 87.4753458,254.486638 87.4300101,257.150564 C87.4155027,257.950285 88.6649547,257.950285 88.6685815,257.150564 C88.6794621,254.981704 89.4175273,249.300233 92.1068413,248.845063 C92.7868768,248.729003 92.4858478,247.737058 91.8275733,247.825916" id="Fill-19"></path>
    <path d="M93.9148291,261.499164 C93.7080983,261.239844 93.4995541,260.980524 93.2928233,260.721204 C92.9464585,260.289608 92.1975127,260.866278 92.5239297,261.316008 C92.6000937,261.421187 92.6780711,261.526366 92.7542351,261.631545 C92.7397277,261.640612 92.7306606,261.642425 92.7143397,261.651492 C92.3298929,261.858223 92.4840343,262.556393 92.9464585,262.50743 C93.2438607,262.474789 93.4052558,262.451214 93.689964,262.355102 C94.0816645,262.224536 94.1596419,261.80382 93.9148291,261.499164" id="Fill-20"></path>
    <path d="M55.1981382,242.458169 C54.7520349,246.75962 52.6919805,250.870662 51.6891548,255.077815 C50.6645679,259.3702 49.7995626,263.606368 48.2581487,267.755491 C48.0078956,268.428273 49.1231539,268.899765 49.4187427,268.245117 C51.2702529,264.155837 52.0989895,259.816303 53.0147707,255.444128 C53.9287385,251.071952 55.9543378,246.922829 56.2553668,242.458169 C56.3007025,241.77088 55.2670485,241.794454 55.1981382,242.458169" id="Fill-21"></path>
    <path d="M65.1611125,251.273243 C65.1194036,250.480775 63.8953396,250.471708 63.922541,251.273243 C64.1655404,258.577732 61.1951451,266.18869 59.7824846,273.326343 C58.4786297,279.914527 57.5247665,286.667734 57.8928925,293.390112 C57.9472953,294.380243 59.4143587,294.392937 59.4379332,293.390112 C59.619276,285.536154 60.5132961,277.890741 62.0148146,270.180045 C63.2261846,263.959986 65.5020369,257.669204 65.1611125,251.273243" id="Fill-22"></path>
    <path d="M61.8860612,302.205186 C61.8860612,302.049231 61.779069,301.973067 61.6593827,301.951306 C62.0130012,301.931358 62.3521123,301.695613 62.3611794,301.225935 C62.6640219,285.989511 68.8840804,271.447631 68.0317692,256.171312 C67.9918738,255.465889 66.90019,255.458635 66.9292049,256.171312 C67.5602779,271.538303 60.1215956,285.906094 60.8469669,301.225935 C60.868728,301.688359 61.2060257,301.924105 61.5578307,301.949493 C61.436331,301.96944 61.3238985,302.045604 61.3202716,302.205186 C61.2078391,308.122402 61.8135241,313.985215 62.1326875,319.88611 C62.4736119,326.173266 62.6241265,332.420526 64.0839361,338.571674 C64.227197,339.170105 65.1248439,338.914412 64.9997174,338.319607 C63.7194371,332.221049 63.3513112,326.088035 62.9886255,319.88611 C62.6422608,313.985215 61.9096358,308.124215 61.8860612,302.205186" id="Fill-23"></path>
    <path d="M73.6425159,256.95834 C72.6143021,263.631756 70.813568,270.125642 70.0065925,276.90061 C68.9620579,285.670348 67.4224574,294.374803 66.7460487,303.186251 C66.6825787,304.00592 68.0662243,304.199957 68.1895375,303.380287 C69.3338106,295.769329 70.2568455,288.123916 71.2397236,280.491197 C71.771058,276.362021 72.1500645,272.216525 72.7339884,268.092789 C73.2508154,264.440545 74.5256554,260.964203 75.0297884,257.340974 C75.1567284,256.4397 73.7857767,256.038932 73.6425159,256.95834" id="Fill-24"></path>
    <path d="M90.6651659,388.217896 C87.5605769,380.387514 85.2085606,372.245221 81.7684874,364.556286 C81.7104577,364.429346 81.6306669,364.351368 81.5418089,364.295152 C80.9941536,361.342891 80.0094621,358.452287 79.3747623,355.521787 C78.0110643,349.229191 77.3926853,342.655514 76.5349338,336.279501 C75.0515496,325.226656 74.3878349,314.084954 73.2326811,302.997654 C73.689665,303.062937 74.1956115,302.809057 74.1992383,302.205186 C74.2536412,289.104981 76.0017859,275.009204 78.8887635,262.222722 C79.0755466,261.397612 77.8170275,261.045807 77.6193638,261.872731 C76.0199202,268.613243 75.3471384,275.507897 74.3152977,282.348148 C73.4031434,288.401371 72.5399516,294.483609 72.5381382,300.612996 C72.1301168,300.491496 71.6423046,300.68916 71.6967075,301.225935 C72.8645552,312.902599 73.4230911,324.633665 74.901035,336.279501 C75.5865109,341.678076 76.353591,347.063958 77.1641934,352.444399 C77.9566615,357.716035 79.5071425,362.790007 80.4700729,368.029001 C80.5970128,368.71629 81.5019135,368.696342 81.8228903,368.215784 C84.4033985,375.043341 86.0971404,382.233583 89.4193408,388.741977 C89.767519,389.423826 90.9516875,388.939641 90.6651659,388.217896" id="Fill-25"></path>
    <path d="M99.509255,397.023903 C97.5036034,391.170157 95.2005497,385.42159 93.0643313,379.61318 C92.0270504,376.793299 91.1221498,373.931709 90.1465254,371.090067 C89.1817817,368.275627 87.4082489,365.120262 86.7808028,362.095464 C86.7989371,361.995725 86.8007505,361.88692 86.7699222,361.76542 C86.7209597,361.58045 86.6810643,361.393667 86.6339151,361.208697 C86.624848,361.13072 86.6030868,361.050929 86.5958331,360.972952 C86.5922063,360.94575 86.5686317,360.936683 86.561378,360.911295 C84.2057348,351.519551 83.003432,342.080657 82.0441285,332.4441 C81.1210936,323.190176 79.064666,313.967081 78.7745175,304.667821 C78.8978307,304.551762 78.9812484,304.38674 78.9812484,304.165502 C78.9957558,295.959739 81.059437,287.980656 81.728592,279.831109 C81.9679645,276.918744 83.5946096,272.162122 81.75398,269.554412 C81.2770484,268.878003 80.1527229,269.51633 80.631468,270.210873 C82.423135,272.811329 80.4338043,278.56171 80.1527229,281.575627 C79.445486,289.186585 77.349163,296.467499 77.526879,304.165502 C77.5341327,304.424822 77.653819,304.606165 77.8170275,304.722224 C77.9566615,314.569139 79.9332981,324.40336 80.7964899,334.203126 C81.6215997,343.573109 82.296195,353.198785 85.4116646,362.1408 C85.489642,362.362038 85.6365296,362.499858 85.8051785,362.570582 C86.6157808,367.2456 89.1727145,371.987714 90.5581736,376.461442 C92.7469814,383.531998 95.5650487,390.464734 98.1364899,397.40291 C98.4520264,398.251594 99.810284,397.901603 99.509255,397.023903" id="Fill-26"></path>
    <path d="M85.3935303,274.780712 C85.4080377,283.653816 83.1485062,292.354644 83.3588639,301.225935 C83.3824385,302.221507 84.8893973,302.22332 84.9039047,301.225935 C85.0344715,292.367338 86.8896085,283.642935 86.7862431,274.780712 C86.7753625,273.883065 85.3917168,273.883065 85.3935303,274.780712" id="Fill-27"></path>
    <path d="M90.1773537,282.616535 C90.1973014,287.534552 89.3395499,292.312935 88.2170379,297.084065 C87.9685982,298.141293 89.5970567,298.58921 89.8400561,297.531982 C90.9752621,292.610338 91.8420808,287.683253 91.7985585,282.616535 C91.7894913,281.570187 90.1719134,281.570187 90.1773537,282.616535" id="Fill-28"></path>
    <path d="M97.324074,297.82757 C96.9958436,297.502967 96.6676131,297.178363 96.3393826,296.853759 C95.7500184,296.269836 94.8469312,297.172923 95.4308551,297.762287 C95.7554587,298.090517 96.0800623,298.418748 96.404666,298.746978 C96.9940301,299.34541 97.9206919,298.418748 97.324074,297.82757" id="Fill-29"></path>
    <path d="M67.1703908,327.482561 C66.5647058,322.047717 66.2219679,316.578417 66.0097968,311.116372 C65.8502152,307.019838 66.8349066,302.297671 65.6235366,298.377039 C65.5636935,298.184816 65.3043733,298.094144 65.1574856,298.253726 C64.8981654,298.538434 64.6388452,298.821329 64.3795249,299.104224 C64.1800478,299.323649 64.4865172,299.630118 64.7041286,299.430641 C64.9471279,299.205776 65.0631873,305.596297 65.0613739,305.668834 C65.0124113,308.087947 65.0776948,310.510687 65.1411647,312.927987 C65.2681047,317.787974 65.6162829,322.642521 66.044252,327.482561 C66.9745406,338.018578 68.6501482,348.49838 69.7907945,359.014449 C69.8760256,359.801477 71.0892091,359.835932 71.0456868,359.014449 C70.4889643,348.447604 68.3436789,337.98775 67.1703908,327.482561" id="Fill-30"></path>
    <path d="M72.9316521,331.522879 C72.2661239,326.049953 71.7910058,320.557079 71.3104473,315.064205 C70.8879185,310.204217 69.9231748,305.121178 70.0664356,300.246684 C70.0900102,299.434268 68.8496253,299.443335 68.8115433,300.246684 C68.6066259,304.535441 69.3646389,308.965646 69.7001231,313.24715 C70.1299056,318.72733 70.5451806,324.209323 71.1091568,329.678622 C72.2516165,340.773176 73.7495082,351.797005 74.5057077,362.933268 C74.574618,363.965108 76.1559273,363.986869 76.1269125,362.933268 C75.8403908,352.409944 74.1974249,341.959158 72.9316521,331.522879" id="Fill-31"></path>
    <path d="M110.232056,415.453774 C105.801851,405.209718 102.900366,394.488731 99.643449,383.842094 C97.6867597,377.447947 96.0564878,370.611322 93.4197632,364.344115 C93.4324572,364.356809 93.4415244,364.371316 93.4560318,364.382197 C94.1034257,364.944359 94.9702443,364.086608 94.397201,363.441028 C91.1239632,359.765209 90.9244861,352.368235 90.0377198,347.760314 C88.8753123,341.723412 87.8815537,335.655681 86.9657725,329.578884 C85.3917168,319.120844 85.9411856,306.831241 81.7340323,296.99158 C81.4565778,296.340559 80.314118,296.821118 80.5879457,297.475765 C82.9109471,303.010348 83.2210434,309.589465 83.8811312,315.486734 C84.5575399,321.538143 85.1886129,327.580486 86.0790061,333.604694 C86.9802799,339.695999 88.0338817,345.76373 89.1854085,351.811513 C89.5716687,353.844366 89.7910935,356.181875 90.3061071,358.387003 C89.7711458,358.147631 89.0276403,358.724301 89.4012065,359.369881 C94.2648208,367.818643 96.3720243,378.345593 99.103047,387.652107 C101.941062,397.326746 104.546958,407.092056 108.962656,416.193652 C109.383371,417.058658 110.600181,416.302458 110.232056,415.453774" id="Fill-32"></path>
    <path d="M97.5507526,352.948532 C95.3238628,344.079055 93.5593972,335.216832 92.0832667,326.193213 C90.7830387,318.237704 90.3677637,309.678323 87.696584,302.03291 C87.4227564,301.247696 86.171491,301.581367 86.4435052,302.379275 C89.0367074,310.030128 89.3812588,318.623964 90.6107631,326.599421 C91.9925953,335.563197 93.2347936,344.717382 96.1779875,353.327539 C96.4735762,354.188917 97.7756177,353.846179 97.5507526,352.948532" id="Fill-33"></path>
    <path d="M103.389991,353.938664 C100.965438,345.549745 99.61262,337.084663 98.3450341,328.458185 C96.9559481,319.022919 94.3355445,309.763554 93.5593972,300.246684 C93.4959272,299.466909 92.2736767,299.457842 92.3335198,300.246684 C93.0298762,309.313824 95.4145342,318.132525 96.7764187,327.107181 C98.158251,336.216031 98.9634131,345.569693 102.091577,354.295909 C102.381725,355.102885 103.634804,354.783722 103.389991,353.938664" id="Fill-34"></path>
    <path d="M109.274566,348.05953 C106.276969,334.917616 104.091788,321.592546 99.413143,308.898549 C99.142942,308.167738 97.967841,308.47602 98.2326015,309.224966 C102.757105,321.958859 104.726488,335.341958 107.961644,348.422216 C108.172001,349.27634 109.470416,348.913655 109.274566,348.05953" id="Fill-35"></path>
    <path d="M114.091031,335.349212 C112.979399,329.694943 112.709198,323.790421 110.159518,318.527853 C109.793206,317.771653 108.677948,318.433554 109.035193,319.184314 C111.496015,324.348957 111.561298,330.191822 112.939504,335.666562 C113.129914,336.419135 114.237918,336.096345 114.091031,335.349212" id="Fill-36"></path>
    <path d="M119.04713,421.329281 C114.562522,412.307476 112.188745,402.567553 109.202028,392.998093 C107.709577,388.217896 106.052104,383.484849 104.490742,378.726413 C102.742597,373.402188 100.080485,367.528495 99.482054,361.954016 C99.391382,361.123466 98.0911542,361.101705 98.1655047,361.954016 C98.5626455,366.532923 100.524775,371.110015 101.883032,375.487631 C103.745423,381.486451 105.743821,387.441749 107.629786,393.431502 C110.683599,403.135156 112.821631,413.094504 117.77773,422.070973 C118.240154,422.906963 119.466032,422.170711 119.04713,421.329281" id="Fill-37"></path>
    <path d="M123.002217,416.617994 C119.232099,406.847244 116.388644,396.661218 113.302189,386.654721 C111.65741,381.317802 110.061593,375.966376 108.280807,370.671166 C106.755714,366.128528 104.414578,361.551435 103.3102,356.899992 C103.134298,356.1583 102.013599,356.473837 102.173181,357.211902 C103.181447,361.861532 105.450046,366.498467 106.966071,371.033851 C108.735977,376.329061 110.264697,381.704062 111.865954,387.051862 C114.810962,396.891523 116.958061,408.022345 121.72919,417.154769 C122.090062,417.845685 123.288738,417.359687 123.002217,416.617994" id="Fill-38"></path>
    <path d="M126.904714,413.683868 C123.127343,402.293726 120.088038,390.704106 116.533718,379.248681 C114.003986,371.090067 112.589512,361.428122 107.167362,354.587871 C106.590692,353.860687 105.587866,354.885274 106.150029,355.605205 C111.5885,362.556075 112.99028,373.086652 115.510945,381.393966 C118.815011,392.283602 121.214176,403.512349 125.591792,414.046553 C125.918209,414.831768 127.187609,414.537992 126.904714,413.683868" id="Fill-39"></path>
    <path d="M129.813453,401.938294 C126.647207,386.895907 122.202495,371.855334 114.01124,358.726114 C113.619539,358.098668 112.633034,358.671712 113.019295,359.304598 C121.14708,372.589773 124.741294,387.367398 128.560374,402.284658 C128.768918,403.102514 129.985728,402.754336 129.813453,401.938294" id="Fill-40"></path>
    <path d="M134.668,396.073667 C131.936977,388.774619 130.000236,381.174541 127.470504,373.799329 C125.620807,368.40438 123.691319,362.887932 119.841411,358.566533 C119.293756,357.951781 118.405176,358.851241 118.943764,359.46418 C127.593817,369.332856 128.435247,384.853987 133.561809,396.539718 C133.83745,397.165351 134.905559,396.713807 134.668,396.073667" id="Fill-41"></path>
    <path d="M137.623888,385.10968 C134.399612,377.875916 132.154588,370.259517 127.757025,363.602423 C127.323616,362.947775 126.268201,363.555274 126.699797,364.220802 C131.037517,370.914165 133.199123,378.581339 136.421585,385.811477 C136.786084,386.631147 137.986573,385.922096 137.623888,385.10968" id="Fill-42"></path>
    <path d="M142.173779,372.723966 C142.142951,372.526303 141.93078,372.417497 141.753064,372.404803 C141.121991,372.359467 140.630552,372.589773 140.09559,372.903496 C139.052869,373.520061 138.158849,373.527315 137.86326,372.178124 C137.5985,370.964941 137.551351,369.782586 136.149571,369.405393 C135.725228,369.291147 135.420573,369.943981 135.843101,370.132577 C137.362754,370.814426 136.58842,372.72578 137.685544,373.81021 C138.905981,375.017953 140.164501,373.572651 141.417579,373.326024 C141.453848,373.489233 141.49193,373.652441 141.528199,373.813837 C141.647885,374.33429 142.389577,374.103985 142.311599,373.599852 C142.26445,373.30789 142.219115,373.015928 142.173779,372.723966" id="Fill-43"></path>
    <path d="M135.462281,442.03863 C133.028661,440.306806 131.311344,437.385374 129.748169,434.904604 C127.000826,430.545123 124.262549,426.098597 120.717297,422.33392 C120.278448,421.867869 119.625613,422.549718 120.024568,423.02665 C123.308686,426.943654 125.861993,431.281374 128.61115,435.570132 C129.644804,437.178643 130.674831,438.741818 131.842679,440.261471 C132.874519,441.603407 134.764112,443.046896 135.574714,444.503079 C135.87937,445.050734 136.717174,444.673541 136.566659,444.084177 C136.363555,443.286269 136.184026,442.55183 135.462281,442.03863" id="Fill-44"></path>
    <path d="M142.336987,445.770665 C138.521535,442.167384 136.350861,437.583037 133.659734,433.169153 C130.821719,428.510456 127.891219,423.797356 124.543631,419.486838 C124.289751,419.158607 123.772924,419.581136 123.979654,419.923874 C127.006266,424.979712 130.303078,429.872341 133.293421,434.95538 C135.745176,439.122638 137.593059,443.56191 141.502811,446.604842 C142.084921,447.056386 142.90459,446.30744 142.336987,445.770665" id="Fill-45"></path>
    <path d="M149.20988,445.754344 C145.129667,441.550818 142.26445,436.67451 139.167115,431.752866 C135.774191,426.363357 131.213419,421.840668 127.729824,416.509189 C127.321802,415.885369 126.32079,416.46204 126.725185,417.096739 C130.15075,422.46086 134.550127,427.090542 137.9902,432.441968 C141.190901,437.418015 143.706126,442.776695 148.343061,446.61935 C148.941493,447.116229 149.768416,446.331015 149.20988,445.754344" id="Fill-46"></path>
    <path d="M155.101708,443.779521 C147.595929,434.398657 142.275331,423.860826 133.574503,415.352222 C132.961564,414.751977 132.024022,415.689519 132.633333,416.295204 C137.324672,420.946647 141.30696,426.127612 145.06801,431.547948 C148.118196,435.943698 150.515548,440.761977 154.204061,444.677168 C154.777105,445.28648 155.602214,444.403341 155.101708,443.779521" id="Fill-47"></path>
    <path d="M158.050342,436.912069 C153.464183,432.623311 149.683185,427.719802 146.156067,422.540651 C144.659989,420.344589 143.243702,418.094125 141.816534,415.854541 C140.969663,414.525298 140.122792,413.196056 139.272294,411.87044 C138.987586,411.433403 138.704691,410.998181 138.421796,410.562958 C138.262214,409.721527 137.866887,409.284491 137.259389,409.217394 C137.375448,409.092268 137.415343,408.88735 137.277523,408.713261 C137.065352,408.444874 136.854994,408.1783 136.644637,407.909913 C136.339981,407.521839 135.705281,408.025972 135.966414,408.43218 C142.500196,418.580124 147.996697,429.690998 157.130934,437.831477 C157.75294,438.386386 158.666908,437.488739 158.050342,436.912069" id="Fill-48"></path>
    <path d="M159.138399,431.163502 C154.089815,421.860615 145.557636,415.062073 140.588843,405.663075 C140.149993,404.832525 138.900541,405.566963 139.33395,406.3957 C144.222953,415.76387 152.116805,423.113694 158.003193,431.827216 C158.474685,432.525386 159.548234,431.916074 159.138399,431.163502" id="Fill-49"></path>
    <path d="M164.016521,426.278126 C161.918385,423.425604 160.133971,420.342776 157.961484,417.548283 C155.39367,414.247844 152.495812,411.252061 150.336019,407.648779 C149.891729,406.905273 148.732949,407.578055 149.173612,408.328814 C150.92357,411.30465 153.121445,413.879718 155.31932,416.527323 C158.102932,419.878538 160.230083,423.699431 163.019135,427.04702 C163.479746,427.598302 164.44449,426.858423 164.016521,426.278126" id="Fill-50"></path>
    <path d="M166.023986,421.536012 C164.003827,416.645196 160.155732,412.938549 157.232486,408.604455 C156.717473,407.841002 155.475274,408.55368 155.990288,409.329827 C158.851878,413.647599 162.400756,417.444918 164.892407,422.012943 C165.222451,422.618628 166.296,422.192473 166.023986,421.536012" id="Fill-51"></path>
    <path d="M167.732235,414.498097 C166.832775,413.433615 165.866218,412.45799 164.879713,411.473299 C164.321177,410.914763 163.456172,411.779768 164.014708,412.338304 C164.999399,413.324809 165.975023,414.291366 167.039506,415.190827 C167.523691,415.598848 168.140257,414.982282 167.732235,414.498097" id="Fill-52"></path>
    <path id="Fill-53" d="M169.462246,412.755393 L169.462246,413.014713 L169.462246,412.755393"></path>
    <path d="M157.038449,450.657854 C154.898604,448.516196 153.382578,445.85771 151.244547,443.719678 C150.586272,443.063217 149.570752,444.078737 150.227213,444.737011 C152.39426,446.914938 153.794226,449.772901 156.307638,451.606277 C156.873427,452.019739 157.511754,451.129346 157.038449,450.657854" id="Fill-54"></path>
    <path d="M162.977427,448.838986 C161.443266,446.285679 159.187362,444.151274 157.890761,441.460147 C157.174457,439.973136 156.583279,438.232245 154.795239,437.835104 C154.122457,437.686403 153.837749,438.709176 154.510531,438.868758 C156.274996,439.284033 156.809957,441.998735 157.658642,443.3715 C158.960683,445.47689 160.616343,447.359228 161.999989,449.412029 C162.404383,450.01046 163.358247,449.471872 162.977427,448.838986" id="Fill-55"></path>
    <path d="M158.955243,436.008982 C158.492819,435.475834 157.74206,436.244727 158.186349,436.776062 C160.639918,439.702935 164.680236,443.083165 164.890593,447.167005 C164.926862,447.852481 165.956889,447.861548 165.962329,447.167005 C166.005852,442.653382 161.662691,439.131705 158.955243,436.008982" id="Fill-56"></path>
    <path d="M175.221693,451.459389 C172.461656,451.27986 170.952884,446.920379 169.73426,444.923794 C167.650631,441.510923 165.639539,437.938469 162.888569,435.01341 C162.380809,434.473008 161.63005,435.261849 162.088847,435.813131 C165.0266,439.358383 167.382244,443.493 169.576492,447.533317 C170.742526,449.680416 172.380052,452.806767 175.221693,452.668946 C176.003281,452.630864 175.997841,451.510165 175.221693,451.459389" id="Fill-57"></path>
    <path d="M178.505812,449.758394 C176.137475,447.125296 175.058485,443.643514 173.049207,440.760163 C170.907548,437.684589 168.007876,435.15667 165.686688,432.21529 C165.429181,431.888873 164.861578,432.325909 165.110018,432.65958 C167.51281,435.880228 170.452377,438.691042 172.661133,442.053138 C174.503576,444.856698 175.355887,448.053771 177.813082,450.451123 C178.268253,450.895413 178.926527,450.226258 178.505812,449.758394" id="Fill-58"></path>
    <path d="M185.422227,448.719299 C181.21326,443.362433 175.265216,438.509699 172.285753,432.318655 C171.328263,430.325698 170.156789,426.145746 167.38587,426.131239 C166.783812,426.127612 166.785626,427.050647 167.38587,427.065154 C169.647215,427.114117 172.336529,434.58 173.580541,436.344466 C176.862846,441.001349 180.790731,445.313681 184.609811,449.531715 C185.119384,450.092065 185.866517,449.286903 185.422227,448.719299" id="Fill-59"></path>
    <path d="M191.304988,445.776106 C184.102051,439.655786 179.914846,431.174382 173.711108,424.19087 C173.165266,423.576118 172.276686,424.475579 172.813461,425.088517 C178.984557,432.135499 182.919696,441.039431 190.599564,446.690073 C191.132712,447.081774 191.805494,446.202261 191.304988,445.776106" id="Fill-60"></path>
    <path d="M197.240338,443.75776 C188.860487,436.980979 185.012392,426.901945 177.689769,419.232958 C177.047816,418.560176 176.034109,419.577509 176.672436,420.250291 C183.898947,427.857622 187.449639,438.876012 196.433362,444.804108 C197.060809,445.215756 197.831516,444.234692 197.240338,443.75776" id="Fill-61"></path>
    <path d="M201.217186,439.022899 C199.015684,435.838519 196.023528,433.354123 193.71322,430.253161 C191.518972,427.308153 189.774454,424.072998 187.489535,421.18602 C186.907424,420.451582 185.888278,421.487049 186.461321,422.214234 C188.909449,425.318823 190.808108,428.796978 193.163752,431.968664 C195.254634,434.786731 197.98747,437.089785 200.254256,439.764591 C200.703986,440.294112 201.6107,439.592316 201.217186,439.022899" id="Fill-62"></path>
    <path d="M210.122932,419.193062 C209.816462,418.750586 209.529941,418.302669 209.248859,417.856566 C209.707657,417.582738 210.166454,417.305284 210.625251,417.047777 C210.944414,416.868248 210.659706,416.384062 210.338729,416.558151 C209.872678,416.813845 209.406627,417.089486 208.938763,417.363313 C207.616774,415.248856 206.343747,413.264966 203.781373,412.323797 C203.072323,412.064476 202.782174,413.179735 203.471277,413.446309 C205.627443,414.276859 206.762649,416.117488 207.8634,417.9962 C206.097121,419.062496 204.321775,420.181381 202.501093,421.193274 C201.434797,419.867658 200.350367,418.558363 199.226042,417.285336 C198.623984,416.601674 197.637479,417.600873 198.23047,418.280908 C199.249616,419.445129 200.210733,420.663753 201.151903,421.902324 C200.01307,422.482621 198.857916,423.013956 197.666494,423.42379 C196.689056,421.621243 195.775088,419.78968 194.362428,418.231946 C193.709593,417.513828 192.654178,418.57831 193.301572,419.292801 C194.527449,420.649245 195.412402,422.223301 196.275594,423.811864 C195.163963,424.105639 194.03057,424.332318 192.851842,424.386721 C192.527238,424.401228 192.525425,424.903548 192.851842,424.890854 C194.123055,424.843705 195.341679,424.607959 196.536728,424.292422 C197.27842,425.659747 198.027366,427.025259 198.990296,428.262017 C201.409409,431.364792 204.116858,434.264464 207.072745,436.863106 C207.716512,437.428896 208.594212,436.562077 208.015728,435.921937 C205.134191,432.742998 202.031415,429.854206 199.478108,426.383305 C198.894184,425.589024 198.399119,424.749406 197.927627,423.898908 C199.148064,423.483633 200.33586,422.955926 201.500081,422.368375 C204.225663,425.993418 206.798918,429.768975 210.028633,432.929781 C210.634318,433.522772 211.443107,432.652326 210.937161,432.01944 C208.207951,428.608381 205.596615,425.07401 202.863779,421.652071 C204.664513,420.660126 206.421725,419.564815 208.162616,418.50396 C208.431003,418.960944 208.703017,419.416114 208.991352,419.85315 C210.547274,422.203353 212.474948,424.700444 212.839447,427.578354 C212.930118,428.301912 213.97828,428.347248 214.001854,427.578354 C214.097966,424.421176 211.827554,421.655698 210.122932,419.193062" id="Fill-63"></path>
    <path d="M211.076795,412.537781 C210.581729,411.808783 209.388493,412.494259 209.887186,413.232324 C212.20656,416.666957 213.822325,420.373604 215.856991,423.953311 C216.181595,424.522728 217.11551,424.140094 216.91966,423.505395 C215.711917,419.592017 213.363528,415.899877 211.076795,412.537781" id="Fill-64"></path>
    <path d="M217.833628,414.554313 C216.828989,413.185175 216.201543,411.56397 214.859606,410.466846 C214.219466,409.940952 213.294617,410.845853 213.940198,411.386254 C215.225918,412.461617 215.717357,414.115464 216.932354,415.25067 C217.389338,415.676825 218.234396,415.100155 217.833628,414.554313" id="Fill-65"></path>
    <path d="M98.2815641,252.794709 C96.9904033,251.741107 97.0520598,249.624837 96.4463748,248.181348 C96.1616666,247.503126 95.0427814,247.789648 95.3238628,248.489631 C96.0002715,250.168865 95.9150404,252.421143 97.4056783,253.670595 C98.0168036,254.183795 98.8999431,253.297029 98.2815641,252.794709" id="Fill-68"></path>
    <path d="M208.353026,244.371336 C206.497889,249.323808 204.294573,254.21825 202.185557,259.074611 C200.373942,263.247309 197.195002,266.366405 194.920963,270.234448 C192.518171,274.323728 191.248771,278.38218 188.262055,282.215767 C185.402279,285.886146 182.769181,289.60186 180.420792,293.625857 C175.399409,302.232387 167.598042,309.995673 161.073327,317.525027 C154.427113,325.192201 147.249564,332.386071 139.738345,339.20456 C139.439129,339.476575 139.883419,339.917238 140.182635,339.647037 C148.159905,332.435033 155.709207,324.811381 162.823285,316.743439 C169.155776,309.562264 176.43125,302.420984 181.260409,294.115483 C183.888067,289.59642 186.798619,285.456364 189.992066,281.31268 C192.851842,277.606033 193.97254,273.339037 196.25746,269.313226 C198.270365,265.767974 201.041283,263.123996 202.647981,259.268648 C204.695341,254.357884 206.864201,249.463442 208.69395,244.46382 C208.771928,244.249836 208.432817,244.160978 208.353026,244.371336" id="Fill-69"></path>
    <path d="M222.057102,259.910601 C220.965418,261.143732 220.74418,262.49111 220.528382,264.106874 C220.006115,267.994864 218.687753,271.598146 217.445554,275.304793 C214.689144,283.53413 212.164852,291.787041 209.072957,299.907572 C205.892204,308.258409 202.392287,316.402515 198.759991,324.561128 C195.682603,331.468476 192.868163,338.419346 187.770616,344.138898 C187.549378,344.387338 187.908437,344.75365 188.138742,344.507024 C192.679566,339.661544 195.486753,333.695366 198.185134,327.696545 C201.260708,320.859921 204.463222,314.117595 207.21782,307.141337 C210.436655,298.989978 213.463266,290.786029 216.098177,282.426125 C217.30592,278.596165 218.430246,274.740817 219.639802,270.909043 C220.544703,268.047453 220.504808,262.471162 222.414348,260.267847 C222.626519,260.023034 222.274714,259.665788 222.057102,259.910601" id="Fill-70"></path>
    <path id="Fill-71" d="M178.529386,356.972529 L178.529386,357.139365 C180.342815,357.139365 180.342815,356.972529 178.529386,356.972529"></path>
    <path d="M236.771258,327.515203 C232.14339,332.549279 228.126646,338.092929 223.389972,343.076229 C218.544492,348.171963 213.419744,352.997495 208.280489,357.792199 C207.954071,358.096855 208.44007,358.577413 208.766487,358.278198 C213.967399,353.541523 219.104841,348.743192 224.051873,343.738131 C229.024293,338.705868 232.843373,333.334493 237.119436,327.78359 C237.275391,327.582299 236.939907,327.332046 236.771258,327.515203" id="Fill-72"></path>
    <path d="M233.653975,366.514788 C224.483469,375.547474 214.482413,383.410498 203.436822,390.034951 C203.02336,390.281578 203.395113,390.923531 203.815828,390.682345 C215.001053,384.212034 225.359355,376.519471 234.324944,367.185757 C234.749286,366.745094 234.091011,366.085006 233.653975,366.514788" id="Fill-73"></path>
    <path d="M196.612892,243.281465 C193.582653,246.137615 190.594124,249.013712 187.203013,251.447332 C183.960604,253.772147 180.039972,255.210196 176.416743,256.816893 C168.058652,260.52354 159.546421,262.701467 150.655182,264.683544 C142.030518,266.605778 133.469324,268.10911 124.6071,267.663007 C115.701355,267.21509 106.759341,267.461716 97.8445279,267.496171 C97.2914323,267.497985 97.2914323,268.350296 97.8445279,268.353923 C106.759341,268.393818 115.704982,268.217916 124.6071,268.727489 C133.579943,269.242503 142.213674,267.653939 150.954398,265.764347 C159.972576,263.814912 168.493875,261.455642 176.953517,257.736301 C185.124825,254.1439 190.851631,250.092701 196.926615,243.595188 C197.122465,243.384831 196.821436,243.083802 196.612892,243.281465" id="Fill-74"></path>
    <path d="M207.235954,213.746161 C197.037234,222.960189 184.892706,228.618085 171.874105,232.691045 C156.98586,237.349742 141.861869,239.991907 126.248253,240.269361 C125.952664,240.274801 125.952664,240.726345 126.248253,240.729972 C142.032332,240.838777 157.101919,238.410597 172.191455,233.840758 C185.340623,229.860283 197.842396,223.930373 207.85252,214.362727 C208.262354,213.971026 207.651229,213.370781 207.235954,213.746161" id="Fill-75"></path>
    <path d="M203.491225,199.226042 C202.843831,199.884316 202.196437,200.542591 201.549043,201.202678 C201.394902,201.35682 201.630648,201.592566 201.786602,201.440238 C202.444877,200.792844 203.103151,200.14545 203.761426,199.498056 C203.937328,199.323967 203.6635,199.050139 203.491225,199.226042" id="Fill-76"></path>
    <path d="M57.8965193,199.149878 C57.6009305,198.921386 57.1765883,199.318527 57.4739905,199.572407 C60.2358416,201.929863 56.2444863,205.669152 58.2555781,208.416496 C58.6091966,208.900681 59.4216124,208.452764 59.0752476,207.937751 C57.2491255,205.217608 60.9720934,201.530909 57.8965193,199.149878" id="Fill-77"></path>
    <path d="M63.1409535,202.299803 C62.7601336,205.24481 62.0728443,208.133601 62.0619638,211.114877 C62.0601503,211.787659 63.1155655,211.785845 63.1028715,211.114877 C63.0466552,208.144481 63.6686611,205.242996 63.9841976,202.299803 C64.0422273,201.755774 63.2098638,201.773908 63.1409535,202.299803" id="Fill-78"></path>
    <path d="M66.7387949,206.960313 C66.408751,206.693739 65.9336328,207.141656 66.2636768,207.435431 C67.6092405,208.641361 67.0343837,210.507378 67.0434509,212.094128 C67.0470777,212.658104 67.912083,212.658104 67.9157098,212.094128 C67.9302172,210.28614 68.3346117,208.24422 66.7387949,206.960313" id="Fill-79"></path>
    <path d="M73.6243816,212.094128 C73.613501,211.749577 73.1003009,211.749577 73.0894203,212.094128 C73.0477115,213.399796 72.9733609,214.707278 73.0132563,216.012946 C73.0259503,216.457236 73.6878516,216.457236 73.702359,216.012946 C73.7422544,214.707278 73.6660905,213.399796 73.6243816,212.094128" id="Fill-80"></path>
    <path d="M86.3691546,219.454833 C85.7072533,219.144737 85.0453521,218.832827 84.3816374,218.520917 C83.8104075,218.25253 83.3080879,219.075826 83.8811312,219.380482 C84.5248982,219.72322 85.1686652,220.064145 85.8124322,220.406883 C86.4453186,220.742367 87.0038545,219.754048 86.3691546,219.454833" id="Fill-81"></path>
    <path d="M114.172635,30.7132314 C114.003986,29.8427859 112.721892,30.2236058 112.8579,31.0741036 C113.242346,33.4877765 114.707596,35.5115623 115.012252,37.9488097 C115.380378,40.8901902 112.145222,43.4326164 110.199414,45.1172912 C108.244538,46.8110331 106.17179,48.3578873 104.242302,50.0878977 C102.443382,51.7018488 97.0176047,56.3750531 100.5012,58.80142 C101.096005,59.216695 101.640033,58.2519512 101.063363,57.8366762 C98.1129153,55.7040847 109.523005,47.3423675 111.126076,46.0439529 C113.392861,44.2087637 115.260692,42.232127 116.223622,39.4684625 C117.255463,36.5053209 114.698529,33.4297468 114.172635,30.7132314" id="Fill-82"></path>
    <path d="M122.732016,34.1115958 C123.655051,29.9135096 123.203507,26.5387198 119.391681,26.5550407 C118.847653,26.5568541 118.85128,27.378337 119.391681,27.3964713 C122.11001,27.4889562 122.489016,30.0132481 121.810794,33.3046202 C120.965737,32.7442709 119.857732,32.3725182 118.41243,32.2564588 C117.643536,32.1929888 117.654417,33.3807842 118.41243,33.4496945 C119.787008,33.5730076 120.762633,34.0444989 121.46443,34.735415 C121.428161,34.8659819 121.384639,35.001989 121.344743,35.1343692 C120.8932,34.7045868 120.312903,34.3854234 119.549449,34.243976 C118.807757,34.1061555 118.488594,35.2322943 119.235726,35.379182 C120.033635,35.5369503 120.579477,35.8887553 120.963923,36.3566198 C119.154122,41.8005311 115.737623,47.9317316 114.925208,49.1829971 C114.479104,49.8720998 115.581669,50.5104265 116.022332,49.8249506 C116.838374,48.5537375 119.759807,43.227699 121.59681,37.9905186 C121.966749,41.3616815 118.762422,46.8599956 117.532917,48.4104767 C114.932461,51.6891548 111.410784,54.2914242 108.152054,56.8737458 C107.56813,57.33617 108.353344,58.3553166 108.949962,57.9073999 C113.626793,54.3984164 119.125107,50.4106879 121.415467,44.8053815 C122.24783,42.7707151 123.237962,38.7721061 122.148092,36.2949632 C122.193428,36.1444487 122.24239,35.9939342 122.285912,35.8452331 C124.195452,39.7223424 121.183348,47.2118007 119.698151,50.5013593 C117.545611,55.2743022 114.188956,59.4977764 110.074287,62.7129845 C109.35073,63.278774 110.364436,64.2743461 111.08074,63.7194371 C117.739648,58.5547937 121.954055,50.9365821 123.64961,42.748954 C124.356847,39.3288285 124.462026,36.0773519 122.732016,34.1115958" id="Fill-83"></path>
    <path d="M82.1728819,34.3146997 C77.4343941,33.7108281 75.8585251,41.3344801 75.0261616,44.6603073 C73.9471718,48.9671991 73.4321582,53.070987 73.6932919,57.5156994 C73.9399181,61.7174124 76.5167995,65.0015308 78.6530179,68.4524845 C79.1081883,69.1905498 80.2633421,68.5213948 79.8154253,67.7742624 C77.8406021,64.4828903 75.5212275,61.4834802 75.0497361,57.5156994 C74.5927522,53.6585377 75.0950718,49.7542269 75.9691442,45.9986172 C76.6709409,42.9846997 77.9058855,34.8605416 82.1728819,35.3084583 C82.8148355,35.3755552 82.7948877,34.3926771 82.1728819,34.3146997" id="Fill-84"></path>
    <path d="M74.6725431,72.4365862 C69.8887196,69.8597048 66.8294664,66.4667807 65.4113655,61.1461825 C64.3668309,57.2182972 63.9569962,51.1070443 66.9346452,47.9770674 C67.4768602,47.4058375 66.6191087,46.5444591 66.0678265,47.1120621 C62.6875965,50.5884039 63.2153041,56.2281654 63.909847,60.6420495 C64.8401357,66.5683327 68.6392676,71.1236642 74.0015747,73.5862996 C74.7668413,73.9381047 75.4396232,72.8500478 74.6725431,72.4365862" id="Fill-85"></path>
    <path d="M69.7944214,74.3624469 C65.8447749,72.4692279 63.0865507,69.8288765 61.0754588,65.9281926 C59.3128067,62.5135074 57.6770945,57.0895438 60.2322148,53.76553 C60.7037061,53.1544047 59.6374103,52.3329218 59.1641056,52.9404202 C56.4512171,56.4076948 57.6607736,61.0264963 59.0244716,64.8383222 C60.8161386,69.8361302 64.2634655,73.4466657 69.0835575,75.5774437 C69.8996002,75.9383159 70.6213446,74.7577742 69.7944214,74.3624469" id="Fill-86"></path>
    <path d="M61.16069,80.3104912 C58.1286381,76.5875232 49.8430849,68.7716479 54.2714764,63.7194371 C54.8735346,63.0321478 53.8743357,62.0238818 53.2650238,62.7129845 C47.9680002,68.7027376 56.4620976,76.8885523 60.0889539,81.3822272 C60.7018926,82.1420536 61.7718153,81.0630639 61.16069,80.3104912" id="Fill-87"></path>
    <path d="M113.877046,222.506832 C112.567751,221.328104 113.031989,219.536437 113.010228,217.971449 C113.002974,217.360323 112.070872,217.360323 112.061805,217.971449 C112.034603,219.808451 111.506896,221.915655 113.153488,223.232204 C113.657621,223.634785 114.377552,222.956563 113.877046,222.506832" id="Fill-88"></path>
    <path d="M121.497071,221.358932 C120.673775,221.041582 120.345544,220.337972 119.861359,219.656123 C119.460591,219.093961 118.528489,219.618041 118.923817,220.205592 C119.578464,221.18303 120.01006,222.062542 121.205109,222.421601 C121.897839,222.628332 122.146278,221.607372 121.497071,221.358932" id="Fill-89"></path>
  </g>
</svg>