<?xml version="1.0" encoding="UTF-8" standalone="no"?>
<svg viewBox="0 0 407 528" version="1.1" xmlns="http://www.w3.org/2000/svg" xmlns:xlink="http://www.w3.org/1999/xlink">
  <title>Club cecond</title>
  <g stroke="none" stroke-width="1" fill-rule="evenodd" fill="#6BBEDF">
    <path d="M176.479178,216.533745 C169.75351,211.319306 171.140753,203.475423 174.827588,196.824615 C175.220601,196.113449 174.15853,195.491178 173.737445,196.188308 C169.372194,203.423957 167.287822,212.421146 174.425218,218.587706 C175.856908,219.825228 177.934262,217.661318 176.479178,216.533745" id="Fill-1"></path>
    <path d="M404.171683,378.017609 C398.791149,357.938859 386.682608,344.981129 368.402828,335.661109 C351.601526,327.096702 335.193236,327.054594 318.464454,335.897384 C302.966177,344.089832 293.175944,363.707727 294.011096,381.019011 C285.229129,380.0318 276.510324,378.478463 267.740054,377.622256 C263.620436,377.219886 259.500819,376.922787 255.42331,376.192906 C254.32147,375.996399 253.392743,376.136761 252.506124,376.347304 C257.767351,370.983145 263.328016,365.89971 268.736622,360.696968 C270.891175,358.624292 272.886652,356.39254 274.863413,354.144413 C281.823017,350.443541 288.508915,346.291173 294.76671,341.556303 C314.351854,326.734101 333.560361,306.865894 345.89582,285.568337 C358.254673,264.226331 358.970518,237.618421 354.698842,213.927695 C352.088113,199.442362 349.166249,184.622499 344.691049,170.593342 C342.987993,165.259595 340.650969,159.605355 336.601533,155.934895 C338.243765,153.162751 337.169998,149.620956 337.726766,146.221862 C339.081257,137.928821 339.483627,129.486061 340.323458,121.106464 C342.2277,102.127215 341.998442,82.9678353 342.00546,63.890333 C342.010139,54.2615164 339.724582,39.6966446 346.908764,31.9018883 C351.919679,26.4628702 359.6232,25.3259399 366.091538,22.5865463 C372.344654,19.9383878 376.61867,6.59232391 369.602921,2.48206376 C361.599962,-2.20601897 344.450094,3.38973646 336.776985,6.84731444 C324.174838,12.5226082 324.427489,26.3903499 324.49767,37.918729 C324.621656,57.4991943 323.585319,77.063284 323.529174,96.6694823 C323.475369,114.888439 324.018101,139.337117 314.971786,155.848339 C296.327065,161.839447 277.595789,167.673817 258.822404,173.227464 C236.872164,179.721535 213.260977,183.759275 191.879202,191.970437 C191.645266,178.626713 188.14324,165.463119 186.82384,152.189576 C185.371095,137.608328 184.65525,122.989651 182.603629,108.464549 C180.43504,93.1019543 177.840687,77.856328 175.403071,62.5405208 C174.724656,58.2805414 173.94097,54.0416163 173.138568,49.8026912 C172.308094,38.3070632 171.561838,26.2148977 168.071509,15.5076349 C166.761466,11.4909493 160.307164,13.3367064 161.778623,17.243442 C162.019578,17.882088 162.19503,18.5511457 162.41493,19.2014885 C159.558568,30.493592 150.273638,35.2074077 139.241204,38.1854163 C126.706899,41.5681347 118.682885,34.9453991 109.08448,28.7203551 C108.546426,28.3717901 107.999016,29.0385084 108.258685,29.5461501 C108.331205,29.6888512 108.413083,29.8128375 108.487942,29.9508599 C108.048142,29.1320829 106.717045,29.293499 106.595398,30.4117143 C105.437413,41.2195697 97.7970551,51.220345 90.3438457,58.5097989 C80.8015855,67.8415165 72.0500299,69.7902056 59.3660057,66.5806 C56.9471047,65.967687 55.3984466,68.0497198 55.6955457,70.2487207 C56.2102055,74.0548637 57.9974785,77.1591979 58.4302606,81.0799697 C59.0993183,87.1365795 56.8582089,93.6727587 55.7002244,99.5866675 C53.6439247,110.097424 48.6306705,120.601162 42.8337299,129.574957 C36.77712,138.948783 28.3998624,146.81372 19.6202344,153.551085 C14.9882964,157.106916 10.2651233,154.886861 5.93028429,157.8251 C4.14301123,159.03689 3.98393457,162.541255 6.60168136,162.960001 C26.1143051,166.069014 19.4120312,202.8976 16.6679588,216.04014 C13.8256332,229.662248 6.15720246,241.660839 1.23752284,254.585818 C1.22582602,254.61623 1.21178985,254.644302 1.2024324,254.674714 C0.970835495,255.285287 0.713505605,255.884164 0.495944879,256.499416 C-0.304117143,258.749883 1.39192077,260.167537 3.2306598,260.240057 C3.94182604,268.221963 7.82750739,276.943107 10.8616607,283.827851 C16.0994937,295.72117 21.4870458,307.134921 29.5321139,317.400044 C45.8819194,338.253123 63.200221,354.967869 86.1212962,368.501081 C107.940531,381.383952 137.360356,384.128024 162.216084,383.868355 C179.801073,386.677929 197.591926,390.654846 215.258792,391.801133 C213.925356,393.335755 212.559168,394.851662 211.12046,396.318443 C208.399781,399.092927 205.522365,401.829981 202.591144,404.571714 C189.872029,395.951163 177.288598,391.695862 161.561063,392.072499 C153.146375,392.273685 145.622985,394.926522 138.848191,398.997013 C127.43444,404.155307 118.348356,414.820462 111.76305,425.647032 C99.7153324,445.459094 102.410278,469.989651 110.289252,490.531594 C122.03987,521.174905 164.639664,538.511922 193.137779,521.951574 C211.543885,515.913679 229.061032,498.478409 234.212309,481.410419 C238.182207,468.253844 237.246462,453.894836 232.410999,441.096183 C230.183926,435.203328 226.953266,429.855545 223.315557,424.746377 C221.196095,421.773047 218.033277,419.494508 215.605018,416.748097 C222.620767,409.629416 229.217769,402.143456 235.812433,394.657495 C238.09799,396.311424 241.270166,395.735941 244.355785,396.009647 C254.134321,396.87989 264.137435,397.876458 273.869184,399.106963 C280.19716,399.907025 286.607014,401.022901 293.054297,402.171528 C290.342976,412.47876 291.007355,421.340265 296.720078,431.769144 C303.244561,443.678839 311.214769,452.196459 324.247358,456.783949 C338.147851,461.675556 351.975824,459.184135 365.836547,455.396707 C377.568451,452.19178 384.640344,443.772414 391.008089,434.410284 C392.163735,434.847745 393.546298,434.576379 394.423559,433.121296 C404.927297,415.674329 409.510109,397.932603 404.171683,378.017609 L404.171683,378.017609 L404.171683,378.017609 Z M325.962111,131.191457 C328.17047,115.414795 329.089839,99.7855133 329.167038,83.8661506 C329.239558,68.5129136 330.706339,53.2626085 330.577674,37.918729 C330.488778,27.5834249 329.854811,18.2423499 339.747975,11.9284101 C346.543824,7.59357112 356.079066,7.63100093 363.77089,7.13739541 C365.859941,14.5367994 364.273853,18.597933 359.014966,19.3231354 C357.09201,19.8869218 355.115248,20.3314007 353.295224,21.2063223 C348.558015,23.4848615 344.53899,26.1517349 340.980819,30.0233801 C333.927641,37.6964895 336.400347,54.6451719 336.405026,63.890333 C336.412044,80.5699886 335.277453,97.1116218 335.286811,113.725775 C335.28915,121.864418 333.370873,129.834626 333.34514,138.038771 C333.34514,137.818871 332.732227,146.369242 332.065508,150.909944 C331.483007,150.736832 330.820967,150.715777 330.072371,150.96141 C326.860427,152.009445 323.639124,153.043443 320.422501,154.08446 C324.268413,147.342416 324.862611,139.037679 325.962111,131.191457 L325.962111,131.191457 L325.962111,131.191457 Z M187.064794,195.713418 C189.839278,198.579137 191.841772,202.78999 192.709676,205.3937 C194.819781,211.740391 191.287344,218.175978 185.888095,222.134179 C179.889969,221.628877 172.790003,224.894627 167.671478,220.739919 C163.329621,217.21216 164.335547,209.646662 165.5333,205.000687 C167.219981,198.459829 172.745555,195.544984 178.544835,193.156494 C180.98713,192.150568 183.230579,192.737748 185.193304,194.106276 C185.621407,194.880605 186.299822,195.416319 187.064794,195.713418 L187.064794,195.713418 L187.064794,195.713418 Z M154.893879,203.016908 C154.767553,203.049659 154.641228,203.080071 154.514902,203.112822 C155.707977,199.723085 157.682399,196.618751 160.424132,194.284067 C161.724818,194.747261 162.992752,195.247884 164.209221,195.806992 C164.02909,196.038589 163.84428,196.272525 163.685204,196.508801 C159.376098,202.890582 157.42273,212.353304 160.641693,219.63574 C161.015991,220.482589 161.437076,221.308384 161.914306,222.092071 C162.45002,223.044191 163.083988,223.949525 163.837262,224.784677 C164.927405,225.996467 166.111123,226.967302 167.353324,227.74865 C155.654172,227.786079 151.21874,215.642448 153.892632,205.13637 C154.04703,205.344574 154.292663,205.46856 154.580404,205.35627 C154.868146,205.241642 155.155888,205.127013 155.443629,205.012384 C156.657758,204.532815 156.215619,202.684718 154.893879,203.016908 L154.893879,203.016908 L154.893879,203.016908 Z M140.780504,43.7647962 C152.507729,41.9283966 160.571512,35.738443 164.351922,26.1915041 C166.885452,37.6333268 167.086637,50.1185052 168.111278,61.4667533 C169.358158,75.2994046 171.042499,88.984676 173.082423,102.721413 C175.274406,117.471095 176.334138,132.335405 178.376401,147.082747 C178.762396,149.866589 179.232608,152.620019 179.726213,155.36643 C180.785945,166.382489 183.11595,177.199702 184.318382,188.18067 C180.577741,186.71389 175.831175,187.736191 171.688163,189.865011 C171.613304,189.567912 171.512711,189.263795 171.346616,188.957338 C165.390599,177.906189 162.936608,162.683957 159.093035,150.657293 C154.865807,137.428198 148.790482,124.411984 144.029879,111.28582 C138.857548,97.022726 132.494482,83.2345227 127.048446,69.0743606 C124.428359,62.2551185 121.941617,55.4288583 119.534413,48.5324173 C118.1846,44.6631115 116.226554,41.2031941 114.357403,37.7081864 C121.115822,43.8864431 130.318874,45.4023501 140.780504,43.7647962 L140.780504,43.7647962 L140.780504,43.7647962 Z M91.4082557,64.7512185 C100.410123,56.3505672 109.78161,43.3600865 108.625965,30.4117143 C108.611929,30.254977 108.56982,30.119294 108.516015,30.0023258 C108.745272,30.4210717 108.97453,30.8374783 109.213145,31.242188 C110.270537,36.164207 112.698795,40.6464258 114.195987,45.4678522 C116.79268,53.8310737 119.188187,62.1779196 122.191929,70.412476 C127.834471,85.8850205 134.230289,101.060466 139.552339,116.6453 C144.004146,129.677889 149.496969,142.574795 153.588515,155.675226 C155.647154,162.272229 157.160721,170.001483 159.268487,177.311991 C154.940666,172.602854 151.58836,166.752108 147.181,162.092098 C137.984966,152.367367 128.730447,142.565438 119.758992,132.613789 C110.088066,121.885472 101.432425,110.820287 90.4888862,101.280366 C80.7828706,92.8235701 71.68275,83.765558 63.7499712,73.7039593 C74.0969722,75.3157801 83.1970929,72.4126311 91.4082557,64.7512185 L91.4082557,64.7512185 L91.4082557,64.7512185 Z M23.2602827,158.269579 C32.8703844,150.788298 40.6557833,142.298751 47.8072149,132.482785 C54.2170685,123.689121 58.7086448,111.627367 61.0269531,101.055787 C62.2036525,95.68695 63.1206827,90.2713255 63.6072701,84.8018956 C63.8786362,81.7630636 63.2048998,78.9043624 62.5568963,76.0386432 C75.1964726,95.396869 93.2540128,109.779271 107.535822,128.169 C116.004314,139.07043 125.752439,148.785803 134.642017,159.284863 C140.003836,165.617517 145.768025,171.208594 150.603488,178.020818 C152.400118,180.552008 154.821359,182.828208 157.048432,185.200322 C151.080718,183.787347 144.483715,183.29842 139.655271,182.245707 C125.001503,179.052477 109.861148,177.234792 95.0529827,174.841624 C78.7569826,172.207502 62.4726792,169.524253 46.143928,167.095995 C38.2532579,165.923974 30.893623,164.398709 23.5807754,161.037045 C22.6005824,160.585548 21.5923171,160.337576 20.5770338,160.171481 C21.4566341,159.603016 22.3385738,158.987764 23.2602827,158.269579 L23.2602827,158.269579 L23.2602827,158.269579 Z M24.4697332,200.609704 C25.4148357,189.202971 24.5399141,180.39995 21.8075385,169.31371 C21.5104395,168.111278 21.152517,167.072601 20.7478072,166.143874 C24.7738503,167.701889 28.9402552,168.981521 32.5264981,170.296243 C47.1171029,175.651044 64.5664088,176.715454 79.8424468,179.503974 C95.1231636,182.292494 110.415577,185.045924 125.712669,187.736191 C136.288928,189.598324 149.209228,190.41944 159.820577,194.059488 C156.367677,196.65852 153.93708,199.905556 152.491354,203.622803 C140.111446,206.729476 127.614571,209.843168 115.454564,213.656329 C102.569355,217.696408 90.4140266,223.579905 77.5498714,227.692505 C54.7808549,234.970262 31.9135851,240.077091 10.0709562,249.455596 C16.6702982,233.491785 22.9725411,218.657886 24.4697332,200.609704 L24.4697332,200.609704 L24.4697332,200.609704 Z M93.2797458,363.838732 C71.8137543,353.709291 54.3293579,336.877577 39.6451786,318.66096 C31.4831424,308.53386 25.2604378,298.834862 19.4213886,287.278411 C15.1824635,278.889456 9.43231016,269.459485 7.01574855,260.013139 C7.52806897,259.823651 7.99126277,259.573339 8.36322143,259.236471 C32.2200416,247.834417 57.9062434,242.093621 82.939763,233.681273 C96.0027639,229.29029 108.300793,223.0863 121.249166,218.339733 C129.043922,215.481032 144.441607,213.686741 151.401211,207.333032 C150.757886,210.512226 150.725135,213.94641 151.309975,217.560725 C153.010692,228.036391 162.478093,234.041535 172.481207,231.213246 C173.211088,231.007382 173.611119,230.544188 173.795929,230.010813 C178.236039,230.530152 182.903068,229.248181 186.961862,226.768457 C187.053097,226.728688 187.120939,226.665525 187.202816,226.614059 C193.481666,222.68159 198.242269,215.913814 198.31011,208.650093 C198.361576,203.084749 195.863137,197.865631 192.124835,193.853624 C200.338338,195.52159 209.384653,192.836002 217.429721,191.22652 C228.997869,188.910551 240.59409,185.048263 252.103754,182.262082 C279.011103,175.749297 305.656444,166.312308 331.967255,157.834458 C331.995327,157.8251 332.016382,157.813404 332.042115,157.801707 C332.17078,157.874227 332.306463,157.93739 332.446824,157.991195 C337.469436,165.554355 339.490645,174.886072 341.338742,183.735881 C343.848878,195.755526 346.258421,207.850031 348.265595,219.96559 C352.401588,244.942965 347.280723,269.95543 333.242208,290.871672 C320.579238,309.738631 300.287606,328.479265 281.542293,341.193701 C264.013449,353.087021 243.462148,358.41141 224.110941,366.390976 C181.906499,379.110091 133.189272,382.67528 93.2797458,363.838732 L93.2797458,363.838732 L93.2797458,363.838732 Z M234.406476,370.751548 C233.639165,371.542253 232.855478,372.3236 232.069452,373.097929 C231.912715,372.861653 231.725566,372.646432 231.479933,372.499052 C231.267051,372.372727 231.056508,372.274473 230.843626,372.169202 C232.034362,371.703669 233.234455,371.252172 234.406476,370.751548 L234.406476,370.751548 L234.406476,370.751548 Z M185.083354,382.644868 C197.919437,381.358219 210.811664,378.953354 223.037173,374.988134 C223.062906,374.990473 223.088639,374.990473 223.114372,374.992813 C225.088794,375.182301 226.936891,376.008096 228.843471,376.281802 C227.85626,377.264334 226.894782,378.235169 226.019861,379.18729 C223.638389,381.776964 221.415995,384.47425 219.181904,387.164517 C218.950307,387.096675 218.704674,387.045209 218.421611,387.038191 C207.279227,386.720038 196.221059,383.419197 185.083354,382.644868 L185.083354,382.644868 L185.083354,382.644868 Z M218.124512,427.780531 C225.563685,439.624724 229.437669,451.246677 229.203733,465.273496 C228.887919,484.386088 216.760663,499.94285 201.037807,509.833675 C200.467003,509.847711 199.875144,510.030182 199.323054,510.460624 C198.431757,511.150736 197.542799,511.787043 196.656181,512.395277 C191.146982,515.380304 185.314951,517.705631 179.468883,519.273003 C179.07821,519.375935 178.774093,519.563084 178.514424,519.785324 C169.454072,521.254444 160.026441,520.014581 149.401056,518.22263 C132.24417,515.328838 120.79299,499.767398 114.876742,484.886712 C108.16511,468.003532 108.42244,451.770695 113.826368,434.620827 C117.674619,422.407015 128.05905,409.751063 140.20736,402.665133 C148.334306,399.364293 157.24026,397.609771 165.402296,397.83201 C177.894492,398.168878 187.26364,403.645326 197.566193,409.250439 C190.222934,416.083718 182.891371,423.057358 177.108467,430.742164 C173.447364,435.612717 130.913073,474.146698 154.77925,477.082598 C164.618609,478.292049 173.363147,462.06389 178.395116,455.768665 C188.674275,442.909189 201.030789,431.296593 212.718245,419.655924 C214.02127,422.563752 216.540763,425.258698 218.124512,427.780531 L218.124512,427.780531 L218.124512,427.780531 Z M228.024694,396.954749 C209.043106,417.976262 186.683478,435.837296 169.297335,458.339625 C166.094747,462.482636 162.803264,466.256028 158.903547,469.739339 C154.711409,466.480607 154.063405,463.649978 156.966554,461.240435 C158.590072,459.301103 159.99369,457.055315 161.432398,454.977961 C165.456101,449.159966 171.220291,444.764303 175.980894,439.587294 C181.417573,433.675725 186.070565,427.359445 191.968098,421.805799 C195.624522,418.362257 199.238837,414.869588 202.82508,411.351187 C204.102372,411.147662 205.059171,410.104307 205.337556,408.876141 C211.19532,403.065164 216.950152,397.146577 222.520174,391.057216 C228.953421,384.020413 237.482738,375.753106 242.9779,367.717395 C249.902414,365.347621 256.74271,362.687765 263.416912,359.700399 C262.02967,361.106356 260.644767,362.48658 259.262204,363.766211 C254.859523,367.839042 250.704815,372.117736 246.622627,376.461933 C246.384012,376.36134 246.164112,376.298177 245.909122,376.164833 C245.272815,375.825626 244.795585,376.700548 245.357032,377.109936 C245.483358,377.20351 245.644774,377.266673 245.775778,377.355569 C239.768295,383.788816 233.9503,390.392837 228.024694,396.954749 L228.024694,396.954749 L228.024694,396.954749 Z M258.918317,393.469099 C255.215106,393.473778 251.635882,393.101819 247.963082,392.671376 C246.140719,392.458494 240.4818,393.382542 237.286231,392.991869 C241.375437,388.355252 245.481018,383.732672 249.715265,379.220041 C255.144925,381.002635 262.144298,381.051762 267.162231,381.90329 C278.526855,383.835604 289.727723,385.774935 301.209315,386.949295 C314.059434,388.266356 326.865105,390.130828 339.614632,392.196486 C341.029946,392.423404 342.459297,392.442119 343.902683,392.25263 C345.647848,392.47487 347.395352,392.699449 349.140516,392.921688 C354.397064,393.136909 353.966621,396.320782 347.849188,402.473306 C344.866501,402.616007 342.066284,402.220655 339.18185,402.178546 C321.208526,400.721123 303.658628,397.644861 285.73911,395.616634 C276.81912,394.608368 267.899131,393.46442 258.918317,393.469099 L258.918317,393.469099 L258.918317,393.469099 Z M391.405781,425.328879 C390.85837,425.394381 390.320317,425.635335 389.86648,426.126601 C382.439004,434.155294 377.79069,443.262433 366.985174,447.655756 C357.515435,451.508686 346.419838,453.118167 336.311452,452.743869 C321.961801,452.212834 311.642873,442.708004 304.021229,431.668551 C298.10966,423.106484 296.408943,412.726732 295.702456,402.64174 C309.352637,405.077016 323.157215,407.491239 336.760609,407.236248 C343.881629,408.317034 355.435741,410.05518 359.188079,402.470966 C363.873822,393.005905 356.666246,388.788034 348.155645,387.108372 C331.681853,383.858997 313.685136,382.953664 296.923603,381.355879 C296.53059,381.318449 296.142256,381.259965 295.751582,381.220196 C299.31911,365.56986 307.90925,349.889112 321.753598,341.523552 C337.174676,332.20587 353.152523,335.406118 368.182928,343.083906 C383.395803,350.857608 393.462081,363.244534 397.64954,379.816579 C401.998415,397.022591 398.05191,410.207239 391.405781,425.328879 L391.405781,425.328879 L391.405781,425.328879 Z" id="Fill-2"></path>
    <path d="M25.6253783,178.916794 C24.4510183,173.777214 24.1398831,168.172101 21.2998968,163.612684 C21.1057297,163.303888 20.6191423,163.584611 20.8086307,163.898086 C23.5760967,168.420074 23.8240691,174.025187 24.9188908,179.110961 C26.3622776,185.813235 27.3986152,192.576332 29.9438418,198.974489 C30.1707599,199.540615 31.0877901,199.316036 30.8795868,198.717159 C28.6244412,192.230107 27.1506428,185.600353 25.6253783,178.916794" id="Fill-3"></path>
    <path d="M38.2041312,197.463261 C35.0296161,185.106747 32.9241898,171.73729 23.8965893,162.08274 C23.2673008,161.409004 22.2707323,162.41493 22.888324,163.091006 C31.7591872,172.761931 33.0575334,185.822592 36.6531338,197.889025 C36.9502329,198.883254 38.4638005,198.469187 38.2041312,197.463261" id="Fill-4"></path>
    <path d="M39.7036627,179.167106 C38.6883793,175.873283 36.3630528,166.843343 31.396586,167.765052 C30.5146462,167.928808 30.893623,169.255226 31.7662053,169.103168 C38.3655473,167.961559 41.9751838,195.388246 42.4290202,200.015506 C42.5342915,201.089273 44.202257,201.119685 44.1273974,200.015506 C43.6501675,192.997418 41.7646412,185.857683 39.7036627,179.167106" id="Fill-5"></path>
    <path d="M47.2247136,182.191902 C45.9263673,177.959995 44.6467359,173.526902 41.214891,170.520821 C41.002009,170.333672 40.6908737,170.310279 40.4803311,170.520821 C40.124748,170.876405 39.7691648,171.231988 39.4135817,171.587571 C38.9550666,172.048425 39.6568754,172.745555 40.124748,172.298737 C42.5085585,170.015519 45.9544397,182.587254 46.4737782,184.433011 C47.9405585,189.619378 48.8201589,194.882944 49.5921486,200.209673 C49.7091167,201.02845 51.0799832,200.831943 51.0261779,200.015506 C50.6355043,193.921466 49.0096473,188.007557 47.2247136,182.191902" id="Fill-6"></path>
    <path d="M55.8476043,197.435189 C53.2485724,188.760832 53.3585224,179.510992 48.5815439,171.578213 C48.0996352,170.78283 46.8644517,171.498675 47.3346636,172.308094 C51.9361899,180.250231 51.4238695,189.366727 54.1024397,197.917097 C54.4510048,199.025955 56.1844725,198.558083 55.8476043,197.435189" id="Fill-7"></path>
    <path d="M55.4662881,172.621569 C54.813606,172.010995 53.8380918,172.979492 54.4837558,173.604101 C61.4223054,180.32743 60.0186878,193.521435 61.1532787,202.354868 C61.2866224,203.398224 62.9007826,203.461387 62.8329411,202.354868 C62.2831909,193.329607 62.5990048,179.312146 55.4662881,172.621569" id="Fill-8"></path>
    <path d="M63.6914872,173.753821 C63.013072,173.05903 61.9767344,174.107064 62.6317559,174.813552 C68.6883658,181.335695 67.5280419,193.271123 69.2825639,201.433159 C69.5001246,202.448443 71.2452891,202.233221 71.1119455,201.185187 C70.0451961,192.73307 70.063911,180.247891 63.6914872,173.753821" id="Fill-9"></path>
    <path d="M70.8335613,175.272067 C70.5341229,174.462647 69.2287585,174.808873 69.528197,175.632329 C72.7378025,184.456405 73.8560178,193.341304 75.2455993,202.57009 C75.3812823,203.477762 76.9182435,203.26488 76.8433839,202.354868 C76.0713943,193.142458 74.0197732,183.944084 70.8335613,175.272067" id="Fill-10"></path>
    <path d="M79.0213305,176.441748 C78.714874,175.639347 77.4212065,175.973876 77.7159662,176.80201 C80.5793461,184.854096 81.8402625,192.665228 82.1888276,201.185187 C82.2332754,202.291705 83.8708293,202.294045 83.9059197,201.185187 C84.1749464,192.655871 82.0250722,184.358151 79.0213305,176.441748" id="Fill-11"></path>
    <path d="M93.216583,204.21934 C91.0316183,201.180508 91.3170206,196.62109 90.8702023,193.013793 C90.3695787,188.971375 89.6116252,185.008494 88.423229,181.108777 C88.1518629,180.222158 86.7786571,180.591778 87.0289689,181.492432 C88.4817131,186.690496 89.1694857,192.028922 89.5484624,197.407116 C89.751987,200.272835 89.7473082,203.108143 91.7381058,205.35861 C92.442254,206.153993 93.8435322,205.089583 93.216583,204.21934" id="Fill-12"></path>
    <path d="M95.3290275,179.789376 C94.9500508,178.996332 93.8131205,179.688784 94.1593462,180.47247 C97.2332687,187.413359 97.4227571,194.885283 97.3478975,202.354868 C97.3362006,203.52455 99.1234737,203.517531 99.1585641,202.354868 C99.3808036,194.616257 98.6977097,186.85893 95.3290275,179.789376" id="Fill-13"></path>
    <path d="M102.400921,180.926306 C101.951763,180.079457 100.697865,180.825714 101.123629,181.674902 C102.595088,184.608463 103.596335,187.59349 104.321537,190.784381 C104.64203,192.202034 106.590719,200.462324 104.847894,201.629666 C104.099298,202.130289 104.562492,203.531568 105.495898,203.166627 C105.849141,203.026265 106.204724,202.885904 106.557968,202.747881 C106.957999,202.591144 107.276152,202.277669 107.266795,201.816815 C107.119415,194.520343 105.846802,187.420377 102.400921,180.926306" id="Fill-14"></path>
    <path d="M110.717355,183.429424 C110.392184,182.463268 108.873937,182.867977 109.182733,183.85051 C111.304535,190.580856 113.059057,197.589586 112.453162,204.694231 C112.343212,205.98088 114.378457,205.985559 114.465014,204.694231 C114.942244,197.425831 113.016948,190.260363 110.717355,183.429424" id="Fill-15"></path>
    <path d="M120.9006,200.459984 C119.370657,199.734782 120.739184,192.686282 120.736845,191.142303 C120.736845,188.95032 120.383601,186.660084 118.55188,185.268163 C117.810302,184.706716 116.825431,185.984008 117.555312,186.561831 C121.026926,189.305903 118.009148,197.278451 118.568256,201.131382 C118.612704,201.435499 118.954251,201.758331 119.24901,201.812136 L120.252597,201.994606 C121.129858,202.156022 121.81997,200.895106 120.9006,200.459984" id="Fill-16"></path>
    <path d="M125.897479,200.752405 C122.938185,196.07368 124.711422,190.005373 124.762888,184.809648 C124.772246,183.806062 123.237624,183.810741 123.209551,184.809648 C123.06685,189.827581 120.638592,197.638713 124.547667,201.793421 C125.216725,202.502248 126.421496,201.5782 125.897479,200.752405" id="Fill-17"></path>
    <path d="M131.823085,185.752412 C131.58213,184.680983 129.960952,185.137159 130.185531,186.206248 C131.387963,191.954062 131.158706,197.694858 131.21485,203.52455 C131.226547,204.762072 133.119092,204.762072 133.133128,203.52455 C133.19863,197.559175 133.144825,191.596139 131.823085,185.752412" id="Fill-18"></path>
    <path d="M141.365345,199.88918 C140.532532,198.672711 140.934902,196.525176 140.925545,195.133256 C140.916187,193.788122 140.602713,192.557617 139.830723,191.453438 C139.287991,190.679109 138.003681,191.416008 138.553431,192.202034 C140.151216,194.485252 139.011946,197.423492 139.783936,199.971058 C140.567622,202.553714 143.604115,201.781724 144.542199,203.81463 C144.776136,204.317593 145.688487,204.088336 145.615967,203.52455 C145.265062,200.836622 142.661352,201.784064 141.365345,199.88918" id="Fill-19"></path>
    <path d="M64.877544,80.3898577 C64.716128,80.0529895 64.4049928,80.0132203 64.1429842,80.1301884 C64.1921108,79.7114425 64.2225225,79.2880179 64.2833459,78.869272 C64.6202141,76.5182125 64.7137887,74.5367724 63.8599213,72.328414 C63.5277318,71.4722073 62.1428291,71.8324692 62.4656612,72.7120695 C64.1570203,77.301899 62.161544,85.52008 61.9603588,90.3976511 C61.658581,97.6941231 61.4176267,104.992935 61.1532787,112.289407 C61.1135096,113.37721 62.7814751,113.367853 62.8329411,112.289407 C63.1885242,104.995274 63.3709945,97.6964625 63.6096095,90.3976511 C63.7055234,87.4477148 63.7359351,84.4743849 63.9885862,81.5291273 C69.2077043,93.1019543 69.6942917,108.038785 67.109296,120.275991 C66.9081108,121.228111 68.3491582,121.63516 68.573737,120.678361 C71.5330307,108.076215 70.5107293,92.1755667 64.877544,80.3898577" id="Fill-20"></path>
    <path d="M73.147191,82.8742608 C72.8337164,82.113968 71.5821574,82.4391394 71.895632,83.2204865 C77.4001522,97.0320835 75.2151875,111.858964 75.1707396,126.325582 C75.1660609,127.43444 76.8784744,127.432101 76.8878318,126.325582 C77.0094787,111.788783 78.8131273,96.6671429 73.147191,82.8742608" id="Fill-21"></path>
    <path d="M81.3115666,92.4048242 C81.2390463,91.6398526 80.0389533,91.6258164 80.1044554,92.4048242 C81.2133133,105.643277 81.1431325,118.902785 81.0448792,132.173989 C81.0378611,133.245417 82.7175235,133.245417 82.7081661,132.173989 C82.6192703,118.900445 82.5537681,105.631581 81.3115666,92.4048242" id="Fill-22"></path>
    <path d="M88.0161799,117.531918 C87.9085692,112.411053 87.8781575,106.920569 84.8252893,102.576373 C84.3082901,101.841813 83.0918215,102.536604 83.6088207,103.287539 C87.0313082,108.235291 86.4511463,114.804221 86.507291,120.549696 C86.5681144,126.809831 88.2430981,132.908549 88.0723246,139.192077 C88.0442522,140.263505 89.6373582,140.235433 89.7192359,139.192077 C90.2736648,131.954089 88.1658991,124.781603 88.0161799,117.531918" id="Fill-23"></path>
    <path d="M96.5571929,120.542678 C96.2881662,116.766947 96.4261886,112.818103 94.2599388,109.547674 C93.6984917,108.700824 92.332304,109.482171 92.8867329,110.352414 C95.4132446,114.29424 94.8260645,120.20581 94.9874806,124.737155 C95.1863264,130.328232 94.9406933,135.938024 94.9079422,141.53144 C94.9009241,142.827446 96.9197941,142.827446 96.9197941,141.53144 C96.9151154,134.527388 97.0531378,127.537372 96.5571929,120.542678" id="Fill-24"></path>
    <path d="M102.6255,147.141231 C101.034733,139.449407 101.051109,131.736528 100.623005,123.932414 C100.417141,120.20347 101.205506,116.292056 99.0018268,113.021627 C98.3818957,112.099918 96.8823643,112.958464 97.5046348,113.896549 C100.073255,117.78223 98.905913,125.806244 99.0205417,130.328232 C99.1679216,136.17196 99.3386951,141.954864 100.89905,147.618461 C101.207846,148.739016 102.857096,148.264125 102.6255,147.141231" id="Fill-25"></path>
    <path d="M103.734357,119.087594 C103.376435,118.084008 101.771632,118.514451 102.129555,119.527395 C105.837444,130.019436 105.949734,141.072925 106.58838,152.058571 C106.663239,153.373293 108.728897,153.373293 108.632983,152.058571 C107.825903,140.927884 107.528804,129.701283 103.734357,119.087594" id="Fill-26"></path>
    <path d="M111.938502,131.947071 C111.72796,130.870964 110.102103,131.331818 110.300948,132.400907 C111.784104,140.452993 111.875339,148.600993 112.544397,156.737297 C112.640311,157.897621 114.44162,157.921014 114.373779,156.737297 C113.894209,148.441917 113.533948,140.120804 111.938502,131.947071" id="Fill-27"></path>
    <path d="M119.001038,136.614099 C118.66183,135.514599 116.942399,135.980132 117.274588,137.091329 C119.791743,145.515374 117.616135,154.318396 119.613951,162.824318 C119.880638,163.958909 121.548604,163.467643 121.340401,162.347088 C119.749634,153.794379 121.586034,145.010072 119.001038,136.614099" id="Fill-28"></path>
    <path d="M127.127984,168.21421 C124.655278,159.722323 126.578234,151.045627 124.779264,142.48356 C124.561703,141.442544 122.984973,141.884683 123.193176,142.918682 C124.910268,151.469052 122.135784,160.655729 125.607398,168.852856 C125.979357,169.734796 127.385314,169.098489 127.127984,168.21421" id="Fill-29"></path>
    <path d="M131.818406,149.719209 C131.813727,148.671174 130.194888,148.671174 130.19021,149.719209 C130.157458,157.120952 129.951595,164.546089 130.164477,171.943154 C130.194888,173.026279 131.813727,173.026279 131.844139,171.943154 C132.057021,164.546089 131.851157,157.120952 131.818406,149.719209" id="Fill-30"></path>
    <path d="M141.38406,179.8502 C140.034248,174.420539 139.608484,168.808408 137.804835,163.493376 C137.397786,162.295622 135.500563,162.803264 135.900594,164.017393 C137.659794,169.35114 138.038771,174.970289 139.339457,180.411647 C139.65761,181.740405 141.71391,181.176618 141.38406,179.8502" id="Fill-31"></path>
    <path d="M107.06327,36.2601209 C107.004786,35.467077 105.769603,35.4577195 105.81873,36.2601209 C106.473751,46.7591804 102.700359,56.5447343 99.9141783,66.4846862 C99.6685452,67.3619472 101.004321,67.722209 101.271009,66.8589842 C104.335574,56.9143536 107.8376,46.8106464 107.06327,36.2601209" id="Fill-32"></path>
    <path d="M112.86489,38.5994835 C112.820442,37.8625843 111.678833,37.8555662 111.713923,38.5994835 C112.345551,52.1911805 107.669165,64.3769204 103.362399,76.9954425 C103.034888,77.9475631 104.482953,78.2984675 104.840876,77.4024916 C109.767574,65.1231771 113.678988,51.9502261 112.86489,38.5994835" id="Fill-33"></path>
    <path d="M115.14109,45.6175714 C114.614733,60.1379953 110.141872,73.5168103 106.826995,87.5108776 C106.583701,88.533179 108.080893,88.9425675 108.394368,87.9413203 C112.675401,74.3309085 116.05578,59.9251133 116.455811,45.6175714 C116.479205,44.7683828 115.171501,44.7730615 115.14109,45.6175714" id="Fill-34"></path>
    <path d="M121.115822,57.3143846 C121.064356,56.4979471 119.798761,56.4862503 119.83853,57.3143846 C120.304063,67.3806621 117.443023,81.7607242 111.685851,90.7602523 C111.246051,90.2783436 110.326681,90.3953117 110.324342,91.2351429 C110.324342,91.829341 110.322003,92.4235391 110.319663,93.0200766 C110.319663,93.7476184 111.363019,94.3160835 111.877679,93.6634013 C115.438189,89.1414133 117.021937,83.6649654 118.343677,78.1393908 C119.962516,71.3692754 121.555622,64.2973821 121.115822,57.3143846" id="Fill-35"></path>
    <path d="M122.119408,65.0296026 C121.553283,64.3745811 120.631574,65.3196836 121.174306,65.9747051 C124.344142,69.7808481 121.139215,77.2691479 120.042054,81.398123 C119.356621,83.9807793 119.045486,86.6710464 118.631419,89.3051687 C118.018506,93.2025469 118.200976,99.144528 116.219536,102.494495 C115.634695,103.481706 117.068724,104.246678 117.716728,103.369417 C119.868942,100.468607 119.429141,97.2473049 119.833851,93.745279 C120.381262,89.0080696 120.991836,84.2872358 122.154499,79.6599765 C123.235284,75.360228 125.413231,68.8497818 122.119408,65.0296026" id="Fill-36"></path>
    <path d="M127.039088,74.8596044 C126.936156,73.9589498 125.520842,73.9425743 125.612077,74.8596044 C126.727953,85.9084142 124.884535,98.2111223 120.800008,108.546426 C120.437407,109.470475 122.014137,110.132514 122.404811,109.222502 C126.791116,99.0275598 128.274272,85.8546088 127.039088,74.8596044" id="Fill-37"></path>
    <path d="M131.717813,87.7260989 C131.703777,86.8067294 130.29782,86.8067294 130.290802,87.7260989 C130.258051,93.3826778 129.886092,98.8614651 128.288308,104.323877 C126.917441,109.007281 124.795639,113.239188 124.224835,118.137813 C124.103188,119.17883 125.913855,119.422123 126.054216,118.385786 C126.791116,112.981858 129.034564,108.09259 130.477951,102.868793 C131.830103,97.9818647 131.787994,92.7463711 131.717813,87.7260989" id="Fill-38"></path>
    <path d="M134.934437,94.7441868 C135.009297,103.149517 134.707519,114.902475 130.246354,122.374399 C129.661514,123.354592 131.14233,124.194423 131.762261,123.258678 C133.956583,119.953159 134.567157,116.189124 135.063102,112.305782 C135.814037,106.436321 136.567312,100.681489 136.431629,94.7441868 C136.410575,93.7803694 134.92508,93.7756907 134.934437,94.7441868" id="Fill-39"></path>
    <path d="M139.975763,98.0380094 C139.809669,96.9993324 138.251653,97.4461507 138.40839,98.4684522 C139.393262,104.922754 137.903088,110.923219 136.710013,117.227801 C135.753214,122.285503 134.721555,127.336187 131.502592,131.502592 C130.77505,132.443016 132.007894,133.781131 132.845386,132.845386 C136.57433,128.681321 137.533469,123.062172 138.48325,117.716728 C139.664628,111.068259 141.063567,104.798767 139.975763,98.0380094" id="Fill-40"></path>
    <path d="M140.792201,114.628769 C140.838988,120.05843 140.120804,125.247136 139.269276,130.594919 C138.70315,134.143732 138.305459,138.132346 136.197693,141.147784 C135.704087,141.854272 136.83166,142.722175 137.388428,142.067154 C139.746506,139.302027 140.20736,135.764911 140.733717,132.267564 C141.622675,126.353655 142.404022,120.636253 142.270678,114.628769 C142.249624,113.676649 140.782844,113.67197 140.792201,114.628769" id="Fill-41"></path>
    <path d="M146.977476,118.137813 C146.921331,117.155281 145.398406,117.145923 145.442854,118.137813 C145.82417,126.802812 143.339767,135.14264 142.22623,143.669617 C142.15371,144.21001 142.708139,144.565593 143.164315,144.610041 L143.870802,144.675543 C144.666186,144.750403 144.972642,143.524577 144.275512,143.176012 C143.40293,142.738551 146.177414,130.721245 146.394975,129.331663 C146.975136,125.614416 147.192697,121.89483 146.977476,118.137813" id="Fill-42"></path>
    <path d="M150.037362,161.593814 C149.932091,155.289231 149.248997,149.033776 149.253676,142.701121 C149.253676,141.793448 147.854737,141.793448 147.845379,142.701121 C147.800931,147.496814 147.620801,152.266775 148.074637,157.048432 C148.425541,160.737607 149.263033,165.842096 146.727164,168.951109 C145.976229,169.872818 147.309665,171.18754 148.032528,170.256473 C149.992914,167.729962 150.091167,164.695808 150.037362,161.593814" id="Fill-43"></path>
    <path d="M163.107381,22.2239451 C162.613776,33.609623 154.615495,45.446798 146.785648,53.2111426 C146.011319,53.9784535 147.181,55.1340987 147.974044,54.3995388 C156.281121,46.7217506 164.085235,33.7874146 164.403388,22.2239451 C164.426782,21.3841139 163.142472,21.391132 163.107381,22.2239451" id="Fill-44"></path>
    <path d="M166.588353,29.242033 C166.518172,35.2003896 161.514275,40.9482036 158.297652,45.6456438 C154.025975,51.8870633 151.122826,58.942581 146.692074,65.0997835 C146.086179,65.9442934 147.457045,66.6952288 148.067619,65.9045242 C152.956887,59.5648515 155.932556,52.0882485 160.351612,45.446798 C163.488697,40.7329823 167.949862,35.1910322 167.940504,29.242033 C167.938165,28.3694507 166.59771,28.3694507 166.588353,29.242033" id="Fill-45"></path>
    <path d="M167.786106,41.7295507 C162.726065,51.7092717 156.014434,60.7415509 151.253831,70.8803486 C150.746189,71.9611341 152.348652,72.908576 152.863312,71.8207723 C157.656666,61.7006896 164.155416,52.5350668 169.082113,42.4875042 C169.503199,41.6242794 168.225907,40.8663259 167.786106,41.7295507" id="Fill-46"></path>
    <path d="M167.720604,49.1266154 C166.621104,62.0094854 159.062623,72.4360247 153.616587,83.7608793 C153.115963,84.8018956 154.648246,85.7189258 155.179281,84.6732307 C160.973882,73.231408 168.223567,62.2527792 169.147616,49.1266154 C169.210778,48.2049065 167.797803,48.2212821 167.720604,49.1266154" id="Fill-47"></path>
    <path d="M167.821197,60.8234286 C167.486668,72.4173098 161.352859,83.926974 157.008663,94.4962144 C156.552487,95.6027329 158.367833,96.1010172 158.805293,94.9921593 C163.053576,84.2264124 169.105507,72.6044588 169.047023,60.8234286 C169.042344,60.032724 167.844591,60.0350634 167.821197,60.8234286" id="Fill-48"></path>
    <path d="M168.810747,72.3026811 C168.146368,74.9297853 160.452205,103.717982 159.312935,103.24777 C158.335081,102.840721 157.846155,104.337913 158.629841,104.866609 C158.980746,105.102885 159.329311,105.3415 159.680215,105.577775 C160.267395,105.973128 160.952828,105.542685 161.170389,104.97188 C165.163681,94.5008931 167.793125,83.6181781 170.396835,72.7378025 C170.642468,71.7084829 169.070417,71.2733615 168.810747,72.3026811" id="Fill-49"></path>
    <path d="M173.648549,81.3419783 C172.967795,80.6331514 171.915082,81.6975614 172.577121,82.4134064 C175.473252,85.5458129 171.374689,92.8750361 170.422568,96.248397 C168.621259,102.620821 167.053886,108.794399 162.990413,114.181951 C162.382179,114.989031 163.720294,116.004314 164.382334,115.255718 C169.64356,109.302041 170.558251,101.664022 172.83679,94.3301197 C174.015829,90.5380128 176.977462,84.8018956 173.648549,81.3419783" id="Fill-50"></path>
    <path d="M176.219509,93.5745055 C176.168043,92.5919732 174.647457,92.5826158 174.684887,93.5745055 C174.907126,99.5211653 173.323378,105.187102 171.016766,110.62612 C169.830709,113.421658 168.628277,116.212518 167.423505,118.998699 C166.794217,120.458461 166.382489,122.124087 165.64325,123.567474 C165.327436,122.898416 164.06652,123.151067 164.10161,123.98622 C164.129683,124.638902 164.157755,125.291584 164.185827,125.944266 C164.220918,126.793455 165.140287,127.097572 165.757879,126.594609 C169.245869,123.742926 170.162899,117.478113 171.819168,113.435694 C174.448611,107.016483 176.591467,100.590254 176.219509,93.5745055" id="Fill-51"></path>
    <path d="M175.999609,108.780363 C175.948143,108.083233 174.881393,108.066857 174.904787,108.780363 C175.0779,114.156218 173.833359,130.075581 167.072601,132.64654 C166.361435,132.917906 166.394186,134.127357 167.264429,134.066533 C170.553572,133.830258 171.978244,129.935219 173.056691,127.315133 C175.468573,121.45269 176.483857,115.084945 175.999609,108.780363" id="Fill-52"></path>
    <path d="M177.269883,117.758836 C176.780956,116.923684 175.506003,117.669941 175.973876,118.51679 C177.707343,121.651536 174.862678,126.412139 173.861431,129.411202 C172.268325,134.19052 170.265831,138.831815 168.766299,143.639205 C168.424752,144.738706 170.024877,145.101307 170.441283,144.102399 C172.72684,138.600218 174.481362,132.892173 176.416015,127.263667 C177.480425,124.171029 179.068852,120.842116 177.269883,117.758836" id="Fill-53"></path>
    <path d="M172.378275,147.833683 C174.053259,141.596942 177.894492,136.560294 177.297955,129.834626 C177.223095,128.980759 175.908374,128.952687 175.945803,129.834626 C176.242902,136.784873 172.078837,142.490578 170.240098,148.956577 C170.139505,149.314499 170.296243,149.78939 170.649486,149.957824 C174.193621,151.66088 174.116422,154.814341 174.614706,158.138575 C174.759747,159.107071 176.387943,158.875474 176.320101,157.906978 C176.189097,156.049524 176.132952,153.815433 175.309497,152.098341 C174.886072,151.214062 172.127964,148.774106 172.378275,147.833683" id="Fill-54"></path>
    <path d="M178.722627,167.264429 C178.589283,166.087729 176.734169,166.064336 176.860494,167.264429 C177.185666,170.399175 178.081641,173.475436 178.231361,176.621879 C178.275809,177.566982 179.637318,177.562303 179.691123,176.621879 C179.878272,173.409934 179.085228,170.427247 178.722627,167.264429" id="Fill-55"></path>
    <path d="M179.613924,224.864215 C176.130613,227.23399 172.974813,229.393222 168.457504,228.777969 C164.445497,228.230558 160.870951,224.155389 158.683646,221.100181 C156.372356,217.8742 155.460005,213.91132 155.013186,210.049032 C154.898558,209.06416 155.902144,197.133411 157.305762,198.277359 C158.145593,198.960453 159.352704,197.783754 158.508194,197.074927 C158.112842,196.742737 157.71749,196.412887 157.322137,196.080698 C157.048432,195.85144 156.603953,195.70406 156.278782,195.945015 C152.919457,198.438775 153.284397,202.584126 153.034086,206.476825 C152.680842,211.974327 154.08212,217.446097 156.877659,222.155234 C159.284863,226.20701 163.360032,229.596746 167.860966,230.946558 C172.586479,232.361873 177.09443,229.292629 180.647922,226.632774 C181.679581,225.858445 180.725121,224.110941 179.613924,224.864215" id="Fill-56"></path>
    <path d="M173.292966,195.130916 C174.093028,194.412732 172.932704,193.294517 172.125624,193.965914 C168.167423,197.252718 164.295777,202.939709 164.057162,208.203275 C164.019733,209.015034 164.866582,209.216219 165.392939,208.867654 C165.044373,209.964815 164.768329,211.073673 164.609252,212.189549 C164.532053,212.750996 164.960156,213.487895 165.612839,213.349873 C165.622196,213.583809 165.631553,213.820084 165.638572,214.051681 C165.654947,214.638861 166.567299,214.641201 166.550923,214.051681 C166.541566,213.672705 166.527529,213.289049 166.511154,212.903054 C167.769731,212.124047 169.973411,210.736805 170.008501,212.058544 C170.097397,215.357046 168.363929,218.845035 167.545152,221.993818 C167.241035,223.151802 168.958127,223.610317 169.323068,222.485084 C170.712649,218.225104 172.404008,213.939392 171.440191,209.417404 C171.379367,209.134341 171.119698,208.893387 170.845993,208.823206 C169.133579,208.376388 168.015364,209.447816 166.810592,210.451402 C167.802482,206.336463 170.209686,202.684718 172.551388,199.201407 C172.995867,198.539368 171.966548,197.741645 171.44487,198.34754 C169.811995,200.25646 168.300766,202.450782 167.098334,204.790145 C167.451578,203.63216 167.966237,202.525642 168.770978,201.522055 C168.995557,201.238992 168.83882,200.911481 168.602544,200.77112 C169.947678,198.60487 171.620322,196.635127 173.292966,195.130916" id="Fill-57"></path>
    <path d="M25.2417229,241.632767 C19.3254748,248.066014 15.9544532,256.183602 12.2044549,263.959644 C11.7763515,264.846262 13.095752,265.62527 13.5285341,264.736312 C17.2551388,257.086596 20.4390114,249.004099 26.2242552,242.615299 C26.823132,241.95326 25.8499571,240.970727 25.2417229,241.632767" id="Fill-58"></path>
    <path d="M28.4653646,244.463396 C27.9436867,250.349232 23.9971819,255.31102 21.7092853,260.59798 C18.759349,267.410204 17.03056,274.734748 14.3239174,281.649904 C13.8911353,282.756423 15.6479967,283.20558 16.0877969,282.136492 C19.1780949,274.594386 20.8390424,266.444047 24.3387289,259.082073 C26.5962138,254.333167 29.6771544,249.850948 30.0187014,244.463396 C30.0818642,243.45747 28.551921,243.478524 28.4653646,244.463396" id="Fill-59"></path>
    <path d="M36.7607445,247.78763 C34.1032285,255.100478 30.8047272,262.153656 28.0840485,269.440771 C25.0194834,277.651933 22.7456229,286.146159 20.120858,294.502362 C19.7442207,295.697777 21.6227289,296.207758 21.9876694,295.017022 C24.3480863,287.339234 26.4792457,279.591265 28.9940605,271.962603 C31.6585946,263.887124 35.2986428,256.181263 38.0988599,248.157249 C38.395959,247.305721 37.0625223,246.954817 36.7607445,247.78763" id="Fill-60"></path>
    <path d="M43.9449272,246.664736 C36.9806446,264.308209 33.1768409,282.983341 29.5835799,301.548523 C29.3730373,302.629308 31.0222879,303.094841 31.2398487,302.007038 C34.9781502,283.402087 38.4567824,264.832226 44.9508531,246.940781 C45.18245,246.302135 44.1882209,246.051823 43.9449272,246.664736" id="Fill-61"></path>
    <path d="M55.5809169,238.458252 C54.1094578,245.822565 52.1911805,253.121377 50.9021916,260.516102 C50.9021916,259.844705 50.930264,259.173308 50.8811374,258.499571 C50.827332,257.753315 49.6693475,257.743957 49.7114561,258.499571 C50.240152,267.747072 45.956779,277.071771 43.6384706,285.909884 C41.0581537,295.742225 38.8872251,305.679837 36.5665774,315.575341 C36.3022294,316.700575 38.0333578,317.177805 38.293027,316.052571 C40.5902811,306.14537 42.6933681,296.193722 45.1216266,286.316933 C46.4316696,280.990204 48.4131098,275.567561 49.6974199,270.081756 C49.6670082,270.509859 49.6155422,270.935623 49.5921486,271.366066 C49.5430219,272.278417 50.9255853,272.259703 51.0004449,271.366066 C51.9244931,260.305559 54.7317283,249.656781 56.7084897,238.771726 C56.8418334,238.037167 55.7282968,237.716674 55.5809169,238.458252" id="Fill-62"></path>
    <path d="M53.0216542,279.338614 C50.588717,287.481935 49.5149496,295.976161 47.9148256,304.31131 C46.3614888,312.396147 44.9859435,320.445894 44.5859125,328.680451 C44.5204104,330.011548 46.5884069,330.006869 46.6492304,328.680451 C47.0632976,319.896144 48.5815439,311.270914 50.1442381,302.631648 C51.5268015,294.98895 52.4438316,287.250338 54.5890272,279.769057 C54.8791081,278.758452 53.3210926,278.335027 53.0216542,279.338614" id="Fill-63"></path>
    <path d="M62.451625,270.907551 C61.8363726,270.343765 60.9263605,271.244419 61.5345948,271.824581 C63.9230841,274.100781 60.9708084,282.578631 60.6152253,285.474762 C59.819842,291.957136 58.8607033,298.395062 57.8079901,304.837667 C56.1330065,315.067699 54.3901813,325.321126 54.0345982,335.698539 C53.9924897,336.919686 55.8359074,336.898632 55.9154458,335.698539 C56.7856887,322.546642 58.9098299,309.600609 60.7953562,296.56802 C61.6328481,290.787455 62.1451685,284.96946 63.0177507,279.193573 C63.4926414,276.056488 64.9945122,273.232877 62.451625,270.907551" id="Fill-64"></path>
    <path d="M68.5713976,288.911286 C68.548004,287.970862 67.0975992,287.966183 67.109296,288.911286 C67.2332822,297.714307 66.154836,306.416736 65.3009687,315.161274 C64.3699023,324.71991 64.5336577,334.29726 64.4424226,343.886308 C64.4283864,345.252496 66.5665639,345.252496 66.5618851,343.886308 C66.5291341,335.029481 66.2811616,326.193708 66.8823778,317.348578 C67.5280419,307.850766 68.812352,298.453546 68.5713976,288.911286" id="Fill-65"></path>
    <path d="M75.2713322,300.608099 C74.0759179,318.143961 72.3588258,335.686842 71.5611031,353.243758 C71.5049584,354.492978 73.3694304,354.455548 73.4793805,353.243758 C75.0561109,335.752344 75.7953495,318.141622 76.7872392,300.608099 C76.8433839,299.627906 75.3368344,299.639603 75.2713322,300.608099" id="Fill-66"></path>
    <path d="M85.2487139,357.639421 C82.9701747,348.836399 84.6381402,339.815817 84.9375787,330.879452 C85.2487139,321.575806 85.0241351,312.255786 84.9750085,302.947462 C84.9703297,301.969608 83.4637802,301.969608 83.4591015,302.947462 C83.398278,313.037133 83.4520834,323.126804 83.0005864,333.209457 C82.6216096,341.649877 81.1290963,349.863379 83.185396,358.207886 C83.5152462,359.543662 85.5949396,358.975197 85.2487139,357.639421" id="Fill-67"></path>
    <path d="M96.6320525,362.182463 C94.8213858,359.489857 95.6144297,354.151431 95.6120904,351.105581 C95.6120904,346.85028 95.5957148,342.59498 95.5957148,338.339679 C95.5933755,330.329701 95.5442489,322.387565 94.1920973,314.473501 C94.0517355,313.659403 92.8305882,314.010308 92.9569138,314.815048 C94.5102506,324.722249 94.03536,334.748757 93.8973376,344.737836 C93.8365141,349.283217 94.2692962,354.242666 93.4668948,358.724885 C93.1300266,360.603393 94.0774685,361.990635 95.3266881,363.188389 C95.9887278,363.827035 97.1747846,362.987204 96.6320525,362.182463" id="Fill-68"></path>
    <path d="M105.088848,342.583283 C104.880645,334.035252 103.257127,325.541026 103.68991,316.983637 C103.739036,316.003444 102.234826,316.015141 102.174003,316.983637 C101.673379,324.832199 103.046585,332.584847 103.224376,340.419372 C103.418543,349.007173 103.558905,357.543507 104.27475,366.110253 C104.380022,367.378187 106.36614,367.394563 106.267887,366.110253 C105.664332,358.278067 105.278337,350.436523 105.088848,342.583283" id="Fill-69"></path>
    <path d="M116.785662,369.347931 C112.64499,354.911724 117.480452,339.497663 113.152631,324.932792 C112.825121,323.828613 111.105689,324.296485 111.426182,325.410022 C113.608807,333.017629 113.648576,341.275579 113.337441,349.145195 C113.063736,356.10012 112.418072,363.218801 114.81124,369.890663 C115.25104,371.116489 117.152942,370.632241 116.785662,369.347931" id="Fill-70"></path>
    <path d="M127.242613,371.706008 C123.338216,357.180906 125.71033,341.944637 122.264449,327.339996 C122.074961,326.537594 120.846795,326.879141 121.029265,327.681543 C124.369875,342.363383 121.602409,357.599652 125.408552,372.211311 C125.717348,373.395028 127.560766,372.892065 127.242613,371.706008" id="Fill-71"></path>
    <path d="M137.680849,376.408127 C135.867843,370.222852 136.600063,363.731121 136.249159,357.375073 C135.886558,350.817839 135.2175,344.298036 134.117999,337.825019 C133.944887,336.798039 132.410265,337.240179 132.567002,338.250783 C133.74838,345.820961 134.356614,353.487052 134.499316,361.148465 C134.599908,366.547714 133.926172,371.755135 136.02458,376.866642 C136.431629,377.858532 138.001341,377.50061 137.680849,376.408127" id="Fill-72"></path>
    <path d="M148.381093,352.782904 C148.240732,347.077198 146.902616,341.378511 147.059354,335.698539 C147.089765,334.601377 145.403085,334.606056 145.360976,335.698539 C145.143416,341.376172 146.341169,347.088895 146.500246,352.782904 C146.678037,359.174043 146.310757,365.567521 146.439422,371.958659 C146.462816,373.172789 148.289858,373.170449 148.32027,371.958659 C148.481686,365.56986 148.537831,359.171703 148.381093,352.782904" id="Fill-73"></path>
    <path d="M156.585238,355.309416 C156.498682,350.455238 156.206261,345.514504 153.923043,341.139896 C153.441135,340.218187 152.070268,341.029946 152.533462,341.953994 C155.324322,347.484248 154.760535,354.034463 154.804983,360.051304 C154.844752,365.602611 155.394503,371.565647 157.104577,376.857285 C157.443784,377.905319 158.856759,377.453822 158.709379,376.417485 C157.694096,369.322198 156.713903,362.484241 156.585238,355.309416" id="Fill-74"></path>
    <path d="M168.062151,373.832489 C165.355509,369.043814 167.058565,360.481746 167.058565,355.089515 C167.060904,350.876323 167.292501,346.480661 165.727467,342.496726 C165.341473,341.511855 163.741348,341.928261 164.122665,342.938866 C166.045621,348.015283 165.254916,354.223951 165.177717,359.548341 C165.107536,364.423572 163.357693,370.580775 166.466706,374.763555 C167.161497,375.696961 168.661028,374.89456 168.062151,373.832489" id="Fill-75"></path>
    <path d="M176.315423,372.889726 C174.619385,364.381464 174.610027,355.653302 172.717483,347.18247 C172.492904,346.167186 170.955943,346.599968 171.166485,347.608234 C172.951419,356.118835 172.612212,364.896124 174.588973,373.366956 C174.853321,374.499207 176.540001,374.01262 176.315423,372.889726" id="Fill-76"></path>
    <path d="M186.3817,371.270887 C184.482138,369.806446 184.896205,365.399087 184.851757,363.22114 C184.746486,357.964592 183.810741,352.630845 183.300759,347.395352 C183.200167,346.340299 181.543898,346.323924 181.639812,347.395352 C182.173187,353.409853 182.89605,359.40564 183.111271,365.438856 C183.190809,367.658911 183.122968,371.923569 185.768787,372.72597 C186.702193,373.009033 187.04374,371.783207 186.3817,371.270887" id="Fill-77"></path>
    <path d="M195.144953,367.010907 C192.997418,359.377567 192.824305,351.43777 191.495547,343.654711 C191.306058,342.548192 189.64745,343.025422 189.820563,344.117905 C191.058086,351.933715 191.130606,359.868833 193.189245,367.548961 C193.528453,368.812217 195.500536,368.271824 195.144953,367.010907" id="Fill-78"></path>
    <path d="M200.754744,352.074077 C200.759423,351.119617 199.273928,351.119617 199.276267,352.074077 C199.285624,359.131934 199.882162,366.117271 200.654152,373.128341 C200.729011,373.79272 201.758331,373.820792 201.716222,373.128341 C201.274083,366.114932 200.719654,359.106201 200.754744,352.074077" id="Fill-79"></path>
    <path d="M205.681442,340.105898 C205.316501,338.840303 203.342079,339.378356 203.70702,340.64863 C206.235871,349.463348 205.494293,358.617274 207.356426,367.51387 C207.55995,368.475348 209.160074,368.267145 209.080536,367.279934 C208.350655,358.238298 208.212632,348.86915 205.681442,340.105898" id="Fill-80"></path>
    <path d="M216.409759,352.104489 C215.457638,347.760292 215.197969,343.366969 212.229318,339.860265 C211.616405,339.137402 210.603461,340.173739 211.19532,340.894263 C214.213097,344.567062 214.318369,350.085619 215.226041,354.546783 C216.182841,359.244224 217.223857,363.922949 217.972453,368.657819 C218.110476,369.530401 219.617025,369.326876 219.516432,368.449615 C218.882465,362.912344 217.600494,357.541167 216.409759,352.104489" id="Fill-81"></path>
    <path d="M227.736953,362.374291 C225.004577,355.07314 223.434865,347.774328 221.923637,340.140988 C221.701397,339.018094 220.007699,339.497663 220.215902,340.613539 C221.621859,348.132251 222.473387,356.217088 226.183616,363.029312 C226.637452,363.864465 228.0785,363.288982 227.736953,362.374291" id="Fill-82"></path>
    <path d="M237.164584,362.355576 C234.226345,354.78072 233.358441,346.780099 231.264712,338.975986 C230.974631,337.8952 229.311344,338.353715 229.589728,339.439179 C231.608598,347.306456 232.11624,355.592478 235.477904,363.066742 C235.906007,364.016523 237.543561,363.328751 237.164584,362.355576" id="Fill-83"></path>
    <path d="M247.754879,357.660475 C246.809776,354.034463 246.330207,350.33827 245.719633,346.644416 C245.043558,342.543514 243.501918,338.669529 243.001294,334.528857 C242.86795,333.424678 241.125125,333.398945 241.246772,334.528857 C241.649142,338.29757 242.774376,341.876795 243.576777,345.570649 C244.486789,349.767465 244.664581,354.034463 245.850638,358.184492 C246.201542,359.407979 248.075372,358.893319 247.754879,357.660475" id="Fill-84"></path>
    <path d="M254.789342,355.316434 C252.592681,347.629288 251.60313,339.762011 250.059151,331.936843 C249.820536,330.732072 247.998173,331.246731 248.225091,332.442146 C249.705907,340.241581 250.370286,348.277291 252.85235,355.849808 C253.252381,357.073295 255.149604,356.570332 254.789342,355.316434" id="Fill-85"></path>
    <path d="M262.986469,352.974732 C260.043551,344.227855 259.252846,335.022463 257.042149,326.097794 C256.756746,324.953846 255.006903,325.438094 255.278269,326.584382 C257.395392,335.527765 257.956839,344.808017 261.030762,353.512785 C261.461205,354.733932 263.407554,354.221612 262.986469,352.974732" id="Fill-86"></path>
    <path d="M270.954338,345.783531 C268.519062,342.4476 271.595324,325.419379 264.170187,326.867445 C263.316319,327.033539 263.690617,328.285098 264.52577,328.154094 C269.153029,327.424213 267.342362,343.820806 269.438431,346.66781 C270.100471,347.568465 271.623396,346.700561 270.954338,345.783531" id="Fill-87"></path>
    <path d="M279.165501,341.090769 C275.345322,334.486749 279.476636,325.910645 274.339396,319.858714 C273.586121,318.974435 272.34392,320.244709 273.071461,321.126649 C278.007517,327.096702 272.750969,336.13366 277.745508,342.185591 C278.412226,342.99735 279.666125,341.958673 279.165501,341.090769" id="Fill-88"></path>
    <path d="M287.009384,334.949943 C285.580033,334.332351 286.206983,325.948075 286.019834,324.216947 C285.70168,321.278707 284.868867,318.300699 282.501432,316.375403 C281.652244,315.687631 280.433436,316.871348 281.284964,317.591872 C286.073639,321.629612 283.912068,330.184661 284.658325,335.707896 C284.723827,336.180447 285.22679,336.395669 285.62916,336.447135 C285.942635,336.486904 286.258449,336.526673 286.571923,336.566442 C287.411754,336.674053 287.783713,335.284471 287.009384,334.949943" id="Fill-89"></path>
    <path d="M294.050866,331.401129 C291.9431,329.9671 292.373542,324.219286 292.20043,321.898638 C291.957136,318.646924 291.545408,315.544929 289.435303,312.950576 C288.827069,312.20432 287.814125,313.259372 288.387269,313.998611 C290.960567,317.313488 290.626039,322.352475 290.7664,326.359803 C290.843599,328.586876 290.87635,331.80116 293.129157,332.97786 C294.18187,333.52761 295.021701,332.06083 294.050866,331.401129" id="Fill-90"></path>
    <path d="M299.309753,326.73644 C298.937794,321.028395 299.616209,315.303975 297.873384,309.752668 C297.564588,308.765456 296.025288,309.181863 296.324726,310.178432 C298.065212,315.996426 297.061625,321.982855 297.548213,327.941212 C297.602018,328.614948 298.294469,329.117911 298.933115,328.736595 L299.840788,328.198542 C300.580027,327.756402 300.130869,326.570346 299.309753,326.73644" id="Fill-91"></path>
    <path d="M306.175782,302.701829 C305.990972,301.52045 304.23645,302.03745 304.397866,303.193095 C305.202607,309.020447 305.658783,314.964767 306.692781,320.750011 C306.886948,321.840154 308.618077,321.566449 308.594683,320.492681 C308.461339,314.567076 307.092812,308.545556 306.175782,302.701829" id="Fill-92"></path>
    <path d="M315.479427,312.985667 C311.474438,307.366518 318.361522,299.190445 312.990345,294.074259 C312.087351,293.213374 310.721164,294.572543 311.619479,295.445126 C316.49705,300.165959 309.078931,308.847334 313.958842,314.160027 C314.695741,314.960089 316.125091,313.888661 315.479427,312.985667" id="Fill-93"></path>
    <path d="M322.694022,278.384154 C322.534945,277.081129 320.471627,277.062414 320.630704,278.384154 C320.873998,280.426418 321.220223,282.452306 321.594521,284.471176 C321.140685,284.510945 320.703224,284.812722 320.684509,285.402242 C320.590935,288.501897 318.670318,298.104981 324.001725,298.039479 C324.048513,298.039479 324.085942,298.018425 324.13039,298.011406 C324.158463,298.184519 324.195892,298.357632 324.219286,298.530745 C324.378363,299.627906 326.291961,299.370576 326.158618,298.268736 C325.353877,291.57582 323.512799,285.072392 322.694022,278.384154 L322.694022,278.384154 L322.694022,278.384154 Z M322.37119,288.497219 C322.876492,291.007355 323.365419,293.52217 323.798201,296.046342 C321.980516,295.241601 322.106842,291.456512 322.37119,288.497219 L322.37119,288.497219 L322.37119,288.497219 Z" id="Fill-94"></path>
    <path d="M332.189495,282.770459 C331.812857,282.770459 331.812857,283.3553 332.189495,283.3553 C332.566132,283.3553 332.566132,282.770459 332.189495,282.770459" id="Fill-95"></path>
    <path d="M179.527368,253.820846 C179.216232,256.756746 178.355347,260.30322 176.378585,262.567723 C174.953914,264.198259 172.602854,263.325677 172.532673,261.194517 C172.478868,259.528891 173.473097,257.650383 174.675529,256.555561 C175.208904,256.068974 174.422878,255.289966 173.887164,255.767196 C171.203915,258.158025 169.641221,264.595951 174.850982,264.7831 C179.082889,264.935158 180.458434,256.761425 180.734479,253.820846 C180.806999,253.044178 179.609245,253.058214 179.527368,253.820846" id="Fill-98"></path>
    <path d="M199.047009,241.391813 C198.590834,241.305256 198.139337,241.239754 197.676143,241.192967 C196.47605,241.06898 196.47605,243.179086 197.676143,243.055099 C198.139337,243.008312 198.590834,242.94281 199.047009,242.856254 C199.774551,242.715892 199.774551,241.532174 199.047009,241.391813" id="Fill-99"></path>
    <path d="M233.936264,209.765969 L233.936264,211.319306 C236.275626,211.319306 236.275626,209.765969 233.936264,209.765969" id="Fill-100"></path>
    <path d="M258.069129,220.866245 C257.886658,220.026414 256.48772,220.204205 256.562579,221.069769 C256.756746,223.352987 256.249105,224.918021 254.459492,226.38948 C253.706217,227.009411 254.772967,228.031712 255.519223,227.449211 C257.727582,225.725101 258.679702,223.633711 258.069129,220.866245" id="Fill-101"></path>
    <path d="M252.651165,214.344102 C252.173935,214.353459 251.741153,214.369835 251.27328,214.463409 C250.520006,214.613128 250.520006,215.829597 251.27328,215.979316 C251.741153,216.072891 252.173935,216.089266 252.651165,216.098624 C253.783416,216.122017 253.783416,214.320708 252.651165,214.344102" id="Fill-102"></path>
    <path d="M304.575658,347.853867 C305.0833,347.215221 304.264523,346.328602 303.658628,346.936837 C299.567083,351.042418 297.840633,358.048809 295.966804,363.373199 C295.842817,363.724103 295.749243,364.086704 295.629935,364.437609 C295.452144,364.528844 295.302425,364.676224 295.297746,364.940572 C295.295406,365.144096 295.28371,365.342942 295.279031,365.544127 C294.338607,368.454294 293.501115,371.411249 292.841415,374.382239 C292.172357,377.397678 293.405201,379.496086 293.561939,382.485791 C293.643816,384.022753 295.898962,384.034449 295.957446,382.485791 C295.957446,382.464737 295.952767,382.448362 295.952767,382.427307 C296.177346,382.682298 296.427658,382.918573 296.734114,383.108062 C297.391475,383.515111 298.020764,382.736103 297.721325,382.120851 C296.514214,379.62709 296.378531,377.528682 296.544626,374.78461 C296.673291,372.632396 296.659255,370.484861 296.621825,368.337326 C296.914245,367.431993 297.19029,366.568768 297.398493,365.7921 C298.919079,360.112127 300.905198,352.478787 304.575658,347.853867" id="Fill-103"></path>
    <path d="M292.209787,398.86133 C292.19809,397.623807 290.319582,397.626146 290.29151,398.86133 C290.237704,401.329357 290.792133,403.781009 291.458852,406.143766 C291.819114,407.416379 293.552581,406.847914 293.381808,405.61507 C293.063654,403.322494 292.23552,401.205371 292.209787,398.86133" id="Fill-104"></path>
    <path d="M116.530671,489.287053 C115.700197,485.375639 115.69084,481.368311 115.365668,477.363322 C114.967977,472.464696 114.214702,467.573089 113.74449,462.674464 C113.264921,457.686943 113.082451,452.697082 112.906998,447.690846 C112.806406,444.822788 112.630954,441.959408 112.408714,439.098367 C112.200511,436.398743 111.049544,434.136579 110.764142,431.612407 C110.813269,432.061564 111.449575,432.080279 111.475308,431.612407 C111.494023,431.294253 111.512738,430.9761 111.529114,430.655607 C111.561865,430.09416 110.679925,430.09416 110.654192,430.655607 C110.448328,435.56359 111.2133,440.609595 111.332607,445.543311 C111.472969,451.265392 111.547829,456.966419 111.980611,462.674464 C112.399357,468.160269 113.131577,473.62502 113.494178,479.110826 C113.788938,483.57199 113.714078,487.890454 114.99371,492.211256 C115.328239,493.343508 116.729517,493.179753 117.124869,492.211256 C117.37752,491.591325 117.630172,490.969055 117.885162,490.349124 C118.226709,489.509293 117.206747,488.9689 116.530671,489.287053" id="Fill-105"></path>
    <path d="M123.742926,500.368614 C120.081824,487.906829 119.340246,475.950347 118.977644,463.023029 C118.572935,448.628931 116.809055,434.27928 116.453472,419.896879 C116.507277,419.021957 115.131732,419.019618 115.089624,419.896879 C114.390154,434.765868 116.668693,449.985761 116.935381,464.88984 C117.145923,476.612386 116.366916,490.40059 121.988404,501.107853 C122.498385,502.078688 124.047043,501.404952 123.742926,500.368614" id="Fill-106"></path>
    <path d="M128.46376,500.878595 C127.47421,498.295939 127.659019,494.092104 127.556087,491.773796 C127.553748,491.752741 127.565445,491.734027 127.563105,491.710633 C126.18756,478.628917 125.834316,465.460645 124.685689,452.357875 C124.140618,446.156224 123.609582,439.954574 123.062172,433.752924 C122.491367,427.272889 121.218754,420.563597 121.345079,414.067187 C121.366134,412.946632 119.642023,412.951311 119.609272,414.067187 C119.443178,419.829037 120.491212,425.684462 120.952066,431.429936 C121.513514,438.403576 122.03987,445.381895 122.580263,452.357875 C123.595546,465.43959 123.831822,478.577451 125.074023,491.640452 C125.074023,491.649809 125.069345,491.659167 125.071684,491.668524 C125.190992,494.648872 124.886874,502.359412 127.80406,504.134988 C128.604122,504.621575 129.537527,503.98059 129.584315,503.112686 C129.605369,502.672886 129.628762,502.233086 129.652156,501.793286 C129.689586,501.04469 129.036904,500.742912 128.46376,500.878595" id="Fill-107"></path>
    <path d="M133.998692,505.662592 C133.755398,504.298743 133.432566,502.937234 133.109734,501.573386 C133.827918,501.718426 134.684125,501.182712 134.340239,500.349899 C131.909641,494.468741 132.641862,487.471708 132.265224,481.218591 C131.736528,472.382819 131.184439,463.549385 130.48263,454.72297 C129.764446,445.688352 128.915257,436.656073 128.119874,427.628472 C127.628607,422.05611 128.143267,413.744355 124.727798,408.95568 C124.091491,408.062043 122.605996,408.908892 123.244642,409.821244 C125.382819,412.88113 125.2331,417.194915 125.609737,420.783497 C126.089307,425.342915 126.40746,429.918708 126.744328,434.489823 C127.404029,443.442564 128.199412,452.383608 128.772556,461.343366 C129.312949,469.802502 129.860359,478.28737 130.157458,486.758202 C130.218282,488.531439 130.173834,490.393572 130.232318,492.248686 C130.213603,492.30951 130.185531,492.363315 130.180852,492.435835 C129.960952,496.031436 130.915412,499.372046 131.621899,502.871732 C132.49916,507.222947 133.184594,511.630306 133.809204,516.023629 C133.923832,516.842406 135.297038,516.645899 135.243233,515.829462 C135.020993,512.390599 134.604587,509.057007 133.998692,505.662592" id="Fill-108"></path>
    <path d="M142.359574,514.430523 C141.05421,508.565741 140.616749,502.881089 139.688022,497.233868 C139.760542,497.135615 139.861135,497.065434 139.891546,496.93209 C139.95237,496.684118 140.013193,496.436145 140.074017,496.188173 C140.160573,495.827911 140.020211,495.509758 139.786275,495.296876 C138.235278,481.204555 137.131098,467.037375 136.003526,452.900607 C134.719216,436.833864 132.630165,420.80923 131.827763,404.709736 C131.773958,403.654684 130.136404,403.647666 130.180852,404.709736 C130.863946,420.80923 132.864101,436.831525 133.994013,452.900607 C134.52037,460.384228 135.14264,467.860831 135.821055,475.332755 C136.115815,478.600845 136.242141,481.894667 136.443326,485.179132 C136.033937,484.278478 134.527388,484.671491 134.908704,485.630629 C135.781286,487.834309 136.497131,490.052025 137.114723,492.290795 C137.329944,493.846471 137.596632,495.395129 137.963912,496.93209 C138.008359,497.121579 138.130006,497.243226 138.251653,497.357854 C138.576825,499.252738 138.831815,501.168676 138.92305,503.133741 C139.119557,507.300145 139.054055,511.251329 140.789862,515.092562 C141.208608,516.01895 142.560759,515.338196 142.359574,514.430523" id="Fill-109"></path>
    <path d="M144.757421,495.189265 C144.415874,493.324793 144.221707,491.088362 143.91525,488.840235 C144.553896,488.791108 145.171488,488.26943 144.963285,487.455332 C141.727946,474.794702 142.752587,461.724683 142.1888,448.795025 C141.578227,434.782243 140.736056,420.732031 138.81544,406.831538 C138.689114,405.914508 137.100687,406.129729 137.19894,407.049099 C138.770992,421.681812 139.683343,436.312186 140.190985,451.01742 C140.527853,460.77958 139.807329,470.703156 141.189893,480.376421 C141.168838,480.348349 141.157142,480.315597 141.136087,480.287525 C140.448315,479.384531 138.897317,480.257113 139.589769,481.190519 C141.851932,484.250405 141.805145,489.864876 142.460167,493.596159 C143.688332,500.581496 144.745724,507.57853 145.213596,514.65978 C145.297813,515.930054 147.25586,515.951109 147.206733,514.65978 C146.956422,508.081493 145.945817,501.657603 144.757421,495.189265" id="Fill-110"></path>
    <path d="M154.33945,520.20173 C151.819956,512.304042 152.816525,504.076504 152.032838,495.944879 C151.312315,488.486991 150.346158,480.970619 148.498062,473.695201 C149.220925,473.650753 149.946127,472.857709 149.536739,471.97577 C147.599746,467.818722 148.360039,462.915418 148.294537,458.470629 C148.200962,452.341499 147.669927,446.184297 147.368149,440.062185 C146.745879,427.471735 144.804208,414.984217 144.701276,402.370374 C144.694258,401.294267 143.084776,401.303624 143.037989,402.370374 C142.471863,415.653275 144.694258,429.085895 145.253366,442.364117 C145.513035,448.551732 146.053428,454.790812 145.927102,460.985444 C145.85926,464.279267 145.75165,467.505248 146.617214,470.602564 C146.556391,470.590867 146.495567,470.58151 146.434744,470.569813 C145.377352,470.389682 144.916497,471.987466 145.987925,472.190991 C147.896845,472.555932 148.680532,484.41884 148.841948,485.728883 C149.333214,489.724514 149.742602,493.73886 150.08181,497.748528 C150.734492,505.510533 149.482933,513.312307 152.117056,520.814643 C152.603643,522.199546 154.793286,521.628742 154.33945,520.20173" id="Fill-111"></path>
    <path d="M153.611908,448.203167 C153.078534,442.375814 152.928814,436.487638 152.629376,430.643911 C152.004766,418.49794 150.687705,406.351969 150.697062,394.182604 C150.697062,392.921688 148.755391,392.921688 148.741355,394.182604 C148.500401,416.420586 151.363781,438.658567 152.077286,460.85444 C152.126413,462.370347 154.220143,462.302505 154.379219,460.85444 C154.842413,456.636569 153.993224,452.404662 153.611908,448.203167" id="Fill-112"></path>
    <path d="M159.832274,447.232331 C157.885924,445.604135 158.337421,441.369888 158.295312,439.065616 C158.199398,434.000896 157.544377,428.889389 157.235581,423.829347 C156.634365,413.919807 156.512718,403.968158 155.069331,394.128799 C155.027223,393.836379 154.702051,393.534601 154.418988,393.478456 C154.103174,393.415294 153.7897,393.35447 153.473886,393.293647 C152.315901,393.064389 151.815278,394.818911 152.98262,395.071562 C154.81668,395.471593 154.407292,411.341829 154.475133,413.299876 C154.690354,419.648906 154.996811,425.997936 155.36643,432.339948 C155.576973,435.975318 154.248215,447.370353 158.793597,449.019604 C159.780808,449.377527 160.646372,447.910746 159.832274,447.232331" id="Fill-113"></path>
    <path d="M166.043281,443.000424 C163.776439,435.079342 163.935516,427.038953 163.413838,418.895631 C163.142472,414.652028 162.749459,410.424799 162.564649,406.174177 C162.435984,403.212544 163.062933,401.516506 160.906041,399.371311 C160.040477,398.510425 158.826348,399.783039 159.58664,400.690711 C161.474506,402.943518 160.552797,409.704276 160.68848,412.539583 C160.880308,416.525857 161.219516,420.491077 161.31309,424.484369 C161.467488,430.959725 161.483864,437.484207 163.806851,443.618016 C164.326189,444.991222 166.464367,444.464865 166.043281,443.000424" id="Fill-114"></path>
    <path d="M169.603791,413.863662 C169.514895,406.485313 168.001328,399.242646 168.260997,391.843242 C168.305445,390.556592 166.328684,390.56595 166.26786,391.843242 C165.914616,399.219252 167.152139,406.501688 167.33227,413.863662 C167.486668,420.264159 166.766144,426.835428 168.607223,433.055793 C168.927715,434.136579 170.7454,433.977502 170.63545,432.782088 C170.057628,426.433058 169.68099,420.240765 169.603791,413.863662" id="Fill-115"></path>
    <path d="M174.242747,407.552062 C173.912897,403.205526 175.714206,396.98984 172.588818,393.53694 C171.795774,392.65734 170.523161,393.951008 171.29749,394.828269 C173.026279,396.793333 172.106909,401.252158 172.106909,403.638308 C172.10457,406.337933 172.322131,409.035218 172.467171,411.730164 C172.827433,418.352899 173.166641,424.975635 173.185355,431.612407 C173.190034,433.027721 175.37266,433.025382 175.379678,431.612407 C175.414768,423.574357 174.848642,415.564379 174.242747,407.552062" id="Fill-116"></path>
    <path d="M179.735571,426.482184 C177.810275,422.916996 178.289845,418.771645 178.575247,414.876606 C178.935509,409.947569 178.657125,404.969406 178.596301,400.031011 C178.582265,398.994673 176.998517,398.994673 176.98682,400.031011 C176.921318,405.874739 176.881548,411.662322 176.376246,417.482656 C176.083826,420.84666 175.824157,424.952241 178.327275,427.567649 C179.050138,428.320923 180.208122,427.361785 179.735571,426.482184" id="Fill-117"></path>
    <path d="M184.269256,401.041616 C184.152287,400.6603 183.834134,400.431042 183.441121,400.409988 C183.11595,400.393612 182.793118,400.377237 182.470286,400.360861 C181.375464,400.302377 181.408215,401.94227 182.470286,402.040524 C183.216542,402.110704 182.809493,418.771645 182.853941,419.915594 C182.89605,420.928538 184.386224,420.928538 184.425993,419.915594 C184.571033,416.224079 184.531264,412.544262 184.613142,408.852748 C184.671626,406.213947 185.055281,403.612575 184.269256,401.041616" id="Fill-118"></path>
    <path d="M159.572604,516.241189 C157.93739,509.756476 157.670702,503.152456 156.952518,496.511005 C156.196904,489.532686 154.325414,482.683032 152.991977,475.802967 C152.753362,474.572462 150.907605,475.101158 151.125166,476.317627 C152.442227,483.677262 154.19441,490.959697 154.893879,498.417586 C155.516149,505.037982 155.460005,511.780025 157.729187,518.11268 C158.059037,519.034388 159.731681,519.319791 159.895436,518.11268 C159.932866,517.827277 159.972635,517.541875 160.010065,517.256473 C160.06621,516.840066 159.865025,516.468108 159.572604,516.241189" id="Fill-119"></path>
    <path d="M166.361435,520.709372 C165.261934,520.283608 165.030337,509.875784 164.878279,508.45813 C164.412746,504.095219 163.937855,499.734647 163.383426,495.381093 C162.489789,488.346629 159.462654,480.802185 159.95392,473.720934 C160.033459,472.569968 158.33976,472.633131 158.199398,473.720934 C157.296404,480.727325 160.372666,488.451901 161.224194,495.381093 C162.30264,504.184114 162.763495,513.052638 163.99166,521.836945 C164.061841,522.342247 164.670075,522.732921 165.147305,522.716545 C165.463119,522.704848 165.778933,522.695491 166.094747,522.683794 C167.280804,522.641686 167.395433,521.109403 166.361435,520.709372" id="Fill-120"></path>
    <path d="M174.020508,516.468108 C172.35956,513.714678 172.481207,510.591629 172.322131,507.489634 C172.092873,502.965307 171.767702,498.445658 171.402761,493.928349 C170.628432,484.320586 168.059812,475.089461 167.053886,465.533165 C166.92756,464.321375 165.023319,464.295642 165.135609,465.533165 C166.132177,476.584314 168.668046,487.326667 169.390909,498.445658 C169.716081,503.412125 168.111278,513.936917 172.368918,517.74306 C173.236821,518.517389 174.659154,517.527839 174.020508,516.468108" id="Fill-121"></path>
    <path d="M177.882796,512.587105 C176.996177,509.81496 177.148236,506.687232 176.975123,503.83321 C176.680363,498.976693 176.313083,494.129534 175.866265,489.284714 C174.911805,478.965785 172.76661,468.819969 171.732611,458.515077 C171.610964,457.298608 169.704384,457.277554 169.814334,458.515077 C170.860029,470.200193 173.044994,481.726233 173.93863,493.437083 C174.408842,499.596624 172.939722,509.569327 176.645273,514.987291 C177.101449,515.65167 178.341311,515.686761 178.519102,514.741658 C178.582265,514.409469 178.645428,514.07494 178.708591,513.74275 C178.832577,513.076032 178.38108,512.650268 177.882796,512.587105" id="Fill-122"></path>
    <path d="M182.432856,507.426471 C182.000074,501.295002 181.527523,495.165871 180.940343,489.046099 C179.829145,477.475611 177.328367,465.582292 177.494461,453.950981 C177.49914,452.788317 175.779709,452.811711 175.70251,453.950981 C174.944556,465.432572 177.57166,477.608955 178.631392,489.046099 C179.667729,500.239949 180.87484,511.639663 181.445645,522.84755 C181.515826,524.190344 183.349886,524.138878 183.492587,522.84755 C184.056374,517.796866 182.793118,512.486512 182.432856,507.426471" id="Fill-123"></path>
    <path d="M186.980577,478.317782 C186.348949,467.638591 184.716074,457.088066 184.388563,446.380803 C184.390902,445.377216 182.900728,445.393592 182.844584,446.380803 C182.248046,457.045957 184.145269,467.687718 184.751164,478.317782 C185.312611,488.119711 184.713735,498.370798 187.270658,507.929434 C187.579454,509.085079 189.544518,508.883894 189.406496,507.641692 C188.304656,497.844442 187.560739,488.15948 186.980577,478.317782" id="Fill-124"></path>
    <path d="M192.948291,475.183036 C192.347075,463.661675 192.047636,452.011649 189.088343,440.799084 C188.838031,439.849303 187.251943,440.017737 187.343178,441.035359 C187.375929,441.402639 187.40868,441.772259 187.441431,442.139539 C187.460146,442.357099 187.55606,442.523194 187.675368,442.656538 C192.73307,465.088686 189.703595,488.739642 193.198603,511.417424 C193.371716,512.542657 195.231509,512.271291 195.173025,511.150736 C194.5297,499.156824 193.572901,487.181627 192.948291,475.183036" id="Fill-125"></path>
    <path d="M199.48447,506.942223 C197.699537,493.100214 197.386062,479.368156 196.91585,465.420876 C196.508801,453.370819 193.09801,441.280992 193.682851,429.273044 C193.727299,428.372389 192.410238,428.416837 192.311984,429.273044 C191.66866,434.908569 192.508491,440.523039 193.338965,446.09774 C194.405714,453.25619 194.826799,460.349137 194.997573,467.580107 C195.315726,481.239646 194.620935,495.303894 197.538121,508.738854 C197.762699,509.77987 199.407271,509.77987 199.634189,508.738854 C199.695013,508.462809 199.753497,508.186764 199.81432,507.90838 C199.898537,507.527064 199.739461,507.180838 199.48447,506.942223" id="Fill-126"></path>
    <path d="M202.228543,465.217351 C201.552467,450.984669 201.072897,436.747308 199.290303,422.596503 C199.257552,422.329816 198.948756,422.025699 198.668033,422.24092 C198.279698,422.538019 197.893704,422.835118 197.505369,423.132217 C197.170841,423.389547 197.4656,423.950994 197.846916,423.717058 C198.595512,423.256203 199.11953,431.004172 199.156959,431.549244 C199.418968,435.282867 199.599099,439.023508 199.774551,442.75947 C200.130134,450.240751 200.303247,457.731391 200.539523,465.217351 C200.984002,479.372834 202.251936,493.486209 202.738524,507.641692 C202.773614,508.659315 204.252091,508.649958 204.310575,507.641692 C205.117655,493.497906 202.89994,479.333065 202.228543,465.217351" id="Fill-127"></path>
    <path d="M210.226823,505.618144 C207.602059,502.62376 208.519089,495.259446 208.383406,491.493072 C208.292171,488.982936 208.261759,486.470461 208.224329,483.957985 C208.647754,483.913537 209.068839,483.621117 209.134341,483.078385 C211.197659,466.061861 209.445476,448.614894 208.011447,431.612407 C207.950624,430.884865 207.262851,430.590105 206.720119,430.711752 C206.696725,429.846188 206.666314,428.982963 206.654617,428.119738 C206.659295,427.060007 205.061511,427.069364 205.019402,428.119738 C204.69657,436.139073 205.672084,444.315146 205.817125,452.355535 C205.959826,460.381888 205.856894,468.401224 205.753962,476.425237 C205.662727,483.401217 205.94345,490.36316 206.01831,497.3368 C206.05574,500.735894 206.039364,504.71515 208.519089,507.325878 C209.602214,508.462809 211.242107,506.778468 210.226823,505.618144" id="Fill-128"></path>
    <path d="M216.496315,478.076827 C216.283433,471.573399 216.456546,465.07465 216.374668,458.571222 C216.206234,444.874254 215.476353,431.172607 213.777976,417.576231 C213.637614,416.453337 211.869056,416.418246 211.986024,417.576231 C213.375606,431.212376 214.004894,444.869575 214.091451,458.571222 C214.133559,465.07465 213.91132,471.57106 214.02127,478.076827 C214.126541,484.472645 215.244756,490.744476 215.441263,497.114561 C215.478693,498.354423 217.240233,498.321672 217.340825,497.114561 C217.871861,490.798281 216.704519,484.407143 216.496315,478.076827" id="Fill-129"></path>
    <path d="M227.886672,434.854763 C227.587234,433.591507 225.664278,434.127222 225.94968,435.388138 C227.811812,443.634391 227.596591,453.412927 225.970734,462.534102 C225.916929,453.040968 225.439699,443.582925 224.232588,433.951769 C224.103923,432.931807 222.53421,432.868644 222.585676,433.951769 C222.978689,442.017892 223.979936,450.02553 224.129656,458.110367 C224.216212,462.676803 223.963561,467.229203 223.771733,471.781603 C223.63605,472.226081 223.479313,472.642488 223.336612,473.079949 C222.943599,466.751973 222.295595,460.428676 221.820705,454.203632 C221.313063,447.583235 220.803082,440.965179 220.07554,434.363497 C219.553862,429.633306 219.832246,424.732341 216.982903,420.739049 C216.4776,420.030222 215.296222,420.694601 215.799185,421.431501 C218.838017,425.892665 218.342072,433.444128 218.772515,438.775535 C219.242727,444.626281 219.558541,450.491063 219.923482,456.348827 C220.646345,467.919315 220.877942,479.410264 221.118896,490.990109 C221.008946,492.428817 223.229001,492.410102 223.350648,490.990109 C223.568209,488.477634 223.647747,485.948783 223.664122,483.412914 C223.675819,483.691298 223.678159,483.969682 223.692195,484.248066 C223.753018,485.389675 225.411626,485.392014 225.465432,484.248066 C225.65492,480.26881 225.797621,476.326984 225.888856,472.399194 C227.467926,467.617537 228.218862,462.721251 228.611874,457.591029 C229.185018,450.105068 229.638855,442.205041 227.886672,434.854763" id="Fill-130"></path>
    <path d="M186.894021,403.540055 C186.847233,402.358677 185.125462,402.365695 185.064639,403.540055 C184.903223,406.794108 185.600353,409.98266 186.180515,413.164193 C186.412112,414.441485 188.342086,413.896413 188.117507,412.630818 C187.581793,409.594326 187.010989,406.630353 186.894021,403.540055" id="Fill-131"></path>
    <path d="M196.244453,413.536152 C195.158989,411.033034 194.255995,408.506522 192.520188,406.356648 C191.720126,405.369437 190.377331,406.763697 191.135285,407.739211 C192.653531,409.692579 193.395109,412.090425 194.323836,414.345571 C194.901659,415.751528 196.850348,414.93743 196.244453,413.536152" id="Fill-132"></path>
    <path d="M299.468829,417.206612 C298.657071,412.32904 298.413777,407.285375 297.812561,402.370374 C297.702611,401.476737 296.296654,401.448665 296.385549,402.370374 C296.776223,406.373023 297.194969,410.366315 297.407851,414.383001 C297.63009,418.591514 298.727251,422.706453 298.708537,426.933681 C298.703858,427.902178 300.058349,427.841354 300.170638,426.933681 C300.584705,423.569678 300.020919,420.521488 299.468829,417.206612" id="Fill-133"></path>
    <path d="M302.526376,399.825147 C302.299458,398.840276 300.842035,399.2637 301.029184,400.236875 C303.108878,411.04473 302.811779,421.847907 303.148647,432.782088 C303.186077,434.031308 305.048209,434.031308 305.085639,432.782088 C305.415489,421.716903 305.041191,410.640021 302.526376,399.825147" id="Fill-134"></path>
    <path d="M307.286979,402.370374 C307.296337,401.296606 305.654104,401.301285 305.626032,402.370374 C305.282146,414.79005 306.929057,427.424948 307.918607,439.800176 C308.009842,440.927749 309.588912,440.932427 309.673129,439.800176 C310.613553,427.347749 307.184047,414.860231 307.286979,402.370374" id="Fill-135"></path>
    <path d="M314.901605,440.036452 C313.509684,439.493719 314.5507,430.842756 314.585791,429.521017 C314.730831,424.344007 314.14833,419.113192 313.48863,413.989988 C313.025436,410.406084 314.742528,405.783504 311.710714,402.964572 C310.943403,402.253406 309.806473,403.380978 310.559748,404.115538 C312.461649,405.968313 311.801949,409.893764 311.670945,412.249502 C311.509529,415.096506 312.05694,417.98328 312.262804,420.823266 C312.75173,427.56297 311.61714,434.379873 312.587975,441.058753 C312.662835,441.564055 313.219603,441.861154 313.673439,441.886887 C313.998611,441.903263 314.321443,441.921978 314.644275,441.938353 C315.813956,442.001516 315.853725,440.406071 314.901605,440.036452" id="Fill-136"></path>
    <path d="M320.083293,415.070773 C319.814266,411.313757 320.705563,405.778825 317.559121,402.964572 C316.782452,402.269781 315.661898,403.366942 316.408154,404.115538 C319.404878,407.112262 318.202445,417.756362 318.321753,421.639704 C318.572065,429.708166 318.125246,437.931025 319.549918,445.908252 C319.746425,447.007752 321.498607,446.734047 321.470535,445.648583 C321.19683,435.484052 320.813174,425.216589 320.083293,415.070773" id="Fill-137"></path>
    <path d="M326.404251,422.75558 C325.938718,415.405302 326.876802,408.160296 324.769036,400.99015 C324.478955,400.007617 322.960709,400.421685 323.234414,401.411235 C325.351538,409.084345 324.186535,417.106019 324.553815,424.959259 C324.928113,433.006667 324.951507,441.054074 325.213515,449.099142 C325.260302,450.558905 327.571593,450.544869 327.468661,449.099142 C327.587968,440.324193 326.95868,431.511814 326.404251,422.75558" id="Fill-138"></path>
    <path d="M333.595452,445.891876 C333.193081,443.27179 333.317067,440.396713 333.23285,437.916989 C333.031665,431.998402 333.026986,426.072796 332.926394,420.151869 C332.884285,417.569213 334.229419,402.269781 330.37181,401.387841 C329.89458,401.280231 329.248916,401.530543 329.16002,402.077953 C328.825491,404.171683 328.823152,403.755276 328.972871,405.879418 C329.024337,406.613978 329.765915,406.866629 330.268878,406.635032 C330.449009,408.515879 330.509832,410.408424 330.568316,412.29395 C330.722714,417.346973 330.685284,422.404675 330.696981,427.457699 C330.713357,433.734209 329.136626,443.360686 332.09592,449.169323 C332.64801,450.250109 334.117129,449.630178 334.201346,448.598519 C334.250473,448.004321 334.29726,447.412462 334.346387,446.818264 C334.388495,446.294247 334.021216,445.978433 333.595452,445.891876" id="Fill-139"></path>
    <path d="M337.340771,405.147197 C337.223803,404.44071 336.143017,404.740148 336.264664,405.444296 C336.299755,405.636124 336.332506,405.827952 336.365257,406.01744 C336.42608,406.354308 336.75593,406.426829 337.029636,406.335593 C336.252967,407.336841 336.065818,408.47845 336.547727,409.781475 C336.650659,411.273988 336.734876,412.77118 336.800378,414.266033 C336.987527,418.006674 337.071744,421.747314 337.111514,425.490295 C337.193391,432.969237 336.580478,440.527718 337.078763,447.987945 C337.16064,449.225468 338.910483,449.223129 338.99704,447.987945 C339.970215,434.073416 339.640365,418.914346 337.340771,405.147197" id="Fill-140"></path>
    <path d="M299.826752,360.154236 C299.698087,359.637236 298.982242,359.871173 299.050083,360.369457 C300.135548,368.189946 299.457133,375.820947 299.768268,383.655473 C299.810376,384.740937 301.396464,384.738598 301.44793,383.655473 C301.81521,375.912182 301.684206,367.717395 299.826752,360.154236" id="Fill-151"></path>
    <path d="M303.733487,354.41344 C303.604823,353.435586 302.070201,353.388799 302.161436,354.41344 C303.071448,364.563934 302.589539,374.679338 303.139289,384.825154 C303.207131,386.08607 305.027155,386.08607 305.094997,384.825154 C305.640068,374.78461 305.031834,364.376785 303.733487,354.41344" id="Fill-152"></path>
    <path d="M309.326904,369.193533 C309.666111,362.987204 308.199331,357.040544 308.475376,350.904396 C308.526842,349.804895 306.8425,349.818931 306.776998,350.904396 C306.398022,357.040544 307.780585,363.00124 307.317391,369.193533 C306.889288,374.924971 306.617922,380.604944 307.888196,386.245147 C308.117453,387.267449 309.848581,387.059245 309.736292,385.994835 C309.146773,380.340596 309.015768,374.871166 309.326904,369.193533" id="Fill-153"></path>
    <path d="M311.867451,344.854804 C311.668606,343.890987 310.232237,344.305054 310.40301,345.257174 C312.927183,359.174043 311.111837,373.147056 311.336416,387.164517 C311.355131,388.416076 313.240657,388.411397 313.273408,387.164517 C313.659403,373.065178 314.726152,358.769333 311.867451,344.854804" id="Fill-154"></path>
    <path d="M318.134604,359.131934 C318.29602,352.939641 318.048047,346.81285 315.329708,341.144575 C314.885229,340.218187 313.533078,341.027607 313.956502,341.949316 C319.54524,354.055517 314.871193,369.593564 316.125091,382.485791 C316.232702,383.59231 317.734573,383.59231 317.842184,382.485791 C318.59078,374.789288 317.935758,366.870546 318.134604,359.131934" id="Fill-155"></path>
    <path d="M321.419069,379.243435 C321.755937,374.014959 321.931389,368.786484 322.36885,363.562687 C323.112768,354.719896 322.130235,345.278229 320.010773,336.678731 C319.788533,335.780416 318.450418,336.164072 318.635227,337.057708 C320.953536,348.188396 320.86464,359.017305 319.94761,370.276658 C319.596706,374.588103 317.01171,384.614611 321.248296,387.875683 C322.00391,388.458184 322.885849,387.22534 322.244864,386.582015 C320.480985,384.813457 321.271689,381.50092 321.419069,379.243435" id="Fill-156"></path>
    <path d="M327.36105,356.383183 C327.232385,349.266842 327.21367,342.255772 324.750321,335.492675 C324.413453,334.561608 322.927958,334.947603 323.253129,335.904402 C328.034787,349.996723 324.843896,366.688075 325.400664,381.31611 C325.445112,382.530239 327.232385,382.5279 327.281512,381.31611 C327.627737,373.02073 327.510769,364.683242 327.36105,356.383183" id="Fill-157"></path>
    <path d="M330.505153,331.805839 C330.074711,330.926239 328.774025,331.695889 329.19511,332.57315 C332.788371,340.056771 331.47365,351.096223 331.375396,359.167025 C331.270125,367.712716 331.043207,376.279462 331.239713,384.825154 C331.267786,386.05098 333.111203,386.05098 333.139276,384.825154 C333.354497,375.561278 333.090149,366.283366 333.127579,357.01715 C333.157991,349.08905 334.082039,339.102311 330.505153,331.805839" id="Fill-158"></path>
    <path d="M335.286811,334.320654 C334.9593,333.370873 333.457429,333.768564 333.770904,334.737061 C336.435438,342.964599 335.422494,351.44011 335.038838,359.913281 C334.62945,368.940882 334.2996,378.139256 334.783848,387.164517 C334.84935,388.343555 336.545388,388.341216 336.613229,387.164517 C337.16298,377.467858 336.716161,367.708038 337.060048,357.997343 C337.34311,349.9359 337.956023,342.073302 335.286811,334.320654" id="Fill-159"></path>
    <path d="M205.445166,374.749519 C201.966534,376.83857 198.480884,378.890191 195.161328,381.227214 C194.0899,381.980489 193.06292,382.801605 192.059333,383.646115 C191.624212,384.013395 187.70344,387.311896 187.651974,387.026494 C187.546703,386.451011 186.557152,386.582015 186.627333,387.164517 C186.660084,387.426525 186.692835,387.690873 186.725586,387.952882 C186.779392,388.388003 187.139654,388.596207 187.544363,388.423094 C190.704842,387.063924 193.114386,384.450856 195.909924,382.504506 C199.22948,380.195555 202.820401,378.265581 206.282658,376.185888 C207.202028,375.633798 206.366875,374.19509 205.445166,374.749519" id="Fill-166"></path>
    <path d="M211.274858,373.549426 C208.760043,375.140193 206.444074,376.955538 204.123426,378.812992 C202.156022,380.387383 199.112512,383.674188 196.506462,383.966608 C195.423337,384.088255 195.397604,385.788971 196.506462,385.6837 C198.668033,385.482515 200.33132,384.097612 201.98291,382.792248 C205.314162,380.160465 208.692202,377.507628 212.14978,375.046618 C213.045755,374.410311 212.233997,372.941192 211.274858,373.549426" id="Fill-167"></path>
    <path d="M209.948439,378.382549 C207.875764,380.258718 205.634655,381.748892 203.105804,382.937288 C202.134968,383.393464 202.979478,384.825154 203.943295,384.373657 C206.60549,383.129116 208.95655,381.53601 211.136836,379.570945 C211.943916,378.843404 210.750841,377.655007 209.948439,378.382549" id="Fill-168"></path>
    <path d="M222.000836,375.77416 C219.785459,376.61867 217.607513,377.804727 215.221363,378.080771 C214.086772,378.211776 214.075075,380.003728 215.221363,379.872723 C217.804019,379.573285 220.07788,378.4153 222.478066,377.50061 C223.544815,377.09356 223.081621,375.362432 222.000836,375.77416" id="Fill-169"></path>
    <path d="M253.025463,373.128341 C252.791527,374.927311 251.029987,376.080616 249.84159,377.283049 C248.685945,378.450391 247.635571,379.807221 246.64836,381.119604 C244.454038,384.027431 242.624657,387.049888 241.286541,390.441964 C240.926279,391.356654 242.472598,392.004658 242.872629,391.111021 C244.802603,386.82063 247.254255,383.035542 250.279051,379.428244 C251.949356,377.432768 254.328488,375.879431 254.61623,373.128341 C254.72384,372.099021 253.154128,372.134112 253.025463,373.128341" id="Fill-170"></path>
    <path d="M256.635099,375.467703 C256.492398,377.811745 252.281546,380.427152 250.924715,382.188692 C248.898827,384.818136 247.097518,387.594959 244.844712,390.025557 C244.395554,389.786942 243.71246,390.046611 243.705442,390.673561 C243.700763,390.989374 243.696085,391.302849 243.691406,391.618663 C243.682049,392.416386 244.655223,392.762611 245.207313,392.245612 C248.536226,389.129581 250.590186,385.007624 253.507372,381.540689 C255.158962,379.577964 257.91941,378.310029 258.024681,375.467703 C258.057432,374.567049 256.688905,374.581085 256.635099,375.467703" id="Fill-171"></path>
    <path d="M260.354686,377.322818 C256.183602,382.488131 251.579737,387.279145 247.359527,392.40001 C246.653039,393.256217 247.874186,394.4914 248.585353,393.625836 C252.812581,388.500293 257.252691,383.545523 261.323182,378.291314 C261.854218,377.605881 260.913794,376.630367 260.354686,377.322818" id="Fill-172"></path>
    <path d="M265.096574,379.725343 C261.173463,384.071879 258.169721,389.124902 254.422062,393.614139 C253.760023,394.407183 254.903971,395.551132 255.558993,394.75107 C259.278579,390.210367 262.123244,385.033357 265.938745,380.565175 C266.430011,379.989691 265.615913,379.1522 265.096574,379.725343" id="Fill-173"></path>
    <path d="M270.778886,387.747018 C269.059454,389.562363 267.779823,391.733292 266.02764,393.522904 C265.187809,394.38379 266.495513,395.693833 267.347041,394.842305 C269.131975,393.057371 270.296977,390.809244 271.953246,388.921378 C272.655055,388.123655 271.520464,386.960992 270.778886,387.747018" id="Fill-174"></path>
    <path d="M59.8830048,245.633077 C59.7870909,255.498169 57.3658506,265.084877 56.465196,274.87511 C56.362264,275.979289 58.0302296,275.937181 58.1635733,274.87511 C59.3964174,265.11295 61.6866534,255.509866 61.7638524,245.633077 C61.7755492,244.418948 59.8947016,244.418948 59.8830048,245.633077" id="Fill-175"></path>
    <path d="M69.4416405,253.617322 C68.2976922,259.93828 66.2764829,266.090803 65.9325966,272.535747 C65.8811306,273.501904 67.3151599,273.466814 67.4110738,272.535747 C68.0660953,266.261577 69.8463503,260.223682 70.9201177,254.024371 C71.0885518,253.058214 69.6170927,252.641807 69.4416405,253.617322" id="Fill-176"></path>
    <path d="M79.0657784,268.834876 C78.6680868,267.667534 78.2727345,266.497852 77.8773822,265.33051 C77.5873013,264.476643 76.237489,264.839244 76.5205519,265.704808 C76.9042074,266.876829 77.2878628,268.04651 77.6715183,269.218531 C77.9615993,270.100471 79.3628775,269.716815 79.0657784,268.834876" id="Fill-177"></path>
    <path d="M89.4782815,280.141015 C88.6665227,279.284809 88.423229,278.374796 88.5401971,277.214473 C88.6431291,276.168778 87.0196114,276.182814 86.9120007,277.214473 C86.7482453,278.798221 87.230154,280.148033 88.3132789,281.306018 C89.0408207,282.080347 90.2058233,280.913005 89.4782815,280.141015" id="Fill-178"></path>
    <path d="M336.259986,287.180157 C335.36167,286.097033 334.800223,284.791668 333.843424,283.748312 C333.230511,283.079255 332.348571,284.040733 332.874928,284.716809 C333.752189,285.846721 334.199007,287.20823 335.137092,288.303052 C335.806149,289.086738 336.910328,287.959165 336.259986,287.180157" id="Fill-179"></path>
    <path d="M335.291489,34.6833905 C334.493767,35.4553801 333.698383,36.2063155 333.010611,37.0812372 C332.615259,37.5842001 333.204778,38.1737195 333.707741,37.7783672 C334.582663,37.092934 335.333598,36.2952113 336.105588,35.4974887 C336.622587,34.964114 335.824864,34.1663913 335.291489,34.6833905" id="Fill-180"></path>
    <path id="Fill-181" d="M334.528857,38.5269633 C334.435283,38.5269633 334.435283,38.6720038 334.528857,38.6720038 C334.622432,38.6720038 334.622432,38.5269633 334.528857,38.5269633"></path>
    <path d="M330.399882,145.590234 C330.03962,145.945817 329.698073,146.313097 329.34483,146.675698 C329.19745,146.518961 328.97755,146.425386 328.680451,146.44878 C326.053346,146.647626 323.978332,148.469989 322.18638,150.243226 C321.327834,151.092415 322.579393,152.250399 323.477708,151.534554 C324.703534,150.561379 326.036971,149.204549 327.573932,148.605672 C325.85684,150.577755 324.336254,152.692539 323.276523,155.144191 C322.857777,156.110348 324.20525,156.971233 324.726928,155.99104 C326.568006,152.538141 328.888654,149.599901 331.639744,146.830096 C332.439806,146.027695 331.206962,144.79719 330.399882,145.590234" id="Fill-182"></path>
  </g>
</svg>