<?xml version="1.0" encoding="UTF-8" standalone="no"?>
<svg viewBox="0 0 327 414" version="1.1" xmlns="http://www.w3.org/2000/svg" xmlns:xlink="http://www.w3.org/1999/xlink">
  <title>Club Third</title>
  <g stroke="none" stroke-width="1" fill-rule="evenodd" fill="#6BBEDF">
    <path d="M246.760364,116.515961 C243.080836,104.215434 238.240212,94.7386037 229.542897,85.3108342 C225.312802,80.7236888 221.006391,79.2764077 216.446501,78.8593944 C216.939831,78.3360837 216.691803,77.3357971 215.773284,77.4257411 C211.213394,77.8672846 206.778881,78.1289399 202.507903,78.6849575 C201.927355,78.649525 201.346807,78.6059158 200.755357,78.5432275 C200.379227,78.5050695 200.158456,78.7558225 200.090316,79.0420081 C192.292441,80.3203035 185.107822,82.9450338 178.858074,90.0451608 C169.626546,100.538631 159.877159,113.754952 160.487688,128.347689 C160.89925,138.116155 165.104815,145.873146 171.395446,151.553248 C168.470902,157.105248 168.037535,164.630565 171.575334,169.980871 C172.232198,170.975707 173.804855,170.054462 173.366038,168.98331 C171.223734,163.742027 170.814898,158.184576 173.191601,153.019608 C183.900391,161.537035 199.596987,164.676899 213.361149,161.970402 C214.26604,163.45039 215.99133,164.415244 217.801113,163.496725 C237.062763,153.73916 253.994045,140.702728 246.760364,116.515961 L246.760364,116.515961 L246.760364,116.515961 Z M222.761662,152.316409 C211.946574,155.892366 202.227168,157.181564 190.744314,153.83183 C184.500018,152.008419 178.871702,148.195338 174.647059,143.234788 L174.963225,143.253867 C176.137949,143.420127 176.385976,141.523126 175.211253,141.438633 C172.69282,141.25602 172.594699,140.274812 173.297898,137.791812 C173.796679,136.033815 174.837849,134.412097 175.829959,132.907578 C177.459854,130.443657 179.457701,128.205959 181.43647,126.022772 C182.134217,125.254159 180.885903,124.283854 180.188156,125.027936 C176.767557,128.674758 172.104096,133.534461 171.444506,138.84661 C170.77674,137.740026 170.166211,136.606186 169.640174,135.428737 C172.504755,126.472492 181.180266,120.928669 185.767411,112.822804 C186.350684,111.792537 184.666278,111.097514 184.08573,112.100527 C179.817477,119.46776 171.711613,124.730849 168.517237,132.566881 C168.187442,131.566595 167.84947,130.566308 167.631424,129.530589 C168.266484,129.481529 168.669869,128.584814 168.08387,128.107838 C164.107254,124.875304 188.948159,101.389011 192.396013,100.001692 C193.401751,99.595581 192.78032,98.0447281 191.769131,98.4399367 C186.146266,100.639477 182.464012,105.537338 178.375647,109.767433 C174.13465,114.155611 169.730118,118.778189 167.053602,124.31111 C167.037249,123.324451 167.06723,122.332341 167.162625,121.332055 C167.274374,120.173685 167.495146,119.007138 167.789508,117.840591 C168.149284,117.990498 168.612632,117.900554 168.860659,117.439931 C175.091328,105.845328 186.645047,97.7421891 196.934098,89.9524912 C197.898953,89.2220367 196.784192,87.7175184 195.819338,88.4452473 C187.81977,94.4605949 176.642181,101.634313 170.523261,110.694129 C173.758521,104.204531 178.672735,98.0011189 182.632998,93.0596485 C189.719497,84.2233292 199.068225,82.5225694 208.75765,80.6610006 C214.647621,81.3560226 219.635426,82.7024574 225.062049,88.627861 C231.112829,95.2346587 234.650627,103.193342 237.678743,111.489998 C241.142951,120.988632 242.571153,132.438779 236.580336,141.392298 C233.492257,146.009425 228.111969,149.353708 222.761662,152.316409 L222.761662,152.316409 L222.761662,152.316409 Z" id="Fill-1"></path>
    <path d="M209.850606,93.1223368 C208.460562,91.492442 205.833106,90.9527778 204.423983,92.5717703 C203.88977,92.6072028 203.380087,92.6644399 202.935818,92.7680118 C201.03064,93.2095552 199.561554,94.2916092 198.615779,95.6543975 C195.271497,97.0962275 193.802411,100.614947 196.023756,103.975583 C198.438617,107.62513 204.426708,108.745342 208.414227,109.04243 C212.745168,109.366773 217.084286,108.399194 219.035799,104.136392 C221.663255,98.3990531 215.677889,94.5232832 209.850606,93.1223368 L209.850606,93.1223368 L209.850606,93.1223368 Z M211.134352,102.650953 C210.725516,102.727269 210.308503,102.754525 209.89149,102.787231 C210.338484,102.184879 210.586512,101.498034 210.700986,100.756677 C212.352685,101.309969 213.756357,102.152172 211.134352,102.650953 L211.134352,102.650953 L211.134352,102.650953 Z" id="Fill-2"></path>
    <path d="M179.648492,75.0299593 C180.594267,70.5872694 178.675461,67.0358431 175.571029,64.6509636 C171.662552,61.0041421 165.764404,60.129232 159.836275,61.9935264 C157.053462,62.8711621 154.496871,64.5201359 152.646204,66.7660111 C152.537181,66.8777597 152.411805,66.959527 152.305507,67.0740012 C151.016309,68.4749476 150.274953,70.178433 149.822507,71.9991181 C149.522693,72.9312653 149.345531,73.8824916 149.334629,74.8119132 C149.089327,76.8806258 149.03209,78.9820454 148.860378,80.8844978 C148.794964,81.584971 149.803428,81.9147658 150.078711,81.2224693 C150.47392,80.2385362 150.931817,79.2736821 151.305221,78.3388093 C151.386988,78.3360837 151.63229,78.3306326 151.63229,78.3115535 L151.63229,78.3197303 C151.63229,78.3170047 151.566876,78.3115535 151.577778,78.308828 C151.65682,78.2897489 151.686801,78.257042 151.763117,78.2243351 C155.208246,77.2485787 155.587101,72.9367165 158.718789,71.317724 C161.079138,70.1021168 163.676613,69.4752342 166.320422,69.7423407 C169.043273,70.0203495 170.070815,72.1599271 171.111986,74.4003511 C171.493566,75.2152985 172.068663,75.8312788 172.750057,76.2591944 C174.30091,79.1374032 178.874428,78.6604273 179.648492,75.0299593" id="Fill-3"></path>
    <path d="M259.660518,79.1183242 C259.303468,75.5832514 257.937954,72.8004376 255.563977,70.1866097 C253.162744,67.5428004 250.859631,64.1603598 247.449935,62.8030227 C240.532422,60.0474647 230.398728,66.2999375 229.774571,73.5908549 C229.526543,76.4881428 232.009544,78.649525 234.582488,78.2788466 C235.307491,78.2897489 235.863509,78.0471726 236.255992,77.6574152 C236.324131,77.6138059 236.394996,77.600178 236.46041,77.5538432 C237.90224,76.5235753 243.009971,71.5194166 244.206499,72.7731819 C245.383948,74.0051425 246.675871,75.1280801 247.834241,76.3355105 C247.973246,76.7579749 248.11225,77.1722625 248.264883,77.5483921 C249.1725,79.7969928 250.597976,81.565892 252.325992,83.2284937 C255.351382,86.1421351 260.028471,82.7705969 259.660518,79.1183242" id="Fill-4"></path>
    <path d="M142.332622,29.8535271 C140.481956,23.3230456 134.068674,15.6232917 127.407365,16.6808154 C129.77044,13.9470621 133.681642,10.1285293 136.469907,11.0143417 C137.423859,11.3168807 138.058918,9.9023064 137.088613,9.5670605 C133.24555,8.23152795 129.865835,11.7856798 127.314695,14.3640753 C126.180855,15.5088175 125.096076,16.7189735 124.090338,17.9863666 C123.29447,18.498775 122.501327,19.1120297 121.724538,19.9433306 C118.622831,23.2685341 117.399048,28.3108508 118.500181,32.7099314 C119.118886,35.184755 120.492577,37.1635236 122.49315,38.7361813 C124.545509,40.3524482 126.813189,40.2161694 128.999102,41.1592189 C131.029656,42.0368545 133.648935,39.8482165 132.564156,37.6813831 C131.975431,36.5066596 131.901841,35.2283642 132.098082,33.9391665 C132.201654,33.8601247 132.3025,33.8028876 132.408798,33.7183948 C133.608052,32.7426383 133.74433,31.4343616 133.275531,30.3795634 C133.542638,29.8453504 133.828823,29.3247653 134.136813,28.8232592 C134.894524,30.6412188 135.330616,32.410118 137.088613,33.7456505 C139.958645,35.9261118 143.22116,32.9933914 142.332622,29.8535271 L142.332622,29.8535271 L142.332622,29.8535271 Z M125.166941,30.1233592 C125.142411,28.5643294 125.755665,26.8581184 126.475218,25.7842413 C127.549095,24.1761511 128.718367,23.8817888 129.865835,24.3042532 C129.974858,24.3533136 130.081156,24.4160018 130.190179,24.4705133 C128.459437,26.3348077 126.562436,27.9701537 125.166941,30.1233592 L125.166941,30.1233592 L125.166941,30.1233592 Z" id="Fill-5"></path>
    <path d="M291.748732,38.1692613 C284.531405,31.6769379 272.451649,39.86457 272.195445,48.245718 C272.12458,50.5733605 274.697524,51.5300378 276.098471,50.4261793 C276.300163,51.7453584 276.929772,53.0209282 278.10177,54.1656704 C278.507881,54.560879 278.971229,54.8089065 279.459107,54.9424598 C279.456381,55.2559011 279.453656,55.5802447 279.459107,55.874607 C279.540874,59.5895679 283.54202,60.0365624 285.959607,58.3794118 C286.627373,60.786096 289.590075,62.8902411 291.901364,60.8324308 C298.009381,55.3949055 297.777707,43.5958844 291.748732,38.1692613" id="Fill-6"></path>
    <path d="M325.611295,320.637118 C323.744275,309.486784 315.976382,302.89634 305.087704,303.01354 C292.165745,303.152544 281.048118,318.808256 274.269609,327.704538 C269.118269,334.472145 266.771548,342.409024 260.093885,348.100028 C254.010398,353.2868 245.610171,353.205033 240.655073,348.503413 C250.734255,337.00148 256.602421,321.623777 260.456387,307.044668 C261.903668,301.566259 263.119275,296.052417 264.247664,290.514045 C264.640147,290.53585 265.043532,290.492241 265.452369,290.364139 C288.159147,283.206775 305.842688,261.184116 301.465412,236.623945 C297.142648,212.355411 275.38437,193.311807 259.120854,175.595559 C279.761646,163.112418 292.841688,139.617948 296.273189,115.763702 C297.314359,108.538198 296.04424,100.901132 295.024875,93.7601217 C293.967351,86.3656324 289.21122,84.8284072 297.12902,79.8569555 C309.475882,72.0999645 314.78258,59.6222748 313.883139,45.3375278 C312.566686,24.4269041 283.920876,0.77435037 267.597397,18.5342075 C252.15428,5.42145847 229.660097,-0.408549877 209.899666,0.10930968 C196.492555,0.45818348 182.622096,2.32792903 169.454835,4.80547816 C163.052456,6.00745744 157.064364,9.8259903 152.69799,14.6802422 C150.204088,9.5452559 142.398036,5.21431465 138.375085,3.10744394 C131.2368,-0.629321582 120.773311,0.63807154 114.221025,4.97991506 C94.1744094,18.2589243 96.6083493,42.2767053 116.668593,53.7731874 C116.8185,53.8604058 116.971132,53.9149174 117.121039,53.9748801 C110.208977,61.6173969 105.600026,73.4627528 102.422004,82.1573421 C97.8294076,94.7249758 99.238531,107.003698 102.700013,119.576783 C106.815634,134.523845 114.689824,148.1381 125.750214,157.862958 C115.174977,160.670302 107.003698,167.852196 97.5323197,173.987469 C83.5201304,183.063639 70.2411212,194.372056 61.7618524,209.101072 C55.6565608,219.706291 47.9213744,233.732108 53.6096528,245.909984 C58.2077005,255.754767 66.3190165,259.445198 75.5996048,262.020868 C67.4092471,288.630672 62.3723816,314.229287 79.467198,337.64199 C74.0133192,337.805525 66.2454259,334.750154 65.1851766,333.981541 C58.2867422,328.963755 53.9667033,319.906664 48.0740067,313.752312 C40.1398532,305.461108 35.2965036,295.553637 23.2821619,293.283231 C13.5355,291.440741 5.83847169,301.985997 2.68225399,309.511314 C-2.07932833,320.868792 1.22679608,335.221678 5.30425868,346.216654 C15.8876726,374.769795 42.9144902,392.973921 73.4763806,391.354929 C80.9907953,390.956994 87.5948674,388.640254 95.0983798,391.169589 C102.80631,393.769789 110.546948,397.105895 118.391157,399.130999 C134.207678,403.213912 147.227758,404.023409 162.730838,401.507701 C170.444219,402.644267 178.329313,402.521616 186.429726,401.981952 C196.833252,401.28693 206.498147,400.08495 216.898947,401.935617 C226.403033,403.625474 235.770839,407.329533 245.108665,409.850691 C257.51549,413.200425 270.94168,414.811241 280.590221,404.445873 C293.269603,390.823441 301.939663,375.492073 311.503711,359.631942 C318.860042,347.434987 328.105198,335.51059 325.611295,320.637118 L325.611295,320.637118 L325.611295,320.637118 Z M128.361317,146.317415 C126.914035,144.889213 125.515815,143.401048 124.202087,141.817488 C124.845323,126.428883 130.370067,110.214428 138.903847,97.4451013 C139.525278,96.5156797 138.173392,95.4227234 137.538333,96.3548706 C129.416115,108.292896 122.722099,124.542784 122.310537,139.421707 C120.361749,136.816055 118.56832,134.02779 116.971132,131.0024 C118.099521,123.351707 120.587972,116.27611 123.605186,109.165081 C124.935267,106.030668 126.300781,102.912608 127.630862,99.778195 C129.018181,96.5156797 130.738019,88.5651727 134.254013,86.9843383 C135.289732,86.5182647 134.643771,84.8829187 133.597149,85.3435412 C131.493004,86.2702372 130.792531,87.0497521 130.013016,89.2792738 C128.279549,94.2425488 125.886493,99.072271 123.774171,103.882913 C120.331768,111.724397 116.859383,119.440504 115.403926,127.83528 C114.357304,125.583954 113.381548,123.245409 112.528442,120.759684 C112.06782,119.424151 111.713495,118.066814 111.337365,116.712202 C113.885779,109.366773 116.941151,102.269372 120.4844,95.3300538 C124.431035,87.6030442 130.007565,80.58741 133.12835,72.4788196 C133.447243,71.6475187 132.188026,71.1024034 131.855506,71.9337043 C128.958218,79.1428544 123.945883,85.5970198 120.149154,92.3864311 C116.379682,99.126782 113.196208,106.161495 110.492436,113.384273 C107.417986,99.650093 108.508217,85.2508716 112.989065,71.8028766 C113.237092,72.1490248 113.858524,72.2525968 114.112002,71.7429139 C116.886639,66.1636586 120.664288,61.622848 124.848048,57.0738607 C128.707465,52.8819238 132.596863,46.3459912 137.644631,43.5822565 C138.083448,43.3424057 137.80544,42.6119512 137.352994,42.8518019 C133.000248,45.149463 130.498169,49.4831298 127.227477,53.0263794 C122.212416,58.4584536 117.216434,63.508947 113.640477,69.9685636 C116.058064,63.2200359 119.296049,56.7249868 123.297195,50.7150904 C123.692404,50.1209147 123.283567,49.436795 122.708471,49.3850091 C122.65941,48.6409266 122.386853,47.9131977 121.795403,47.2917662 C118.099521,43.4296242 113.749501,40.2134438 110.516967,35.9451908 C104.368066,27.8256981 110.252586,17.8528134 116.65224,12.2708325 C121.555552,7.99712836 128.200508,7.20398557 134.349408,8.2260768 C137.840872,8.80389904 147.314976,12.9004407 150.670161,17.1550657 C150.61565,17.2259307 150.552961,17.2940702 150.501175,17.3649351 C149.961511,18.1117431 150.697417,19.3709595 151.643192,18.9021603 C151.65682,18.8967092 151.670448,18.891258 151.684076,18.8858069 C152.016596,19.7416379 153.327598,19.5344941 153.444798,18.6459561 C153.469328,18.4633425 153.452975,18.28618 153.461152,18.1035664 C168.819776,11.0415974 184.854343,10.0031527 201.76382,8.70032713 C223.832814,6.99684175 249.227011,12.2762836 265.455094,28.3108508 C265.915717,28.7660221 266.433576,29.0222263 266.970515,29.1694074 C266.33273,29.6572856 265.686768,30.1315359 265.070788,30.6466699 C264.154994,31.4098314 265.253402,32.9034473 266.171921,32.1375603 C268.210652,30.4340749 270.358406,28.8859474 272.612458,27.4850011 C273.269322,27.0761646 273.034923,26.3239054 272.522514,25.9995618 C283.705555,6.04834109 303.738543,33.9200874 306.017125,46.3187354 C307.886871,56.498764 301.975095,64.719103 294.975814,71.0724221 C292.255689,73.5417945 287.532265,73.577227 285.106501,76.6162449 C281.634117,80.9717163 283.460253,86.3492789 284.981125,91.0754288 C289.213945,104.261768 287.480479,118.317567 282.977826,131.165935 C274.086995,156.546504 252.478624,173.006261 226.045982,175.745466 C206.15745,177.806002 183.458848,177.642467 164.679625,169.705588 C164.644192,169.463012 164.600583,169.223161 164.570602,168.98331 C164.679625,168.312819 164.622388,167.642327 164.363458,167.045425 C163.742027,160.457707 164.360732,154.036248 166.582077,147.598436 C167.029072,146.311964 165.091187,145.461584 164.625113,146.758959 C162.553675,152.553535 161.289008,158.934109 161.768709,165.137522 C160.784776,164.821355 159.817196,164.49156 158.849617,164.161765 C157.936548,156.835415 159.05676,149.509066 161.384403,142.406213 C161.801416,141.127917 159.879884,140.282989 159.446518,141.574912 C157.18974,148.282556 155.371781,156.055901 156.366616,163.286855 C154.960219,162.76627 153.567449,162.234783 152.212838,161.665137 C150.103241,151.853061 152.967822,140.100375 155.963231,131.18774 C156.448384,129.743184 154.273373,128.789232 153.769142,130.247416 C150.9727,138.375085 147.372213,150.539333 149.143838,160.269642 C146.9552,159.253002 144.810171,158.190027 142.768715,157.02348 C142.659692,153.842732 143.19663,150.599296 143.730843,147.415823 C144.919195,140.321147 145.72324,133.234648 148.933969,126.693264 C149.582656,125.371359 147.492139,124.488272 146.840726,125.796549 C143.251142,132.983895 142.400762,140.92895 141.032522,148.751355 C140.629137,151.057193 140.3375,153.327598 140.315696,155.55712 C138.792098,154.611345 137.301208,153.632863 135.87028,152.591693 C136.900548,140.882616 140.043138,129.920346 144.679344,118.941724 C145.178124,117.764275 143.371067,116.990211 142.861384,118.159483 C138.25516,128.740172 134.703733,139.577064 133.697996,150.978151 C132.506919,150.037827 131.348549,149.059345 130.228337,148.03998 C131.705599,142.845031 132.515095,137.464743 133.545363,132.166222 C135.066235,124.338366 138.023486,117.284573 141.013443,109.955498 C141.449536,108.889797 139.835994,108.197501 139.367195,109.252299 C133.986907,121.394743 131.304939,133.605326 128.361317,146.317415 L128.361317,146.317415 L128.361317,146.317415 Z M131.370353,162.204801 C129.015455,162.864391 126.674185,163.56759 124.346542,164.308946 C126.246269,163.281404 128.151447,162.278392 130.059351,161.316263 C130.484541,161.629705 130.936987,161.902262 131.370353,162.204801 L131.370353,162.204801 L131.370353,162.204801 Z M116.060789,169.043273 C119.39417,167.805861 122.743903,166.614784 126.129069,165.527279 C127.960657,164.938555 130.321006,163.984603 132.801281,163.172381 C134.733715,164.439774 136.750641,165.587242 138.827531,166.633863 C125.180569,170.670442 111.697141,175.306648 98.6906898,181.08487 C104.212708,176.704869 110.045442,172.681918 116.060789,169.043273 L116.060789,169.043273 L116.060789,169.043273 Z M102.326609,210.750046 C103.027082,210.785479 103.72483,210.820911 104.425303,210.856344 C103.555844,212.14009 102.689111,213.41566 101.827828,214.663974 C100.080734,217.190584 98.3527183,219.659956 96.6437818,222.115701 C95.5944348,222.666267 94.5423622,223.195029 93.4902896,223.751047 C92.38098,224.33432 93.0596485,226.149554 94.2261953,225.588085 C94.2370976,225.582634 94.2479999,225.577183 94.2589022,225.571732 C88.0037039,234.694237 82.2799931,243.740425 78.2325118,254.274779 C75.8312788,253.424399 73.4845574,252.424112 71.3395286,251.203054 C71.5166911,251.126738 71.6829512,251.006813 71.7974255,250.799669 C73.8579614,247.084708 77.1640858,244.54447 78.9820454,240.685054 C79.2409752,240.131762 78.8212364,239.646609 78.3142791,239.504879 C76.5181241,239.008824 75.3951866,239.491251 73.7707429,240.366162 C70.7753342,241.979703 72.1408481,238.0685 73.0266605,236.855619 C74.3485652,235.045836 75.9130461,233.402313 77.4284667,231.758791 C84.6021843,223.971818 92.2528779,216.580055 100.77303,210.278521 C101.601606,209.665267 100.653105,208.389697 99.821804,208.994775 C88.1454339,217.523104 74.7137924,228.747028 67.5945863,241.486374 C67.3247543,241.966075 67.6572746,242.606586 68.1206226,242.805553 C70.1402749,243.677737 71.3858634,243.536007 73.3673576,242.576604 C77.0904952,240.774998 75.6622931,243.007245 73.9315519,244.87154 C72.3561687,246.566848 71.2087009,248.068641 70.1130191,250.080117 C70.0503309,250.191865 70.0258007,250.300888 70.0148984,250.40446 C64.7790657,247.035647 61.1267931,242.086 61.7727547,234.195456 C62.6885485,222.993336 70.9688502,210.758223 77.6383361,202.131773 C77.8563822,202.676888 78.4805393,203.042116 79.0420081,202.546061 C94.8530779,188.536597 116.376956,181.373782 135.671313,173.532298 C136.649795,173.134364 136.044717,171.618943 135.060784,172.011426 C116.532314,179.392287 95.7034578,186.105383 80.1213364,199.081853 C84.4713567,193.835118 89.322883,188.964512 94.5614412,184.478213 C94.7903897,184.666278 95.0983798,184.750771 95.4663327,184.589962 C110.437925,178.100364 125.657545,172.523834 141.245117,167.77588 C143.199356,168.65079 145.199929,169.449384 147.282269,170.098071 C148.625979,171.316404 149.986041,172.422988 151.359732,173.45053 C142.019181,176.290581 132.539626,178.165778 123.422572,181.834404 C122.416834,182.237789 123.046442,183.813173 124.046729,183.396159 C130.209258,180.825941 136.527144,178.844446 142.943151,177.01831 C145.248989,176.361446 148.527858,175.03409 151.96481,173.894799 C154.243392,175.549224 156.579211,176.925641 158.972267,178.133071 C149.380963,180.716918 139.740599,183.638736 130.380969,187.113846 C130.018467,186.372489 129.200794,185.841002 128.309531,186.26074 C125.731135,187.473622 123.381688,189.008122 121.195776,190.749765 C118.696422,191.810014 116.218873,192.908422 113.790384,194.072243 C112.899121,194.497433 113.41698,195.813886 114.36003,195.494994 C115.221312,195.203357 116.077143,194.898093 116.9357,194.598279 C113.896682,197.694534 111.190184,201.183272 108.636319,204.76468 C106.314128,206.042975 104.049173,207.427568 101.865987,208.94844 C101.179141,209.428142 101.435345,210.703711 102.326609,210.750046 L102.326609,210.750046 L102.326609,210.750046 Z M55.8200954,378.822727 C57.9106127,373.407007 58.1940726,367.399836 58.9872154,361.542572 C60.2137249,362.589193 61.4538623,363.627638 62.672195,364.682436 C62.0126055,369.555767 61.6882618,374.459079 62.2388283,379.228838 C62.2579074,379.381471 62.3069677,379.509573 62.3751071,379.624047 C60.1592134,379.463238 57.9787521,379.209759 55.8200954,378.822727 L55.8200954,378.822727 L55.8200954,378.822727 Z M72.8413213,379.773954 C74.0678308,376.110779 73.8688637,372.352208 73.7489383,368.522773 C74.6102205,370.079078 75.534191,371.594498 76.4990451,373.079937 C76.0247948,375.347617 75.8094742,377.585316 76.1419946,379.607693 C75.0490383,379.659479 73.9070217,379.741247 72.8413213,379.773954 L72.8413213,379.773954 L72.8413213,379.773954 Z M78.3824185,379.495945 C78.346986,378.370282 78.4042231,377.220088 78.5514043,376.045365 C79.3908819,377.179205 80.2576152,378.293965 81.1952136,379.35694 C80.2249083,379.419629 79.3309192,379.444159 78.3824185,379.495945 L78.3824185,379.495945 L78.3824185,379.495945 Z M117.03382,387.446452 C106.240537,383.426226 95.9542109,378.967183 84.3923149,379.242466 C82.4762346,377.127419 80.7618469,374.878818 79.1537567,372.556627 C79.769737,369.68932 80.6037635,366.835641 81.1461532,364.235441 C82.2690908,358.844251 83.0349778,351.994877 85.3571691,347.047955 C85.8368705,346.034041 84.2832919,345.398981 83.773609,346.369287 C81.0235023,351.599668 80.3775406,358.222819 78.9656919,363.938354 C78.5350508,365.677271 77.8945403,367.683296 77.3112669,369.765636 C76.0793063,367.830477 74.8909549,365.862611 73.7625662,363.848409 C73.9261008,358.288233 74.697439,352.586327 76.1474457,347.345043 C76.3600407,346.570979 75.0054291,346.19485 74.7846574,346.966188 C73.3782599,351.850421 72.8903817,356.775538 72.5769404,361.708832 C71.5248678,359.776398 70.4973254,357.824885 69.469783,355.86247 C68.9464723,354.859458 67.3165775,355.467261 67.8099069,356.527511 C69.2708159,359.661924 70.7399017,362.801788 72.3289129,365.868062 C72.0781598,370.485189 71.8165045,375.09959 70.9470456,379.689461 C70.9388688,379.73307 70.9497711,379.765777 70.9470456,379.80666 C68.6248543,379.847544 66.3462723,379.839367 64.1194762,379.727619 C64.2175969,379.596791 64.2939131,379.444159 64.3102665,379.242466 C64.6264334,374.832483 64.8935399,370.49064 65.2696695,366.159698 C65.981045,365.83808 66.3926071,364.739673 65.6621525,363.990139 C65.6103666,363.938354 65.5531295,363.892019 65.5040691,363.840233 C65.8774731,359.980816 66.3408211,356.124125 67.0521966,352.229276 C67.3111264,350.825604 65.1170372,350.528517 64.8581074,351.929463 C64.2802852,355.082955 63.6534026,358.323666 63.1273663,361.591632 C61.9226614,360.501401 60.696152,359.413896 59.4968983,358.29641 C59.8375953,356.451195 60.2736876,354.633235 60.8896679,352.875238 C61.3584671,351.53698 59.3388148,350.653893 58.8536622,352.003054 C58.333077,353.450335 57.9242406,354.916695 57.5590133,356.391232 C55.7247002,354.480603 54.11661,352.409164 53.1245002,349.947969 C52.4458316,348.266288 49.8674361,349.299282 50.5133978,350.991865 C51.8543815,354.502407 54.1929262,357.192551 56.8312843,359.631942 C55.6211283,365.83808 55.127799,372.164144 53.3180161,378.280338 C51.4346427,377.846971 49.559446,377.34819 47.6869748,376.680424 C47.8886675,374.688028 48.3220342,372.703808 48.7063405,370.708686 C49.7475107,365.309319 50.2462913,359.790026 51.2547546,354.37158 C51.5027821,353.036047 49.4122648,352.752587 49.1642374,354.085394 C48.0794579,359.915402 47.4525753,365.840806 46.2669494,371.643559 C45.9780383,373.047231 45.6700482,374.461805 45.4738066,375.876379 C44.0074464,375.274027 42.5410862,374.611711 41.0638237,373.832197 C41.5353484,370.599663 41.2055537,367.244478 41.5026415,363.984688 C41.9877942,358.67254 42.8654298,353.395823 43.5904332,348.113656 C43.7812236,346.729063 41.6307436,346.429249 41.4372277,347.819294 C40.7939916,352.444597 40.1098719,357.061724 39.5402264,361.69793 C39.0932318,365.333849 39.2731199,369.054261 38.9923855,372.687454 C37.2807234,371.687168 35.5608845,370.580584 33.8137899,369.305014 C33.5357811,369.103321 33.2741258,368.882549 33.0015681,368.67268 C33.2359677,364.050102 34.8958438,355.088406 35.0157692,354.426091 C36.2886135,347.347769 37.3488628,340.214935 39.5156962,333.338305 C39.9081792,332.095442 38.0411592,331.275044 37.6350483,332.53426 C35.11389,340.370293 33.8982828,348.538846 32.3937645,356.614729 C31.8322957,359.631942 30.5567259,362.970774 30.0415919,366.222387 C25.5552928,362.19671 21.8485087,357.405146 18.9048859,352.150235 C19.3627828,352.172039 19.8206797,351.924012 19.8860935,351.324385 C21.0335612,340.73552 22.8896789,330.457371 27.0979692,320.604411 C27.5776707,319.481474 25.844204,318.740117 25.3563257,319.860329 C21.1180541,329.596088 18.9403184,339.876963 17.9672876,350.419494 C17.2777167,349.089412 16.6154016,347.742977 16.0185003,346.366561 C16.4682204,334.28408 18.7849606,322.84211 23.6364869,311.708129 C24.189779,310.43801 22.2191871,309.593082 21.6577183,310.8632 C17.4112699,320.489937 14.6311818,330.738105 14.0370061,341.228849 C12.6878457,337.274038 11.6821079,333.207477 11.0306951,329.121838 C12.4507205,323.463541 13.1293891,317.647161 14.5030797,311.956157 C14.8028931,310.716019 12.840478,310.459815 12.5406646,311.68905 C11.6902847,315.180514 11.1206391,318.723763 10.4665008,322.245208 C10.4937565,320.045668 10.6981748,317.859755 11.1233647,315.690197 C12.8731849,303.476888 26.6455235,301.797933 33.3749721,310.770531 C37.1226399,315.766513 42.143152,319.443315 46.4059538,323.962322 C52.5057943,330.424664 59.2843033,342.321805 69.0773,343.646436 C71.1460127,343.92717 77.6110803,343.221246 82.4844113,341.515035 C82.5089415,341.542291 82.5280205,341.572272 82.5525507,341.602253 C86.6627202,346.442877 94.2016651,340.978096 90.51396,335.712282 C89.7971333,334.690191 89.1239159,333.670825 88.4834054,332.656911 C90.1105746,328.004352 92.348273,323.583466 94.6704643,319.148953 C98.0065701,312.77383 102.492869,307.044668 105.49918,300.527814 C106.627569,306.030753 108.685379,311.386511 111.457291,316.442456 C108.091203,324.054991 104.915907,331.765647 101.361755,339.29369 C99.557423,343.106772 97.9902166,347.028876 96.4829727,350.964609 C95.5780813,353.335861 95.3436817,355.62807 95.1637937,357.991145 C94.2098419,356.617455 93.3403829,355.235587 92.6426353,353.856446 C92.0757154,352.730783 90.3504254,353.37947 90.8055967,354.592351 C91.7731764,357.170747 93.0187649,359.629217 94.4524182,361.995017 C93.468485,364.709692 92.8525047,367.511584 93.2259087,370.51517 C93.6974335,374.336428 97.3279015,373.156254 100.018046,373.518755 C100.980174,373.649583 101.416266,372.207753 100.481394,371.853428 C99.467479,371.466396 98.5080762,371.313764 97.4260222,371.275606 C95.3736631,371.19929 95.5399232,369.702948 95.5780813,367.855007 C95.5998859,366.729344 95.798853,365.620034 96.0959409,364.524352 C98.8733034,368.539127 102.233939,372.243185 105.981607,375.6229 C106.044295,376.895745 106.352286,378.144059 107.020052,379.337861 C107.259903,379.771228 107.889511,379.858446 108.30925,379.703089 C108.865267,379.49867 109.421285,379.294252 109.977302,379.089834 C110.004558,379.078932 110.020912,379.059853 110.045442,379.046225 C115.627423,383.486189 121.75997,387.334703 127.816201,390.602669 C124.256598,389.787722 120.680642,388.803789 117.03382,387.446452 L117.03382,387.446452 L117.03382,387.446452 Z M212.276369,314.687184 C203.033939,328.366853 190.25371,340.043223 177.587956,344.712136 C156.729118,352.403713 136.747916,336.162002 123.711483,321.893609 C112.225903,309.320524 109.838298,291.920443 111.71622,275.815011 C113.730421,258.559385 123.237233,244.841558 133.163783,231.216401 C142.48798,218.419819 154.902982,212.73154 168.702576,206.877002 C169.105961,207.367606 169.708314,207.713754 170.531438,207.670145 C206.356417,205.718632 226.340344,247.079257 225.863368,277.695659 C225.691657,288.69336 220.962782,301.222836 213.715474,312.572137 C213.470172,312.198733 212.881447,312.08971 212.644322,312.626648 C212.333606,313.329847 212.227309,314.00579 212.276369,314.687184 L212.276369,314.687184 L212.276369,314.687184 Z M207.043262,390.703516 C203.660821,390.531804 200.234772,390.545432 196.699699,390.828892 C200.967952,388.686589 205.129907,386.255375 209.169212,383.46711 C209.63256,383.145492 210.204931,382.755734 210.820911,382.33327 C209.087444,384.889861 207.686498,387.623614 207.043262,390.703516 L207.043262,390.703516 L207.043262,390.703516 Z M246.566848,399.417184 C247.458112,395.590475 247.733395,391.652016 248.450222,387.778972 C248.717328,386.337142 249.028044,384.906214 249.319681,383.469835 C252.710298,377.574413 256.515203,372.076925 260.644451,366.742972 C260.230164,368.847117 259.674146,370.902202 259.357979,372.556627 C258.777431,375.582017 258.169628,378.59923 257.537294,381.613718 C256.986728,382.349623 256.447064,383.093706 255.88832,383.826886 C254.961624,385.045219 255.419521,386.391654 256.332589,387.165717 C256.310785,387.269289 256.28898,387.372861 256.267175,387.479159 C255.424972,391.12598 253.342632,396.168297 252.683042,400.818131 C250.652488,400.450178 248.60558,399.967751 246.566848,399.417184 L246.566848,399.417184 L246.566848,399.417184 Z M259.2217,401.50225 C257.984289,401.488622 256.722347,401.376874 255.449502,401.224241 C255.904674,399.144626 256.564263,397.086816 257.000356,395.19254 C257.580903,392.668656 258.164177,390.144773 258.725646,387.615437 C259.071794,387.468256 259.404314,387.247485 259.685049,386.857727 C262.372467,383.088255 264.96449,379.25882 267.392979,375.331264 C267.057733,377.579864 266.700683,379.820288 266.16647,382.055261 C264.634696,388.473994 262.497844,394.595639 262.71589,401.202437 C261.587501,401.387776 260.434582,401.513153 259.2217,401.50225 L259.2217,401.50225 L259.2217,401.50225 Z M309.325975,344.951987 C301.12199,358.568968 292.841688,372.49939 283.362132,385.271442 C278.431564,391.916397 272.607007,398.574981 264.702835,400.722735 C265.144378,393.65259 267.109519,387.004908 268.654921,380.068316 C269.311785,377.124693 269.587068,374.074773 269.952296,371.060285 C271.047977,369.141479 272.097324,367.195418 273.083983,365.208472 C273.787182,363.791172 272.748737,362.698216 271.538581,362.515603 C271.772981,361.133735 271.882004,359.730063 271.661232,358.217368 C271.505874,357.173472 269.895058,357.369714 270.034063,358.421786 C270.211225,359.792752 270.047691,361.409018 269.750603,363.079797 C269.595245,363.232429 269.442613,363.382336 269.325413,363.600382 C266.872394,368.182076 264.051422,372.518469 261.066916,376.748564 C262.181677,372.363111 263.596251,367.525212 263.49813,363.082522 C265.283383,360.899336 267.131324,358.740679 269.047404,356.592925 C270.620062,354.832202 267.769109,352.597229 266.201902,354.319794 C265.010825,355.630796 263.814297,356.952701 262.625946,358.288233 C262.029044,357.244337 260.265596,358.01295 260.712591,359.261264 C260.818888,359.563803 260.8734,359.896323 260.941539,360.223393 C257.738987,363.889293 254.615476,367.664217 251.794504,371.638107 C251.958039,370.880397 252.121573,370.122687 252.282382,369.364977 C252.533136,368.171174 250.657939,367.920421 250.40446,369.108772 C249.919308,371.379178 249.431429,373.638681 248.949002,375.898184 C246.326998,380.076493 244.078397,384.464671 242.481209,389.163565 C241.794364,391.183217 244.571726,392.398824 245.533855,390.471842 C245.773706,389.989415 246.032635,389.528792 246.277937,389.054542 C245.659231,392.306155 245.084135,395.571396 244.574452,398.861167 C241.287406,397.915391 238.049421,396.86877 235.004952,395.977506 C236.261443,388.694766 238.289272,381.613718 239.840125,374.388214 C240.12086,373.085389 238.076677,372.815557 237.793217,374.110205 C236.239639,381.213058 233.876564,388.155102 232.710017,395.339722 C230.66856,394.780978 228.648908,394.257668 226.645609,393.775241 C227.825784,389.106328 232.034074,378.948104 232.611896,377.519902 C234.02647,374.025713 236.275071,371.308313 235.113975,367.429817 C234.732395,366.159698 232.854472,366.936488 233.214249,368.187527 C234.326284,372.052395 229.74459,378.732783 228.32729,382.355075 C226.926343,385.939208 225.697108,389.596932 224.707724,393.317344 C222.249254,392.761326 219.807137,392.254369 217.367746,391.848258 C217.926489,390.231991 218.755065,388.672961 219.499147,387.182071 C221.796808,382.589474 223.802833,378.105901 226.850027,373.908513 C227.73584,372.687454 225.909703,371.226545 225.01844,372.447604 C221.600567,377.116516 219.357417,382.153382 216.770845,387.285643 C216.086725,388.64298 215.42441,390.046652 214.963788,391.488482 C213.491976,391.278612 212.020165,391.074194 210.537451,390.937915 C210.619219,390.785283 210.706437,390.616297 210.807283,390.420056 C211.237924,389.602383 210.521098,388.994579 209.796094,389.016384 C211.311515,384.709973 214.377789,381.101309 217.261449,377.577139 C217.310509,377.517176 217.359569,377.449037 217.40863,377.389074 C220.564848,374.718009 223.48394,371.610852 224.369752,368.563657 C225.108384,367.871361 225.890624,367.233576 226.762809,366.723893 C227.986593,366.004341 226.664688,364.251795 225.459983,364.957719 C225.122012,365.156686 224.814021,365.393811 224.497855,365.617309 C224.418813,365.257533 224.328869,364.895031 224.170785,364.540706 C223.846442,363.832056 222.756211,364.259972 223.042397,364.993152 C223.244089,365.513737 223.287699,366.056127 223.244089,366.609419 C220.491257,369.040633 218.477056,372.376739 216.244809,375.293106 C210.120438,379.902056 201.911001,383.957714 199.44708,385.208753 C200.153004,383.649724 200.820771,382.07434 201.485811,380.493506 C201.911001,379.482317 200.360148,378.817276 199.92133,379.823014 C199.010988,381.90808 198.078841,383.976793 197.285698,386.108194 C197.266619,386.15998 197.299326,386.192686 197.288423,386.241747 C192.246107,388.656608 187.007548,390.553609 181.646339,392.052676 C173.453256,392.423355 165.415531,392.090834 157.266057,390.858874 C157.429591,384.808094 160.185149,379.286075 161.684216,373.510579 C162.03309,372.164144 159.909866,371.902488 159.552815,373.218942 C157.985609,378.978085 155.178265,384.393806 155.036535,390.460939 C152.858799,390.087535 150.678338,389.703229 148.473346,389.193546 C148.764983,382.030731 151.258886,375.571114 153.278538,368.735368 C153.627412,367.555194 151.855787,366.775679 151.496011,367.972207 C149.424573,374.854288 146.183862,381.850843 146.652661,389.171742 C145.646923,389.406141 144.883762,390.076633 144.444944,390.981525 C143.608192,390.738948 142.77144,390.471842 141.934688,390.204735 C141.991925,381.711839 145.775026,372.692906 147.642046,364.551608 C147.928231,363.30602 145.965816,363.049816 145.67963,364.284502 C144.502181,369.33227 143.008565,374.292819 141.722093,379.313331 C140.885341,382.575846 139.617948,386.048231 139.705166,389.463378 C138.89567,389.182644 138.086174,388.907361 137.279403,388.602096 C136.807879,388.422208 136.32,388.215064 135.837573,388.018823 C138.170667,377.966896 137.042278,367.378031 141.732995,357.860318 C142.343525,356.622906 140.394737,355.805233 139.776031,357.02084 C135.014449,366.372293 135.404207,376.944805 133.610777,387.067597 C131.473925,386.11637 129.249855,385.031591 126.973998,383.815984 C126.963096,380.46625 128.165075,377.356367 128.941864,374.091126 C130.192904,368.817136 130.838866,363.559498 132.596863,358.391805 C133.032955,357.11351 131.097796,356.274032 130.658978,357.56323 C128.857372,362.861751 127.816201,368.312904 126.668734,373.780411 C126.044577,376.754015 124.779909,379.534103 124.597295,382.488628 C122.193337,381.131291 119.77575,379.697637 117.374517,378.116803 C116.409663,371.08209 120.773311,363.368708 122.460443,356.819147 C122.653959,356.077791 121.372938,355.72074 121.160343,356.456646 C119.32603,362.809965 115.316707,369.850129 115.327609,376.743112 C113.185306,375.26585 111.072984,373.725899 109.047881,372.117809 C110.285293,368.067602 112.672898,362.970774 113.111716,362.082236 C116.731281,354.734081 119.552253,346.887146 122.716648,339.334574 C123.125484,338.358817 121.634594,337.718307 121.209404,338.688612 C117.390871,347.424085 113.828542,356.317641 109.448541,364.788733 C108.560003,366.508572 107.595149,368.421927 106.900127,370.395244 C105.455571,369.179637 104.05735,367.9395 102.738171,366.674832 C103.117026,366.396824 103.495881,366.118815 103.874736,365.840806 C104.804158,365.159412 103.784792,363.875665 102.836292,364.437134 C99.895395,366.181503 102.814487,359.280343 103.351426,357.770374 C105.643636,351.318934 108.936132,345.300861 110.988491,338.756751 C111.261049,337.890018 109.960949,337.317647 109.677489,338.195283 C107.437065,345.142777 103.768439,351.490645 101.116453,358.282782 C100.546807,359.743691 99.770018,361.616162 99.551972,363.417768 C98.7969873,362.594644 98.0856118,361.763343 97.4014921,360.932043 C98.1210443,359.28852 98.9332661,357.683155 99.631014,356.129577 C100.184306,354.892165 98.57349,354.01998 97.7285612,354.755886 C97.9002726,353.785581 98.1128675,352.809824 98.4644669,351.814989 C99.865413,347.835647 101.508936,343.943524 103.209696,340.084107 C106.395895,332.847701 109.475796,325.562235 112.498461,318.252239 C125.417694,340.089558 151.850336,355.739819 175.674601,351.918561 C189.812167,349.650881 200.613627,337.821879 209.210095,327.366567 C221.94944,311.866213 231.652493,294.455229 231.987739,274.046112 C232.524678,241.478197 207.116853,197.997073 169.994499,203.358282 C168.697125,203.546347 168.149284,204.519378 168.181991,205.495135 C151.37336,211.393282 138.865689,217.247821 127.19477,232.047702 C113.411529,249.526825 105.322018,266.605287 104.504345,289.197592 C104.411675,291.746006 104.558856,294.283518 104.877749,296.801951 C100.522277,308.431986 91.2117076,318.28222 86.8807664,329.972218 C85.5942942,327.723617 84.4686311,325.49137 83.5092281,323.270025 C85.6160988,317.750732 88.4534241,312.640276 91.4978931,307.491662 C95.5481,300.636837 99.064094,293.465845 103.746634,287.008954 C104.479814,286.000491 102.978022,284.79306 102.233939,285.798798 C97.4260222,292.282945 93.7928286,299.481192 89.6335987,306.374176 C86.9052966,310.895907 84.2723896,315.37403 82.2745419,320.165593 C81.3396691,317.619905 80.58741,315.079667 80.0313924,312.542156 C83.1330985,306.649459 86.6354645,300.966632 90.2168721,295.360121 C95.1501658,287.641288 101.211848,280.813718 105.401059,272.609733 C105.916193,271.603995 104.31628,270.936229 103.795695,271.922887 C96.8236698,285.141934 86.7826456,296.240482 79.4045098,309.135185 C78.8839246,305.845414 78.6222693,302.550192 78.6168181,299.224988 C82.4271742,292.500991 86.7063295,286.074081 91.1817262,279.745292 C96.3085358,272.503435 102.539204,266.201902 106.960089,258.453088 C107.486125,257.531843 105.978882,256.907686 105.455571,257.807126 C100.634026,266.076526 93.8037309,272.893193 88.2217501,280.628379 C84.8638397,285.283664 81.6939941,290.056149 78.7258412,294.95401 C78.8948269,291.914992 79.2327984,288.843267 79.7152255,285.725207 C83.522856,280.353096 87.7747555,275.324407 92.0729898,270.211225 C98.8296942,262.178951 104.727842,253.511618 112.274964,246.160737 C112.997241,245.457539 111.770732,244.18742 111.043003,244.885168 C103.384133,252.214243 97.2434086,260.821614 90.4567229,268.922028 C87.1560496,272.860486 83.7518044,276.717177 80.58741,280.737402 C81.2497251,277.346785 82.02924,273.89893 82.9232291,270.358406 C86.8344316,265.468722 91.5142466,261.344925 96.0904897,256.801388 C102.056777,250.878711 107.328042,244.195597 114.689824,239.921893 C115.502046,239.450368 114.627136,238.308351 113.825817,238.758071 C105.706324,243.331589 99.939004,250.796943 93.2122808,257.071221 C90.1514583,259.924899 86.9870639,262.713164 84.1197573,265.738554 C84.4522776,264.49024 84.784798,263.247377 85.1336718,261.977258 C85.1990856,261.734682 85.2863041,261.505734 85.3544435,261.265883 C85.5070758,260.925186 85.6106477,260.56541 85.6842382,260.200182 C86.2020978,258.455813 86.8044502,256.771407 87.4149794,255.089726 C93.5366244,249.750322 99.628288,244.37821 105.894389,239.205066 C113.198934,233.17609 120.729702,226.555665 129.222599,222.268333 C129.574198,222.09117 129.361603,221.529702 128.99365,221.693236 C120.936846,225.318253 114.073844,231.257285 107.120898,236.613043 C100.789384,241.491825 94.7222503,246.708578 88.6414889,251.900802 C90.906443,246.291565 93.5965871,240.952161 96.6001725,235.724505 C109.827396,226.705572 124.174831,219.371045 136.595284,209.18284 C137.143124,208.73312 136.499888,207.852758 135.935694,208.294302 C124.376524,217.305058 111.190184,223.830088 98.9332661,231.758791 C100.781207,228.692517 102.705464,225.637146 104.676056,222.551793 C105.463748,221.317107 106.229635,220.044262 106.992796,218.768693 C111.54996,216.201199 116.104399,213.622804 120.822372,211.341496 C131.21227,206.320984 141.765702,201.643895 152.300056,196.931373 C153.213124,196.525262 152.643479,195.086157 151.722234,195.489543 C137.072259,201.911001 122.852926,208.703138 108.709909,215.876856 C111.108417,211.777589 113.498747,207.602005 116.148008,203.647194 C121.844463,200.970677 127.663569,198.566719 133.597149,196.27996 C138.383262,194.43747 143.210258,192.660394 147.870994,190.515366 C152.231917,188.506616 156.140393,185.808295 160.719362,184.257442 C161.716923,183.91947 161.103668,182.450384 160.119735,182.752923 C155.516236,184.167498 151.44695,186.61234 147.170521,188.765545 C141.951042,191.395727 136.170094,193.150998 130.705313,195.195181 C126.742324,196.68062 122.765708,198.19604 118.854505,199.861368 C121.405645,196.503457 124.212989,193.393574 127.549095,190.826081 C138.617661,186.786777 149.604461,182.600291 160.863818,179.043414 C168.757087,182.635724 177.372635,184.216558 187.329166,185.02878 C204.225016,186.410647 222.734407,186.914879 239.379503,183.447945 C244.6862,182.341361 249.641299,180.53703 254.291132,178.242094 C255.885595,181.679046 258.741999,184.884324 260.434582,188.157742 C265.918442,198.773863 274.433143,208.613194 281.636842,218.111829 C300.064466,242.410344 287.197019,266.75792 265.847577,282.138349 C266.94871,274.433143 265.523234,267.313937 265.71675,259.453374 C265.735829,258.741999 265.700396,258.0388 265.684043,257.332876 C266.776999,255.670274 267.700969,253.909552 268.41507,252.015276 C268.813005,250.965929 267.215817,250.273632 266.809706,251.325705 C266.430851,252.315089 265.978405,253.255413 265.493252,254.171207 C265.217969,251.314803 264.721914,248.485654 264.01599,245.691938 C267.292133,239.698395 270.440174,233.631262 273.064904,227.318826 C273.498271,226.280382 271.903808,225.596262 271.459539,226.631981 C269.05013,232.268473 266.133763,237.635134 263.299163,243.05358 C262.797657,241.32829 262.238914,239.616628 261.639287,237.915868 C265.016276,230.799388 268.832084,223.93366 273.111239,217.275077 C273.860772,216.111255 272.184543,214.745741 271.413205,215.920465 C267.39843,222.023031 263.770688,228.310936 260.519075,234.811436 C258.81559,230.333314 256.910412,225.931508 255.133336,221.597841 C256.403454,219.049427 257.594531,216.381087 256.509752,213.560116 C256.062757,212.39902 254.334742,213.10767 254.72995,214.271491 C255.266889,215.8496 254.795364,217.454965 254.070361,218.997641 C252.366875,214.753918 250.022879,208.907556 246.831229,204.113267 C248.461124,201.404044 250.07194,198.68937 251.317528,195.7621 C251.900802,194.385684 249.76395,193.469891 249.183402,194.849032 C248.117701,197.378367 246.771267,199.752345 245.381222,202.104517 C243.247096,199.365313 240.791352,197.201205 237.959477,196.307216 C236.850168,195.955616 235.945276,197.288423 236.888326,198.09792 C239.254126,200.139376 241.107518,203.241083 242.639292,206.7489 C242.620213,206.781607 242.601134,206.814314 242.582055,206.847021 C242.173219,207.561122 242.658371,208.133493 243.285254,208.294302 C245.760078,214.514067 247.338186,221.690511 248.872686,226.593823 C253.260864,240.614189 255.765669,252.494977 255.435875,267.229445 C254.781736,296.450351 245.149548,320.269165 231.216401,345.788739 C229.518367,348.901347 231.856911,351.357092 234.620646,351.79591 C234.955892,353.616595 236.17695,355.194704 239.346796,356.350348 C248.082269,359.536547 255.812004,359.844537 264.152269,355.377317 C273.980698,350.114229 278.529685,338.593217 284.798511,330.089418 C290.20333,322.754891 296.984564,314.490943 306.240622,312.245068 C314.253818,314.676282 317.9497,319.846701 317.328268,327.761775 C317.227422,333.381914 311.917999,340.648301 309.325975,344.951987 L309.325975,344.951987 L309.325975,344.951987 Z" id="Fill-7"></path>
    <path d="M220.581201,131.531162 C216.146688,133.798842 211.445068,135.134375 206.506323,135.72855 C203.508189,136.088326 197.708162,136.235507 194.268484,134.477511 C194.55467,134.0714 194.60373,133.490852 194.115852,133.185587 C192.823929,132.378817 192.930226,132.343384 191.417531,132.280696 C190.700705,132.250714 189.956622,132.923932 190.319124,133.687093 C195.315106,144.248703 214.64217,140.154887 222.644462,136.690679 C225.96694,135.251574 223.734693,129.914895 220.581201,131.531162" id="Fill-8"></path>
    <path d="M136.385414,51.2656569 C131.506632,54.0920799 128.143271,60.2273528 124.684514,64.5419405 C118.92537,71.7238349 114.022058,79.4944538 110.067247,87.8020113 C109.601173,88.7859444 111.143849,89.4373572 111.615374,88.4643264 C115.581088,80.2875966 120.364475,72.7104936 125.87014,65.4877156 C129.06179,61.2957788 132.602314,55.056934 137.184008,52.3449853 C137.930816,51.9007163 137.12132,50.840467 136.385414,51.2656569" id="Fill-9"></path>
    <path d="M132.689532,63.2036824 C128.99365,69.0309652 124.128496,73.9342775 120.514382,79.8296997 C116.390584,86.5536972 113.204385,93.9345586 110.375237,101.277262 C110.050893,102.122191 111.29103,102.656404 111.66716,101.830554 C114.564448,95.477235 117.227336,89.0530509 120.498028,82.8768943 C124.14485,75.9920878 129.636887,70.5927206 133.722526,64.0295321 C134.166795,63.3154311 133.147429,62.4841302 132.689532,63.2036824" id="Fill-10"></path>
    <path d="M182.799258,164.420695 C182.597565,163.265051 180.84502,163.466743 180.981299,164.649644 C181.188442,166.429445 181.905269,168.473628 181.36833,170.242527 C181.014005,171.406348 182.755649,172.177686 183.129053,170.997511 C183.832252,168.773441 183.183564,166.636589 182.799258,164.420695" id="Fill-11"></path>
    <path d="M122.182435,184.470037 C114.196495,189.318837 105.823524,193.401751 97.9411562,198.441342 C89.5491059,203.808003 81.4105341,209.605304 73.2774136,215.353545 C72.315285,216.034939 73.383711,217.441337 74.3540163,216.809003 C82.0047098,211.813021 89.3692178,206.389124 96.9490463,201.281393 C105.395608,195.590389 114.496309,191.109541 123.144563,185.770137 C124.035827,185.21957 123.062796,183.933098 122.182435,184.470037" id="Fill-12"></path>
    <path d="M111.879755,194.952604 C107.905864,197.263893 59.505075,234.007391 64.8989911,238.646323 C65.2669439,238.965215 65.9837706,238.927057 66.2617794,238.49369 C66.5452393,238.049421 66.8286993,237.607878 67.1121593,237.166335 C67.4583075,236.629396 67.1666708,236.141518 66.7333041,235.975258 C67.0958058,235.359277 67.5591538,234.773278 67.9816182,234.23634 C69.3444065,232.508324 70.9470456,230.954746 72.508801,229.409344 C76.531752,225.430002 80.8654188,221.753199 85.1881833,218.106377 C94.1062699,210.583786 102.66458,202.02275 112.689251,196.048286 C113.449687,195.59584 112.626563,194.516512 111.879755,194.952604" id="Fill-13"></path>
    <path d="M90.906443,352.05484 C90.925522,351.970347 90.9118942,351.904933 90.9146197,351.828617 C91.3997724,352.24563 92.400059,352.082095 92.4300403,351.30258 C92.934272,338.486919 97.8621145,321.719172 106.316853,311.787171 C107.006424,310.9804 105.728129,309.971937 105.035832,310.76508 C100.217013,316.292549 97.8757424,323.190983 95.1692448,329.90953 C92.4218636,336.734373 90.4103881,343.714575 90.6584155,351.114516 C90.0996723,350.591205 88.8758884,350.727484 88.6060564,351.741398 C86.3383766,360.261551 87.2132867,369.231423 83.6482325,377.451762 C83.1194707,378.672821 84.8529374,379.313331 85.4879967,378.239454 C90.2059698,370.269868 88.7205306,360.763057 90.906443,352.05484" id="Fill-14"></path>
    <path d="M166.225027,390.065731 C165.513651,387.209327 166.505761,384.903489 167.252569,382.186089 C168.710753,376.879391 170.28341,371.613577 172.046858,366.399549 C172.43389,365.252081 170.716777,364.497097 170.305215,365.652741 C168.320995,371.207466 166.693826,376.852135 164.903122,382.466823 C164.01731,385.238735 162.831684,388.092413 164.502462,390.752576 C164.998517,391.540268 166.456701,390.997878 166.225027,390.065731" id="Fill-15"></path>
    <path d="M178.084011,373.1399 C178.274801,371.850702 176.293307,371.58087 176.080712,372.867342 C175.331178,377.383623 173.575907,381.401123 172.065937,385.680278 C171.646199,386.874081 173.292447,387.577279 173.867544,386.451616 C176.00167,382.28421 177.402616,377.77338 178.084011,373.1399" id="Fill-16"></path>
    <path d="M186.064499,386.639681 L183.559694,385.565804 C182.916458,385.290521 182.488542,386.288082 183.131778,386.56609 L185.636583,387.637242 C186.282545,387.915251 186.710461,386.914964 186.064499,386.639681" id="Fill-17"></path>
    <path d="M255.803827,202.131773 C256.28898,200.967952 254.511904,200.20479 254.002221,201.360435 C253.089153,203.44005 252.173359,205.519665 251.260291,207.59928 C250.717901,208.83124 252.661238,209.662541 253.179097,208.422404 C254.054007,206.32371 254.928917,204.227741 255.803827,202.131773" id="Fill-18"></path>
    <path d="M279.671702,364.736947 C279.930632,363.289666 277.682031,362.987127 277.412199,364.428957 C275.983997,372.049669 274.634836,379.667656 272.040087,387.002183 C271.511325,388.498524 273.792633,389.479732 274.310493,387.975214 C276.916144,380.41719 278.265304,372.583883 279.671702,364.736947" id="Fill-20"></path>
    <path d="M291.320816,358.195564 C291.699671,356.911817 289.780865,356.061437 289.382931,357.366988 C287.611306,363.169741 286.37662,369.127851 284.844846,374.998743 C284.547758,376.135309 286.461113,376.655894 286.837243,375.54931 C288.764225,369.885562 289.628233,363.930177 291.320816,358.195564" id="Fill-21"></path>
    <path d="M139.885055,236.790205 C135.772159,240.824058 132.163496,245.299455 128.424005,249.67128 C127.87889,250.309065 128.898255,251.115836 129.440645,250.480776 C133.171959,246.1035 136.777897,241.628104 140.882616,237.588799 C141.47134,237.010977 140.462877,236.223285 139.885055,236.790205" id="Fill-22"></path>
    <path d="M124.935267,264.482063 C125.131508,263.648037 123.834134,263.489953 123.62699,264.302175 C123.062796,266.512618 123.319,268.859339 122.283281,270.947131 C121.975291,271.568562 122.940145,272.154561 123.332628,271.576739 C124.793537,269.428985 124.365621,266.902375 124.935267,264.482063" id="Fill-23"></path>
    <path d="M122.239672,279.535423 L122.032528,280.026027 C124.537333,281.099904 124.747202,280.6093 122.239672,279.535423" id="Fill-24"></path>
    <path d="M230.813016,36.7029011 C231.480782,33.8846549 227.64317,32.0775976 225.724364,31.0827622 C224.661389,30.5294701 223.941837,32.2384067 224.99391,32.7862476 C226.340344,33.4839952 229.213102,34.5905793 229.123158,36.4712271 C228.984154,39.3603383 224.263455,41.1183352 222.061189,41.8487898 C221.205358,42.1322497 221.731394,43.3832894 222.576323,43.1352619 C225.811582,42.1731334 229.951733,40.3415459 230.813016,36.7029011" id="Fill-25"></path>
    <path d="M244.51994,18.3543194 C244.09475,18.1935104 243.66956,18.0299758 243.247096,17.8664412 C242.167768,17.4548792 241.500001,19.0166346 242.541172,19.5126895 C242.952734,19.7062054 243.36157,19.902447 243.773132,20.0959629 C244.876991,20.6219992 245.661957,18.7931373 244.51994,18.3543194" id="Fill-26"></path>
    <path d="M192.232479,241.614476 C191.433885,243.129896 190.357282,245.931789 188.400318,246.166189 C186.797679,246.359704 186.195327,244.44635 186.279819,243.238919 C186.369763,241.957898 186.906702,240.698682 187.555389,239.608451 C187.958775,238.929783 186.786777,238.232035 186.358861,238.89435 C184.529999,241.734401 183.521536,246.359704 187.410934,247.989599 C190.883318,249.445057 192.968384,244.806126 194.110401,242.418521 C194.685498,241.219267 192.840282,240.461557 192.232479,241.614476" id="Fill-27"></path>
    <path d="M194.462,228.624378 L194.025908,229.641018 C196.530713,230.714895 196.966805,229.695529 194.462,228.624378" id="Fill-28"></path>
    <path d="M217.585792,202.333466 C216.261162,201.766546 215.380801,203.82163 216.705431,204.38855 C218.030061,204.958196 218.913148,202.900386 217.585792,202.333466" id="Fill-29"></path>
    <path d="M231.156438,196.716052 C230.663109,195.530426 230.169779,194.344801 229.67645,193.159175 C229.196749,192.00353 227.427849,192.709455 227.87757,193.878727 C228.338192,195.077981 228.798814,196.277234 229.259437,197.476488 C229.733687,198.708449 231.663395,197.934385 231.156438,196.716052" id="Fill-30"></path>
    <path d="M219.60817,325.04165 C218.61606,324.850859 218.152712,326.453499 219.128469,326.769665 C224.792217,328.598527 218.858637,338.484194 214.928355,336.573564 C214.105231,336.17563 213.639157,337.410316 214.38324,337.846409 C220.112402,341.215221 229.008684,326.826903 219.60817,325.04165" id="Fill-31"></path>
    <path d="M204.971824,294.062746 L204.644755,294.825908 C207.152285,295.899785 207.479354,295.136623 204.971824,294.062746" id="Fill-32"></path>
    <path d="M198.99736,290.704836 L197.74632,290.167897 C196.383532,289.584624 195.475915,291.696946 196.841429,292.282945 L198.092468,292.817158 C199.455257,293.403157 200.362874,291.288109 198.99736,290.704836" id="Fill-33"></path>
    <path d="M202.524256,350.964609 C202.75593,349.530956 200.594548,349.258398 200.308362,350.66207 C200.221144,351.089985 200.046707,351.417055 199.806856,351.725045 L199.250839,351.599668 C197.765399,351.264422 197.405623,353.682009 198.92922,353.962743 C199.752345,354.11265 200.469171,354.385208 201.134212,353.741971 C201.935531,352.962457 202.347094,352.057565 202.524256,350.964609" id="Fill-34"></path>
    <path d="M185.020603,370.248063 C185.173235,369.242326 183.622382,369.029731 183.458848,370.032743 C182.273222,377.2746 180.193607,384.156681 177.402616,390.932464 C177.001957,391.910946 178.468317,392.537829 178.90986,391.578426 C182.041548,384.802642 183.900391,377.612571 185.020603,370.248063" id="Fill-35"></path>
    <path d="M190.896946,381.564657 C191.968098,375.663784 194.391135,370.130864 195.336911,364.202734 C195.554957,362.818142 193.407202,362.526505 193.183705,363.908372 C192.218851,369.833776 189.774009,375.363971 188.681052,381.262118 C188.416672,382.676693 190.638016,382.981957 190.896946,381.564657" id="Fill-36"></path>
  </g>
</svg>