<?xml version="1.0" encoding="UTF-8" standalone="no"?>
<svg viewBox="0 0 310 192" version="1.1" xmlns="http://www.w3.org/2000/svg" xmlns:xlink="http://www.w3.org/1999/xlink">
  <title>birds</title>
  <path d="M127.701493,64.97655 C127.701493,73.15444 121.07162,79.78376 112.895522,79.78376 C104.716939,79.78376 98.089552,73.15444 98.089552,64.97655 C98.089552,56.80113 104.716939,50.17182 112.895522,50.17182 C121.07162,50.17182 127.701493,56.80113 127.701493,64.97655 L127.701493,64.97655 Z M208.20896,95.05242 C208.20896,101.44098 213.38755,106.61958 219.77612,106.61958 C226.16469,106.61958 231.34328,101.44098 231.34328,95.05242 C231.34328,88.66385 226.16469,83.48525 219.77612,83.48525 C213.38755,83.48525 208.20896,88.66385 208.20896,95.05242 L208.20896,95.05242 Z M78.445953,1.08473 C59.649914,4.05639 43.78505,14.14339 33.16324,28.13868 L42.4601,34.11634 L0,34.11634 L19.030435,66.18682 C18.865124,68.93782 18.842918,71.72069 19.010696,74.52809 L19.010696,186.91146 C19.010696,190.87614 22.27496,191.63867 26.299158,191.63867 C30.323355,191.63867 33.587619,190.87614 33.587619,186.91146 L33.587619,70.2275 C33.587619,39.57911 58.588967,14.73429 89.430459,14.73429 C120.269484,14.73429 145.273299,39.57911 145.273299,70.2275 L145.273299,186.91146 C145.280701,190.93989 148.594311,191.75391 152.685127,191.75391 C156.773475,191.75391 160.089552,190.93989 160.089552,186.91146 L160.089552,74.49376 C160.052542,66.62325 160.146301,64.49012 159.332085,59.39268 C153.198329,21.0969 116.985482,-5.01063 78.445953,1.08473 L78.445953,1.08473 Z M289.11283,97.40158 C289.11283,97.08808 289.07097,96.78437 289.06604,96.47086 L310,68.74265 L268.36357,68.61773 L277.04644,63.23178 C266.93284,50.59354 251.36966,42.50849 233.85616,42.43991 C224.73249,42.40562 216.91396,33.19635 212.03569,35.84402 C209.8071,37.05151 209.16438,39.57181 211.25261,42.4595 C209.38355,42.02108 207.47509,41.48469 205.64789,40.6348 C193.79574,35.12638 180.82314,42.56972 188.42743,50.24084 C189.3755,51.19851 189.86308,51.68836 190.17829,51.98227 C191.5179,53.42 194.46555,57.58131 190.5649,63.33465 C190.55013,63.3567 178.71029,73.82486 178.59701,97.40158 C178.59339,98.15595 178.68074,98.88829 178.71029,99.63532 L178.71029,185.71445 C178.71275,189.97619 181.94359,190.66443 185.92796,190.66443 C189.91233,190.66443 193.14317,189.97619 193.14317,186.10634 C193.14317,185.97163 193.1087,96.8505 193.1087,96.8505 C193.1087,74.50334 211.32156,56.38852 233.78967,56.38852 C256.25531,56.38852 274.46818,74.50334 274.46818,96.8505 L274.46818,185.71445 C274.45586,190.06681 277.71133,190.82853 281.72771,190.82853 C285.74409,190.82853 289.00202,190.06681 289.00202,186.10634 C289.00202,185.97163 288.99956,99.63777 288.99956,99.63777 C288.99956,99.63777 289.11283,98.15596 289.11283,97.40158 L289.11283,97.40158 Z" id="birds-copy" fill="#279DD3" fill-rule="evenodd"></path>
</svg>