<?xml version="1.0" encoding="UTF-8" standalone="no"?>
<svg viewBox="0 0 400 190" version="1.1" xmlns="http://www.w3.org/2000/svg" xmlns:xlink="http://www.w3.org/1999/xlink">
  <title>Маняня. Клуб детей, родителей и нянь.</title>
    <g stroke="none" stroke-width="1" fill="none" fill-rule="evenodd">
      <path d="M299.870588,34.6313342 C299.870588,38.9287389 296.384314,42.4123797 292.084967,42.4123797 C287.784314,42.4123797 284.299346,38.9287389 284.299346,34.6313342 C284.299346,30.3352358 287.784314,26.851595 292.084967,26.851595 C296.384314,26.851595 299.870588,30.3352358 299.870588,34.6313342 Z M343.142484,50.9235921 C343.142484,54.3236359 345.900654,57.0797222 349.303268,57.0797222 C352.705882,57.0797222 355.464052,54.3236359 355.464052,50.9235921 C355.464052,47.5235482 352.705882,44.7674619 349.303268,44.7674619 C345.900654,44.7674619 343.142484,47.5235482 343.142484,50.9235921 Z M316.941176,31.9131278 C313.691503,11.5115584 294.505882,-2.39688071 274.087582,0.850337517 C264.129412,2.43345437 255.724183,7.80716949 250.096732,15.2629706 L255.022222,18.4474912 L232.526797,18.4474912 L242.60915,35.5326136 C242.521569,36.9981723 242.509804,38.4807116 242.598693,39.9763129 L242.598693,75.1980504 C242.598693,77.3101791 244.328105,77.7164079 246.460131,77.7164079 C248.592157,77.7164079 250.321569,77.3101791 250.321569,75.1980504 L250.321569,37.6852346 C250.321569,21.3577093 263.56732,8.12196418 279.90719,8.12196418 C296.245752,8.12196418 309.49281,21.3577093 309.49281,37.6852346 L309.49281,75.1980504 L309.496732,75.1980504 C309.496732,77.3441404 311.252288,77.7777994 313.419608,77.7777994 C315.585621,77.7777994 317.342484,77.3441404 317.342484,75.1980504 L317.342484,39.9580261 C317.322876,35.7651176 317.372549,34.6287218 316.941176,31.9131278 Z M385.755556,53.5542829 C385.772549,53.1558913 385.815686,52.7640307 385.815686,52.3617205 C385.815686,52.1945266 385.793464,52.0325576 385.79085,51.8653637 L396.903268,37.0778506 L374.801307,37.0112343 L379.410458,34.1388961 C374.04183,27.3988936 365.780392,23.0871208 356.48366,23.0505471 C351.640523,23.0322603 347.490196,18.1209407 344.900654,19.532945 C343.717647,20.1769026 343.376471,21.5209845 344.484967,23.0609967 C343.49281,22.8271865 342.479739,22.5411283 341.509804,22.0878762 C335.218301,19.1502279 328.332026,23.1197758 332.368627,27.2108005 C332.871895,27.7215255 333.130719,27.9827659 333.298039,28.1395102 C334.00915,28.9062508 335.573856,31.125488 333.503268,34.1937565 C333.495425,34.2055124 333.491503,34.2146558 333.48366,34.2251054 C329.528105,39.2121847 327.150327,45.5015475 327.150327,52.3617205 C327.150327,52.7640307 327.194771,53.1545851 327.210458,53.5529767 L327.210458,74.7839844 L327.233987,74.7839844 C327.230065,74.8545193 327.211765,74.9211356 327.211765,74.9929767 C327.211765,77.0567759 328.926797,77.4238187 331.04183,77.4238187 C333.156863,77.4238187 334.871895,77.0567759 334.871895,74.9929767 C334.871895,74.9211356 334.854902,74.8545193 334.85098,74.7839844 L334.853595,74.7839844 L334.853595,52.067825 C334.853595,40.1500378 344.521569,30.4893676 356.448366,30.4893676 C368.373856,30.4893676 378.04183,40.1500378 378.04183,52.067825 L378.04183,74.7839844 L378.056209,74.7839844 C378.052288,74.8545193 378.035294,74.9211356 378.035294,74.9929767 C378.035294,77.1051054 379.763399,77.5113342 381.895425,77.5113342 C384.027451,77.5113342 385.756863,77.1051054 385.756863,74.9929767 C385.756863,74.9211356 385.738562,74.8545193 385.735948,74.7839844 L385.755556,74.7839844 L385.755556,53.5542829 Z" id="birds" fill="#99E0FF"></path>
      <path d="M33.2013072,140.092573 C31.4771242,140.092573 30.5503268,139.441995 29.7542484,138.014053 L18.751634,119.831166 L18.751634,147.753513 C18.751634,148.793414 17.8248366,149.701405 16.7633987,149.701405 L3.63921569,149.701405 C2.44705882,149.701405 1.65098039,148.793414 1.65098039,147.753513 L1.65098039,92.1713555 C1.65098039,91.002108 2.44705882,90.2234634 3.63921569,90.2234634 L16.6300654,90.2234634 C18.220915,90.2234634 19.2823529,90.35153 20.2104575,92.1713555 L37.1777778,120.740439 L53.8797386,92.1713555 C54.9398693,90.35153 55.8679739,90.2234634 57.4588235,90.2234634 L70.7150327,90.2234634 C71.7751634,90.2234634 72.703268,91.002108 72.703268,92.1713555 L72.703268,147.753513 C72.703268,148.793414 71.7751634,149.701405 70.7150327,149.701405 L57.5908497,149.701405 C56.5320261,149.701405 55.6026144,148.793414 55.6026144,147.753513 L55.6026144,119.831166 L44.4679739,138.014053 C43.6732026,139.441995 42.745098,140.092573 41.1542484,140.092573 L33.2013072,140.092573 Z M89.3777778,106.974567 C88.0522876,107.754492 87.124183,107.754492 86.4614379,106.325269 L82.6169935,98.1430981 C82.0875817,96.976412 82.2196078,96.3258339 83.4130719,95.5471894 C89.5098039,91.7807525 98.524183,89.0529353 108.069281,89.0529353 C114.166013,89.0529353 122.120261,90.2234634 127.290196,95.8058838 C130.603922,99.4429735 132.592157,104.117402 132.592157,111.650276 L132.592157,147.753513 C132.592157,148.793414 131.664052,149.701405 130.603922,149.701405 L118.938562,149.701405 C117.745098,149.701405 116.816993,148.793414 116.816993,147.753513 L116.816993,146.714894 L116.287582,146.714894 C110.852288,150.090728 106.213072,151 100.115033,151 C94.6810458,151 89.6431373,149.312083 86.0640523,146.194944 C82.351634,143.207151 80.0980392,138.532723 80.0980392,132.689047 C80.0980392,125.025545 84.7372549,120.481744 91.1006536,117.62458 C98.3921569,114.50744 107.935948,113.46754 115.094118,112.94887 L115.094118,111.650276 C115.094118,108.663764 114.563399,106.454616 113.237908,104.897327 C111.780392,103.077502 108.996078,102.300138 105.947712,102.300138 C99.7163399,102.300138 93.8849673,104.506724 89.3777778,106.974567 Z M115.094118,135.804905 L115.094118,124.508156 C107.141176,124.766851 96.8013072,125.80547 96.8013072,132.169096 C96.8013072,136.324856 100.911111,138.272748 105.815686,138.272748 C108.864052,138.272748 112.045752,137.624731 115.094118,135.804905 Z M202.541176,90.2234634 C203.733333,90.2234634 204.529412,91.002108 204.529412,92.1713555 L204.529412,147.753513 C204.529412,148.793414 203.733333,149.701405 202.541176,149.701405 L189.284967,149.701405 C188.091503,149.701405 187.296732,148.793414 187.296732,147.753513 L187.296732,127.104065 L161.580392,127.104065 L161.580392,147.753513 C161.580392,148.793414 160.652288,149.701405 159.592157,149.701405 L146.202614,149.701405 C145.00915,149.701405 144.214379,148.793414 144.214379,147.753513 L144.214379,92.1713555 C144.214379,91.002108 145.00915,90.2234634 146.202614,90.2234634 L159.592157,90.2234634 C160.652288,90.2234634 161.580392,91.002108 161.580392,92.1713555 L161.580392,112.170226 L187.296732,112.170226 L187.296732,92.1713555 C187.296732,91.002108 188.091503,90.2234634 189.284967,90.2234634 L202.541176,90.2234634 Z M263.88366,90.2234634 C264.943791,90.2234634 265.871895,91.002108 265.871895,92.1713555 L265.871895,147.753513 C265.871895,148.793414 264.943791,149.701405 263.88366,149.701405 L251.024837,149.701405 C249.83268,149.701405 248.904575,148.793414 248.904575,147.753513 L248.904575,130.479899 L240.818301,130.479899 L229.94902,148.142836 C229.020915,149.570777 228.224837,149.701405 226.76732,149.701405 L213.511111,149.701405 C211.654902,149.701405 211.522876,148.273463 212.45098,146.844241 L225.839216,126.84537 C222.922876,125.676123 220.271895,124.2469 217.884967,121.649711 C215.499346,118.792547 214.04183,114.896763 214.04183,109.961078 C214.04183,102.038882 217.488889,96.1952061 223.585621,93.0793472 C227.296732,91.1314552 231.803922,90.2234634 236.84183,90.2234634 L263.88366,90.2234634 Z M238.830065,103.986774 C236.576471,103.986774 234.322876,104.377377 232.997386,105.545344 C231.937255,106.585244 231.27451,108.143814 231.27451,110.3504 C231.27451,112.559548 232.069281,114.118118 233.262745,115.156738 C234.588235,116.324704 236.84183,116.714027 238.963399,116.714027 L248.904575,116.714027 L248.904575,103.986774 L238.830065,103.986774 Z M334.368627,90.2234634 C335.559477,90.2234634 336.356863,91.002108 336.356863,92.1713555 L336.356863,147.753513 C336.356863,148.793414 335.559477,149.701405 334.368627,149.701405 L321.112418,149.701405 C319.918954,149.701405 319.124183,148.793414 319.124183,147.753513 L319.124183,127.104065 L293.407843,127.104065 L293.407843,147.753513 C293.407843,148.793414 292.479739,149.701405 291.418301,149.701405 L278.030065,149.701405 C276.836601,149.701405 276.04183,148.793414 276.04183,147.753513 L276.04183,92.1713555 C276.04183,91.002108 276.836601,90.2234634 278.030065,90.2234634 L291.418301,90.2234634 C292.479739,90.2234634 293.407843,91.002108 293.407843,92.1713555 L293.407843,112.170226 L319.124183,112.170226 L319.124183,92.1713555 C319.124183,91.002108 319.918954,90.2234634 321.112418,90.2234634 L334.368627,90.2234634 Z M395.873203,90.2234634 C396.933333,90.2234634 397.861438,91.002108 397.861438,92.1713555 L397.861438,147.753513 C397.861438,148.793414 396.933333,149.701405 395.873203,149.701405 L383.015686,149.701405 C381.823529,149.701405 380.894118,148.793414 380.894118,147.753513 L380.894118,130.479899 L372.80915,130.479899 L361.938562,148.142836 C361.010458,149.570777 360.215686,149.701405 358.75817,149.701405 L345.500654,149.701405 C343.645752,149.701405 343.512418,148.273463 344.440523,146.844241 L357.830065,126.84537 C354.913725,125.676123 352.262745,124.2469 349.877124,121.649711 C347.488889,118.792547 346.031373,114.896763 346.031373,109.961078 C346.031373,102.038882 349.477124,96.1952061 355.576471,93.0793472 C359.287582,91.1314552 363.794771,90.2234634 368.83268,90.2234634 L395.873203,90.2234634 Z M370.820915,103.986774 C368.566013,103.986774 366.313725,104.377377 364.986928,105.545344 C363.926797,106.585244 363.265359,108.143814 363.265359,110.3504 C363.265359,112.559548 364.060131,114.118118 365.253595,115.156738 C366.577778,116.324704 368.83268,116.714027 370.952941,116.714027 L380.894118,116.714027 L380.894118,103.986774 L370.820915,103.986774 L370.820915,103.986774 Z" id="name" fill="#FFFFFF"></path>
      <path d="M12.303268,169.368685 C12.6509804,169.368685 12.7660131,169.657356 12.4771242,170.003499 L7.45098039,175.74687 L12.6509804,181.896469 C12.9686275,182.183833 12.8235294,182.502547 12.5058824,182.502547 L9.81960784,182.502547 C9.50196078,182.502547 9.32810458,182.415031 9.1254902,182.155097 L4.9372549,177.190223 L3.32026144,177.190223 L3.32026144,182.155097 C3.32026144,182.357558 3.14640523,182.502547 2.94379085,182.502547 L0.720261438,182.502547 C0.517647059,182.502547 0.34379085,182.357558 0.34379085,182.155097 L0.34379085,169.714829 C0.34379085,169.541104 0.517647059,169.368685 0.720261438,169.368685 L2.94379085,169.368685 C3.14640523,169.368685 3.32026144,169.541104 3.32026144,169.714829 L3.32026144,174.593493 L4.96601307,174.593493 L9.03921569,169.714829 C9.2130719,169.483631 9.38562092,169.368685 9.70326797,169.368685 L12.303268,169.368685 Z M18.4235294,178.576103 C18.1058824,179.961984 17.6143791,181.202876 16.8640523,182.12636 C16.6326797,182.415031 16.4588235,182.502547 16.0261438,182.502547 L14.2065359,182.502547 C13.8300654,182.502547 13.6862745,182.241306 13.9464052,181.780217 C14.696732,180.625534 15.2169935,179.384642 15.5633987,178.084971 C16.1124183,175.949331 16.1986928,173.611229 16.1986928,171.129446 L16.1986928,169.772302 C16.1986928,169.541104 16.372549,169.368685 16.6039216,169.368685 L26.9464052,169.368685 C27.1189542,169.368685 27.2915033,169.541104 27.2915033,169.714829 L27.2915033,182.155097 C27.2915033,182.357558 27.1189542,182.502547 26.9464052,182.502547 L24.6928105,182.502547 C24.4901961,182.502547 24.345098,182.357558 24.345098,182.155097 L24.345098,171.994151 L19.1751634,171.994151 C19.0601307,174.131098 18.9150327,176.526672 18.4235294,178.576103 Z M38.5830065,183.22357 C37.8901961,185.013067 37.0810458,186.485157 36.0117647,187.496157 C34.7124183,188.765785 32.9503268,189.371863 30.7254902,189.256917 C30.5529412,189.256917 30.4366013,189.140665 30.4366013,188.968247 L30.4366013,186.716354 C30.4366013,186.543936 30.5816993,186.45642 30.7542484,186.45642 C30.9568627,186.45642 31.1294118,186.485157 31.4771242,186.485157 C32.4013072,186.485157 33.2392157,186.139013 33.9320261,185.475462 C34.4522876,184.955594 34.9424837,184.263307 35.3764706,183.339822 L29.3960784,169.859817 C29.3098039,169.657356 29.3098039,169.368685 29.6862745,169.368685 L32.4013072,169.368685 C32.7189542,169.368685 32.8928105,169.483631 32.979085,169.772302 L36.9071895,179.644577 L40.345098,169.772302 C40.4313725,169.483631 40.6052288,169.368685 40.9228758,169.368685 L43.4366013,169.368685 C43.7816993,169.368685 43.7529412,169.657356 43.6954248,169.859817 L38.5830065,183.22357 Z M55.9986928,166.365727 C54.5830065,167.521716 52.3006536,167.780344 50.5960784,168.82008 C49.4980392,169.512367 48.6614379,170.523368 48.2862745,171.792996 C49.2104575,171.099403 50.6836601,170.378379 53.0810458,170.378379 C54.8431373,170.378379 56.4888889,170.984457 57.6156863,172.226655 C58.5124183,173.207613 59.0601307,174.62223 59.0601307,176.440463 C59.0601307,178.344906 58.3960784,179.874468 57.2405229,180.971678 C55.9686275,182.183833 54.1202614,182.791217 52.0980392,182.791217 C49.9320261,182.791217 48.3437908,182.097624 47.2169935,180.944248 C45.6862745,179.384642 45.1084967,176.989068 45.1084967,174.505978 C45.1084967,171.301864 46.2627451,168.848817 48.3437908,167.376727 C50.2784314,165.990847 52.1281046,165.96211 53.6300654,164.922374 C54.351634,164.403811 54.6117647,163.883943 54.6117647,163.220392 C54.6117647,163.017931 54.7568627,162.844206 54.9581699,162.844206 L57.0091503,162.844206 C57.1830065,162.844206 57.3555556,162.989195 57.3555556,163.220392 C57.3555556,164.346338 56.9803922,165.528451 55.9986928,166.365727 Z M47.9960784,174.968373 C48.0261438,176.469199 48.3150327,177.970026 49.0941176,178.97972 C49.7294118,179.874468 50.7124183,180.424379 52.0980392,180.424379 C53.3986928,180.424379 54.4379085,180.019457 55.1320261,179.269697 C55.7960784,178.576103 56.1712418,177.595146 56.1712418,176.440463 C56.1712418,175.228308 55.7960784,174.303517 55.1895425,173.670009 C54.4379085,172.832733 53.3111111,172.42781 52.2431373,172.42781 C50.4522876,172.42781 49.0941176,173.005152 47.9960784,174.044889 L47.9960784,174.968373 Z M83.6653595,179.904511 L86.6405229,179.904511 C86.8431373,179.904511 87.0169935,180.048193 87.0169935,180.250654 L87.0169935,186.918816 C87.0169935,187.119971 86.8431373,187.264959 86.6405229,187.264959 L84.4457516,187.264959 C84.2431373,187.264959 84.0993464,187.119971 84.0993464,186.918816 L84.0993464,182.502547 L71.3019608,182.502547 L71.3019608,186.918816 C71.3019608,187.119971 71.1294118,187.264959 70.9555556,187.264959 L68.730719,187.264959 C68.5281046,187.264959 68.3555556,187.119971 68.3555556,186.918816 L68.3555556,180.250654 C68.3555556,180.048193 68.5281046,179.904511 68.730719,179.904511 L71.0993464,179.904511 C71.7934641,178.721092 72.2261438,177.363948 72.4862745,175.920595 C72.7751634,174.333559 72.8614379,172.571493 72.8901961,170.869511 L72.8901961,169.714829 C72.8901961,169.541104 73.0352941,169.368685 73.2379085,169.368685 L83.3189542,169.368685 C83.5215686,169.368685 83.6653595,169.541104 83.6653595,169.714829 L83.6653595,179.904511 Z M75.2888889,176.584145 C75.0287582,177.76887 74.6235294,178.864774 74.0745098,179.904511 L80.7189542,179.904511 L80.7189542,171.994151 L75.779085,171.994151 C75.6928105,173.52502 75.5764706,175.083319 75.2888889,176.584145 Z M99.6352941,179.413379 C99.8954248,179.269697 100.067974,179.355906 100.155556,179.500894 L100.934641,180.944248 C101.05098,181.116666 100.963399,181.289085 100.79085,181.405337 C99.7215686,182.155097 97.8156863,182.791217 95.8222222,182.791217 C93.6261438,182.791217 91.8352941,182.068888 90.6222222,180.770523 C89.4666667,179.558367 88.8026144,177.826343 88.8026144,175.775606 C88.8026144,173.871164 89.4954248,172.197919 90.6509804,170.984457 C91.7490196,169.831081 93.3660131,169.137488 95.4457516,169.137488 C97.6993464,169.137488 99.3751634,169.974763 100.386928,171.301864 C101.339869,172.542756 101.743791,174.362296 101.627451,176.354254 C101.598693,176.584145 101.454902,176.75787 101.223529,176.75787 L91.9215686,176.75787 C92.0091503,177.797607 92.3555556,178.576103 92.9045752,179.182181 C93.6261438,180.019457 94.724183,180.453116 96.0235294,180.453116 C97.4392157,180.453116 98.6235294,180.019457 99.6352941,179.413379 Z M98.7686275,174.765912 C98.7111111,173.842427 98.4509804,173.121404 97.9019608,172.51402 C97.3529412,171.907942 96.5150327,171.504326 95.4183007,171.504326 C94.2901961,171.504326 93.3660131,171.907942 92.7882353,172.571493 C92.2980392,173.15014 91.979085,173.928637 91.9215686,174.765912 L98.7686275,174.765912 Z M115.31634,169.368685 C115.518954,169.368685 115.691503,169.541104 115.691503,169.714829 L115.691503,171.619271 C115.691503,171.821733 115.518954,171.994151 115.31634,171.994151 L110.80915,171.994151 L110.80915,182.155097 C110.80915,182.357558 110.665359,182.502547 110.464052,182.502547 L108.239216,182.502547 C108.036601,182.502547 107.864052,182.357558 107.864052,182.155097 L107.864052,171.994151 L103.356863,171.994151 C103.184314,171.994151 103.010458,171.821733 103.010458,171.619271 L103.010458,169.714829 C103.010458,169.541104 103.184314,169.368685 103.356863,169.368685 L115.31634,169.368685 Z M127.966013,179.413379 C128.226144,179.269697 128.398693,179.355906 128.484967,179.500894 L129.265359,180.944248 C129.381699,181.116666 129.294118,181.289085 129.120261,181.405337 C128.052288,182.155097 126.145098,182.791217 124.152941,182.791217 C121.956863,182.791217 120.166013,182.068888 118.952941,180.770523 C117.797386,179.558367 117.133333,177.826343 117.133333,175.775606 C117.133333,173.871164 117.826144,172.197919 118.981699,170.984457 C120.079739,169.831081 121.696732,169.137488 123.776471,169.137488 C126.030065,169.137488 127.705882,169.974763 128.71634,171.301864 C129.670588,172.542756 130.07451,174.362296 129.95817,176.354254 C129.929412,176.584145 129.785621,176.75787 129.554248,176.75787 L120.252288,176.75787 C120.339869,177.797607 120.686275,178.576103 121.233987,179.182181 C121.956863,180.019457 123.054902,180.453116 124.354248,180.453116 C125.769935,180.453116 126.954248,180.019457 127.966013,179.413379 Z M127.099346,174.765912 C127.04183,173.842427 126.780392,173.121404 126.23268,172.51402 C125.68366,171.907942 124.845752,171.504326 123.747712,171.504326 C122.620915,171.504326 121.696732,171.907942 121.118954,172.571493 C120.628758,173.15014 120.309804,173.928637 120.252288,174.765912 L127.099346,174.765912 Z M146.073203,182.155097 C146.073203,182.357558 145.929412,182.502547 145.726797,182.502547 L143.47451,182.502547 C143.271895,182.502547 143.098039,182.357558 143.098039,182.155097 L143.098039,174.217307 L136.020915,180.827996 L136.020915,182.155097 C136.020915,182.357558 135.875817,182.502547 135.67451,182.502547 L133.420915,182.502547 C133.219608,182.502547 133.045752,182.357558 133.045752,182.155097 L133.045752,169.714829 C133.045752,169.541104 133.219608,169.368685 133.420915,169.368685 L135.67451,169.368685 C135.875817,169.368685 136.020915,169.541104 136.020915,169.714829 L136.020915,177.738828 L143.098039,171.099403 L143.098039,169.714829 C143.098039,169.541104 143.271895,169.368685 143.47451,169.368685 L145.726797,169.368685 C145.929412,169.368685 146.073203,169.541104 146.073203,169.714829 L146.073203,182.155097 Z M141.711111,161.777039 C141.739869,161.545841 141.913725,161.429589 142.11634,161.429589 L143.155556,161.429589 C143.445752,161.429589 143.589542,161.603314 143.589542,161.805776 C143.589542,163.941416 142.173856,165.788386 139.545098,165.788386 C136.91634,165.788386 135.471895,163.941416 135.471895,161.805776 C135.471895,161.603314 135.616993,161.429589 135.904575,161.429589 L136.973856,161.429589 C137.176471,161.429589 137.350327,161.545841 137.379085,161.777039 C137.494118,162.902985 138.15817,163.652745 139.545098,163.652745 C140.932026,163.652745 141.56732,162.902985 141.711111,161.777039 Z M150.345098,185.850342 C150.084967,185.936552 149.939869,185.907815 149.824837,185.735397 L149.50719,185.273001 C149.39085,185.04311 149.449673,184.898121 149.622222,184.753133 C150.113725,184.406989 150.835294,183.915857 150.835294,183.252307 C150.835294,182.300085 149.419608,182.47381 149.419608,180.914205 C149.419608,179.874468 150.142484,179.182181 151.269281,179.182181 C152.742484,179.182181 153.435294,180.221918 153.465359,181.75148 C153.522876,183.512241 152.049673,185.301738 150.345098,185.850342 Z M168.8,169.137488 C171.139869,169.137488 173.19085,169.772302 174.577778,171.099403 C175.762092,172.226655 176.512418,173.842427 176.512418,175.949331 C176.512418,178.056235 175.877124,179.587104 174.895425,180.683007 C173.538562,182.183833 171.515033,182.791217 169.666667,182.791217 C168.656209,182.791217 167.904575,182.703702 167.12549,182.386295 L167.12549,188.882037 C167.12549,189.054456 166.980392,189.228181 166.777778,189.228181 L164.524183,189.228181 C164.322876,189.228181 164.14902,189.054456 164.14902,188.882037 L164.14902,169.946027 C164.14902,169.743565 164.264052,169.56984 164.554248,169.512367 C165.652288,169.28117 167.269281,169.137488 168.8,169.137488 Z M167.12549,179.933247 C167.788235,180.250654 168.453595,180.3656 169.377778,180.3656 C170.389542,180.3656 171.515033,180.105666 172.381699,179.269697 C173.104575,178.606146 173.538562,177.478894 173.538562,175.949331 C173.538562,174.593493 173.133333,173.52502 172.410458,172.773954 C171.601307,171.966721 170.447059,171.533062 169.088889,171.533062 C168.453595,171.533062 167.730719,171.590535 167.12549,171.67805 L167.12549,179.933247 Z M180.928105,171.013194 C182.2,169.831081 183.962092,169.108751 185.92549,169.108751 C187.861438,169.108751 189.652288,169.831081 190.924183,171.013194 C192.194771,172.226655 192.945098,173.928637 192.945098,175.949331 C192.945098,177.998762 192.223529,179.730786 190.924183,180.914205 C189.681046,182.097624 187.861438,182.791217 185.92549,182.791217 C183.962092,182.791217 182.171242,182.097624 180.928105,180.914205 C179.628758,179.730786 178.877124,177.998762 178.877124,175.949331 C178.877124,173.928637 179.657516,172.226655 180.928105,171.013194 Z M182.950327,179.038499 C183.673203,179.816995 184.712418,180.308127 185.92549,180.308127 C187.109804,180.308127 188.150327,179.816995 188.871895,179.038499 C189.594771,178.22996 190.028758,177.190223 190.028758,175.949331 C190.028758,174.708439 189.594771,173.670009 188.871895,172.861469 C188.150327,172.081667 187.109804,171.590535 185.92549,171.590535 C184.712418,171.590535 183.673203,172.081667 182.950327,172.861469 C182.228758,173.670009 181.823529,174.708439 181.823529,175.949331 C181.823529,177.190223 182.228758,178.22996 182.950327,179.038499 Z M210.15817,179.904511 L213.133333,179.904511 C213.335948,179.904511 213.508497,180.048193 213.508497,180.250654 L213.508497,186.918816 C213.508497,187.119971 213.335948,187.264959 213.133333,187.264959 L210.937255,187.264959 C210.735948,187.264959 210.59085,187.119971 210.59085,186.918816 L210.59085,182.502547 L197.793464,182.502547 L197.793464,186.918816 C197.793464,187.119971 197.620915,187.264959 197.447059,187.264959 L195.222222,187.264959 C195.020915,187.264959 194.847059,187.119971 194.847059,186.918816 L194.847059,180.250654 C194.847059,180.048193 195.020915,179.904511 195.222222,179.904511 L197.59085,179.904511 C198.284967,178.721092 198.717647,177.363948 198.979085,175.920595 C199.266667,174.333559 199.352941,172.571493 199.383007,170.869511 L199.383007,169.714829 C199.383007,169.541104 199.526797,169.368685 199.729412,169.368685 L209.810458,169.368685 C210.013072,169.368685 210.15817,169.541104 210.15817,169.714829 L210.15817,179.904511 Z M201.780392,176.584145 C201.520261,177.76887 201.11634,178.864774 200.56732,179.904511 L207.210458,179.904511 L207.210458,171.994151 L202.271895,171.994151 C202.184314,173.52502 202.069281,175.083319 201.780392,176.584145 Z M229.101961,182.155097 C229.101961,182.357558 228.95817,182.502547 228.755556,182.502547 L226.501961,182.502547 C226.300654,182.502547 226.126797,182.357558 226.126797,182.155097 L226.126797,174.217307 L219.049673,180.827996 L219.049673,182.155097 C219.049673,182.357558 218.904575,182.502547 218.703268,182.502547 L216.449673,182.502547 C216.248366,182.502547 216.07451,182.357558 216.07451,182.155097 L216.07451,169.714829 C216.07451,169.541104 216.248366,169.368685 216.449673,169.368685 L218.703268,169.368685 C218.904575,169.368685 219.049673,169.541104 219.049673,169.714829 L219.049673,177.738828 L226.126797,171.099403 L226.126797,169.714829 C226.126797,169.541104 226.300654,169.368685 226.501961,169.368685 L228.755556,169.368685 C228.95817,169.368685 229.101961,169.541104 229.101961,169.714829 L229.101961,182.155097 Z M243.627451,169.368685 C243.830065,169.368685 244.002614,169.541104 244.002614,169.714829 L244.002614,171.619271 C244.002614,171.821733 243.830065,171.994151 243.627451,171.994151 L239.121569,171.994151 L239.121569,182.155097 C239.121569,182.357558 238.977778,182.502547 238.775163,182.502547 L236.550327,182.502547 C236.347712,182.502547 236.175163,182.357558 236.175163,182.155097 L236.175163,171.994151 L231.667974,171.994151 C231.495425,171.994151 231.321569,171.821733 231.321569,171.619271 L231.321569,169.714829 C231.321569,169.541104 231.495425,169.368685 231.667974,169.368685 L243.627451,169.368685 Z M256.277124,179.413379 C256.537255,179.269697 256.709804,179.355906 256.797386,179.500894 L257.576471,180.944248 C257.69281,181.116666 257.605229,181.289085 257.431373,181.405337 C256.363399,182.155097 254.457516,182.791217 252.464052,182.791217 C250.267974,182.791217 248.478431,182.068888 247.264052,180.770523 C246.108497,179.558367 245.444444,177.826343 245.444444,175.775606 C245.444444,173.871164 246.138562,172.197919 247.29281,170.984457 C248.39085,169.831081 250.00915,169.137488 252.088889,169.137488 C254.341176,169.137488 256.016993,169.974763 257.028758,171.301864 C257.980392,172.542756 258.385621,174.362296 258.270588,176.354254 C258.240523,176.584145 258.096732,176.75787 257.865359,176.75787 L248.563399,176.75787 C248.65098,177.797607 248.997386,178.576103 249.546405,179.182181 C250.267974,180.019457 251.366013,180.453116 252.666667,180.453116 C254.082353,180.453116 255.265359,180.019457 256.277124,179.413379 Z M255.410458,174.765912 C255.352941,173.842427 255.09281,173.121404 254.543791,172.51402 C253.994771,171.907942 253.156863,171.504326 252.058824,171.504326 C250.933333,171.504326 250.00915,171.907942 249.430065,172.571493 C248.939869,173.15014 248.620915,173.928637 248.563399,174.765912 L255.410458,174.765912 Z M264.563399,178.576103 C264.245752,179.961984 263.754248,181.202876 263.002614,182.12636 C262.772549,182.415031 262.598693,182.502547 262.166013,182.502547 L260.346405,182.502547 C259.971242,182.502547 259.826144,182.241306 260.086275,181.780217 C260.836601,180.625534 261.356863,179.384642 261.704575,178.084971 C262.252288,175.949331 262.338562,173.611229 262.338562,171.129446 L262.338562,169.772302 C262.338562,169.541104 262.512418,169.368685 262.743791,169.368685 L273.084967,169.368685 C273.258824,169.368685 273.431373,169.541104 273.431373,169.714829 L273.431373,182.155097 C273.431373,182.357558 273.258824,182.502547 273.084967,182.502547 L270.831373,182.502547 C270.630065,182.502547 270.484967,182.357558 270.484967,182.155097 L270.484967,171.994151 L265.313725,171.994151 C265.198693,174.131098 265.053595,176.526672 264.563399,178.576103 Z M287.40915,179.413379 C287.669281,179.269697 287.84183,179.355906 287.929412,179.500894 L288.708497,180.944248 C288.824837,181.116666 288.737255,181.289085 288.563399,181.405337 C287.495425,182.155097 285.589542,182.791217 283.596078,182.791217 C281.4,182.791217 279.60915,182.068888 278.396078,180.770523 C277.240523,179.558367 276.576471,177.826343 276.576471,175.775606 C276.576471,173.871164 277.270588,172.197919 278.424837,170.984457 C279.522876,169.831081 281.141176,169.137488 283.219608,169.137488 C285.473203,169.137488 287.14902,169.974763 288.159477,171.301864 C289.112418,172.542756 289.517647,174.362296 289.402614,176.354254 C289.372549,176.584145 289.227451,176.75787 288.997386,176.75787 L279.695425,176.75787 C279.783007,177.797607 280.129412,178.576103 280.678431,179.182181 C281.4,180.019457 282.498039,180.453116 283.798693,180.453116 C285.214379,180.453116 286.397386,180.019457 287.40915,179.413379 Z M286.542484,174.765912 C286.484967,173.842427 286.223529,173.121404 285.675817,172.51402 C285.126797,171.907942 284.288889,171.504326 283.19085,171.504326 C282.065359,171.504326 281.141176,171.907942 280.562092,172.571493 C280.071895,173.15014 279.752941,173.928637 279.695425,174.765912 L286.542484,174.765912 Z M305.517647,182.155097 C305.517647,182.357558 305.372549,182.502547 305.169935,182.502547 L302.917647,182.502547 C302.715033,182.502547 302.541176,182.357558 302.541176,182.155097 L302.541176,174.217307 L295.464052,180.827996 L295.464052,182.155097 C295.464052,182.357558 295.318954,182.502547 295.11634,182.502547 L292.864052,182.502547 C292.661438,182.502547 292.488889,182.357558 292.488889,182.155097 L292.488889,169.714829 C292.488889,169.541104 292.661438,169.368685 292.864052,169.368685 L295.11634,169.368685 C295.318954,169.368685 295.464052,169.541104 295.464052,169.714829 L295.464052,177.738828 L302.541176,171.099403 L302.541176,169.714829 C302.541176,169.541104 302.715033,169.368685 302.917647,169.368685 L305.169935,169.368685 C305.372549,169.368685 305.517647,169.541104 305.517647,169.714829 L305.517647,182.155097 Z M301.154248,161.777039 C301.183007,161.545841 301.356863,161.429589 301.559477,161.429589 L302.598693,161.429589 C302.887582,161.429589 303.03268,161.603314 303.03268,161.805776 C303.03268,163.941416 301.616993,165.788386 298.988235,165.788386 C296.359477,165.788386 294.915033,163.941416 294.915033,161.805776 C294.915033,161.603314 295.058824,161.429589 295.34902,161.429589 L296.416993,161.429589 C296.619608,161.429589 296.792157,161.545841 296.822222,161.777039 C296.937255,162.902985 297.601307,163.652745 298.988235,163.652745 C300.375163,163.652745 301.010458,162.902985 301.154248,161.777039 Z M329.862745,182.155097 C329.862745,182.357558 329.717647,182.502547 329.515033,182.502547 L327.262745,182.502547 C327.060131,182.502547 326.887582,182.357558 326.887582,182.155097 L326.887582,174.217307 L319.810458,180.827996 L319.810458,182.155097 C319.810458,182.357558 319.665359,182.502547 319.462745,182.502547 L317.210458,182.502547 C317.007843,182.502547 316.833987,182.357558 316.833987,182.155097 L316.833987,169.714829 C316.833987,169.541104 317.007843,169.368685 317.210458,169.368685 L319.462745,169.368685 C319.665359,169.368685 319.810458,169.541104 319.810458,169.714829 L319.810458,177.738828 L326.887582,171.099403 L326.887582,169.714829 C326.887582,169.541104 327.060131,169.368685 327.262745,169.368685 L329.515033,169.368685 C329.717647,169.368685 329.862745,169.541104 329.862745,169.714829 L329.862745,182.155097 Z M353.369935,169.368685 C353.543791,169.368685 353.717647,169.541104 353.717647,169.714829 L353.717647,182.155097 C353.717647,182.357558 353.543791,182.502547 353.369935,182.502547 L351.145098,182.502547 C350.945098,182.502547 350.771242,182.357558 350.771242,182.155097 L350.771242,177.190223 L344.155556,177.190223 L344.155556,182.155097 C344.155556,182.357558 343.983007,182.502547 343.780392,182.502547 L341.555556,182.502547 C341.352941,182.502547 341.180392,182.357558 341.180392,182.155097 L341.180392,169.714829 C341.180392,169.541104 341.352941,169.368685 341.555556,169.368685 L343.780392,169.368685 C343.983007,169.368685 344.155556,169.541104 344.155556,169.714829 L344.155556,174.593493 L350.771242,174.593493 L350.771242,169.714829 C350.771242,169.541104 350.945098,169.368685 351.145098,169.368685 L353.369935,169.368685 Z M367.173856,169.368685 C367.376471,169.368685 367.520261,169.541104 367.520261,169.714829 L367.520261,182.155097 C367.520261,182.357558 367.376471,182.502547 367.173856,182.502547 L365.007843,182.502547 C364.833987,182.502547 364.660131,182.357558 364.660131,182.155097 L364.660131,177.941289 L362.205229,177.941289 L359.31634,182.213876 C359.171242,182.47381 358.998693,182.502547 358.738562,182.502547 L356.543791,182.502547 C356.197386,182.502547 356.197386,182.271349 356.341176,181.982678 L359.69281,177.306475 C358.941176,177.104014 358.247059,176.844079 357.670588,176.238002 C357.064052,175.66066 356.688889,174.765912 356.688889,173.582493 C356.688889,171.850469 357.437908,170.638314 358.681046,169.974763 C359.461438,169.56984 360.443137,169.368685 361.541176,169.368685 L367.173856,169.368685 Z M361.858824,171.76426 C361.193464,171.76426 360.559477,171.879206 360.12549,172.255392 C359.807843,172.542756 359.605229,172.976415 359.605229,173.639966 C359.605229,174.333559 359.835294,174.823385 360.211765,175.083319 C360.644444,175.430769 361.281046,175.545715 361.945098,175.545715 L364.660131,175.545715 L364.660131,171.76426 L361.858824,171.76426 Z M383.69281,169.368685 C383.867974,169.368685 384.040523,169.541104 384.040523,169.714829 L384.040523,182.155097 C384.040523,182.357558 383.867974,182.502547 383.69281,182.502547 L381.469281,182.502547 C381.267974,182.502547 381.09281,182.357558 381.09281,182.155097 L381.09281,177.190223 L374.478431,177.190223 L374.478431,182.155097 C374.478431,182.357558 374.305882,182.502547 374.103268,182.502547 L371.878431,182.502547 C371.675817,182.502547 371.503268,182.357558 371.503268,182.155097 L371.503268,169.714829 C371.503268,169.541104 371.675817,169.368685 371.878431,169.368685 L374.103268,169.368685 C374.305882,169.368685 374.478431,169.541104 374.478431,169.714829 L374.478431,174.593493 L381.09281,174.593493 L381.09281,169.714829 C381.09281,169.541104 381.267974,169.368685 381.469281,169.368685 L383.69281,169.368685 Z M390.941176,174.765912 L394.551634,174.765912 C396.169935,174.765912 397.555556,175.169528 398.393464,176.094319 C399,176.700397 399.346405,177.536367 399.346405,178.634882 C399.346405,179.874468 398.912418,180.770523 398.220915,181.405337 C397.354248,182.155097 396.082353,182.502547 394.60915,182.502547 L388.341176,182.502547 C388.138562,182.502547 387.964706,182.357558 387.964706,182.155097 L387.964706,169.714829 C387.964706,169.541104 388.138562,169.368685 388.341176,169.368685 L390.593464,169.368685 C390.796078,169.368685 390.941176,169.541104 390.941176,169.714829 L390.941176,174.765912 Z M395.966013,177.50763 C395.533333,177.104014 394.811765,176.931595 393.830065,176.931595 L390.941176,176.931595 L390.941176,180.336864 L394.002614,180.336864 C394.724183,180.336864 395.447059,180.221918 395.908497,179.874468 C396.256209,179.587104 396.430065,179.210918 396.430065,178.663619 C396.430065,178.172487 396.284967,177.76887 395.966013,177.50763 L395.966013,177.50763 Z" id="description" fill="#99E0FF"></path>
  </g>
</svg>