<?xml version="1.0" encoding="UTF-8" standalone="no"?>
<svg viewBox="0 0 269 153" version="1.1" xmlns="http://www.w3.org/2000/svg" xmlns:xlink="http://www.w3.org/1999/xlink">
  <title>logo small</title>
  <g stroke="none" stroke-width="1" fill="#99E0FF" fill-rule="evenodd">
    <path d="M55.0285852,26.760417 C55.0285852,30.1174473 52.1798481,32.8387846 48.6667262,32.8387846 C45.1525361,32.8387846 42.3048672,30.1174473 42.3048672,26.760417 C42.3048672,23.4044072 45.1525361,20.6830699 48.6667262,20.6830699 C52.1798481,20.6830699 55.0285852,23.4044072 55.0285852,26.760417 L55.0285852,26.760417 Z M90.3873192,39.4875411 C90.3873192,42.1435745 92.6411007,44.2965635 95.4214766,44.2965635 C98.2018525,44.2965635 100.455634,42.1435745 100.455634,39.4875411 C100.455634,36.8315078 98.2018525,34.6785188 95.4214766,34.6785188 C92.6411007,34.6785188 90.3873192,36.8315078 90.3873192,39.4875411 L90.3873192,39.4875411 Z M68.9774632,24.6370189 C66.32206,8.6997984 50.6449268,-2.16514324 33.9605349,0.371506359 C25.8234224,1.60819957 18.9552637,5.80601793 14.3569085,11.6303123 L18.3816709,14.117984 L0,14.117984 L8.23858608,27.464475 C8.16702051,28.6093346 8.15740722,29.767459 8.23004094,30.9357872 L8.23004094,58.4501703 C8.23004094,60.1001149 9.64319398,60.4174512 11.385335,60.4174512 C13.1274761,60.4174512 14.5406291,60.1001149 14.5406291,58.4501703 L14.5406291,29.1460513 C14.5406291,16.3913771 25.364121,6.05192805 38.7159071,6.05192805 C52.066625,6.05192805 62.891185,16.3913771 62.891185,29.1460513 L62.891185,58.4501703 L62.8943894,58.4501703 C62.8943894,60.1266447 64.3289053,60.4654088 66.0998862,60.4654088 C67.869799,60.4654088 69.305383,60.1266447 69.305383,58.4501703 L69.305383,30.9215019 C69.2893609,27.6461016 69.3299503,26.7583763 68.9774632,24.6370189 L68.9774632,24.6370189 Z M125.207709,41.5425742 C125.221595,41.2313602 125.256844,40.925248 125.256844,40.6109728 C125.256844,40.4803649 125.238685,40.3538386 125.236549,40.2232307 L134.316832,28.6715774 L116.256672,28.6195383 L120.022944,26.3757361 C115.636081,21.1106066 108.885418,17.7423522 101.288785,17.7137817 C97.3313161,17.6994965 93.9399624,13.8628905 91.8239714,14.9659147 C90.8573021,15.4689591 90.5785168,16.5189239 91.4843019,17.7219447 C90.6735815,17.5392978 89.8457707,17.3158359 89.0532087,16.9617661 C83.912237,14.6669452 78.2852603,17.7678616 81.5836855,20.9636727 C81.9949205,21.3626389 82.2064128,21.5667137 82.3431351,21.6891586 C82.9242048,22.2881181 84.2027719,24.0217334 82.5108335,26.4185918 C82.5044247,26.4277751 82.5012203,26.4349177 82.4948114,26.4430807 C79.262611,30.3388684 77.3196591,35.2519689 77.3196591,40.6109728 C77.3196591,40.925248 77.355976,41.2303398 77.3687937,41.5415538 L77.3687937,58.1267117 L77.3880203,58.1267117 C77.3848158,58.1818119 77.3698618,58.233851 77.3698618,58.2899716 C77.3698618,59.9021624 78.7712653,60.1888875 80.4995205,60.1888875 C82.2277757,60.1888875 83.6291792,59.9021624 83.6291792,58.2899716 C83.6291792,58.233851 83.6152933,58.1818119 83.6120889,58.1267117 L83.6142251,58.1267117 L83.6142251,40.3813887 C83.6142251,31.0714969 91.5142099,23.5248113 101.259946,23.5248113 C111.004613,23.5248113 118.904598,31.0714969 118.904598,40.3813887 L118.904598,58.1267117 L118.916348,58.1267117 C118.913143,58.1818119 118.899257,58.233851 118.899257,58.2899716 C118.899257,59.9399162 120.311342,60.2572525 122.053483,60.2572525 C123.795624,60.2572525 125.208777,59.9399162 125.208777,58.2899716 C125.208777,58.233851 125.193823,58.1818119 125.191687,58.1267117 L125.207709,58.1267117 L125.207709,41.5425742 L125.207709,41.5425742 Z" id="birds"></path>
    <path d="M27.8175554,119.155974 C26.6771985,119.155974 26.0642243,118.686613 25.5377063,117.656422 L18.2606907,104.538345 L18.2606907,124.682973 C18.2606907,125.433211 17.6477165,126.088284 16.9456924,126.088284 L8.26549334,126.088284 C7.4770131,126.088284 6.95049505,125.433211 6.95049505,124.682973 L6.95049505,84.5831233 C6.95049505,83.7395676 7.4770131,83.177813 8.26549334,83.177813 L16.8575072,83.177813 C17.9096787,83.177813 18.6117028,83.2702069 19.2255416,84.5831233 L30.447552,105.194341 L41.4940563,84.5831233 C42.1952158,83.2702069 42.8090546,83.177813 43.8612262,83.177813 L52.628746,83.177813 C53.3299055,83.177813 53.9437443,83.7395676 53.9437443,84.5831233 L53.9437443,124.682973 C53.9437443,125.433211 53.3299055,126.088284 52.628746,126.088284 L43.9485469,126.088284 C43.248252,126.088284 42.6335486,125.433211 42.6335486,124.682973 L42.6335486,104.538345 L35.2692124,117.656422 C34.7435589,118.686613 34.1297201,119.155974 33.0775485,119.155974 L27.8175554,119.155974 L27.8175554,119.155974 Z M64.9720929,95.2629272 C64.0954274,95.8256057 63.4815886,95.8256057 63.0432558,94.7944904 L60.50058,88.891448 C60.1504325,88.0497402 60.2377532,87.5803795 61.027098,87.0186249 C65.0594136,84.3013221 71.0214309,82.3333333 77.3344601,82.3333333 C81.3667757,82.3333333 86.6276335,83.177813 90.0469748,87.2052605 C92.2386387,89.8292455 93.5536369,93.2016206 93.5536369,98.6362262 L93.5536369,124.682973 C93.5536369,125.433211 92.9397982,126.088284 92.2386387,126.088284 L84.5232904,126.088284 C83.7339456,126.088284 83.1201068,125.433211 83.1201068,124.682973 L83.1201068,123.933659 L82.7699593,123.933659 C79.1751119,126.369161 76.1067826,127.025157 72.0736024,127.025157 C68.4796196,127.025157 65.1475989,125.807406 62.7804291,123.55854 C60.3250739,121.402992 58.8345696,118.030617 58.8345696,113.814686 C58.8345696,108.285839 61.902899,105.007705 66.1115852,102.946399 C70.9341101,100.697533 77.2462748,99.9472948 81.9806145,99.5730998 L81.9806145,98.6362262 C81.9806145,96.4816019 81.6296025,94.8878082 80.7529369,93.7642991 C79.7889507,92.4513827 77.9474343,91.890552 75.9312765,91.890552 C71.8099111,91.890552 67.9531015,93.4824979 64.9720929,95.2629272 L64.9720929,95.2629272 Z M81.9806145,116.062628 L81.9806145,107.912568 C76.7206213,108.099203 69.8819386,108.848517 69.8819386,113.439567 C69.8819386,116.437747 72.6001205,117.843058 75.8439558,117.843058 C77.8601136,117.843058 79.9644567,117.375545 81.9806145,116.062628 L81.9806145,116.062628 Z M139.817196,83.177813 C140.605676,83.177813 141.132194,83.7395676 141.132194,84.5831233 L141.132194,124.682973 C141.132194,125.433211 140.605676,126.088284 139.817196,126.088284 L131.049676,126.088284 C130.260332,126.088284 129.734678,125.433211 129.734678,124.682973 L129.734678,109.785391 L112.726156,109.785391 L112.726156,124.682973 C112.726156,125.433211 112.112318,126.088284 111.411158,126.088284 L102.555453,126.088284 C101.766108,126.088284 101.240455,125.433211 101.240455,124.682973 L101.240455,84.5831233 C101.240455,83.7395676 101.766108,83.177813 102.555453,83.177813 L111.411158,83.177813 C112.112318,83.177813 112.726156,83.7395676 112.726156,84.5831233 L112.726156,99.0113452 L129.734678,99.0113452 L129.734678,84.5831233 C129.734678,83.7395676 130.260332,83.177813 131.049676,83.177813 L139.817196,83.177813 L139.817196,83.177813 Z M180.388481,83.177813 C181.089641,83.177813 181.70348,83.7395676 181.70348,84.5831233 L181.70348,124.682973 C181.70348,125.433211 181.089641,126.088284 180.388481,126.088284 L171.883788,126.088284 C171.095308,126.088284 170.481469,125.433211 170.481469,124.682973 L170.481469,112.220892 L165.133291,112.220892 L157.944461,124.963851 C157.330622,125.994042 156.804104,126.088284 155.840117,126.088284 L147.072598,126.088284 C145.84492,126.088284 145.757599,125.058092 146.371438,124.026977 L155.226279,109.598755 C153.297442,108.755199 151.544111,107.724084 149.965421,105.850337 C148.387596,103.789031 147.42361,100.97841 147.42361,97.4175515 C147.42361,91.7020686 149.703459,87.4861377 153.735774,85.2381956 C156.190265,83.8328853 159.171274,83.177813 162.503294,83.177813 L180.388481,83.177813 L180.388481,83.177813 Z M163.818293,93.1073789 C162.327788,93.1073789 160.837284,93.3891801 159.960618,94.2318119 C159.259459,94.9820499 158.821126,96.1064829 158.821126,97.6984288 C158.821126,99.2922225 159.34678,100.416656 160.136124,101.16597 C161.01279,102.008601 162.503294,102.289479 163.906478,102.289479 L170.481469,102.289479 L170.481469,93.1073789 L163.818293,93.1073789 L163.818293,93.1073789 Z M227.006511,83.177813 C227.794127,83.177813 228.321509,83.7395676 228.321509,84.5831233 L228.321509,124.682973 C228.321509,125.433211 227.794127,126.088284 227.006511,126.088284 L218.238991,126.088284 C217.449646,126.088284 216.923993,125.433211 216.923993,124.682973 L216.923993,109.785391 L199.915471,109.785391 L199.915471,124.682973 C199.915471,125.433211 199.301632,126.088284 198.599608,126.088284 L189.744768,126.088284 C188.955423,126.088284 188.429769,125.433211 188.429769,124.682973 L188.429769,84.5831233 C188.429769,83.7395676 188.955423,83.177813 189.744768,83.177813 L198.599608,83.177813 C199.301632,83.177813 199.915471,83.7395676 199.915471,84.5831233 L199.915471,99.0113452 L216.923993,99.0113452 L216.923993,84.5831233 C216.923993,83.7395676 217.449646,83.177813 218.238991,83.177813 L227.006511,83.177813 L227.006511,83.177813 Z M267.685002,83.177813 C268.386161,83.177813 269,83.7395676 269,84.5831233 L269,124.682973 C269,125.433211 268.386161,126.088284 267.685002,126.088284 L259.181173,126.088284 C258.392693,126.088284 257.77799,125.433211 257.77799,124.682973 L257.77799,112.220892 L252.430676,112.220892 L245.240981,124.963851 C244.627142,125.994042 244.101489,126.088284 243.137502,126.088284 L234.369118,126.088284 C233.142305,126.088284 233.05412,125.058092 233.667958,124.026977 L242.523664,109.598755 C240.594827,108.755199 238.841495,107.724084 237.26367,105.850337 C235.684116,103.789031 234.72013,100.97841 234.72013,97.4175515 C234.72013,91.7020686 236.999115,87.4861377 241.033159,85.2381956 C243.48765,83.8328853 246.468658,83.177813 249.800679,83.177813 L267.685002,83.177813 L267.685002,83.177813 Z M251.115677,93.1073789 C249.624309,93.1073789 248.134669,93.3891801 247.257139,94.2318119 C246.555979,94.9820499 246.118511,96.1064829 246.118511,97.6984288 C246.118511,99.2922225 246.644164,100.416656 247.433509,101.16597 C248.30931,102.008601 249.800679,102.289479 251.202998,102.289479 L257.77799,102.289479 L257.77799,93.1073789 L251.115677,93.1073789 L251.115677,93.1073789 Z" id="name"></path>
    <path d="M13.5276559,137.905462 C13.7571676,137.905462 13.8330963,138.109898 13.6424118,138.355035 L10.3248468,142.422472 L13.7571676,146.777599 C13.9668342,146.98111 13.8710606,147.206822 13.6613939,147.206822 L11.8882871,147.206822 C11.6786204,147.206822 11.5638646,147.144844 11.4301266,146.960759 L8.66563297,143.444651 L7.59831755,143.444651 L7.59831755,146.960759 C7.59831755,147.104141 7.48356173,147.206822 7.34982374,147.206822 L5.88215718,147.206822 C5.74841919,147.206822 5.63366337,147.104141 5.63366337,146.960759 L5.63366337,138.1506 C5.63366337,138.027568 5.74841919,137.905462 5.88215718,137.905462 L7.34982374,137.905462 C7.48356173,137.905462 7.59831755,138.027568 7.59831755,138.1506 L7.59831755,141.605655 L8.68461514,141.605655 L11.3731801,138.1506 C11.4879359,137.986866 11.6018289,137.905462 11.8114956,137.905462 L13.5276559,137.905462 L13.5276559,137.905462 Z M17.567406,144.426127 C17.3577394,145.407603 17.0333169,146.286399 16.5380549,146.940408 C16.3853348,147.144844 16.2705789,147.206822 15.9849836,147.206822 L14.7839302,147.206822 C14.5354364,147.206822 14.4405256,147.021812 14.6122279,146.69527 C15.1074899,145.877528 15.4508945,144.998732 15.6795433,144.078309 C16.0419301,142.565855 16.0988766,140.910019 16.0988766,139.152427 L16.0988766,138.191302 C16.0988766,138.027568 16.2136324,137.905462 16.3663526,137.905462 L23.1930297,137.905462 C23.3069227,137.905462 23.4208157,138.027568 23.4208157,138.1506 L23.4208157,146.960759 C23.4208157,147.104141 23.3069227,147.206822 23.1930297,147.206822 L21.7055182,147.206822 C21.5717802,147.206822 21.4760066,147.104141 21.4760066,146.960759 L21.4760066,139.764809 L18.0635308,139.764809 C17.9876021,141.278188 17.8918285,142.974726 17.567406,144.426127 L17.567406,144.426127 Z M30.8739044,147.717448 C30.4166067,148.984765 29.8825176,150.027294 29.1767262,150.743281 C28.3190774,151.642428 27.1559883,152.07165 25.6874589,151.990246 C25.5735659,151.990246 25.4967744,151.907917 25.4967744,151.785811 L25.4967744,150.191027 C25.4967744,150.068921 25.5925481,150.006943 25.7064411,150.006943 C25.8401791,150.006943 25.9540721,150.027294 26.1835837,150.027294 C26.7936015,150.027294 27.3466728,149.782156 27.8039704,149.312232 C28.1473751,148.944062 28.4709347,148.453787 28.7573929,147.799778 L24.8099652,138.25328 C24.7530187,138.109898 24.7530187,137.905462 25.0015125,137.905462 L26.7936015,137.905462 C27.0032682,137.905462 27.118024,137.986866 27.1749705,138.191302 L29.7677618,145.182816 L32.0369935,138.191302 C32.09394,137.986866 32.2086958,137.905462 32.4183624,137.905462 L34.0775763,137.905462 C34.3053623,137.905462 34.2863801,138.109898 34.2484158,138.25328 L30.8739044,147.717448 L30.8739044,147.717448 Z M42.3693315,135.778776 C41.4348913,136.597444 39.9283976,136.780603 38.8032728,137.516942 C38.0784992,138.007217 37.5262907,138.723205 37.2786598,139.622351 C37.8886775,139.131151 38.8610821,138.620524 40.4435045,138.620524 C41.6065936,138.620524 42.6928912,139.049747 43.436647,139.929467 C44.0285454,140.624179 44.3900694,141.626006 44.3900694,142.913673 C44.3900694,144.262393 43.9517539,145.345625 43.189016,146.122665 C42.3494866,146.98111 41.129451,147.411257 39.7946596,147.411257 C38.3649573,147.411257 37.3166241,146.920057 36.5728683,146.103239 C35.5624994,144.998732 35.1811304,143.302193 35.1811304,141.543677 C35.1811304,139.274533 35.9430055,137.537293 37.3166241,136.494763 C38.5936062,135.513287 39.8145046,135.492936 40.8058913,134.756598 C41.2821711,134.389354 41.4538735,134.021184 41.4538735,133.55126 C41.4538735,133.407878 41.5496471,133.284846 41.6825223,133.284846 L43.0362958,133.284846 C43.1510517,133.284846 43.2649447,133.387526 43.2649447,133.55126 C43.2649447,134.348652 43.0173137,135.18582 42.3693315,135.778776 L42.3693315,135.778776 Z M37.0871124,141.871144 C37.1069574,142.934024 37.2976419,143.996904 37.8118861,144.711967 C38.2312194,145.345625 38.8800643,145.73507 39.7946596,145.73507 C40.6531712,145.73507 41.3391176,145.448305 41.7972781,144.917327 C42.2355936,144.426127 42.4832245,143.731416 42.4832245,142.913673 C42.4832245,142.055228 42.2355936,141.400294 41.8352424,140.951646 C41.3391176,140.35869 40.5953619,140.071925 39.8904332,140.071925 C38.708362,140.071925 37.8118861,140.480796 37.0871124,141.217135 L37.0871124,141.871144 L37.0871124,141.871144 Z M60.6310381,145.366901 L62.5948294,145.366901 C62.7285674,145.366901 62.8433232,145.468656 62.8433232,145.612039 L62.8433232,150.33441 C62.8433232,150.476867 62.7285674,150.579548 62.5948294,150.579548 L61.146145,150.579548 C61.012407,150.579548 60.9174962,150.476867 60.9174962,150.33441 L60.9174962,147.206822 L52.4704323,147.206822 L52.4704323,150.33441 C52.4704323,150.476867 52.3565393,150.579548 52.2417835,150.579548 L50.7732541,150.579548 C50.6395161,150.579548 50.5256232,150.476867 50.5256232,150.33441 L50.5256232,145.612039 C50.5256232,145.468656 50.6395161,145.366901 50.7732541,145.366901 L52.3366944,145.366901 C52.7948548,144.528807 53.0804501,143.567682 53.2521525,142.545504 C53.4428369,141.42157 53.4997834,140.17368 53.5187656,138.968342 L53.5187656,138.1506 C53.5187656,138.027568 53.6145393,137.905462 53.7482772,137.905462 L60.4023893,137.905462 C60.5361272,137.905462 60.6310381,138.027568 60.6310381,138.1506 L60.6310381,145.366901 L60.6310381,145.366901 Z M55.1020508,143.015428 C54.9303485,143.854447 54.6628725,144.630563 54.3004857,145.366901 L58.6862289,145.366901 L58.6862289,139.764809 L55.4256105,139.764809 C55.368664,140.848965 55.2918725,141.952548 55.1020508,143.015428 L55.1020508,143.015428 Z M71.17218,145.019083 C71.3438823,144.917327 71.4577753,144.978381 71.5155846,145.081061 L72.0298288,146.103239 C72.1066203,146.225346 72.0488109,146.347452 71.9349179,146.429781 C71.2291265,146.960759 69.9711266,147.411257 68.6553173,147.411257 C67.2057701,147.411257 66.0236989,146.899706 65.2229966,145.980208 C64.4602587,145.121763 64.0219432,143.895149 64.0219432,142.442823 C64.0219432,141.094103 64.4792408,139.909116 65.2419788,139.049747 C65.9667524,138.232929 67.0340678,137.741728 68.4068235,137.741728 C69.8943351,137.741728 71.0004777,138.334684 71.6683048,139.274533 C72.2973047,140.153329 72.5639179,141.441921 72.4871264,142.85262 C72.4681442,143.015428 72.3732334,143.13846 72.2205132,143.13846 L66.0806454,143.13846 C66.1384547,143.874798 66.3671035,144.426127 66.7294903,144.855349 C67.2057701,145.448305 67.9305437,145.755421 68.7881925,145.755421 C69.7226328,145.755421 70.5043529,145.448305 71.17218,145.019083 L71.17218,145.019083 Z M70.6001265,141.727761 C70.5621622,141.073752 70.3904599,140.563125 70.0280731,140.132978 C69.6656863,139.703756 69.112615,139.417916 68.3887042,139.417916 C67.6440856,139.417916 67.0340678,139.703756 66.6526988,140.17368 C66.3291392,140.583477 66.1186097,141.134805 66.0806454,141.727761 L70.6001265,141.727761 L70.6001265,141.727761 Z M81.5226374,137.905462 C81.6563754,137.905462 81.7702684,138.027568 81.7702684,138.1506 L81.7702684,139.49932 C81.7702684,139.642703 81.6563754,139.764809 81.5226374,139.764809 L78.5476143,139.764809 L78.5476143,146.960759 C78.5476143,147.104141 78.4527035,147.206822 78.3198283,147.206822 L76.8512989,147.206822 C76.7175609,147.206822 76.6036679,147.104141 76.6036679,146.960759 L76.6036679,139.764809 L73.6286448,139.764809 C73.5147518,139.764809 73.399996,139.642703 73.399996,139.49932 L73.399996,138.1506 C73.399996,138.027568 73.5147518,137.905462 73.6286448,137.905462 L81.5226374,137.905462 L81.5226374,137.905462 Z M89.872202,145.019083 C90.0439043,144.917327 90.1577973,144.978381 90.2147438,145.081061 L90.7298508,146.103239 C90.8066422,146.225346 90.7488329,146.347452 90.6340771,146.429781 C89.9291485,146.960759 88.6702857,147.411257 87.3553393,147.411257 C85.9057921,147.411257 84.7237209,146.899706 83.9230186,145.980208 C83.1602806,145.121763 82.7219652,143.895149 82.7219652,142.442823 C82.7219652,141.094103 83.1792628,139.909116 83.9420008,139.049747 C84.6667744,138.232929 85.7340898,137.741728 87.1068455,137.741728 C88.5943571,137.741728 89.7004997,138.334684 90.367464,139.274533 C90.9973267,140.153329 91.2639399,141.441921 91.1871484,142.85262 C91.1681662,143.015428 91.0732554,143.13846 90.9205352,143.13846 L84.7806674,143.13846 C84.8384767,143.874798 85.0671255,144.426127 85.4286495,144.855349 C85.9057921,145.448305 86.6305657,145.755421 87.4882145,145.755421 C88.4226548,145.755421 89.2043749,145.448305 89.872202,145.019083 L89.872202,145.019083 Z M89.3001485,141.727761 C89.2621842,141.073752 89.089619,140.563125 88.7280951,140.132978 C88.3657083,139.703756 87.812637,139.417916 87.0878634,139.417916 C86.3441076,139.417916 85.7340898,139.703756 85.3527208,140.17368 C85.0291612,140.583477 84.8186317,141.134805 84.7806674,141.727761 L89.3001485,141.727761 L89.3001485,141.727761 Z M101.824064,146.960759 C101.824064,147.104141 101.729153,147.206822 101.595415,147.206822 L100.108766,147.206822 C99.9750284,147.206822 99.8602726,147.104141 99.8602726,146.960759 L99.8602726,141.339241 L95.1889341,146.02091 L95.1889341,146.960759 C95.1889341,147.104141 95.0931605,147.206822 94.9602853,147.206822 L93.4727737,147.206822 C93.3398986,147.206822 93.2251428,147.104141 93.2251428,146.960759 L93.2251428,138.1506 C93.2251428,138.027568 93.3398986,137.905462 93.4727737,137.905462 L94.9602853,137.905462 C95.0931605,137.905462 95.1889341,138.027568 95.1889341,138.1506 L95.1889341,143.833171 L99.8602726,139.131151 L99.8602726,138.1506 C99.8602726,138.027568 99.9750284,137.905462 100.108766,137.905462 L101.595415,137.905462 C101.729153,137.905462 101.824064,138.027568 101.824064,138.1506 L101.824064,146.960759 L101.824064,146.960759 Z M98.9448145,132.529082 C98.9637967,132.365348 99.0785525,132.283019 99.2122905,132.283019 L99.8982369,132.283019 C100.089784,132.283019 100.184695,132.40605 100.184695,132.549433 C100.184695,134.061887 99.2502548,135.369905 97.5151123,135.369905 C95.7799697,135.369905 94.8265473,134.061887 94.8265473,132.549433 C94.8265473,132.40605 94.922321,132.283019 95.1121426,132.283019 L95.8179341,132.283019 C95.9516721,132.283019 96.0664279,132.365348 96.08541,132.529082 C96.1613387,133.326473 96.5996542,133.857451 97.5151123,133.857451 C98.4305704,133.857451 98.8499037,133.326473 98.9448145,132.529082 L98.9448145,132.529082 Z M104.643778,149.57772 C104.472076,149.638774 104.376302,149.618423 104.300374,149.496316 L104.090707,149.168849 C104.013916,149.006041 104.052743,148.90336 104.166636,148.80068 C104.491058,148.555542 104.967338,148.207724 104.967338,147.737799 C104.967338,147.063439 104.032898,147.186471 104.032898,146.081963 C104.032898,145.345625 104.51004,144.855349 105.253796,144.855349 C106.226201,144.855349 106.683498,145.591688 106.703343,146.674919 C106.741308,147.921884 105.768903,149.1892 104.643778,149.57772 L104.643778,149.57772 Z M116.825152,137.741728 C118.36961,137.741728 119.723384,138.191302 120.638842,139.131151 C121.420562,139.929467 121.915824,141.073752 121.915824,142.565855 C121.915824,144.057958 121.496491,145.142114 120.848508,145.91823 C119.952895,146.98111 118.617241,147.411257 117.397206,147.411257 C116.730241,147.411257 116.234116,147.349279 115.719872,147.124493 L115.719872,151.724757 C115.719872,151.846864 115.624099,151.969895 115.490361,151.969895 L114.002849,151.969895 C113.869974,151.969895 113.755218,151.846864 113.755218,151.724757 L113.755218,138.314333 C113.755218,138.170951 113.831147,138.047919 114.022694,138.007217 C114.747468,137.843484 115.814783,137.741728 116.825152,137.741728 L116.825152,137.741728 Z M115.719872,145.387252 C116.157325,145.612039 116.596503,145.693443 117.206521,145.693443 C117.874348,145.693443 118.617241,145.509358 119.189295,144.917327 C119.666437,144.447403 119.952895,143.649086 119.952895,142.565855 C119.952895,141.605655 119.685419,140.848965 119.208277,140.317063 C118.674188,139.745383 117.912312,139.438267 117.015837,139.438267 C116.596503,139.438267 116.119361,139.478969 115.719872,139.540947 L115.719872,145.387252 L115.719872,145.387252 Z M124.830449,139.070098 C125.669979,138.232929 126.833068,137.721377 128.129032,137.721377 C129.406877,137.721377 130.588948,138.232929 131.428478,139.070098 C132.267144,139.929467 132.762406,141.134805 132.762406,142.565855 C132.762406,144.017256 132.286126,145.243869 131.428478,146.081963 C130.60793,146.920057 129.406877,147.411257 128.129032,147.411257 C126.833068,147.411257 125.650996,146.920057 124.830449,146.081963 C123.9728,145.243869 123.476676,144.017256 123.476676,142.565855 C123.476676,141.134805 123.991783,139.929467 124.830449,139.070098 L124.830449,139.070098 Z M126.165241,144.753594 C126.642383,145.304923 127.32833,145.652741 128.129032,145.652741 C128.910752,145.652741 129.597561,145.304923 130.073841,144.753594 C130.550984,144.180989 130.837442,143.444651 130.837442,142.565855 C130.837442,141.687059 130.550984,140.951646 130.073841,140.379041 C129.597561,139.826787 128.910752,139.478969 128.129032,139.478969 C127.32833,139.478969 126.642383,139.826787 126.165241,140.379041 C125.688961,140.951646 125.421485,141.687059 125.421485,142.565855 C125.421485,143.444651 125.688961,144.180989 126.165241,144.753594 L126.165241,144.753594 Z M144.124095,145.366901 L146.087887,145.366901 C146.221625,145.366901 146.335518,145.468656 146.335518,145.612039 L146.335518,150.33441 C146.335518,150.476867 146.221625,150.579548 146.087887,150.579548 L144.638339,150.579548 C144.505464,150.579548 144.409691,150.476867 144.409691,150.33441 L144.409691,147.206822 L135.962627,147.206822 L135.962627,150.33441 C135.962627,150.476867 135.848734,150.579548 135.733978,150.579548 L134.265448,150.579548 C134.132573,150.579548 134.017818,150.476867 134.017818,150.33441 L134.017818,145.612039 C134.017818,145.468656 134.132573,145.366901 134.265448,145.366901 L135.828889,145.366901 C136.287049,144.528807 136.572644,143.567682 136.74521,142.545504 C136.935031,141.42157 136.991978,140.17368 137.011823,138.968342 L137.011823,138.1506 C137.011823,138.027568 137.106734,137.905462 137.240472,137.905462 L143.894584,137.905462 C144.028322,137.905462 144.124095,138.027568 144.124095,138.1506 L144.124095,145.366901 L144.124095,145.366901 Z M138.594245,143.015428 C138.422543,143.854447 138.15593,144.630563 137.793543,145.366901 L142.178423,145.366901 L142.178423,139.764809 L138.918668,139.764809 C138.860858,140.848965 138.78493,141.952548 138.594245,143.015428 L138.594245,143.015428 Z M156.628166,146.960759 C156.628166,147.104141 156.533255,147.206822 156.399517,147.206822 L154.912005,147.206822 C154.77913,147.206822 154.664374,147.104141 154.664374,146.960759 L154.664374,141.339241 L149.993036,146.02091 L149.993036,146.960759 C149.993036,147.104141 149.897262,147.206822 149.764387,147.206822 L148.276875,147.206822 C148.144,147.206822 148.029245,147.104141 148.029245,146.960759 L148.029245,138.1506 C148.029245,138.027568 148.144,137.905462 148.276875,137.905462 L149.764387,137.905462 C149.897262,137.905462 149.993036,138.027568 149.993036,138.1506 L149.993036,143.833171 L154.664374,139.131151 L154.664374,138.1506 C154.664374,138.027568 154.77913,137.905462 154.912005,137.905462 L156.399517,137.905462 C156.533255,137.905462 156.628166,138.027568 156.628166,138.1506 L156.628166,146.960759 L156.628166,146.960759 Z M166.215885,137.905462 C166.349623,137.905462 166.463516,138.027568 166.463516,138.1506 L166.463516,139.49932 C166.463516,139.642703 166.349623,139.764809 166.215885,139.764809 L163.241725,139.764809 L163.241725,146.960759 C163.241725,147.104141 163.146814,147.206822 163.013076,147.206822 L161.544547,147.206822 C161.410809,147.206822 161.296916,147.104141 161.296916,146.960759 L161.296916,139.764809 L158.321893,139.764809 C158.208,139.764809 158.093244,139.642703 158.093244,139.49932 L158.093244,138.1506 C158.093244,138.027568 158.208,137.905462 158.321893,137.905462 L166.215885,137.905462 L166.215885,137.905462 Z M174.56545,145.019083 C174.737152,144.917327 174.851045,144.978381 174.908854,145.081061 L175.423099,146.103239 C175.49989,146.225346 175.442081,146.347452 175.327325,146.429781 C174.622396,146.960759 173.364396,147.411257 172.048587,147.411257 C170.59904,147.411257 169.417831,146.899706 168.616266,145.980208 C167.853528,145.121763 167.415213,143.895149 167.415213,142.442823 C167.415213,141.094103 167.873373,139.909116 168.635249,139.049747 C169.360022,138.232929 170.4282,137.741728 171.800956,137.741728 C173.287605,137.741728 174.393747,138.334684 175.061575,139.274533 C175.689712,140.153329 175.957188,141.441921 175.881259,142.85262 C175.861414,143.015428 175.766503,143.13846 175.613783,143.13846 L169.473915,143.13846 C169.531724,143.874798 169.760373,144.426127 170.12276,144.855349 C170.59904,145.448305 171.323814,145.755421 172.182325,145.755421 C173.116765,145.755421 173.897623,145.448305 174.56545,145.019083 L174.56545,145.019083 Z M173.993396,141.727761 C173.955432,141.073752 173.78373,140.563125 173.421343,140.132978 C173.058956,139.703756 172.505885,139.417916 171.781111,139.417916 C171.038218,139.417916 170.4282,139.703756 170.045969,140.17368 C169.722409,140.583477 169.511879,141.134805 169.473915,141.727761 L173.993396,141.727761 L173.993396,141.727761 Z M180.034902,144.426127 C179.825235,145.407603 179.500813,146.286399 179.004688,146.940408 C178.852831,147.144844 178.738075,147.206822 178.45248,147.206822 L177.251426,147.206822 C177.003795,147.206822 176.908022,147.021812 177.079724,146.69527 C177.574986,145.877528 177.918391,144.998732 178.147902,144.078309 C178.509426,142.565855 178.566373,140.910019 178.566373,139.152427 L178.566373,138.191302 C178.566373,138.027568 178.681128,137.905462 178.833849,137.905462 L185.659663,137.905462 C185.774419,137.905462 185.888312,138.027568 185.888312,138.1506 L185.888312,146.960759 C185.888312,147.104141 185.774419,147.206822 185.659663,147.206822 L184.172151,147.206822 C184.039276,147.206822 183.943503,147.104141 183.943503,146.960759 L183.943503,139.764809 L180.530164,139.764809 C180.454235,141.278188 180.358462,142.974726 180.034902,144.426127 L180.034902,144.426127 Z M195.114507,145.019083 C195.28621,144.917327 195.400103,144.978381 195.457912,145.081061 L195.972156,146.103239 C196.048948,146.225346 195.991138,146.347452 195.876382,146.429781 C195.171454,146.960759 193.913454,147.411257 192.597645,147.411257 C191.148097,147.411257 189.966026,146.899706 189.165324,145.980208 C188.402586,145.121763 187.96427,143.895149 187.96427,142.442823 C187.96427,141.094103 188.422431,139.909116 189.184306,139.049747 C189.90908,138.232929 190.977258,137.741728 192.349151,137.741728 C193.836662,137.741728 194.942805,138.334684 195.609769,139.274533 C196.238769,140.153329 196.506245,141.441921 196.430317,142.85262 C196.410472,143.015428 196.314698,143.13846 196.162841,143.13846 L190.022973,143.13846 C190.080782,143.874798 190.309431,144.426127 190.671818,144.855349 C191.148097,145.448305 191.872871,145.755421 192.731383,145.755421 C193.665823,145.755421 194.44668,145.448305 195.114507,145.019083 L195.114507,145.019083 Z M194.542454,141.727761 C194.504489,141.073752 194.331924,140.563125 193.9704,140.132978 C193.608014,139.703756 193.054942,139.417916 192.330169,139.417916 C191.587276,139.417916 190.977258,139.703756 190.595026,140.17368 C190.271466,140.583477 190.060937,141.134805 190.022973,141.727761 L194.542454,141.727761 L194.542454,141.727761 Z M207.067232,146.960759 C207.067232,147.104141 206.971458,147.206822 206.83772,147.206822 L205.351072,147.206822 C205.217334,147.206822 205.102578,147.104141 205.102578,146.960759 L205.102578,141.339241 L200.431239,146.02091 L200.431239,146.960759 C200.431239,147.104141 200.335466,147.206822 200.201728,147.206822 L198.715079,147.206822 C198.581341,147.206822 198.467448,147.104141 198.467448,146.960759 L198.467448,138.1506 C198.467448,138.027568 198.581341,137.905462 198.715079,137.905462 L200.201728,137.905462 C200.335466,137.905462 200.431239,138.027568 200.431239,138.1506 L200.431239,143.833171 L205.102578,139.131151 L205.102578,138.1506 C205.102578,138.027568 205.217334,137.905462 205.351072,137.905462 L206.83772,137.905462 C206.971458,137.905462 207.067232,138.027568 207.067232,138.1506 L207.067232,146.960759 L207.067232,146.960759 Z M204.18712,132.529082 C204.206102,132.365348 204.320858,132.283019 204.454596,132.283019 L205.140542,132.283019 C205.331227,132.283019 205.427,132.40605 205.427,132.549433 C205.427,134.061887 204.49256,135.369905 202.757418,135.369905 C201.022275,135.369905 200.068853,134.061887 200.068853,132.549433 C200.068853,132.40605 200.163763,132.283019 200.355311,132.283019 L201.060239,132.283019 C201.193977,132.283019 201.30787,132.365348 201.327715,132.529082 C201.403644,133.326473 201.841959,133.857451 202.757418,133.857451 C203.672876,133.857451 204.092209,133.326473 204.18712,132.529082 L204.18712,132.529082 Z M223.136498,146.960759 C223.136498,147.104141 223.040725,147.206822 222.906987,147.206822 L221.420338,147.206822 C221.2866,147.206822 221.172707,147.104141 221.172707,146.960759 L221.172707,141.339241 L216.501369,146.02091 L216.501369,146.960759 C216.501369,147.104141 216.405595,147.206822 216.271857,147.206822 L214.785208,147.206822 C214.65147,147.206822 214.536714,147.104141 214.536714,146.960759 L214.536714,138.1506 C214.536714,138.027568 214.65147,137.905462 214.785208,137.905462 L216.271857,137.905462 C216.405595,137.905462 216.501369,138.027568 216.501369,138.1506 L216.501369,143.833171 L221.172707,139.131151 L221.172707,138.1506 C221.172707,138.027568 221.2866,137.905462 221.420338,137.905462 L222.906987,137.905462 C223.040725,137.905462 223.136498,138.027568 223.136498,138.1506 L223.136498,146.960759 L223.136498,146.960759 Z M238.652694,137.905462 C238.767449,137.905462 238.882205,138.027568 238.882205,138.1506 L238.882205,146.960759 C238.882205,147.104141 238.767449,147.206822 238.652694,147.206822 L237.184164,147.206822 C237.052152,147.206822 236.937396,147.104141 236.937396,146.960759 L236.937396,143.444651 L232.570635,143.444651 L232.570635,146.960759 C232.570635,147.104141 232.456742,147.206822 232.323004,147.206822 L230.854475,147.206822 C230.720737,147.206822 230.606844,147.104141 230.606844,146.960759 L230.606844,138.1506 C230.606844,138.027568 230.720737,137.905462 230.854475,137.905462 L232.323004,137.905462 C232.456742,137.905462 232.570635,138.027568 232.570635,138.1506 L232.570635,141.605655 L236.937396,141.605655 L236.937396,138.1506 C236.937396,138.027568 237.052152,137.905462 237.184164,137.905462 L238.652694,137.905462 L238.652694,137.905462 Z M247.764133,137.905462 C247.897871,137.905462 247.992782,138.027568 247.992782,138.1506 L247.992782,146.960759 C247.992782,147.104141 247.897871,147.206822 247.764133,147.206822 L246.334431,147.206822 C246.219675,147.206822 246.104919,147.104141 246.104919,146.960759 L246.104919,143.976553 L244.484533,143.976553 L242.577688,147.002386 C242.481914,147.186471 242.368021,147.206822 242.196319,147.206822 L240.747634,147.206822 C240.518986,147.206822 240.518986,147.043088 240.613896,146.838653 L242.826182,143.52698 C242.330057,143.383598 241.871896,143.199513 241.49139,142.770291 C241.091039,142.361419 240.843408,141.727761 240.843408,140.889668 C240.843408,139.663054 241.337807,138.804609 242.158354,138.334684 C242.673461,138.047919 243.321444,137.905462 244.046217,137.905462 L247.764133,137.905462 L247.764133,137.905462 Z M244.255884,139.602 C243.816705,139.602 243.398235,139.683405 243.111777,139.949819 C242.90211,140.153329 242.768372,140.460445 242.768372,140.93037 C242.768372,141.42157 242.92023,141.768463 243.168723,141.952548 C243.454319,142.198611 243.874515,142.280015 244.31283,142.280015 L246.104919,142.280015 L246.104919,139.602 L244.255884,139.602 L244.255884,139.602 Z M258.667662,137.905462 C258.783281,137.905462 258.897174,138.027568 258.897174,138.1506 L258.897174,146.960759 C258.897174,147.104141 258.783281,147.206822 258.667662,147.206822 L257.199995,147.206822 C257.06712,147.206822 256.951502,147.104141 256.951502,146.960759 L256.951502,143.444651 L252.585603,143.444651 L252.585603,146.960759 C252.585603,147.104141 252.47171,147.206822 252.337972,147.206822 L250.869443,147.206822 C250.735705,147.206822 250.621812,147.104141 250.621812,146.960759 L250.621812,138.1506 C250.621812,138.027568 250.735705,137.905462 250.869443,137.905462 L252.337972,137.905462 C252.47171,137.905462 252.585603,138.027568 252.585603,138.1506 L252.585603,141.605655 L256.951502,141.605655 L256.951502,138.1506 C256.951502,138.027568 257.06712,137.905462 257.199995,137.905462 L258.667662,137.905462 L258.667662,137.905462 Z M263.452031,141.727761 L265.835155,141.727761 C266.903333,141.727761 267.817929,142.013601 268.371,142.668535 C268.771351,143.097758 269,143.689788 269,144.467754 C269,145.345625 268.713542,145.980208 268.257107,146.429781 C267.685054,146.960759 266.845524,147.206822 265.87312,147.206822 L261.73587,147.206822 C261.602132,147.206822 261.487376,147.104141 261.487376,146.960759 L261.487376,138.1506 C261.487376,138.027568 261.602132,137.905462 261.73587,137.905462 L263.222519,137.905462 C263.356257,137.905462 263.452031,138.027568 263.452031,138.1506 L263.452031,141.727761 L263.452031,141.727761 Z M266.768733,143.669437 C266.483137,143.383598 266.006858,143.261491 265.358875,143.261491 L263.452031,143.261491 L263.452031,145.673092 L265.472768,145.673092 C265.949048,145.673092 266.426191,145.591688 266.730768,145.345625 C266.96028,145.142114 267.075036,144.8757 267.075036,144.488105 C267.075036,144.140287 266.979262,143.854447 266.768733,143.669437 L266.768733,143.669437 L266.768733,143.669437 Z" id="description"></path>
  </g>
</svg>