<?xml version="1.0" encoding="UTF-8" standalone="no"?>
<svg viewBox="0 0 90 90" version="1.1" xmlns="http://www.w3.org/2000/svg" xmlns:xlink="http://www.w3.org/1999/xlink">
  <title>nipple</title>
  <g id="nipple" transform="translate(45.000000, 45.000000) scale(-1, 1) translate(-45.000000, -45.000000) translate(21.000000, 21.000000)" fill="#99E0FF" fill-rule="evenodd">
    <path d="M19.4967477,30.5289057 C18.9445234,30.0341887 18.3705421,29.5408302 17.7081869,29.0739623 C17.4751402,28.9073208 17.3443738,28.7909434 17.2981682,28.7443019 C15.3028037,26.6929811 17.2856075,22.8760755 20.1335327,20.0003774 L20.2517383,19.8824151 C22.0517383,18.0898868 24.7588037,16.178717 26.9679252,16.1956981 C28.0465794,16.2029434 28.7149907,16.6578113 29.0875514,17.0393208 C29.1234393,17.0778113 29.2423178,17.214566 29.4047103,17.4584151 C29.8472523,18.1181887 30.3158131,18.6889811 30.7879626,19.2416604 C34.928972,13.8658868 36.8776822,9.16550943 35.2849346,7.52920755 C33.1045234,5.29720755 25.121271,9.65411321 17.4612336,17.2616604 C9.79985047,24.8782642 5.36276636,32.8618868 7.53734579,35.1013585 C9.16284112,36.7630189 13.983028,34.7805283 19.4967477,30.5289057" id="Fill-1"></path>
    <path d="M11.4473271,11.4371321 C11.0254206,11.8575849 10.6829159,12.3246792 10.3785421,12.8085283 C10.5842243,12.7256604 10.7885607,12.6393962 10.9821308,12.5248302 C12.2745421,11.7613585 13.9448972,12.194717 14.7093084,13.4952453 C15.3362243,14.5795472 15.1619439,15.9468679 14.2880748,16.8276226 C14.1238879,16.9942642 13.939514,17.1403019 13.7365234,17.2569057 C12.4127103,18.0482264 10.9453458,18.4550943 9.44927103,18.5515472 C9.71820561,19.6992453 10.2242243,20.8030189 11.0341682,21.7471698 C12.4741682,19.9263396 14.1617944,18.0246792 16.0459065,16.1565283 C17.9264299,14.2824906 19.8331963,12.6063396 21.6684112,11.1864906 C18.7435514,8.55554717 14.273271,8.63049057 11.4473271,11.4371321" id="Fill-2"></path>
    <path d="M6.64665421,17.2098113 C8.87641121,17.7941887 11.1983551,17.4672453 13.1757757,16.2871698 C13.9435514,15.8370566 14.1979065,14.8396981 13.7513271,14.0673962 C13.2980187,13.2957736 12.3140187,13.0403774 11.5482617,13.4938868 C10.3045234,14.2338113 8.85173832,14.4400755 7.45704673,14.0755472 C6.05719626,13.7055849 4.88411215,12.8126038 4.15379439,11.5571321 C2.64291589,8.96671698 3.49816822,5.61124528 6.07042991,4.08815094 C7.31349533,3.34845283 8.76964486,3.14354717 10.1602991,3.50943396 C11.1669533,3.77230189 12.0468785,4.31615094 12.7406355,5.06264151 C12.8574953,5.18875472 12.9561869,5.32550943 13.058243,5.45977358 C13.1663551,5.60060377 13.2780561,5.74075472 13.3740561,5.8949434 C13.8773832,6.7125283 14.1499065,7.63222642 14.188486,8.5650566 C15.2234019,8.25033962 16.2955514,8.13441509 17.3656822,8.21796226 C17.2835888,6.96656604 16.9164112,5.74075472 16.3128224,4.61049057 C16.2834393,4.53509434 16.2769346,4.4549434 16.2347664,4.38271698 C16.1840748,4.29509434 16.1125234,4.22309434 16.0584673,4.13886792 C15.9155888,3.90973585 15.7487103,3.69260377 15.5818318,3.47637736 C15.4149533,3.25743396 15.2514393,3.03486792 15.0650467,2.83403774 C15.0224299,2.78830189 14.9937196,2.73645283 14.9488598,2.69184906 L14.9309159,2.70950943 C13.8473271,1.59486792 12.5015327,0.774792453 10.9706916,0.373811321 C8.74631776,-0.210566038 6.42370093,0.119773585 4.44157009,1.29826415 C3.8153271,1.66958491 3.25727103,2.10498113 2.76381308,2.59358491 C0.0159252336,5.3234717 -0.659663551,9.69984906 1.38123364,13.2067925 C2.54960748,15.2042264 4.4155514,16.6301887 6.64665421,17.2098113" id="Fill-3"></path>
    <path d="M44.4484486,44.5419623 C44.4264673,44.5641509 44.4029159,44.5876981 44.3789159,44.6119245 C39.851215,49.1116981 32.5697944,49.0544151 28.1100561,44.4853585 C25.9164112,42.2338868 24.8168972,39.3043019 24.8135327,36.3742642 C24.8094953,36.3667925 24.8094953,36.357283 24.8094953,36.3547925 C24.203215,31.1563019 18.6522617,27.7274717 18.4891963,27.5628679 C17.5325607,26.5777358 18.7944673,23.7378113 21.3144673,21.1926792 C21.3505794,21.1562264 21.3873645,21.1190943 21.4254953,21.0819623 C24.0183925,18.4976604 26.9217196,17.2220377 27.8945047,18.2200755 C28.0553271,18.3844528 31.361271,24.042566 36.5013084,24.7326792 C36.5098318,24.734717 36.515215,24.7365283 36.521271,24.7365283 C39.425271,24.7972075 42.3079626,25.9421887 44.5058692,28.1963774 C48.9366729,32.7432453 48.9059439,40.0428679 44.4484486,44.5419623 M30.0621308,41.0780377 C29.6482991,41.496 29.6516636,42.1725283 30.060785,42.5943396 C33.4642991,46.0838491 39.0482243,46.1268679 42.5075888,42.6935094 C42.5089346,42.6921509 42.5102804,42.6907925 42.5122991,42.6887547 C42.9283738,42.2683019 42.931514,41.5847547 42.5163364,41.1643019 C42.1045234,40.7377358 41.4222056,40.7295849 41.0002991,41.1516226 C38.3865421,43.7474717 34.1605234,43.7212075 31.5869159,41.0739623 C31.173757,40.6507925 30.4961495,40.6460377 30.0722243,41.0673962 C30.0695327,41.070566 30.0648224,41.0746415 30.0621308,41.0780377" id="Fill-4"></path>
  </g>
</svg>