<?xml version="1.0" encoding="UTF-8" standalone="no"?>
<svg viewBox="0 0 60 30" version="1.1" xmlns="http://www.w3.org/2000/svg" xmlns:xlink="http://www.w3.org/1999/xlink">
  <title>pdf</title>
  <g stroke="none" stroke-width="1" fill="#99E0FF" fill-rule="evenodd" sketch:type="MSPage">
    <path d="M12.8970732,8.419 C12.0258537,8.419 11.444878,8.419 11.1546341,8.5675 L11.1546341,14.223 C11.444878,14.3715 11.8804878,14.3715 12.6068293,14.3715 C14.7843902,14.3715 16.2365854,13.181 16.2365854,11.2465 C16.2365854,9.4605 15.075122,8.419 12.8970732,8.419"></path>
    <path d="M29.1585366,8.5675 C28.2873171,8.5675 27.5614634,8.7165 27.2707317,8.7165 L27.2707317,21.2175 C27.5614634,21.366 28.2873171,21.366 28.7229268,21.366 C32.497561,21.366 35.1112195,19.2825 35.1112195,14.6695 C35.1112195,10.651 32.7882927,8.5675 29.1585366,8.5675"></path>
    <path d="M0.265365854,29.849 L59.9385366,29.849 L59.9385366,0.234 L0.265365854,0.234 L0.265365854,29.849 L0.265365854,29.849 Z M18.7043902,15.562 C17.2526829,16.9015 15.075122,17.497 12.6068293,17.497 C12.0258537,17.497 11.5902439,17.497 11.1546341,17.348 L11.1546341,24.1935 L6.94439024,24.1935 L6.94439024,5.591 L7.08926829,5.591 C8.39609756,5.2935 10.1385366,5.145 12.7517073,5.145 C15.3653659,5.145 17.2526829,5.591 18.4141463,6.633 C19.5756098,7.526 20.4468293,9.163 20.4468293,11.0975 C20.4468293,13.032 19.8663415,14.5205 18.7043902,15.562 L18.7043902,15.562 L18.7043902,15.562 Z M36.5629268,22.1105 C34.6756098,23.7475 31.6263415,24.64 27.9965854,24.64 C25.8190244,24.64 24.2219512,24.4915 23.2053659,24.3425 L23.2053659,5.591 L23.0604878,5.591 C24.657561,5.2935 26.6902439,5.145 28.7229268,5.145 C32.3526829,5.145 34.5302439,5.889 36.4180488,7.2285 C38.3053659,8.7165 39.6121951,11.0975 39.6121951,14.3715 C39.6121951,18.092 38.3053659,20.473 36.5629268,22.1105 L36.5629268,22.1105 L36.5629268,22.1105 Z M53.6956098,8.8655 L46.5809756,8.8655 L46.5809756,13.181 L53.26,13.181 L53.26,16.7525 L46.5809756,16.7525 L46.5809756,24.3425 L42.3707317,24.3425 L42.3707317,5.2935 L53.6956098,5.2935 L53.6956098,8.8655 L53.6956098,8.8655 Z"></path>
  </g>
</svg>