<?xml version="1.0" encoding="UTF-8" standalone="no"?>
<svg viewBox="0 0 85 98" version="1.1" xmlns="http://www.w3.org/2000/svg" xmlns:xlink="http://www.w3.org/1999/xlink">
  <title>Swag</title>
  <defs>
      <rect id="path-1" x="0.480551973" y="0" width="104.887869" height="182"></rect>
      <rect id="path-3" x="0.480551973" y="0" width="104.887869" height="182"></rect>
  </defs>
    <g id="Page-1" stroke="none" stroke-width="1" fill="none" fill-rule="evenodd" sketch:type="MSPage">
        <g id="Fill-1-Clipped-+-Fill-2-Clipped" sketch:type="MSLayerGroup" transform="translate(-21.000000, -84.000000)">
            <g id="Fill-1-Clipped">
                <mask id="mask-2" sketch:name="path-3" fill="white">
                    <use xlink:href="#path-1"></use>
                </mask>
                <g id="path-3"></g>
                <path d="M186.752794,136.646252 C185.750198,135.302613 184.247231,134.256571 182.634924,133.634647 C182.234627,133.474266 181.832477,133.340615 181.354344,133.210528 L180.833588,133.069749 L180.177546,132.934316 C179.363979,132.777498 178.500375,132.667013 177.573762,132.647411 C176.649002,132.634937 175.657526,132.729384 174.651224,132.975302 C173.648628,133.219438 172.640473,133.632865 171.730539,134.17638 C169.884725,135.270537 168.518897,136.799505 167.473677,138.278578 C165.386944,141.275926 164.173081,144.271493 162.848024,147.069256 C161.543352,149.863455 160.181231,152.47767 158.537419,154.65351 C156.95847,156.774108 154.97737,158.352973 152.942527,159.422182 C147.914724,161.079455 143.763496,163.164412 141.1523,159.896197 C139.443625,157.755998 141.285732,155.890229 143.140812,153.721517 C143.583733,153.243937 144.026654,152.748537 144.473282,152.208586 C145.5463,150.882767 146.560015,149.48745 147.473656,148.020852 C148.400269,146.564946 149.241634,145.044887 150.031109,143.505227 C150.824289,141.967348 151.545195,140.384919 152.1512,138.763286 C153.355797,135.521801 154.156391,132.125281 154.356539,128.723415 C154.543715,125.326895 154.176776,121.948195 153.25387,118.840362 C153.029629,118.063403 152.755352,117.306047 152.455129,116.568293 C152.269806,116.088931 152.193824,115.92855 151.993675,115.474136 C151.819472,115.071401 151.654535,114.7346 151.469212,114.376415 C150.740894,112.963277 149.875437,111.667753 148.898787,110.509443 C146.956606,108.191042 144.551117,106.400117 141.984399,105.421791 C140.703819,104.937083 139.404707,104.639487 138.151926,104.555732 C136.928796,104.457721 135.687135,104.534348 134.569639,104.835508 C133.44473,105.129541 132.442135,105.676619 131.691578,106.353785 C130.935462,107.029168 130.436944,107.822165 130.1534,108.583085 C129.591872,110.101362 129.830939,111.569742 130.629679,112.350264 C131.017004,112.738743 131.467338,112.872395 131.734202,112.913381 C132.00848,112.954367 132.143765,112.940111 132.143765,112.940111 C132.477346,112.950803 132.759037,112.699539 132.770156,112.376994 C132.777569,112.056232 132.514411,111.785366 132.182683,111.776456 C132.190096,111.763981 131.889873,111.774674 131.686018,111.464603 C131.578531,111.307786 131.49143,111.022663 131.506255,110.635966 C131.522934,110.252833 131.648954,109.780599 131.917672,109.317275 C132.442135,108.372808 133.580016,107.537043 135.134873,107.376661 C135.913228,107.287561 136.767566,107.341021 137.692326,107.554863 C138.594847,107.761577 139.497369,108.130454 140.370238,108.6312 C142.104858,109.64873 143.707899,111.238287 144.912497,113.214541 C145.516649,114.199995 146.018873,115.278114 146.398784,116.41504 C146.491446,116.693034 146.587813,116.999541 146.652676,117.257933 C146.702714,117.457518 146.852825,117.96361 146.867651,118.161414 C146.976991,118.776209 147.064093,119.398132 147.130809,120.025401 C147.388407,122.539824 147.17714,125.164732 146.541483,127.734397 C145.926212,130.304062 144.951414,132.839869 143.620798,135.206384 C142.955489,136.38786 142.221612,137.535478 141.408045,138.620724 C140.590772,139.704189 139.666012,140.707464 138.709747,141.651931 C137.744216,142.592835 136.732354,143.471368 135.705667,144.291095 C134.66786,145.125078 133.644879,145.948369 132.636724,146.757403 C132.078902,147.206471 131.526641,147.655539 130.983646,148.108171 C126.582232,151.586663 124.011807,153.142362 122.156727,153.685876 C124.004394,148.869091 125.066293,143.594327 125.066293,138.684877 C125.066293,124.311147 115.281257,118.546329 104.760489,118.491087 C93.7189651,119.219931 84.4565386,124.309365 84.4565386,138.684877 C84.4565386,143.496317 85.4795197,148.651685 87.2549107,153.390062 C84.3286659,152.206804 80.1718787,149.364491 75.9446688,144.175264 C74.8549716,142.690846 73.7115308,141.179697 72.5013738,139.647165 C71.8916622,138.912975 71.3097491,138.148491 70.7074505,137.37866 C70.0884728,136.619522 69.4917338,135.833654 68.8838755,135.035311 C67.6922508,133.43328 66.524718,131.756404 65.4628192,129.979735 C65.2089271,129.53245 64.9531819,129.083382 64.6974366,128.63075 L64.3119655,127.950021 C64.2804606,127.884086 64.3267913,127.992789 64.3138187,127.962495 L64.29158,127.916162 L64.1600009,127.632822 L63.9820911,127.253253 L63.6299781,126.495897 L63.3316086,125.815167 C63.1333133,125.369663 62.9368713,124.899212 62.7478422,124.414504 C61.9843129,122.495274 61.3282706,120.526148 60.8686704,118.528509 C59.9235249,114.542142 59.712257,110.41856 60.5999526,106.560499 C61.4635562,102.707783 63.4372425,99.1205874 66.344955,96.2943121 C69.2322821,93.4644729 72.9591208,91.3741697 76.8008595,90.320999 C78.7170958,89.7881766 80.6703966,89.5048363 82.480999,89.5725528 C82.9350395,89.5850269 83.372401,89.6277953 83.7986431,89.6848198 C84.0080577,89.7204601 84.2211788,89.7489723 84.4213273,89.7953047 L84.7271097,89.8612392 L85.1162872,89.953904 C86.0947909,90.1891299 87.0047252,90.4332659 87.7867868,90.7397724 C88.5781145,91.0409329 89.2248906,91.3902078 89.7790054,91.8464035 C90.3386798,92.2919072 90.814959,92.867498 91.2356415,93.5428815 L91.3931657,93.7977096 L91.4302303,93.8618621 L91.4506158,93.8939384 C91.4802674,93.9509629 91.4339367,93.849388 91.4450561,93.8743362 L91.5284513,94.0329355 L91.6915352,94.3447881 L91.7971691,94.571104 C91.9417208,94.8562263 92.0621805,95.2286674 92.1622548,95.5547761 C92.3383113,96.2283776 92.3957613,96.9073252 92.3346048,97.5880548 C92.1919064,98.947732 91.5821948,100.302063 90.7093251,101.476411 C90.3701847,101.90944 89.8605473,102.397712 89.3490568,102.745205 C88.8264469,103.10339 88.2612128,103.383166 87.6811529,103.570278 C86.5191798,103.940937 85.3127293,103.989051 84.2675095,103.736005 C84.0043513,103.686109 83.7578722,103.597008 83.5132462,103.516818 L83.4669156,103.502561 C83.5391914,103.53642 83.4724753,103.502561 83.4817414,103.507908 L83.453943,103.498997 L83.3520155,103.452665 L83.1463074,103.361782 C82.9924896,103.299412 82.9128008,103.245951 82.8145798,103.194273 C82.4198425,102.985777 82.0102795,102.695309 81.7026439,102.392366 C81.0466016,101.790045 80.6481579,101.080804 80.4090917,100.437496 C80.1718787,99.7852789 80.1107222,99.1829579 80.1051625,98.6982499 C80.108869,98.4558959 80.1162819,98.2384901 80.1440803,98.0531606 C80.1681722,97.8660491 80.1867045,97.7074498 80.2200626,97.5827088 C80.2775126,97.3314447 80.305311,97.1995756 80.305311,97.1995756 L80.3182836,97.1407691 C80.3794401,96.8538648 80.2089432,96.5598323 79.9087205,96.4689496 C79.5899655,96.3727208 79.2489718,96.5402302 79.1488976,96.8485187 C79.1488976,96.8485187 79.1007137,96.9964259 79.0024927,97.2886763 C78.9506024,97.4330195 78.9042717,97.618349 78.8560878,97.8428829 C78.7967846,98.0656347 78.7615732,98.3275909 78.7282152,98.6251873 C78.6726184,99.2239443 78.6689119,99.9884285 78.8894459,100.85627 C79.1155395,101.716983 79.5436349,102.700655 80.3349626,103.591662 C80.7278467,104.047858 81.1781807,104.454157 81.76936,104.846201 C81.9176181,104.944211 82.0825553,105.052914 82.2011618,105.113503 L82.3957506,105.222206 L82.4939716,105.275666 L82.5180636,105.28814 L82.5847797,105.32378 L82.644083,105.352293 C82.9646912,105.494854 83.290859,105.646325 83.6429721,105.751464 C85.0347453,106.227262 86.6915299,106.332401 88.3724064,105.967088 C89.2137713,105.778194 90.0514297,105.453868 90.8483171,105.003018 C91.6544707,104.543258 92.3735226,104.00509 93.0981342,103.222785 C94.2582541,101.914786 95.3738965,100.241475 95.8464692,98.1476074 C96.0762693,97.1069108 96.1226,95.9824596 95.9650758,94.8722644 C95.8705612,94.3091478 95.7667805,93.7887995 95.566632,93.2096448 L95.4239336,92.7873073 L95.2960609,92.4594166 L95.2349045,92.2954712 L95.1255641,92.0566813 L94.953214,91.6842402 C94.4769348,90.689876 93.8320119,89.6580895 92.9387567,88.7528261 C92.0603273,87.8350885 90.9687768,87.0919884 89.8827861,86.5395639 C88.7930888,85.9746652 87.7052448,85.5648019 86.6470524,85.1887968 L86.2708474,85.0551457 C86.1244425,84.9999032 85.9595054,84.9589169 85.8056875,84.9108025 C85.4887858,84.8110097 85.1774437,84.736165 84.8586888,84.6613204 C84.2285917,84.5187593 83.5910818,84.4064923 82.9572783,84.3352117 C80.4146514,84.0340513 77.8812906,84.2140347 75.3924073,84.6880506 C70.4276132,85.6699407 65.592545,87.9099332 61.5117401,91.3278373 C57.4309351,94.7243572 54.2600644,99.437786 52.7218863,104.5985 C51.1725889,109.764561 51.1559098,115.171193 52.0046876,120.14836 C52.4161039,122.650309 53.0573203,125.063157 53.8115836,127.381558 C53.9969062,127.958931 54.1970547,128.541649 54.4175887,129.133278 L54.7400501,130.011812 L55.0439793,130.790552 C55.475781,131.898965 55.9020232,133.003814 56.3245588,134.096189 C58.0795644,138.422921 59.9142587,142.603527 62.173342,146.267349 C62.4883905,146.785916 62.8145584,147.286662 63.1481392,147.782062 C68.2111542,155.712027 73.4502258,156.850734 70.5091552,159.889069 C69.0006288,161.44655 66.3134502,161.865324 63.4279764,161.524959 C63.3631134,161.517831 63.2963973,161.512485 63.2352408,161.503575 C63.0684504,161.482191 62.8998068,161.453678 62.7311632,161.426948 C62.4605921,161.38418 62.1881678,161.332501 61.9175967,161.279041 C61.7396869,161.243401 61.5636304,161.20776 61.3838674,161.170338 C61.3319771,161.157864 61.2782335,161.143608 61.2281964,161.134698 C59.8957265,160.813935 58.5762291,160.357739 57.356806,159.798187 L56.8230768,159.538013 C54.7215178,158.472368 52.6662895,156.863209 51.0298904,154.683805 C49.3786655,152.515093 48.0091311,149.904441 46.6951934,147.113806 C45.3627235,144.321389 44.1377407,141.327605 42.0435947,138.337384 C40.9946684,136.858312 39.6214275,135.336471 37.7737606,134.244096 C36.8619731,133.705928 35.8538178,133.294283 34.8475158,133.051929 C33.843067,132.807793 32.8515907,132.71691 31.9249774,132.73473 C30.9983641,132.75255 30.1329073,132.870163 29.3249005,133.02698 L28.6688583,133.165978 L28.1462484,133.306757 C27.6718224,133.438626 27.267819,133.572277 26.8656688,133.732658 C25.2570681,134.363491 23.7559546,135.409534 22.7607719,136.760301 C21.7452037,138.098594 21.2689245,139.652511 21.2337132,141.070995 C21.191089,142.496606 21.5339359,143.809951 22.1325281,144.907672 C22.7292671,146.010739 23.6002836,146.905311 24.5973195,147.463081 C25.5925022,148.029762 26.6821994,148.207963 27.5773078,148.156285 C28.4872421,148.111735 29.2192666,147.86047 29.8048862,147.61277 C30.3886526,147.354378 30.833427,147.078166 31.1744207,146.835812 C31.5154144,146.598804 31.7600403,146.401 31.9194178,146.265567 C32.076942,146.128352 32.1603372,146.057072 32.1603372,146.057072 C32.3660454,145.880652 32.4272019,145.58662 32.2900631,145.340702 C32.1288324,145.057361 31.7618935,144.954005 31.463524,145.105476 L31.4338724,145.123296 C31.4338724,145.123296 31.348624,145.167846 31.1799804,145.255165 C31.01319,145.344266 30.7630044,145.467225 30.4312768,145.600876 C29.786354,145.864614 28.7522535,146.212107 27.644024,146.037469 C26.5580332,145.875306 25.525786,145.069836 25.1254891,143.674518 C24.9253406,142.99557 24.9031019,142.206138 25.0958374,141.461256 C25.2941327,140.72172 25.681457,140.04099 26.261517,139.540244 C26.8397237,139.03237 27.6013998,138.683095 28.5298663,138.504893 C28.7633729,138.456779 29.0135585,138.428267 29.1988811,138.412229 L29.6844265,138.365896 L29.7177846,138.364114 C29.7437297,138.36055 29.6177103,138.381934 29.6825733,138.371242 L29.7344636,138.36946 L29.8400975,138.365896 L30.0513654,138.36055 C30.6091866,138.346294 31.1503287,138.371242 31.6451402,138.451433 C32.6458826,138.615378 33.3964394,138.945051 34.0172703,139.495694 C34.6436609,140.037426 35.225574,140.862499 35.7555968,141.944182 C36.2837664,143.020519 36.7489263,144.301787 37.1974071,145.682849 C37.6644202,147.128062 38.136993,148.592878 38.6151255,150.070169 C39.6084549,153.13167 40.7889603,156.439089 42.6329207,159.68592 C44.4546425,162.93275 46.904608,166.165325 50.1440481,168.70826 L51.2986083,169.581447 C51.7730343,169.92003 52.1788909,170.174858 52.6329314,170.456416 C53.5298931,170.994585 54.4639193,171.479293 55.4275972,171.894502 C57.356806,172.712447 59.3879424,173.275564 61.3838674,173.530392 C62.5643728,173.694337 63.718933,173.749579 64.8494012,173.735323 C64.8605205,173.753144 64.8697867,173.769182 64.8697867,173.769182 C64.8697867,173.769182 69.5973677,173.721067 71.5877331,175.74009 C72.1863253,176.345975 72.8349546,177.069473 72.5365851,178.732092 C72.1714995,180.760025 71.0169393,181.704493 67.9683815,181.618956 L67.9646751,181.618956 C65.4461401,181.430063 62.8349439,181.353436 60.2626653,181.597572 C57.6940933,181.831016 55.1737051,182.442247 52.9720719,183.399189 C51.860136,183.892807 50.8890452,184.384643 49.8345593,185.124179 C49.2822978,185.510876 48.8467895,185.918958 48.4112813,186.378717 C48.0017182,186.854515 47.6310729,187.355261 47.3549421,187.907686 C46.7785886,189.001843 46.5710272,190.227869 46.7063128,191.330936 C46.8434516,192.439349 47.2974921,193.424803 47.935002,194.178596 C48.5762184,194.930606 49.3860784,195.466992 50.2126175,195.72182 C51.0410098,195.985558 51.8416037,195.996251 52.5050588,195.885766 C53.8356755,195.630938 54.6344162,195.053565 55.1162551,194.661522 C55.3738536,194.47441 55.5239649,194.294427 55.6481311,194.19107 C55.7593247,194.084149 55.8204812,194.025342 55.8204812,194.025342 C56.01507,193.843577 56.0614007,193.547762 55.916849,193.310754 C55.7444989,193.036324 55.3738536,192.947223 55.082897,193.111169 L55.0310067,193.143245 C55.0310067,193.143245 54.967997,193.177103 54.8493905,193.246602 C54.7289307,193.30719 54.5658468,193.430149 54.3267806,193.52816 C53.87274,193.754476 53.1481284,194.02356 52.3327087,193.991484 C51.9305586,193.962972 51.517289,193.854269 51.1484969,193.627953 C50.7797049,193.408765 50.4683628,193.055926 50.2441224,192.637153 C49.8049077,191.77644 49.8845964,190.611002 50.649979,189.777019 C51.0039453,189.3529 51.5654729,188.959075 52.1733313,188.684644 C52.7886025,188.392394 53.7207755,188.116182 54.5954984,187.93798 C56.3801556,187.558411 58.3075113,187.515643 60.3367944,187.704536 C62.3660775,187.889866 64.4935817,188.35319 66.7359859,188.907396 C67.8608944,189.190737 69.0098949,189.499025 70.212639,189.801968 C70.384989,189.862556 70.5591923,189.919581 70.7426618,189.967695 C77.6663163,191.796042 86.1967184,198.956177 80.1755851,206.962769 C79.9717302,207.189085 79.7604624,207.408272 79.5399284,207.616768 C78.0944117,209.01565 76.3079012,210.043872 74.2434068,210.697872 C73.7337695,210.868945 73.2018935,210.995468 72.6700174,211.132683 C72.3957399,211.187926 72.127022,211.241386 71.8583042,211.29841 C71.7786154,211.348307 71.2078216,211.399985 71.1411055,211.419587 C70.3219793,211.535418 69.3193837,211.485522 68.4224221,211.294846 C66.6099664,210.904585 64.9198238,209.993976 64.0395412,208.810718 C63.5984732,208.224435 63.3705264,207.586474 63.3464344,206.921782 C63.3482876,206.846938 63.3316086,206.734671 63.3482876,206.688339 C63.3668199,206.5832 63.3890586,206.454895 63.4057377,206.403216 C63.4335361,206.278475 63.4891329,206.094928 63.5502893,205.945238 C63.6688958,205.62804 63.833833,205.328661 64.0228621,205.050667 C64.7808318,203.935126 65.9038871,203.286473 66.8138214,203.179552 C67.7330218,203.061939 68.4557801,203.400521 68.8857287,203.712374 C69.1081159,203.865627 69.2674934,204.006406 69.3675676,204.104417 C69.4732015,204.20421 69.5250919,204.255889 69.5250919,204.255889 L69.5621564,204.291529 C69.7752775,204.498243 70.1199776,204.521409 70.3664568,204.334297 C70.6259085,204.134712 70.6703859,203.767616 70.4628245,203.518134 C70.4628245,203.518134 70.4035213,203.445072 70.2904745,203.307857 C70.1755744,203.170642 69.9976647,202.967492 69.7252404,202.732266 C69.460229,202.491694 69.0932901,202.215482 68.585506,201.990948 C68.0851348,201.759286 67.4327991,201.602469 66.704481,201.613161 C65.2367255,201.645237 63.5855006,202.413285 62.353105,203.849589 C62.0454693,204.211338 61.7637789,204.615855 61.5247127,205.073833 C61.4023997,205.303713 61.3004722,205.528247 61.1985448,205.815151 C61.1410948,205.971969 61.118856,206.057505 61.085498,206.164426 L60.9650382,206.586764 C60.6611091,207.686267 60.7704494,208.985355 61.2430222,210.150793 C61.7118885,211.321577 62.4976566,212.367619 63.4465086,213.265755 C64.3972139,214.167454 65.5369482,214.912336 66.8138214,215.498619 C68.1092268,216.077774 69.4861741,216.500111 71.1225732,216.656929 C71.6674218,216.690787 71.7118993,216.721081 72.249335,216.719299 C72.5958884,216.722863 72.9480014,216.728209 73.3019677,216.733555 C74.0099002,216.717517 74.7289522,216.694351 75.4665364,216.610596 C76.9342918,216.460907 78.4594973,216.16331 79.9735834,215.664346 C81.4895228,215.165382 82.9813702,214.450794 84.362024,213.574043 C87.1400107,211.806285 89.3601762,209.418385 91.1263011,207.016229 C92.0177031,205.811587 92.8090309,204.590907 93.5651473,203.389829 C94.0062152,202.689498 94.4398703,201.994512 94.8772317,201.297744 C96.8824229,198.833218 100.259002,196.648468 104.137805,196.112082 C108.594815,196.235041 112.568133,198.635414 114.819803,201.386845 C115.257165,202.083613 115.694526,202.776816 116.137447,203.475366 C116.89727,204.676444 117.692304,205.895342 118.589266,207.098202 C120.360951,209.49323 122.590382,211.875783 125.370222,213.634632 C126.754582,214.509601 128.248283,215.218843 129.764222,215.712461 C131.282015,216.206079 132.805367,216.496547 134.276829,216.646236 C135.01256,216.728209 135.735319,216.747811 136.441398,216.760285 C136.793511,216.756721 137.143771,216.749593 137.494031,216.744247 C138.029613,216.744247 138.075944,216.713953 138.620792,216.678313 C140.255338,216.517931 141.632286,216.09203 142.923985,215.509311 C144.199004,214.917682 145.336886,214.171018 146.285738,213.267537 C147.230883,212.367619 148.014798,211.319795 148.478105,210.145447 C148.946971,208.981791 149.052605,207.680921 148.743116,206.581418 L148.62451,206.15908 C148.587445,206.052159 148.567059,205.964841 148.507756,205.809805 C148.403976,205.519337 148.303901,205.298367 148.181588,205.066705 C147.940669,204.612291 147.657125,204.207774 147.347636,203.847807 C146.113387,202.413285 144.460309,201.650583 142.990701,201.625635 C142.260529,201.614943 141.608194,201.77176 141.109676,202.006986 C140.603745,202.235084 140.236806,202.513078 139.971795,202.750086 C139.701223,202.988876 139.52146,203.192026 139.410267,203.329241 C139.299073,203.466456 139.237917,203.539519 139.237917,203.539519 C139.050741,203.769399 139.065567,204.100853 139.286101,204.311131 C139.519607,204.537447 139.905078,204.537447 140.140438,204.311131 L140.177503,204.275491 C140.177503,204.275491 140.22754,204.223812 140.333174,204.124019 C140.435101,204.022445 140.592625,203.881665 140.813159,203.730194 C141.243108,203.41656 141.964013,203.076195 142.885067,203.193808 C143.795001,203.297165 144.91991,203.942254 145.681586,205.057795 C145.866908,205.334007 146.033699,205.635168 146.157865,205.948802 C146.219021,206.102056 146.272765,206.283821 146.302417,206.408562 C146.319096,206.458459 146.341334,206.586764 146.363573,206.691903 C146.376546,206.738235 146.363573,206.850502 146.365426,206.925346 C146.339481,207.59182 146.115241,208.229781 145.674173,208.816064 C144.797597,209.999322 143.113014,210.915277 141.300558,211.314449 C140.403596,211.506906 139.402854,211.560367 138.585581,211.446318 C138.517012,211.424934 137.948071,211.376819 137.864676,211.326923 C137.597811,211.273462 137.325387,211.21822 137.054816,211.162977 C136.52294,211.029326 135.989211,210.904585 135.47772,210.733512 C133.413226,210.08664 131.624862,209.061982 130.171932,207.668447 C129.956958,207.461733 129.74569,207.244327 129.539982,207.021575 C123.485491,199.032804 131.99736,191.844156 138.917309,189.996207 C139.100778,189.948093 139.273128,189.889286 139.447331,189.826916 C140.650075,189.518627 141.79537,189.208557 142.922131,188.923434 C145.158976,188.363882 147.28648,187.896994 149.315763,187.700972 C151.345046,187.504951 153.272402,187.545937 155.058912,187.918378 C155.933635,188.094798 156.865808,188.367446 157.481079,188.657914 C158.090791,188.930562 158.654172,189.322606 159.009991,189.744943 C159.77908,190.578926 159.860622,191.746146 159.423261,192.605077 C159.200874,193.025632 158.889532,193.380253 158.52074,193.599441 C158.155654,193.825757 157.742384,193.938024 157.338381,193.964754 C156.521108,194.000394 155.800203,193.73131 155.344309,193.506776 C155.10339,193.408765 154.942159,193.285806 154.821699,193.227 C154.70124,193.159283 154.640083,193.123643 154.640083,193.123643 L154.586339,193.091567 C154.35098,192.956134 154.043344,192.986428 153.843196,193.184231 C153.607836,193.415893 153.609689,193.782988 153.850609,194.009304 C153.850609,194.009304 153.911765,194.064547 154.026665,194.17325 C154.148978,194.278388 154.299089,194.454808 154.558541,194.641919 C155.04038,195.030399 155.840974,195.605989 157.171591,195.859035 C157.836899,195.965956 158.637493,195.957046 159.464032,195.687962 C160.292424,195.42957 161.098578,194.891401 161.736088,194.137609 C162.373598,193.383817 162.823932,192.396581 162.957364,191.288168 C163.088943,190.183319 162.877675,188.955511 162.299469,187.8667 C162.023338,187.314275 161.650839,186.813529 161.23757,186.341295 C160.803915,185.881535 160.366553,185.475236 159.810585,185.088539 C158.752393,184.350785 157.779449,183.862513 156.669366,183.372459 C154.464027,182.420863 151.941785,181.814978 149.373213,181.592226 C146.797228,181.349872 144.186032,181.435409 141.665644,181.63143 C138.620792,181.727659 137.460672,180.784973 137.090027,178.758823 C136.786098,177.096203 137.432874,176.369141 138.029613,175.761474 C140.012566,173.740669 144.742,173.770964 144.742,173.770964 C144.742,173.770964 144.751266,173.756708 144.760532,173.740669 C145.891,173.749579 147.04556,173.690773 148.226066,173.525046 C150.221991,173.266654 152.249421,172.696409 154.17863,171.869554 C155.138601,171.454345 156.070774,170.964291 156.965882,170.427904 C157.419923,170.142782 157.82578,169.887954 158.298352,169.547589 L159.449206,168.670838 C162.683086,166.117211 165.121933,162.87929 166.934388,159.627113 C168.765376,156.371372 169.938469,153.062171 170.924385,149.998888 C171.396958,148.519816 171.863971,147.055 172.327278,145.606222 C172.770199,144.225161 173.233506,142.940328 173.759822,141.863991 C174.284285,140.778744 174.866198,139.957235 175.488882,139.411939 C176.106007,138.857732 176.856564,138.529842 177.855453,138.36055 C178.352117,138.28036 178.89326,138.253629 179.452934,138.266104 L179.660495,138.273232 L179.766129,138.275014 L179.81802,138.275014 C179.884736,138.285706 179.758716,138.262539 179.784662,138.267886 L179.81802,138.269668 L180.299859,138.312436 C180.487034,138.326692 180.739073,138.355204 180.974433,138.403319 C181.901046,138.577956 182.664576,138.925449 183.242782,139.427977 C183.822842,139.930505 184.21758,140.611235 184.417728,141.348989 C184.610464,142.090307 184.593785,142.881521 184.393636,143.560469 C183.995192,144.955787 182.966652,145.768385 181.880661,145.932331 C180.774285,146.10875 179.738331,145.764821 179.093408,145.502865 C178.763534,145.370996 178.511495,145.248037 178.342851,145.160718 C178.174208,145.071618 178.087106,145.028849 178.087106,145.028849 L178.057454,145.011029 C177.812828,144.884506 177.50334,144.93262 177.312457,145.139334 C177.09007,145.381688 177.116015,145.752347 177.366201,145.964407 C177.366201,145.964407 177.449596,146.033905 177.608974,146.171121 C177.766498,146.304772 178.011124,146.502575 178.353971,146.739583 C178.694964,146.980155 179.141592,147.256367 179.727212,147.511196 C180.312831,147.758896 181.046709,148.006596 181.956643,148.049364 C182.851752,148.095696 183.939596,147.913931 184.932925,147.345468 C185.928108,146.785916 186.799124,145.88778 187.38845,144.784713 C187.983336,143.683428 188.320623,142.370083 188.277999,140.946254 C188.252054,139.538462 187.773921,137.980981 186.752794,136.646252" id="Fill-1" fill="#99E0FF" sketch:type="MSShapeGroup" mask="url(#mask-2)"></path>
            </g>
            <g id="Fill-2-Clipped">
                <mask id="mask-4" sketch:name="path-3" fill="white">
                    <use xlink:href="#path-3"></use>
                </mask>
                <g id="path-3"></g>
                <path d="M109.819798,133.258642 C107.866497,133.789683 105.503633,133.950064 104.677094,133.99105 C103.848702,133.998178 101.480278,133.978576 99.4973256,133.563367 C97.0492133,133.050147 90.3145879,131.49623 81.908352,134.666434 L81.9824811,137.000873 C81.9824811,137.000873 83.2148768,137.547952 83.8783319,139.281852 C84.5399338,141.015752 84.7493484,147.543272 93.2482456,147.29379 C100.410966,147.083512 103.055521,140.475802 103.726389,138.909411 L105.939141,138.845258 C106.70823,140.368881 109.767907,146.8073 116.928775,146.59524 C125.429525,146.345758 125.221964,139.869917 125.774226,138.100376 C126.326487,136.330836 127.519965,135.659016 127.519965,135.659016 L127.445836,133.324577 C118.852424,130.655119 112.228992,132.602861 109.819798,133.258642 L109.819798,133.258642 L109.819798,133.258642 Z M86.3468297,140.49184 C86.0132489,140.50075 85.7315585,140.247704 85.7222923,139.925159 C85.711173,139.602615 85.9743312,139.33353 86.3097652,139.322838 C86.6451992,139.313928 86.9250364,139.566974 86.9361558,139.889519 C86.9472751,140.212064 86.6822637,140.481148 86.3468297,140.49184 L86.3468297,140.49184 L86.3468297,140.49184 Z M93.7801216,144.87916 C90.462846,144.977171 88.2593596,143.995281 87.0436429,141.878247 C86.9009445,141.628765 86.995459,141.316913 87.2530575,141.177915 C87.5125092,141.038918 87.8386771,141.129801 87.9813756,141.379283 C88.622592,142.493042 89.9161441,143.961422 93.7467635,143.849155 C94.0432798,143.840245 94.2897589,144.062997 94.299025,144.34812 C94.3082912,144.63146 94.0766378,144.87025 93.7801216,144.87916 L93.7801216,144.87916 L93.7801216,144.87916 Z M117.460651,144.18061 C115.903941,144.226943 112.907273,143.913308 110.347967,141.295528 C110.144112,141.088815 110.155232,140.760924 110.370206,140.566684 C110.587034,140.372445 110.924321,140.383137 111.128176,140.589851 C113.400232,142.913598 116.050346,143.191592 117.427293,143.150606 C117.721956,143.141696 117.970288,143.366229 117.979555,143.64957 C117.988821,143.93291 117.755314,144.1717 117.460651,144.18061 L117.460651,144.18061 L117.460651,144.18061 Z" id="Fill-2" fill="#024A78" sketch:type="MSShapeGroup" mask="url(#mask-4)"></path>
            </g>
        </g>
    </g>
</svg>