<?xml version="1.0" encoding="UTF-8" standalone="no"?>
<svg viewBox="0 0 350 200" version="1.1" xmlns="http://www.w3.org/2000/svg" xmlns:xlink="http://www.w3.org/1999/xlink">
  <title>We first</title>
  <g stroke="none" stroke-width="1" fill="none" fill-rule="evenodd">
    <g transform="translate(55.000000, 11.000000)">
      <path d="M157.629239,60.4928046 C157.860348,59.5745799 156.511216,58.9424084 156.061506,59.8326819 C155.978116,59.9974152 155.879835,60.1401444 155.786319,60.2911995 L145.33278,60.5588168 C145.196378,60.4154929 145.058188,60.2733584 144.933699,60.1187351 C144.53164,59.6203722 143.598862,60.1567962 143.840694,60.7544748 C146.054104,66.2239773 156.076397,66.6563278 157.629239,60.4928046" id="Fill-1" fill="#6BBEDF"></path>
      <path d="M147.932763,115.900881 C145.145748,117.574381 142.261643,118.009705 139.167277,118.723351 C138.107627,118.967775 138.413192,120.471784 139.412682,120.532444 C145.332184,120.894025 151.016408,116.632368 154.883324,112.609783 C159.151703,108.17031 162.32529,102.710322 165.402979,97.4210156 C165.693653,96.9214633 164.965181,96.5218215 164.641747,96.9767709 C161.377622,101.563731 158.369623,106.304125 154.540233,110.459924 C152.594862,112.571722 150.396939,114.421849 147.932763,115.900881" id="Fill-2" fill="#6BBEDF"></path>
      <path d="M103.684809,118.727514 C102.821127,118.618088 102.457189,120.023376 103.238077,120.374847 C104.161919,120.791141 105.145922,121.027833 106.162089,121.121797 C98.8428254,121.376925 91.4943748,121.077788 84.0821904,120.62046 C83.4454477,120.58121 83.2929631,121.639785 83.930897,121.7391 C96.4942041,123.697464 109.192722,124.084617 121.66847,121.849716 C121.695274,121.855663 121.719099,121.864583 121.748286,121.869341 C123.336271,122.130416 124.968333,121.610049 126.484245,120.845853 C126.778493,120.776273 127.072741,120.715018 127.366393,120.642464 C127.798234,120.536012 128.02994,120.252932 128.104395,119.928818 C128.146686,119.902651 128.188976,119.876484 128.231267,119.850317 C128.250923,120.386146 128.657748,120.949332 129.295086,121.005829 C134.663618,121.482188 140.735605,118.179196 144.957525,115.200318 C149.690506,111.860455 153.761132,107.412061 156.234242,102.156057 C156.4725,101.649963 155.76428,101.214639 155.472415,101.711813 C152.663361,106.50692 148.573079,110.434947 143.941953,113.465564 C141.571293,115.016554 139.047552,116.293981 136.382049,117.25443 C134.282407,118.0103 132.135113,118.273754 129.97948,118.688263 C132.698591,116.797696 135.130603,114.518786 137.89677,112.687095 C138.709227,112.149481 138.004581,110.939256 137.133751,111.383501 C134.655875,112.649033 132.471056,114.382004 130.19272,115.963325 C129.013942,116.781639 127.805382,117.543456 126.543214,118.226772 C125.689657,118.688858 124.804531,118.943392 123.917619,119.187816 C123.369627,119.294863 122.822231,119.3918 122.274239,119.489331 C123.531642,118.753681 124.752115,117.999 125.927915,117.370397 C129.393963,115.515512 133.844013,113.162264 134.797042,109.000518 C134.907832,108.515833 134.180552,108.154253 133.957185,108.647263 C132.394218,112.0912 128.79415,113.957979 125.572316,115.594608 C121.319423,117.755171 117.392347,120.214277 112.537855,120.612134 C112.371075,120.625813 112.231098,120.694204 112.106013,120.780436 C111.193488,120.854179 110.280962,120.917218 109.368437,120.970741 C114.689914,120.039433 120.176979,115.992465 122.515474,112.007347 C122.893708,111.363281 121.947231,110.840535 121.530281,111.432267 C117.569849,117.054609 110.300619,119.566643 103.684809,118.727514" id="Fill-3" fill="#6BBEDF"></path>
      <path d="M96.0188808,116.217264 C95.233823,115.554762 94.2933023,116.537215 94.9103887,117.32401 C96.8777983,119.829502 100.408771,119.32995 103.172556,118.755465 C106.546875,118.054308 109.781218,116.631179 112.835081,115.068888 C113.422385,114.767968 112.999478,113.733181 112.3812,113.993662 C109.996841,114.997524 107.547556,115.857467 105.05181,116.540783 C102.411324,117.26335 98.36095,118.194658 96.0188808,116.217264" id="Fill-4" fill="#6BBEDF"></path>
      <path d="M91.2710086,113.085547 C90.1827684,112.933897 89.6931496,114.433743 90.8052156,114.77332 C93.8882649,115.713549 97.0255179,115.616017 100.116311,114.746558 C101.172982,114.449206 100.729228,112.872048 99.6654087,113.112903 C96.8247861,113.75578 94.123544,113.483405 91.2710086,113.085547" id="Fill-5" fill="#6BBEDF"></path>
      <path d="M82.4477453,168.537631 C74.7425044,166.788604 67.1653268,164.065449 61.3715051,158.513283 C58.6309506,155.886471 56.4818698,152.724424 54.7747563,149.351851 C53.731785,147.291198 52.9103929,144.849934 51.4468975,143.041436 C51.2157879,142.755383 50.7863292,143.066413 50.8649541,143.379823 C52.3707402,149.379802 55.680134,155.495155 59.9473221,159.935223 C65.7613957,165.985157 73.7996012,169.071082 81.9229836,170.438904 C83.1547738,170.645861 83.7069351,168.82309 82.4477453,168.537631" id="Fill-6" fill="#6BBEDF"></path>
      <path d="M99.8321888,169.502243 C82.2970476,166.918844 63.8529548,160.201056 57.8208758,141.855594 C57.5665361,141.083667 56.3710801,141.400645 56.595042,142.192792 C61.9856133,161.265578 81.2874323,169.617616 99.5748709,171.402326 C100.658346,171.508183 100.910303,169.661029 99.8321888,169.502243" id="Fill-7" fill="#6BBEDF"></path>
      <path d="M127.397962,178.402599 C128.542193,178.443039 128.812615,176.618484 127.670171,176.393685 C121.940679,175.263746 116.366649,173.866189 111.348355,170.8998 C113.386051,170.969975 115.378477,170.948566 117.280366,170.845087 C118.614011,170.772533 118.633668,168.744589 117.280366,168.76243 C114.264029,168.802275 111.032069,168.705933 107.756626,168.385387 C107.041259,167.78414 106.362226,167.13829 105.720122,166.459137 C108.838315,166.449027 111.961272,166.336628 115.067551,166.183789 C115.800788,166.148106 116.159961,165.56589 116.143879,165.005678 C116.595972,165.050876 117.046874,165.094289 117.496585,165.134729 C120.495648,168.095766 124.439402,169.967302 128.683956,171.185853 C129.667363,171.468338 130.221311,170.507889 129.984841,169.762129 C131.136219,170.225999 132.372774,170.545356 133.721311,170.669649 C134.720204,170.761234 134.866137,169.228084 133.951825,168.968793 C131.270239,168.208165 129.03062,166.887325 127.027472,165.245939 C127.265134,164.66967 126.962547,163.813889 126.133411,163.739551 C125.843333,163.713384 125.549681,163.688406 125.254838,163.663429 C123.747265,162.201644 122.354651,160.576909 120.975141,158.906383 C117.864096,155.138926 114.955571,149.967966 110.113587,148.273651 C109.688893,148.124975 109.41728,148.786287 109.809213,148.993839 C112.50569,150.418157 114.314658,152.912351 116.045002,155.338153 C117.614522,157.537967 119.209059,159.713992 120.863756,161.850768 C121.273558,162.380055 121.689913,162.903396 122.115202,163.416031 C120.99301,163.330394 119.84878,163.242972 118.689658,163.146035 C117.504328,161.945326 116.478035,160.539443 115.66796,158.85167 C115.072912,157.612899 113.270496,158.693478 113.83457,159.921544 C114.322997,160.984877 114.900771,161.956625 115.545853,162.85463 C110.659792,162.346157 105.68081,161.523085 101.269476,159.763948 C100.303938,157.661665 99.5123284,155.461256 98.5747859,153.365516 C98.2632645,152.669711 97.0963994,153.168668 97.3453783,153.882909 C97.9088568,155.498723 98.4163448,157.125836 98.9756538,158.732134 C95.9956507,157.229315 93.3611207,155.200181 91.31866,152.40923 C90.8040243,151.706289 89.6317984,152.346191 90.1255866,153.10563 C92.5790411,156.879033 95.9950551,159.439833 99.9054529,161.216217 C100.23127,162.014906 100.585677,162.80408 100.982376,163.579575 C101.036579,163.684838 101.100909,163.785343 101.156899,163.890011 C96.9474886,163.785938 92.7732208,163.516537 88.6555391,162.846899 C84.5998043,160.457968 81.2034466,157.17817 79.0281575,152.70123 C78.6064421,151.833556 77.3901386,152.592994 77.7546723,153.444612 C79.2020853,156.82432 81.3505705,159.60754 83.964253,161.889424 C80.9324289,161.137122 77.9369391,160.114824 74.9879095,158.719051 C74.0974228,158.297405 73.3153432,159.580778 74.2064255,160.054164 C78.7059145,162.445473 83.4186438,163.995274 88.251693,164.97178 C93.7292282,168.205786 100.374224,169.917942 106.876266,170.591743 C107.254499,170.902773 107.637498,171.205478 108.024666,171.4951 C113.618947,175.671713 120.411663,178.158175 127.397962,178.402599 L127.397962,178.402599 L127.397962,178.402599 Z M127.331846,168.350894 C125.242329,167.5528 123.266581,166.629818 121.49752,165.449328 C122.377881,165.511177 123.245137,165.568864 124.098099,165.62655 C125.101757,166.648253 126.170341,167.574804 127.331846,168.350894 L127.331846,168.350894 L127.331846,168.350894 Z M102.728802,162.560251 C102.674003,162.47164 102.626351,162.378271 102.573339,162.288471 C104.569339,162.991412 106.657069,163.530809 108.785898,163.951861 C107.068063,163.954834 105.353206,163.954239 103.64371,163.934614 C103.323849,163.485612 103.014115,163.030068 102.728802,162.560251 L102.728802,162.560251 L102.728802,162.560251 Z M102.813979,166.435349 C103.204125,166.945011 103.610949,167.443969 104.045173,167.920328 C101.325466,167.502845 98.6218417,166.905761 96.0272198,166.079715 C98.2769643,166.280726 100.542196,166.391341 102.813979,166.435349 L102.813979,166.435349 L102.813979,166.435349 Z" id="Fill-8" fill="#6BBEDF"></path>
      <path d="M196.780869,140.974836 C196.961349,139.972758 195.467475,139.531487 195.233388,140.549027 C194.052823,145.682521 191.491557,153.141312 185.940757,154.954568 C184.898382,155.295334 185.043719,156.934936 186.205819,156.909363 C188.306057,156.862382 190.038783,155.779424 191.457009,154.156474 C191.716114,154.406844 192.093156,154.546005 192.507724,154.455015 C194.452499,154.028612 196.187608,152.437776 197.634425,150.639982 C199.390382,149.924552 200.960497,148.529969 202.422801,147.371483 C204.461688,145.756859 206.334391,143.938846 208.043887,141.982266 C210.664121,138.984358 213.905612,134.390856 212.762572,130.170829 C212.557075,129.41258 211.555799,129.648083 211.47777,130.344483 C210.979216,134.820828 208.684203,138.206484 205.58805,141.388156 C204.226409,142.786902 202.728962,144.056597 201.17612,145.240655 C202.940415,142.008433 204.201392,138.464586 205.138339,134.927875 C205.343836,134.154163 204.197818,133.851458 203.948839,134.600192 C202.795674,138.071486 201.294057,141.389345 199.374895,144.506194 C198.488578,145.94657 197.460498,147.285251 196.328775,148.538295 C196.248364,148.603712 196.165569,148.666156 196.086944,148.733358 C195.958881,148.843973 195.87013,148.972429 195.810566,149.108617 C195.15238,149.797285 194.386979,150.340846 193.621577,150.876675 C195.326904,147.553463 196.309715,143.586186 196.780869,140.974836" id="Fill-9" fill="#6BBEDF"></path>
      <path d="M172.850306,159.62776 C171.958032,160.063679 171.049081,160.426449 170.137151,160.654221 C168.889874,160.966441 169.439653,162.735689 170.657148,162.537652 C174.205394,161.960788 177.249727,159.573642 179.803845,157.182333 C182.046442,155.081835 184.675611,152.21833 184.740536,148.969456 C184.750067,148.475256 184.02636,148.391997 183.89234,148.854678 C183.073331,151.68369 180.629407,153.989361 178.454118,155.834731 C178.280785,155.981623 178.096732,156.1303 177.916252,156.277787 C178.703096,154.651268 179.295166,152.914729 179.796102,151.287022 C180.92425,147.617691 181.295336,143.659334 180.339924,139.91745 C180.079628,138.897531 178.628641,139.345939 178.792443,140.343259 C179.977773,147.536217 176.349114,153.536196 172.926548,159.464216 C172.894979,159.518929 172.872345,159.573047 172.850306,159.62776" id="Fill-10" fill="#6BBEDF"></path>
      <path d="M151.635281,164.629824 C150.804954,164.468659 149.97701,164.26527 149.165148,164.016684 C149.011473,163.576602 148.867922,163.129978 148.751176,162.667298 C148.174594,160.378873 147.817803,158.036924 147.404427,155.71579 C147.257303,154.889745 145.868263,155.078861 145.937953,155.913827 C146.214928,159.253691 146.151194,164.058313 147.634941,167.588482 C138.764026,164.791584 131.096907,160.339027 125.625328,152.63165 C124.982033,151.725914 123.490542,152.554338 124.111798,153.514787 C129.555382,161.922727 137.710929,167.356547 147.311507,170.021421 C147.953014,170.199237 148.43072,169.887017 148.657065,169.435041 C148.87507,169.735367 149.10618,170.023205 149.36588,170.283091 C150.133069,171.05026 151.623964,170.282496 151.248708,169.188833 C150.856775,168.047594 150.364178,166.971773 149.89779,165.881679 C150.396939,166.000025 150.90264,166.098746 151.426806,166.166542 C152.304188,166.280726 152.495985,164.796937 151.635281,164.629824" id="Fill-11" fill="#6BBEDF"></path>
      <path d="M169.293125,108.060884 C169.137662,108.203613 168.981008,108.345748 168.826736,108.488477 C167.577672,109.643989 166.357795,110.823289 165.004493,111.85867 C164.134259,112.524145 162.825035,113.058785 162.357455,114.120334 C161.643874,115.246111 163.310484,116.545541 164.20931,115.547031 C164.360603,115.37873 164.520831,115.216375 164.685229,115.057589 C164.919912,115.153337 165.19093,115.186045 165.482795,115.121222 C167.963053,114.569336 170.248536,113.517303 172.453012,112.271396 C172.530446,112.809604 172.911657,113.280016 173.559122,113.196757 C176.724965,112.789979 180.540656,110.322547 182.776105,107.743311 C185.584563,105.928866 188.62413,104.010348 191.720879,104.466486 C192.543463,104.587806 192.919314,103.423969 192.0735,103.189655 C188.972582,102.329116 186.057504,103.583944 183.300867,105.161102 C183.22105,104.992206 183.078096,104.848287 182.899403,104.785843 C180.742579,104.028189 177.984155,106.449233 176.202586,107.387678 C175.438972,107.790293 174.661657,108.163768 173.878982,108.527133 C175.131024,106.411767 176.686248,104.456971 178.380258,102.705565 C180.756874,100.248243 184.142511,97.2128688 187.786656,97.2015694 C188.630682,97.1991906 188.573501,96.0347581 187.786656,95.9330635 C183.982282,95.4406477 180.494196,98.0305883 177.755428,100.34518 C176.447991,101.450142 175.039295,102.799528 173.84503,104.304727 C173.282743,104.678202 172.857454,104.990422 172.782998,105.048703 C172.077161,105.602968 171.39098,106.1834 170.716116,106.776916 C170.996664,102.434974 173.930803,98.9262141 177.050782,96.0847133 C178.89132,94.4088344 180.944502,92.9755952 183.184716,91.8884744 C184.114515,91.4364985 185.114005,91.1094107 186.117068,90.8649869 C186.604304,90.7460459 187.102857,90.7062007 187.602006,90.6859807 C188.450202,90.6514878 188.356091,90.6859807 188.350134,91.5167837 C188.345965,92.0175254 189.085754,92.006226 189.120301,91.5167837 C189.15604,91.1135737 189.178078,90.7097689 189.185822,90.3047748 C189.19297,90.1001962 189.041676,89.9324894 188.855835,89.8730189 C184.301547,88.4076656 178.991388,91.991953 175.696289,94.7317593 C172.485772,97.4007956 167.242921,102.883382 168.875579,107.545275 C168.958969,107.783751 169.110858,107.954432 169.293125,108.060884 L169.293125,108.060884 L169.293125,108.060884 Z M171.116984,109.759362 C170.822736,109.886628 170.529084,110.01449 170.234837,110.140568 C170.573162,109.795044 170.918039,109.456657 171.259939,109.114107 C171.203353,109.3282 171.156892,109.543484 171.116984,109.759362 L171.116984,109.759362 L171.116984,109.759362 Z" id="Fill-12" fill="#6BBEDF"></path>
      <path d="M36.3187506,112.163754 C34.4126923,117.906821 33.5513922,124.910068 37.1806464,130.145257 C37.80905,131.051587 39.1587776,130.275497 38.6620111,129.28115 C36.2478691,124.446793 36.3973755,119.193763 37.6428655,114.0567 C38.376698,111.030246 39.682348,104.77157 43.4134572,104.252393 C43.9328581,104.180433 43.7619085,103.419211 43.2961155,103.387692 C38.9747238,103.096286 37.3831651,108.954726 36.3187506,112.163754" id="Fill-13" fill="#6BBEDF"></path>
      <path d="M60.6543506,107.781373 C62.3823117,107.288362 64.1132509,106.827466 65.8763549,106.474806 C69.0493464,105.840255 74.6061021,105.019562 76.1476268,108.832811 C76.6241414,110.010922 78.4861222,109.578571 78.1055061,108.293414 C77.0017792,104.563423 73.2915175,103.825394 69.8183218,104.032947 C67.635885,104.163782 65.4737001,104.684743 63.3758446,105.271717 C62.4555758,105.529224 61.5460286,105.823009 60.6406508,106.128092 C60.3970328,106.210162 59.6965563,106.581258 59.1813249,106.783457 C59.0484965,106.553901 58.6911105,106.453396 58.476679,106.673437 C58.3521895,106.806056 58.2241262,106.934513 58.0918934,107.059401 C57.8506579,107.29312 57.8929486,107.636264 58.0918934,107.874741 C58.7185101,108.625259 59.8782275,108.002603 60.6543506,107.781373" id="Fill-14" fill="#6BBEDF"></path>
      <path d="M59.2688845,115.786103 C66.5220321,113.84558 74.10874,111.748055 81.3475923,114.820896 C82.54007,115.32699 83.5645764,113.746859 82.3911592,113.037971 C75.3220653,108.769178 66.0407524,112.198842 58.9406851,114.598477 C58.1937484,114.850632 58.4939526,115.993655 59.2688845,115.786103" id="Fill-15" fill="#6BBEDF"></path>
      <path d="M67.9575323,119.502415 C74.813386,119.73316 81.6454139,120.318945 88.5090109,120.309429 C89.8218086,120.307645 89.8128739,118.329656 88.5090109,118.28208 C81.6567311,118.034683 74.8169598,117.664776 67.9575323,117.826536 C66.8740573,117.852108 66.8770355,119.466138 67.9575323,119.502415" id="Fill-16" fill="#6BBEDF"></path>
      <path d="M77.4818677,96.5283633 C82.2982389,101.582167 90.5604062,105.881885 97.3519304,102.142379 C97.9439997,101.815886 97.5336015,100.777531 96.8837548,101.033254 C90.5371761,103.531015 83.3644403,99.5024833 78.668389,95.3437108 C77.8630793,94.6300647 76.7301659,95.7403791 77.4818677,96.5283633" id="Fill-17" fill="#6BBEDF"></path>
      <path d="M213.841878,146.141039 C215.668716,145.14015 217.521762,143.665281 219.617235,143.338788 C220.131275,143.259098 220.11281,142.421158 219.617235,142.324816 C217.822562,141.976319 216.215516,142.867782 214.662674,143.681933 C211.938798,145.110415 209.144635,146.406277 206.418972,147.836543 C200.573925,150.905221 194.865876,154.173125 189.430036,157.919172 C187.267255,158.103531 185.280189,158.911141 183.202585,159.618245 C180.048655,160.691093 176.876854,161.718743 173.716967,162.774939 C167.357284,164.900415 160.971393,166.936091 154.497347,168.687497 C154.52832,168.625648 154.553933,168.557257 154.574185,168.482324 C154.596819,168.400255 154.621836,168.314022 154.645066,168.230169 C154.799338,168.324132 154.991731,168.368735 155.221053,168.338405 C164.578013,167.093093 169.266916,154.995008 170.774489,146.950432 C170.942461,146.052428 169.629663,145.66349 169.387832,146.568632 C167.431144,153.895398 163.189568,163.730036 155.252622,166.158811 C156.258664,162.788023 157.374899,158.811825 156.16753,155.740173 C155.867326,154.975382 154.667105,155.260841 154.906554,156.087481 C155.960246,159.725886 153.42638,164.402052 152.705652,167.967904 C152.588906,168.545957 152.934379,168.962251 153.362646,169.112117 C152.853967,169.619995 153.303082,170.694032 154.18523,170.503726 C160.413275,169.161477 166.471563,167.212034 172.483985,165.12343 C175.633747,164.029172 178.773978,162.906964 181.923144,161.811517 C184.17944,161.026506 186.506023,159.915003 188.879661,159.358953 C189.10124,159.806172 189.618854,160.089251 190.189481,159.748485 C195.397189,156.638178 200.594772,153.500514 205.873958,150.510931 C208.50968,149.018222 211.185309,147.596877 213.841878,146.141039" id="Fill-18" fill="#6BBEDF"></path>
      <path d="M227.080049,142.405696 C215.717558,146.487752 204.748788,151.856154 194.247598,157.79369 C193.080137,158.453812 194.118343,160.217708 195.29593,159.584347 C205.890041,153.89064 216.745639,148.740495 227.421352,143.2139 C227.863915,142.984939 227.554776,142.235016 227.080049,142.405696" id="Fill-19" fill="#6BBEDF"></path>
      <path d="M233.22947,143.848451 C224.565243,146.079189 215.90876,149.916226 208.473345,154.895097 C207.591198,155.485639 208.354812,156.801722 209.305459,156.316442 C217.295417,152.236766 224.954198,147.744364 233.518952,144.8987 C234.182499,144.678064 233.915055,143.671823 233.22947,143.848451" id="Fill-20" fill="#6BBEDF"></path>
      <path d="M239.754146,144.848745 C237.083281,146.353943 234.156886,147.345316 231.52176,148.912959 C230.845705,149.31498 231.449688,150.348577 232.138251,149.965587 C234.807924,148.480014 237.62889,147.266815 240.229469,145.660517 C240.745296,145.34235 240.284864,144.549608 239.754146,144.848745" id="Fill-21" fill="#6BBEDF"></path>
      <path d="M182.799335,165.875137 C183.527807,165.628929 183.229389,164.496611 182.48007,164.717246 C176.520064,166.471626 170.591627,168.211733 164.877026,170.667865 C164.183697,170.965812 164.682846,172.135597 165.39047,171.884037 C171.17357,169.827547 176.983474,167.838258 182.799335,165.875137" id="Fill-22" fill="#6BBEDF"></path>
      <path d="M186.087286,166.748164 C186.031891,166.779089 185.972922,166.811797 185.939566,166.833207 C185.209308,167.285183 185.296271,168.483513 186.18378,168.70177 C186.697224,168.827848 187.230921,168.64111 187.578181,168.245037 C187.957605,167.812686 188.005853,167.17873 187.578181,166.752327 C187.205308,166.380041 186.450032,166.303919 186.087286,166.748164 L186.087286,166.748164 L186.087286,166.748164 Z M186.024743,166.810013 C185.987218,166.840343 185.972327,166.845101 186.024743,166.810013 L186.024743,166.810013 L186.024743,166.810013 Z" id="Fill-23" fill="#6BBEDF"></path>
      <path d="M34.039224,161.55401 C29.6630331,159.384526 25.5119954,156.900443 21.3966963,154.277199 C17.7930547,151.979258 13.889209,148.876087 9.64525091,147.961431 C8.8488759,147.789561 8.58500595,148.864193 9.3158602,149.155004 C13.5473097,150.839209 17.3332181,153.978657 21.0929182,156.495449 C24.9818729,159.097878 28.8714233,161.708633 33.2535705,163.414842 C34.3334717,163.835893 35.0667085,162.063077 34.039224,161.55401" id="Fill-24" fill="#6BBEDF"></path>
      <path d="M43.0453497,162.278955 C38.7579097,159.464811 34.249486,156.981917 29.8911645,154.276009 C27.5068046,152.795194 25.0199941,151.37028 22.8238575,149.617684 C21.1798822,148.30517 19.6312097,146.888583 17.9223093,145.657543 C17.4100561,145.288232 16.7798656,146.114872 17.2498281,146.527002 C18.9837455,148.046474 20.4913186,149.793122 22.2460835,151.288211 C24.0693475,152.840986 26.1803071,154.101166 28.1632034,155.436874 C32.6519709,158.461544 37.2032808,161.561146 42.0911292,163.909042 C43.1859215,164.434761 44.0722386,162.952161 43.0453497,162.278955" id="Fill-25" fill="#6BBEDF"></path>
      <path d="M51.2682045,160.412771 C45.8573814,156.969428 40.64729,153.495756 35.6623518,149.430352 C33.9784684,148.056584 32.2862459,146.695304 30.4641733,145.506488 C29.5992993,144.942113 28.2585064,144.028646 27.1809878,144.528199 C26.920096,144.649518 26.9933601,145.073543 27.2602083,145.133014 C28.9268181,145.506488 30.4617907,147.136575 31.7054938,148.209423 C33.1046597,149.417269 34.4353267,150.699453 35.8148364,151.928114 C40.0522424,155.702112 45.0175244,160.437154 50.4468125,162.358646 C51.62976,162.777318 52.2498246,161.037211 51.2682045,160.412771" id="Fill-26" fill="#6BBEDF"></path>
      <path d="M47.1928135,153.73007 C48.0296923,154.294445 49.028586,152.999177 48.2709278,152.334892 C46.3011356,150.608463 44.1764762,149.096723 42.1536718,147.433333 C41.0493492,146.524623 40.011143,145.544549 39.004506,144.529983 C38.4404318,143.96085 37.9341351,143.18357 37.1764769,142.867187 C36.8387472,142.726837 36.426562,143.148483 36.5611774,143.482112 C36.6171679,143.621868 36.6755409,143.760434 36.7357009,143.898406 C36.7875218,144.018536 36.9143939,144.075628 37.0436484,144.077412 C37.5398193,144.676875 38.002634,145.536818 38.453536,146.070863 C38.8782296,146.573984 39.3315141,147.054506 39.7961158,147.524323 C37.9782127,145.832387 36.0328419,144.264149 34.1589483,142.644768 C32.8705719,141.53148 31.6078083,140.381915 30.3980569,139.183584 C29.78514,138.57639 28.1471211,137.191917 28.1328256,136.224926 C28.1221041,135.547557 27.2548475,135.51247 27.0249292,136.075061 C26.0826216,138.377759 29.6535028,141.390535 31.0193128,142.76014 C33.6603949,145.408957 36.6457588,147.659321 39.3285359,150.251045 C40.3530423,151.240635 41.8713369,149.800854 41.0588795,148.753578 C41.1952818,148.882629 41.3310884,149.012275 41.4674907,149.140731 C43.2639507,150.829693 45.1509485,152.352138 47.1928135,153.73007" id="Fill-27" fill="#6BBEDF"></path>
      <path d="M10.6923917,154.175504 C9.96570697,153.486836 8.88223192,154.562657 9.59223866,155.273924 C10.2510201,155.933452 10.9562617,156.539457 11.6632902,157.145461 C12.3488756,157.732435 12.9939572,158.37769 13.7343417,158.895083 C14.3430891,159.320298 15.184733,158.478195 14.760635,157.870407 C13.7236201,156.386618 11.9986373,155.413085 10.6923917,154.175504" id="Fill-28" fill="#6BBEDF"></path>
      <path d="M2.5487574,153.739585 C2.54994869,153.738396 2.55113998,153.737206 2.55233126,153.736017 C2.56900927,153.723528 2.58628293,153.70985 2.60176965,153.700929 C2.61189559,153.695577 2.61606509,153.693198 2.62321281,153.68963 C2.64167775,153.683088 2.65954705,153.675952 2.67801199,153.670599 C3.17894795,153.513003 3.49463886,153.006909 3.35168448,152.486542 C3.19919982,151.934061 2.6851597,151.738997 2.1657588,151.814525 C1.51352946,151.909083 0.966728971,152.315861 0.626616683,152.870721 C0.32581685,153.361353 0.517018328,154.028612 1.00604142,154.314665 C1.25025515,154.457394 1.54807677,154.49605 1.82088137,154.421117 C2.17409781,154.32418 2.37363829,154.080946 2.51599703,153.772294 C2.51957088,153.768131 2.52433603,153.764563 2.52790989,153.7604 C2.47370636,153.895398 2.51480574,153.803813 2.5487574,153.739585 L2.5487574,153.739585 L2.5487574,153.739585 Z M2.54637483,153.715797 L2.54577919,153.715797 L2.54637483,153.715797 C2.54101404,153.727691 2.5362489,153.739585 2.53267504,153.749695 C2.53088811,153.751479 2.52969682,153.752669 2.52850553,153.755048 C2.5267186,153.756237 2.5225491,153.7604 2.52076217,153.761589 C2.53327068,153.735422 2.54756612,153.711634 2.55888334,153.683683 C2.55352255,153.697361 2.55054433,153.704498 2.54637483,153.715797 L2.54637483,153.715797 L2.54637483,153.715797 Z M2.51718831,153.765158 C2.49395823,153.785972 2.49931901,153.78062 2.51718831,153.765158 L2.51718831,153.765158 L2.51718831,153.765158 Z M2.52076217,153.762184 C2.5225491,153.7604 2.52493167,153.758616 2.5267186,153.756832 C2.5225491,153.762779 2.52076217,153.765752 2.51599703,153.771699 C2.51778396,153.768726 2.51957088,153.765752 2.52076217,153.762184 L2.52076217,153.762184 L2.52076217,153.762184 Z" id="Fill-29" fill="#6BBEDF"></path>
      <path d="M143.516068,52.1532554 C143.935996,51.4491246 144.612647,50.8324155 145.385792,50.5362523 C146.029087,50.2900444 145.787851,49.3670622 145.100479,49.5014655 C143.923488,49.7316164 143.039553,50.5094906 142.530278,51.5781756 C142.218161,52.2335406 143.134856,52.7931581 143.516068,52.1532554" id="Fill-30" fill="#2F91C1"></path>
      <path d="M139.911235,59.0714594 C141.651109,61.6810253 145.912341,62.0039501 148.817293,61.7393064 C150.803167,61.5591107 153.563974,61.1499536 155.889365,60.1746373 C155.436676,60.9150451 155.032234,61.7054082 154.50926,62.3673149 C153.353116,63.8302894 151.871751,64.7717075 150.092565,65.2992109 C146.600309,66.3339977 143.54585,63.0934498 141.160299,61.1136766 C140.658767,60.6973831 140.029173,61.3253916 140.446718,61.8261333 C143.122943,65.032783 145.923062,68.414276 150.477946,68.1419011 C154.279341,67.9141291 159.656213,63.6833972 159.658595,59.622751 C159.659191,58.9679808 159.294062,58.5207626 158.810995,58.3209417 C159.211863,57.923084 159.555549,57.4847863 159.811676,56.9917758 C159.980838,57.1107168 160.155362,57.221332 160.344776,57.3075642 C161.689739,57.9195157 162.911999,56.9352788 162.693993,55.5044185 C162.299677,52.9180461 157.930039,51.7500454 155.826822,51.1565297 C152.556741,50.2341422 149.241986,49.8172539 146.287596,48.0206499 C145.702674,47.6650163 145.055806,48.4952246 145.556146,48.9674204 C147.535469,50.8377678 150.358222,51.8446035 152.852776,52.8514392 C154.373453,53.4657695 155.882217,54.0973463 157.320696,54.888304 C157.934804,55.2260965 158.420253,55.7321905 158.911063,56.2133069 C158.89915,56.2246063 158.886046,56.2287692 158.875324,56.2418527 C156.868007,58.5838013 152.631792,59.0393454 149.771513,59.1404452 C147.616476,59.2165675 142.526705,59.2879321 142.131197,56.3619832 C141.932253,54.8930617 140.005347,55.0887196 139.338822,55.9980237 C139.03564,56.4119384 138.754496,56.632574 138.532321,57.098228 C138.008155,58.1990271 138.856947,59.2147834 139.911235,59.0714594" id="Fill-31" fill="#279DD3"></path>
      <path d="M124.515644,52.4256303 C124.528749,52.4178992 124.541853,52.410168 124.554957,52.4024368 C125.123796,53.2754639 126.60933,53.3640749 126.925021,52.1110314 C127.101332,51.4116582 127.014368,50.7051486 126.965525,49.9920972 C126.9143,49.2516894 126.907152,48.460137 126.483054,47.8303443 C126.278153,47.5258553 125.964844,47.3325762 125.628306,47.2368286 C125.462717,47.0530648 125.14107,46.9977572 124.963568,47.1886575 C124.473354,47.262401 124.036152,47.5716476 123.903919,48.1669474 C123.732374,48.9406587 123.936679,49.6192171 124.063551,50.3840078 C124.182084,51.0970592 124.225566,51.7559924 124.515644,52.4256303" id="Fill-32" fill="#2F91C1"></path>
      <path d="M156.837033,47.0209507 C156.842394,47.3414967 156.865624,47.6572851 156.899576,47.9671265 C156.89898,47.9825888 156.899576,47.996267 156.89898,48.0117293 C156.900767,48.0111346 156.902554,48.0105399 156.904937,48.0099452 C156.918636,48.1271021 156.927571,48.2460431 156.94544,48.3602265 C157.150342,49.6400318 159.230923,49.591266 159.476924,48.3602265 C159.643109,47.5270447 159.625835,46.7830687 159.50075,45.9475081 C159.379834,45.1381145 159.176124,44.5011853 158.494113,44.1235476 C158.481604,44.0432624 158.460161,43.963572 158.405362,43.8856656 C158.186165,43.5770137 157.825205,43.4562885 157.477945,43.6430259 C157.284957,43.7470993 157.165828,43.9498937 157.086608,44.1889652 C156.944249,44.2977962 156.814995,44.4274419 156.70897,44.5671976 C156.230669,45.1946114 156.46833,45.8220253 156.694675,46.4821479 C156.757813,46.6665065 156.80189,46.8443233 156.837033,47.0209507" id="Fill-33" fill="#2F91C1"></path>
      <path d="M84.1155464,99.6606749 C88.243354,100.706761 92.8953277,100.772179 97.0201571,99.6577013 C98.1727267,99.3460759 97.6759603,97.6910117 96.5341122,97.8985638 C93.3909028,98.4700753 89.9331939,98.2286251 86.7697326,97.9675495 C83.4073266,97.6898223 79.3599308,96.9315733 78.7219969,93.1153509 C78.6386068,92.6163934 77.9810167,92.7424708 77.8350841,93.1153509 C76.3537194,96.8828075 81.3511661,98.9601123 84.1155464,99.6606749" id="Fill-34" fill="#2F91C1"></path>
      <path d="M116.01522,177.42193 C117.884348,177.388032 117.870053,174.61968 116.01522,174.538206 C108.305809,174.199224 100.600569,173.549211 93.065086,171.829919 C89.1326494,170.932509 85.3354237,169.68898 81.3493792,169.015774 C77.7373986,168.406202 74.1611566,167.69315 70.6319705,166.707724 C63.6736662,164.765417 57.3366178,161.433285 52.3332146,156.172524 C47.1350361,150.706589 44.2265102,143.441078 40.8152614,136.834499 C40.1469497,135.539231 38.1330799,135.888918 37.7774809,137.230573 C37.4737029,138.37538 37.3658914,139.778884 36.9912318,141.018844 C33.7568891,135.387582 35.3204526,127.638575 35.1322293,121.47743 C35.0780258,119.686773 32.9932744,119.375742 32.0199934,120.635328 C29.3050515,124.148251 27.0910456,128.049516 25.0015292,131.97338 C23.4576219,128.921948 24.9002698,123.478613 25.5965767,120.894025 C26.2910968,118.315978 27.300712,115.824164 28.6039794,113.494109 C28.9703,112.839934 30.3837614,110.24702 31.5345442,109.42038 C31.7674407,109.779582 32.3255584,109.91458 32.56322,109.43049 C32.6740097,109.205691 32.9158408,109.055825 33.0534344,108.838758 C33.326239,108.408786 33.0313956,107.957405 32.6245713,107.78732 C30.8239418,107.035018 28.6367398,109.632689 27.7140884,110.875028 C26.878401,111.999616 26.1529075,113.194378 25.5054433,114.431365 C22.640995,109.614848 26.8587448,103.740946 30.2956062,100.114435 C35.5325016,94.5890301 43.3443626,91.0683761 50.8810364,90.3499724 C51.5225442,90.2887177 51.9305598,89.8783712 52.0616013,89.4026072 C52.848446,89.8117643 53.6096781,90.2566037 54.3232587,90.7549665 C54.8384901,91.1147631 55.4400898,90.3136954 54.9879965,89.895023 C51.7608015,86.900683 47.4114146,85.1332195 43.140057,84.1882332 C46.7782458,83.6042328 50.5367546,83.9218053 54.1719653,84.737146 C56.6361414,85.2902217 59.0014407,86.1680063 61.3417229,87.1005039 C63.5563245,87.9830462 65.9120935,88.6693358 67.0372635,90.9500298 C67.0914671,91.0600502 67.1659225,91.1266572 67.2457387,91.175423 C67.9104765,95.8801348 69.4466404,100.515266 71.5278179,104.778112 C72.3873311,106.539034 73.4279198,108.238701 74.6483928,109.77185 C72.8602718,109.573219 71.0483251,109.544673 69.2613954,109.629121 C64.9417906,109.83251 59.7864984,110.872055 56.8648684,114.336806 C56.4860393,114.785809 57.0733435,115.391813 57.5153108,114.986819 C60.6001471,112.158997 65.2545033,111.624951 69.2613954,111.59819 C71.5587913,111.582133 73.8478483,111.875322 76.0809148,112.400447 C76.7051489,112.547339 77.3192571,112.795331 77.9297914,113.062948 C79.3831609,114.205377 81.0080756,115.110518 82.8098964,115.681435 C82.7765404,115.861036 82.8212136,116.059072 82.9921632,116.235105 C83.3245322,116.579439 83.6729835,116.858951 84.0339433,117.095643 C81.8884363,117.357908 79.7572248,117.745656 77.6641345,118.27197 C73.3856291,119.347197 67.6930667,121.492893 66.5863616,126.318924 C66.4100512,127.088472 67.5584514,127.410208 67.7722873,126.645417 C69.0636418,122.033479 75.1576678,120.637707 79.2294849,119.837828 C81.7877726,119.334708 84.3984769,119.112883 87.0020335,119.01773 C88.9783778,118.945176 91.4479146,119.508956 93.3468252,118.961233 C93.751267,118.844671 94.015137,118.47298 94.0723187,118.082259 C100.39388,123.583876 109.835421,124.012063 117.814658,124.002548 C128.581505,123.989464 139.510963,123.304959 150.119965,121.441153 C153.378729,120.868452 156.535042,120.042407 159.678252,119.141429 C159.905192,119.396557 160.256025,119.527987 160.696206,119.384068 C165.082523,117.950829 169.101328,116.560409 173.792614,116.606796 C178.822225,116.656751 183.426547,118.615115 187.501938,121.433422 C188.057673,121.817601 188.611026,120.996908 188.19348,120.538391 C185.342732,117.409053 181.208968,115.359699 176.778573,114.483699 C177.39566,114.295177 178.010363,114.09833 178.620302,113.880668 C179.955734,113.404309 181.550867,112.749539 182.976837,111.874728 C185.953266,111.008837 189.135788,110.624063 192.057418,111.591648 C192.757299,111.823583 193.201648,110.753114 192.556567,110.409374 C190.417016,109.268135 188.145829,109.003491 185.886554,109.261593 C186.214158,108.776314 186.471476,108.255352 186.622173,107.690383 C187.47573,104.500979 185.02168,101.886061 182.078011,101.814697 C183.384852,100.371347 184.886469,99.2075096 187.049845,98.9892528 C187.780699,98.9161041 187.81346,97.8135209 187.049845,97.8277939 C184.72505,97.8712073 182.944672,98.6710856 181.142851,100.133465 C179.229645,101.685646 177.115112,103.916979 175.939908,106.097168 C175.555122,106.810814 176.375323,107.815271 177.129407,107.284794 C178.315928,106.449828 179.273723,105.289558 180.210074,104.100148 C180.358985,104.265476 180.549591,104.398095 180.781891,104.473623 C182.131619,104.910731 185.112813,105.448939 183.356261,107.61545 C182.637916,108.502155 181.058865,109.318685 180.064141,109.865219 C176.943566,111.580943 173.195779,112.284479 169.763683,113.103983 C166.777723,113.81644 163.876345,114.729907 160.948163,115.605907 C166.986198,110.964234 171.147362,104.143562 173.92306,96.916111 C176.661827,89.7838131 177.476667,82.460615 177.302739,75.0642681 C178.853199,74.1365282 180.850986,73.4490491 181.775424,73.086279 C183.277637,72.497521 185.201564,71.7208362 187.030189,71.4324042 C184.694672,74.0324548 181.559801,75.9289692 178.725731,77.9004165 C177.417103,78.81091 178.197395,80.8977301 179.825288,80.5052247 C186.703776,78.8477817 193.506022,77.3419885 200.61562,78.1377038 C204.854217,78.6122785 210.328178,79.5400184 213.941946,82.3166963 C212.008488,82.7686722 209.867746,82.5700407 207.943223,82.4641832 C205.070436,82.3059916 202.213135,82.0324273 199.362386,82.5646884 C197.849453,82.847768 197.827414,85.362181 199.362386,85.6268247 C203.893445,86.4076725 208.500149,86.7621167 212.954369,87.9467692 C217.447306,89.1421264 221.53461,91.6595129 224.955985,94.7650628 C230.996403,100.247054 232.409269,107.948485 232.288353,115.770046 C232.259762,117.582707 234.854384,117.490527 235.044394,115.770046 C235.970024,107.376378 234.193816,99.4781004 228.196284,93.2878154 C224.834474,89.818306 220.496404,87.1801944 215.990959,85.5037208 C215.722919,85.404405 215.452497,85.311631 215.181479,85.2212359 C215.989767,84.9827591 216.777803,84.6509137 217.53844,84.1894226 C218.448583,83.6363469 218.491469,82.5266272 217.851748,81.758863 C214.212368,77.3907543 207.480408,76.074672 202.146423,75.3193965 C196.633149,74.5391435 191.306312,75.088651 185.994961,76.1501995 C187.874215,74.6229969 189.566438,72.9078675 190.72139,70.7930963 C191.2122,69.8950916 190.582605,68.9477265 189.616472,68.8698201 C186.369621,68.6069605 182.830904,70.2406153 179.968838,71.5745387 C179.212967,71.9266041 178.2105,72.3982053 177.230071,72.983395 C177.055547,69.3039548 176.657658,65.6090522 176.151361,61.913555 C174.250068,48.0384911 170.454629,34.2936676 164.149745,21.7430119 C159.168977,11.8274943 151.479818,4.57625548 140.620051,1.65744302 C134.789895,0.0903951699 127.966801,0.195063261 122.047895,1.9494432 C114.34861,0.257507293 105.559894,8.01721899 100.685746,12.9812222 C91.0124994,22.8325116 87.4952261,36.0843246 84.5628745,49.1601048 C83.8367854,52.3988686 83.1958732,55.6745041 82.7664145,58.9661966 C82.3595901,62.0860194 82.3911592,65.2391457 82.1296718,68.3714573 C81.8669932,71.5198259 80.9961628,74.2774733 78.9310677,76.7050593 C76.9535321,79.0291667 74.9491926,80.0371918 72.1550302,81.0452169 C71.5111399,81.2777466 70.8785668,81.5215757 70.28888,81.8183335 C70.9577873,81.4936245 71.3098125,80.577184 70.6808132,79.7677904 C68.6079748,77.0993488 64.6421821,74.7401538 61.2023424,76.0586149 C60.4542145,76.3452628 60.0992111,76.9518619 60.2433568,77.7446038 C60.568578,79.5316925 63.5080774,87.1653267 66.3463174,85.5834113 C66.7322942,85.368128 66.6673691,84.8667917 66.3463174,84.6378302 C65.4951432,84.031231 64.907839,82.5099755 64.4360895,81.6173232 C63.9428969,80.6842309 63.4550651,79.6280347 63.1679651,78.5599444 C65.2652249,78.6533131 67.348785,80.3529802 68.8575493,81.5887773 C69.3418072,81.9854456 69.856443,82.0151809 70.2614804,81.8308223 C69.2137439,82.3624886 68.3083662,83.0701877 67.7514398,84.2185631 C67.134949,85.4888532 66.9622125,86.92685 66.9896121,88.3583051 C66.101508,87.4252128 64.8518485,86.7823367 63.6879616,86.2369921 C61.0224582,84.9887062 58.2920296,83.8492513 55.4811891,82.9714666 C49.5843211,81.1290703 43.1662653,80.8186343 37.5523278,83.5828234 C34.8475118,83.6708398 32.2117905,84.4237364 30.3295579,86.4534648 C29.7011543,87.1314285 29.8423217,88.1352907 30.6112971,88.634843 C33.7902451,90.7008484 37.4856157,90.3987382 41.2095772,90.0175322 C36.0489242,91.9063155 31.3355993,94.9167126 27.556243,99.0279087 C23.3158588,103.641036 18.9033337,111.620788 24.4005251,116.755472 C23.9847662,117.719489 23.6029588,118.699563 23.2562945,119.689152 C21.6450795,124.282654 19.7372342,132.244565 24.2015803,135.924006 C25.0074856,136.587696 26.1624378,136.547851 26.7437856,135.596918 C28.4848508,132.748281 30.0114844,129.781892 31.7412324,126.936823 C31.5679002,133.463116 31.4314979,140.177336 35.9649385,145.337592 C36.5629643,146.017935 37.7596116,145.976305 38.3635938,145.337592 C39.1826033,144.471702 39.6626917,143.491033 39.9956563,142.451488 C42.7505063,147.850816 45.4267313,153.245385 49.4461319,157.895384 C54.2279558,163.427331 60.7710967,166.978909 67.6323111,169.258414 C71.2508438,170.460908 75.008757,171.271491 78.7595224,171.933397 C83.0457711,172.689862 87.1354576,173.806718 91.3502291,174.865293 C99.4426381,176.897995 107.692893,177.572985 116.01522,177.42193 L116.01522,177.42193 L116.01522,177.42193 Z M70.8166199,87.5834044 C70.8958404,85.0814802 72.8096421,84.866197 74.8574636,84.1513615 C77.4276641,83.2551409 79.2449717,81.9420321 81.1414997,79.9795054 C85.4765912,75.4948345 85.9417885,69.8546517 86.1728981,63.9189004 C86.4457027,56.9287371 88.0724044,50.0551359 89.7932177,43.2957182 C91.5777648,36.2847402 93.4963317,29.4355219 97.1934893,23.15841 C102.393455,14.330608 111.658685,4.98362845 122.310573,3.84417354 C123.227864,3.74604721 123.872945,3.66933025 124.799171,3.82335887 C125.055297,3.86558293 125.249477,3.66457261 125.250668,3.45820996 C126.674851,3.40706532 128.09963,3.35294716 129.518452,3.38922417 C133.309126,3.48497168 136.972927,3.97798218 140.608733,5.07283421 C146.004665,6.69816315 150.787681,9.80430771 154.547976,13.9714061 C158.32495,18.1569404 160.831417,23.4319743 162.970372,28.590446 C165.754408,35.3040715 167.855242,42.2888825 169.455735,49.3724145 C172.255258,61.7613105 174.426378,75.5305168 171.649489,88.1037713 C169.310994,98.6942791 163.657744,108.4522 154.721309,114.781646 C153.878473,115.378135 152.985604,115.899691 152.082609,116.398054 C151.422636,116.762014 151.173657,117.411432 151.217735,118.05074 C148.744624,118.537208 146.253049,118.934471 143.756708,119.262749 C134.991222,120.416476 126.032152,120.885104 117.191615,120.93268 C110.76939,120.966579 102.8521,120.738807 97.3447826,116.879765 C97.3948167,116.410543 97.1976588,115.919911 96.6520496,115.579145 C93.0019478,113.296073 88.8842661,117.375749 85.3920098,116.183366 C86.9847599,115.985329 87.5583643,113.587478 85.727357,113.143233 C80.0193079,111.75876 76.5109692,106.75848 74.1849824,101.705271 C72.2324638,97.4620502 70.6677091,92.2714644 70.8166199,87.5834044 L70.8166199,87.5834044 L70.8166199,87.5834044 Z M33.9772771,87.0814733 C36.6499283,85.6184989 40.3018169,85.9901895 43.1555437,86.50342 C44.0138656,86.6574486 44.8852916,86.8483489 45.756122,87.0677951 C44.520758,87.0666057 43.2806288,87.1427279 42.0541993,87.2247972 C39.4560035,87.3990458 36.5421168,87.8093923 33.9772771,87.0814733 L33.9772771,87.0814733 L33.9772771,87.0814733 Z" id="Fill-35" fill="#279DD3"></path>
      <path d="M225.231768,113.249091 C224.537843,112.691852 223.181564,112.952928 223.272102,114.059079 C223.286993,114.244032 223.308436,114.426607 223.325114,114.610371 C223.272697,114.553279 223.219685,114.494403 223.166673,114.437906 C220.482109,111.56667 216.402548,108.272599 212.208028,108.606228 C211.554012,108.658563 211.535547,109.649936 212.208028,109.635663 C215.881956,109.555972 219.148463,112.819714 221.398208,115.365052 C222.232108,116.307659 223.095196,117.393591 223.850471,118.565159 C224.268613,120.890456 224.896421,123.161635 225.808946,125.375127 C225.640379,126.173221 225.439052,126.952285 225.22462,127.691503 C224.263848,131.004011 222.688967,134.448542 220.499382,137.251387 C220.035972,134.869594 220.258147,132.295115 219.795928,129.931163 C219.508828,128.459862 217.553927,128.766135 217.11732,129.931163 C214.947392,135.720617 211.660632,141.002192 207.185565,145.292395 C202.506787,149.779444 196.691522,152.081548 190.797037,154.496645 C190.477772,154.62748 190.250236,154.882608 190.11443,155.176987 C189.831499,154.396734 189.04108,153.769915 188.077925,154.028612 C184.881108,154.886177 181.793889,156.326552 178.713818,157.53083 C175.297208,158.865943 171.88596,160.214139 168.474711,161.562336 C161.717138,164.232561 155.057847,166.706535 147.806486,167.653305 C144.562613,168.076735 141.18472,168.284882 137.916426,168.090413 C136.144387,167.98515 134.303254,167.306592 132.593758,166.867105 C129.804956,166.149891 125.185743,164.312847 122.40945,165.882273 C121.584484,166.349117 121.515389,167.445158 122.121754,168.108254 C123.611458,169.736557 125.571124,171.125788 126.9006,172.920608 C119.371669,171.350586 112.240033,168.176051 105.23229,165.097857 C104.506797,164.779095 103.864693,165.82756 104.600313,166.176652 C112.587889,169.970871 120.374733,173.893545 129.003816,176.039241 C130.03547,176.295559 130.89677,175.386255 130.66983,174.375851 C130.0998,171.839434 128.259262,170.098732 126.416342,168.380035 C127.04415,168.532279 127.638602,168.716638 128.054361,168.813575 C130.166512,169.307774 132.242329,169.948867 134.333632,170.520973 C139.434125,171.916151 144.794318,171.423735 149.978797,170.719604 C156.766152,169.797217 163.067462,167.426128 169.418805,164.981295 C172.838989,163.664618 176.260364,162.349131 179.679356,161.027696 C182.91072,159.778221 186.302313,158.711914 189.387149,157.128215 C189.747513,156.943261 189.975049,156.679212 190.103112,156.384833 C190.272275,156.707758 190.602857,156.926015 191.11928,156.873681 C202.942798,155.680108 212.308692,146.607882 217.468154,136.233847 C217.564648,137.887722 217.785632,139.523755 218.500404,141.152653 C218.918545,142.104775 220.334389,142.134511 220.993171,141.473199 C224.718323,137.737856 227.010954,132.359938 228.23381,127.309108 C228.297544,127.046248 228.355917,126.778631 228.411907,126.509824 C228.634678,126.272537 228.785375,125.970427 228.796097,125.628472 C228.809201,125.23775 228.786567,124.849408 228.74785,124.46285 C229.23449,120.357006 228.595365,115.949647 225.231768,113.249091" id="Fill-36" fill="#279DD3"></path>
      <path d="M177.063886,98.8066784 C175.530105,101.125433 174.697396,103.758193 173.685994,106.318993 C173.347668,107.175963 174.784955,107.775425 175.17391,106.945217 C176.038784,105.099253 176.810738,103.209875 177.691099,101.370452 C178.424931,99.8384917 179.736538,96.5628562 181.870132,96.839394 C182.602177,96.9339521 182.742153,95.7338373 182.042272,95.5685093 C179.755598,95.0279224 178.175357,97.1266366 177.063886,98.8066784" id="Fill-37" fill="#2F91C1"></path>
    </g>
  </g>
</svg>