<?xml version="1.0" encoding="UTF-8" standalone="no"?>
<svg viewBox="0 0 350 200" version="1.1" xmlns="http://www.w3.org/2000/svg" xmlns:xlink="http://www.w3.org/1999/xlink">
  <title>We second</title>
  <g stroke="none" stroke-width="1" fill="none" fill-rule="evenodd">
    <g transform="translate(104.000000, 0.000000)">
      <path d="M115.504715,136.872445 C116.306168,135.920445 115.075221,134.661333 114.128819,135.501778 C113.929906,135.678667 113.729654,135.852 113.529849,136.025778 C113.475883,135.730667 113.254669,135.477778 112.878695,135.502667 C111.91044,135.566667 111.050116,135.413778 110.152773,135.050667 C109.437397,134.761778 108.940558,135.956 109.628729,136.289333 C110.521611,136.722222 111.462661,137.051111 112.436268,136.96 C111.234757,137.962667 110.010947,138.908445 108.750118,139.78 C108.679205,139.76 108.603832,139.745333 108.518201,139.743555 C104.985473,139.673333 101.606614,138.537333 98.5992689,136.717333 C98.0243806,136.369333 97.5895359,137.204445 98.0886039,137.588 C100.476909,139.422667 103.363389,140.945778 106.397048,141.285778 C105.207133,141.985778 103.976632,142.612889 102.695734,143.156 C102.619023,143.084445 102.527594,143.025778 102.404499,143.003555 C98.9306427,142.387111 95.5004946,142.44 92.0641019,141.44 C88.5273604,140.411111 84.9179217,138.479111 82.9930067,135.232889 C82.688838,134.72 81.9551759,135.168889 82.2035952,135.692889 C83.883213,139.232445 87.2272846,141.266667 90.766702,142.657333 C92.9957858,143.533333 95.7917293,144.354667 98.4752825,144.565778 C98.263434,144.618222 98.0538165,144.674222 97.8388466,144.722222 C96.2684982,145.072 94.6620237,145.309778 93.0363714,145.461778 C92.9592142,145.429333 92.8722451,145.406667 92.7723422,145.4 C83.329733,144.779555 74.5418447,140.743555 69.6033404,132.374667 C69.3522451,131.949333 68.7314199,132.322667 68.9463895,132.757333 C71.7204793,138.375111 77.0037379,143.115111 83.0661499,145.400889 C81.9783677,145.300889 80.8959375,145.174222 79.8224272,145.026667 C78.8042203,144.688889 77.8065291,144.306222 76.8248938,143.884 C76.7352487,143.578222 76.4819235,143.326222 76.0577821,143.323111 C75.8981159,143.321778 75.7388956,143.321778 75.5796753,143.323111 C73.6596662,142.417778 71.7949606,141.359111 69.9570146,140.165778 C65.0546359,136.983111 61.4063956,132.626222 58.2902276,127.746222 C57.970003,127.244889 57.1895116,127.692889 57.4887743,128.212889 C60.4345722,133.331555 63.9311742,137.773778 68.7514897,141.262222 C69.7924423,142.015555 70.8677366,142.722667 71.9684526,143.387111 C71.6914897,143.384889 71.4145267,143.377333 71.1380097,143.365333 C68.9530795,142.820445 66.795801,142.168889 64.6924879,141.384445 C62.9490928,140.339555 61.3261165,139.013778 59.813301,137.8 C55.4724302,134.316889 51.9570965,130.241333 49.2726517,125.363555 C49.0211104,124.906222 48.3592536,125.308 48.5795752,125.767555 C50.9959769,130.801778 54.3396025,134.853333 58.432946,138.519555 C57.059281,137.756445 55.7248635,136.917778 54.4444114,135.984 C49.062588,132.059555 44.9647846,126.434222 41.9333555,120.577778 C41.7696753,120.261778 41.2237773,120.484 41.3526699,120.821778 C43.8016292,127.232445 47.4547754,132.921333 52.7509679,137.370667 C58.8289897,142.476445 66.5362317,145.088889 74.2122543,146.703111 C81.946702,148.329778 90.2881492,148.884 98.0921718,147.413333 C105.024275,146.107111 111.009976,142.210667 115.504715,136.872445" id="Fill-1" fill="#9BCCE4"></path>
      <path d="M116.454684,133.715555 C116.53541,133.635111 116.616135,133.554667 116.69686,133.474222 C116.929223,133.242222 116.929223,132.855555 116.69686,132.623555 C116.464496,132.392 116.076035,132.392 115.843671,132.623555 C115.762946,132.704 115.68222,132.784445 115.60105,132.864889 C115.368686,133.096889 115.368686,133.484 115.60105,133.715555 C115.833859,133.947111 116.222321,133.947111 116.454684,133.715555" id="Fill-2" fill="#9BCCE4"></path>
      <path d="M104.32986,101.577778 C106.243625,106.126667 110.972512,106.660889 115.331222,107.262222 C116.32044,107.398222 116.786059,105.941333 115.75581,105.727555 C112.012573,104.949333 107.485276,104.850667 105.381517,101.135555 C105.068428,100.582667 104.073414,100.968445 104.32986,101.577778" id="Fill-3" fill="#9BCCE4"></path>
      <path d="M107.210543,97.7608893 C106.633871,97.5302223 106.233368,98.490667 106.788632,98.7582223 C113.018292,101.762222 119.971356,99.973333 125.224733,95.8644445 C125.827718,95.3928889 125.040091,94.3924445 124.409008,94.8111111 C119.369709,98.1555553 113.066905,100.102667 107.210543,97.7608893" id="Fill-4" fill="#9BCCE4"></path>
      <path d="M19.3726912,98.6662223 C20.5907039,98.7617777 21.038483,96.5671111 21.2788744,95.7426667 C21.8225424,93.8746667 21.9920206,91.9933333 22.239548,90.0795555 C22.3443568,89.2684445 21.133034,89.2182222 20.8899666,89.8973333 C20.392682,91.2884445 20.2959011,92.8528889 20.1001092,94.376 C19.108662,94.4551111 18.0735073,94.3484445 17.0481645,94.0888889 C18.1029429,92.9608889 18.835267,91.5697778 19.4516322,90.1088889 C20.4444175,87.756 21.3885892,85.2648889 21.9996025,82.7853333 C22.1949484,81.9942222 21.125006,81.5475555 20.6932827,82.2364445 C20.4635952,82.6022222 20.2633434,82.9826667 20.0746875,83.3693333 C20.4479854,82.4422222 20.7450182,81.5075555 20.943486,80.5884445 C20.9898695,80.3737778 20.9220783,80.1893333 20.8052276,80.0497778 C20.8649909,79.6351111 20.8221753,79.2462222 20.6143417,78.9164445 C20.4555674,78.6644445 20.0657676,78.5057778 19.7981705,78.7031111 C19.2451365,79.1102222 19.1456796,79.6906667 18.8638107,80.2995555 C18.471781,81.1466667 17.9116111,81.9324445 17.362145,82.6826667 C16.169554,84.3115555 14.3976152,86.2177778 12.4477245,86.9111111 C11.7992476,87.1417778 12.0543568,88.0702222 12.7313774,87.9368889 C14.6638744,87.5555555 16.2806068,86.2222222 17.631972,84.8262222 C17.4807797,85.1542222 17.3260194,85.4804445 17.1578792,85.7995555 C15.982236,88.0324445 14.4047512,90.1177778 12.3696753,91.6351111 C12.3420237,91.656 12.3264138,91.6817778 12.305452,91.7048889 C11.4366535,91.0053333 10.6829217,90.2062222 10.1196298,89.3422222 C9.76506369,88.7982222 8.93640473,89.2755555 9.24592536,89.8511111 C10.2708222,91.756 12.3723514,93.7564445 14.7343417,94.972 C14.7958889,95.304 15.1714169,95.5884445 15.523753,95.3666667 C15.5308889,95.3622222 15.5366869,95.3568889 15.5438228,95.3524445 C16.9625334,95.9564445 18.4396693,96.2537778 19.8097664,96.0631111 C19.6425182,96.7782222 19.4079248,97.4648893 19.0439927,98.0955553 C18.8914623,98.3595553 19.0903762,98.644 19.3726912,98.6662223 L19.3726912,98.6662223 L19.3726912,98.6662223 Z M19.5479672,84.5591111 C18.3366444,87.6337778 17.8380218,91.0724445 15.6932312,93.6568889 C14.7548574,93.2946667 13.8512713,92.8146667 13.0257342,92.2435555 C15.7195449,90.5173333 18.0610194,87.6471111 19.5479672,84.5591111 L19.5479672,84.5591111 L19.5479672,84.5591111 Z" id="Fill-5" fill="#9BCCE4"></path>
      <path d="M65.6620814,81.4097778 C66.2668508,80.7257778 65.3106372,79.7484445 64.6510103,80.4022222 C60.3235194,84.6928889 54.9113683,87.7653333 48.8971238,84.888 C48.4078671,84.6537778 48.0131615,85.3133333 48.4707524,85.6146667 C54.7302943,89.7342222 61.189642,86.468 65.6620814,81.4097778" id="Fill-6" fill="#9BCCE4"></path>
      <path d="M77.8613865,48.0973333 C77.5532039,48.5066667 78.1998968,48.9484445 78.546435,48.624 C80.1832373,47.092 81.4208738,45.2866667 82.6263986,43.4088889 C83.3145691,42.336 83.9536802,41.2311111 84.611523,40.1395555 C85.1364593,39.2688889 85.8545116,38.4324445 86.1337045,37.4515555 C86.3923817,36.5422222 85.2791778,36.0013333 84.6244569,36.576 C83.1749727,37.8484445 82.3860073,40.4111111 81.495355,42.1 C80.4057888,44.1644445 79.2680552,46.2266667 77.8613865,48.0973333" id="Fill-7" fill="#9BCCE4"></path>
      <path d="M91.0142294,45.9684445 C89.6829339,45.3026667 88.1906341,44.7688889 86.8303489,45.0737778 C86.639463,45.1164445 86.453929,45.1728889 86.270179,45.2351111 C86.3861378,45.0586667 86.4976365,44.8795555 86.6064593,44.7017778 C87.1122179,43.8728889 87.5359132,42.9946667 87.9894903,42.1368889 C88.3128368,41.5253333 88.9296481,40.8391111 88.843125,40.1093333 C88.7918355,39.6791111 88.4519873,39.3431111 87.9908283,39.4622222 C86.8049272,39.7693333 86.4369812,41.7146667 86.0543174,42.7004445 C85.6778975,43.6715555 85.0869539,45.596 84.067409,46.3733333 C83.9862379,46.4253333 83.9059587,46.4782222 83.8252336,46.5306667 C83.7239927,46.5857778 83.6200758,46.6333333 83.5103611,46.6635555 C83.4180401,46.6893333 83.3716566,46.7591111 83.3618447,46.8342222 C82.7155977,47.2586667 82.0675668,47.6742222 81.3820722,47.9822222 C78.7761226,49.1542222 75.8936559,49.6755555 73.0691687,49.4444445 C74.324645,47.5408889 75.5413198,45.612 76.8440717,43.7342222 C77.6758525,42.5351111 78.4862257,41.3235555 79.2488775,40.08 C79.7350121,39.2862222 80.4164927,38.5431111 80.7438532,37.6764445 C80.9802306,37.0506667 80.2826942,36.5053333 79.7100364,36.6462222 C78.8706736,36.8528889 78.5272573,37.584 78.1321056,38.2951111 C77.3663319,39.672 76.6068022,41.0422222 75.7817112,42.3853333 C74.4125061,44.6137778 72.8069236,46.8511111 71.7860407,49.2844445 C70.8668447,49.1324445 69.9583525,48.9017778 69.0739442,48.5795555 C68.8375668,48.4933333 68.6078792,48.3973333 68.3808678,48.2968889 C69.7045814,47.032 70.6286833,45.1951111 71.3998088,43.6386667 C71.7731068,42.8844445 70.8021753,42.0137778 70.1782282,42.6995555 C68.8754763,44.1324445 68.1391383,45.9848889 67.0763319,47.6111111 C66.0799787,47.0044445 65.1915564,46.2595555 64.4128489,45.4084445 C64.9493811,44.8431111 65.4408678,44.24 65.9180825,43.5684445 C66.7253338,42.4328889 67.7016171,41.1888889 68.0263016,39.8155555 C68.1864139,39.1386667 67.347051,38.5955555 66.8314806,39.1226667 C65.9381523,40.0355555 65.4199059,41.2706667 64.7629551,42.3546667 C64.3611135,43.0177778 63.94946,43.6795555 63.5342384,44.3386667 C62.9401729,43.5435555 62.4237106,42.6862222 61.9839593,41.7866667 C62.3697451,41.3946667 62.7332312,40.9773333 63.0882433,40.552 C63.5275485,40.0262222 63.945,39.4831111 64.3843052,38.9582222 C64.8427883,38.4106667 65.41723,37.9524445 65.7740261,37.3306667 C66.1549059,36.6657778 65.4203519,36.0737778 64.7959587,36.3555555 C63.7255704,36.8391111 62.9923544,38.1817778 62.3345116,39.1053333 C62.020531,39.5471111 61.7127943,39.9977778 61.3858799,40.4311111 C61.194548,39.9426667 61.0223938,39.4471111 60.8720935,38.9471111 C60.7195631,38.44 60.1415534,38.2008889 59.6759345,38.4622222 C57.9347694,39.4373333 56.1610467,40.3844445 54.3734982,41.3066667 C57.1293022,39.1217778 59.7557676,36.7617778 62.4589442,34.524 C63.0137621,34.0644445 62.2635983,33.0906667 61.6851426,33.5248889 C57.8027549,36.4413333 54.4983768,40.064 50.7404217,43.1346667 C50.0241535,43.4871111 49.3069933,43.8382222 48.5902791,44.1817778 C49.9068568,42.948 51.0544023,41.4337778 52.086435,40.2444445 C54.3694843,37.6151111 56.7733981,35.0035555 60.3114776,34.2244445 C61.4567931,33.972 60.9711044,32.2204445 59.8275728,32.4755555 C56.4826092,33.2208889 54.028298,35.6186667 51.8790474,38.1386667 C50.717676,39.5 49.6254339,40.9168889 48.4310588,42.2506667 C47.3990261,43.404 46.2059891,44.3146667 45.0816353,45.3466667 C44.5807828,45.3106667 44.101338,45.1222222 43.6731826,44.6911111 C43.6513289,44.6688889 43.633935,44.6448889 43.6129733,44.6222222 C46.2514806,42.1253333 48.0095935,38.6626667 51.2354763,36.88 C51.7626426,36.5888889 51.6556038,35.9262222 51.2354763,35.6137778 C49.7797482,34.5302222 47.5676122,37.7008889 46.8647239,38.5568889 C45.4941809,40.2253333 44.3265655,42.0537778 43.0180158,43.7662222 C42.2375243,42.1733333 42.7397149,40.1822222 42.5532888,38.4586667 C42.5122573,38.0777778 42.1991687,37.7657778 41.7901912,37.8791111 C37.6785619,39.0195555 34.5922755,42.1951111 31.6803732,45.1324445 C31.3070752,45.5088889 31.8654612,46.0511111 32.2579369,45.7075555 C35.0369326,43.276 37.8150364,40.4377778 41.3928095,39.2511111 C41.4454369,41.1737778 41.1256583,42.8568889 42.1224576,44.7217778 C42.1545692,44.7813333 42.1929248,44.8324445 42.2268204,44.8897778 C42.2058586,45.0928889 42.3351972,45.2702222 42.5193932,45.3253333 C43.2891809,46.3226667 44.4139806,46.8275555 45.7368022,46.6524445 C47.7464563,46.3862222 49.7703823,45.132 51.546335,44.2475555 C54.1933161,42.9288889 56.7876699,41.3342222 59.5465959,40.2382222 C59.715182,40.7826667 59.9091899,41.3097778 60.1246056,41.8208889 C59.9399636,41.9822222 59.7481857,42.1368889 59.5403519,42.2755555 C58.9346906,42.6782222 59.4672087,43.6106667 60.1143477,43.2537778 C60.2954217,43.1537778 60.4680218,43.0435555 60.637054,42.9293333 C61.1811681,43.9933333 61.829645,44.9733333 62.568659,45.8595555 C62.5022057,45.9635555 62.4357524,46.0693333 62.3697451,46.1733333 C62.0927821,46.6071111 62.6823878,46.9622222 63.0329399,46.6831111 C63.0864593,46.64 63.1328428,46.5942222 63.1859163,46.5511111 C66.5072421,50.076 71.3676972,51.8813333 76.6951092,51.2155555 C78.6418781,50.9724445 80.5516292,50.416 82.3418538,49.6186667 C84.4010134,48.7013333 86.3299423,46.464 88.7075425,47.1355555 C91.2764746,47.8617778 93.5952033,49.7284445 95.8943083,51.0262222 C97.4231796,51.8893333 100.030467,52.4573333 101.113789,53.8893333 C101.883131,54.9066667 103.626081,53.8977778 102.841575,52.8831111 C102.283188,52.1608889 101.530349,51.6457778 100.724436,51.2115555 C101.455868,49.8088889 101.738629,48.2017778 101.704287,46.6271111 C101.682433,45.6106667 100.036265,45.3053333 99.8623272,46.3786667 C99.6393291,47.7528889 99.4221301,49.1448889 99.3449728,50.5364445 C99.1549786,50.4493333 98.9663233,50.3626667 98.7803427,50.276 C97.9057466,49.8666667 97.0614776,49.4084445 96.2256826,48.936 C96.377321,48.4937778 96.556165,48.0782222 96.7889746,47.672 C97.0574636,47.2035555 97.3937437,46.8586667 97.4994447,46.3115555 C97.6109437,45.7333333 97.0873452,45.3813333 96.5722209,45.6008889 C95.5945995,46.0173333 95.3448422,47.3364445 95.186514,48.3417778 C94.348935,47.8528889 93.5153702,47.3564445 92.6702093,46.8742222 C92.4498878,46.7484445 92.2175243,46.616 91.9771329,46.4813333 C92.3812045,45.8533333 92.7763562,45.2293333 93.1282464,44.5617778 C93.5630917,43.7364445 94.26598,42.9177778 94.4037925,41.9808889 C94.4849636,41.4315555 93.9609193,40.8564445 93.3949515,41.2075555 C92.5761044,41.716 92.2536499,42.5911111 91.8825819,43.4417778 C91.5199879,44.2733333 91.2657707,45.112 91.0142294,45.9684445" id="Fill-8" fill="#9BCCE4"></path>
      <path d="M37.8065625,36.0284445 C36.846335,37.112 36.192952,38.4146667 35.2108708,39.4768889 C34.722952,40.0044445 35.4592901,40.7271111 35.9949302,40.2586667 C37.1273119,39.2675555 37.9782707,38.0408889 38.8305674,36.816 C39.2533708,36.2084445 38.2944812,35.4777778 37.8065625,36.0284445" id="Fill-9" fill="#9BCCE4"></path>
      <path d="M51.6975273,11.6337778 C47.8262894,13.3515555 44.0625364,15.2973333 40.6230218,17.7786667 C39.0022755,18.948 37.5139897,20.2724445 36.1282828,21.7088889 C34.8478307,23.0364445 33.172227,24.8182222 32.7467476,26.6462222 C32.6700364,26.976 32.8631523,27.3004445 33.1329794,27.4555555 C32.9585952,28.1146667 33.0571602,28.752 33.6338319,29.2768889 C34.1329005,29.7306667 34.8134891,29.3888889 34.8781583,28.7631111 C34.9767233,27.8137778 34.9682494,27.2902222 35.557409,26.4537778 C36.2250637,25.5057778 37.1982251,24.728 38.0853095,23.9955555 C39.4384587,22.8786667 41.5805734,21.8942222 42.6192961,20.4333333 C42.6420418,20.4111111 42.6594357,20.3857778 42.6741535,20.3591111 C42.6745995,20.3586667 42.6750455,20.3586667 42.6750455,20.3582222 C42.8088441,20.1182222 42.6451639,19.7453333 42.3289533,19.7573333 C41.4931583,19.7897778 40.4606796,20.7306667 39.777415,21.1693333 C38.6173817,21.9142222 37.4818781,22.6897778 36.3909739,23.5315555 C36.5979156,23.2213333 36.8128853,22.9164445 37.0492627,22.6262222 C38.2735194,21.1222222 39.7573452,19.82 41.2625789,18.6044445 C44.5120995,15.98 48.2325911,13.9391111 51.9691383,12.0964445 C52.283565,11.9413333 52.0083859,11.4955555 51.6975273,11.6337778" id="Fill-10" fill="#9BCCE4"></path>
      <path d="M112.180267,37.7675555 C111.592891,37.6484445 110.848525,38.1266667 111.012206,38.9075555 C111.261071,40.0951111 111.02291,41.76 112.042454,42.6324445 C112.578541,43.0915555 113.255561,42.8204445 113.422363,42.2608889 C113.458935,42.3951111 113.491047,42.5293333 113.518698,42.6635555 C113.513347,42.7906667 113.533862,42.9053333 113.57088,43.0106667 C113.585151,43.1555555 113.597193,43.3013333 113.634211,43.4422222 C113.641347,43.4391111 113.648929,43.436 113.656065,43.4328889 C113.952206,44.2808889 115.287069,44.4862222 115.538164,43.4422222 C115.597928,43.1942222 115.618444,42.92 115.634053,42.6635555 C115.634053,42.6631111 115.634499,42.6626667 115.634499,42.6622222 C115.634946,42.6555555 115.635391,42.6493333 115.635837,42.6426667 C115.669733,42.096 115.312937,41.7613333 114.884336,41.6595555 C114.71798,41.3324445 114.557867,41.0013333 114.404445,40.6671111 C114.602467,40.4964445 114.723331,40.232 114.689882,39.868 C113.959342,31.9626667 108.942788,24.3395555 103.50254,18.7951111 C103.0949,18.3795555 102.520904,18.9875555 102.87547,19.4195555 C107.228383,24.7186667 110.857446,30.992 112.180267,37.7675555" id="Fill-11" fill="#9BCCE4"></path>
      <path d="M99.3195515,44.9817778 C99.8284311,44.292 99.8168359,43.252 99.9644602,42.4248889 C100.145534,41.4093333 100.32527,40.3915555 100.455054,39.368 C100.698122,37.4573333 100.926025,35.4582222 100.101826,33.6551111 C99.934132,33.288 99.3463107,33.5506667 99.4573631,33.9262222 C100.001923,35.7657778 99.5603883,37.8666667 99.1946728,39.6973333 C98.9021,41.1644445 97.8370631,43.3817778 98.2803825,44.8462222 C98.432467,45.3493333 99.0350058,45.3675555 99.3195515,44.9817778" id="Fill-12" fill="#9BCCE4"></path>
      <path d="M102.882606,42.2222222 C103.669787,38.9817778 103.618945,35.2142222 103.431626,31.9013333 C103.396839,31.2831111 102.468722,31.2742222 102.461586,31.9013333 C102.425016,35.292 101.459436,38.6795555 101.533025,42.0404445 C101.549527,42.8 102.696181,42.9897778 102.882606,42.2222222" id="Fill-13" fill="#9BCCE4"></path>
      <path d="M106.267263,41.9791111 C106.840813,38.6844445 107.578043,35.0146667 107.293498,31.66 C107.243547,31.0657778 106.348434,31.0466667 106.351556,31.66 C106.36895,35.0697778 104.593444,38.4146667 104.931508,41.7991111 C105.001529,42.5017778 106.126329,42.7884445 106.267263,41.9791111" id="Fill-14" fill="#9BCCE4"></path>
      <path d="M110.148759,41.7146667 C110.776274,41.6008889 110.723201,40.8022222 110.30798,40.5013333 C110.715618,40.7964445 110.555507,41.1071111 110.59297,40.6124445 C110.617054,40.2902222 110.565764,39.9671111 110.544356,39.644 C110.481917,38.7008889 110.474782,37.7528889 110.447576,36.808 C110.405206,35.3448889 110.498419,33.6444445 109.921302,32.2648889 C109.704102,31.7457778 108.912907,31.9248889 109.053395,32.5035555 C109.519014,34.4213333 109.062761,36.7315555 108.951262,38.676 C108.903094,39.5142222 108.603832,41.996 110.148759,41.7146667" id="Fill-15" fill="#9BCCE4"></path>
      <path d="M97.0534496,41.452 C97.3643087,41 97.3888379,40.408 97.448601,39.8764445 C97.511933,39.3137778 97.5128243,38.7431111 97.5217447,38.1777778 C97.5333408,37.484 96.383565,37.2973333 96.2818781,38.0106667 C96.2118568,38.5008889 96.1391596,38.9897778 96.0423786,39.4755555 C95.9348938,40.0164445 95.6922724,40.5257778 95.6565928,41.0746667 C95.6044115,41.8724445 96.6645418,42.0173333 97.0534496,41.452" id="Fill-16" fill="#9BCCE4"></path>
      <path d="M91.6355006,35.5475555 C91.5645874,35.6013333 91.4936742,35.6546667 91.422761,35.708 C91.2376729,35.8475555 91.0958465,35.9822222 91.0320692,36.2146667 C90.9513441,36.5062222 91.0360831,36.8253333 91.2506068,37.0391111 C91.4093811,37.1973333 91.6274727,37.2871111 91.8518083,37.2871111 C92.1796147,37.2871111 92.3994903,37.1142222 92.5863622,36.8675555 C92.6398817,36.7968889 92.6934011,36.7262222 92.7473665,36.6551111 C92.9641202,36.3693333 92.8557433,35.9088889 92.6202579,35.6742222 C92.3847724,35.4395555 91.9227215,35.3315555 91.6355006,35.5475555" id="Fill-17" fill="#9BCCE4"></path>
      <path d="M46.4976699,24.7191111 C44.7801426,25.8088889 43.6852246,27.88 42.7972482,29.6422222 C41.9949029,31.2355555 40.6430917,33.9026667 41.4659527,35.6755555 C41.7687834,36.3284445 42.7138471,36.0795555 42.8998271,35.4888889 C43.1183647,34.7955555 43.0554794,34.0311111 43.2004278,33.3128889 C43.3823938,32.4128889 43.7079703,31.5417778 44.0433586,30.6897778 C44.7828185,28.8111111 45.852761,27.0764445 47.0939654,25.4888889 C47.4124059,25.0817778 47.0087804,24.3946667 46.4976699,24.7191111" id="Fill-18" fill="#9BCCE4"></path>
      <path d="M45.8309072,31.892 C45.568662,32.3866667 45.2685073,32.8626667 44.9509587,33.3235555 C44.5865807,33.8533333 44.1414776,34.2497778 43.9233859,34.8631111 C43.7204582,35.4342222 44.4233465,35.8831111 44.9018992,35.6128889 C45.479017,35.2871111 45.7341262,34.7484445 46.024915,34.1751111 C46.3335437,33.568 46.575719,32.9346667 46.7425213,32.2751111 C46.8785497,31.7391111 46.1011802,31.3813333 45.8309072,31.892" id="Fill-19" fill="#9BCCE4"></path>
      <path d="M92.5787803,157.989333 C93.6705764,160.208445 94.2691019,162.525333 95.1111408,164.828889 C95.3408283,165.457778 96.2194387,165.345778 96.2689442,164.672445 C96.4406523,162.324445 95.5754217,159.887555 94.7757524,157.714222 C94.3342172,156.513333 93.7914412,155.343555 93.2375151,154.191111 C92.7442446,153.164445 92.3602427,152.093778 91.3112621,151.548 C90.682855,151.220889 89.8929976,151.622222 89.8898756,152.360889 C89.8854156,153.377333 90.3902821,154.028889 90.9085285,154.881778 C91.5190958,155.887111 92.0596419,156.934667 92.5787803,157.989333" id="Fill-20" fill="#9BCCE4"></path>
      <path d="M58.0030067,190.528 C57.7354096,190.929333 58.3771966,191.431111 58.6773514,191.046667 C61.2172937,187.790222 62.7983465,184.115555 63.9075364,180.162222 C64.9186074,176.557333 65.6406736,172.612 65.8882009,168.809778 C66.1161044,168.532 66.3266141,168.242222 66.5067961,167.932445 C66.8024909,167.423111 66.4046632,166.917333 65.9381523,166.865778 C65.8886469,166.694667 65.780716,166.556 65.6393355,166.458667 C66.2891505,165.212889 66.612497,163.749778 66.7632433,162.268445 C67.1084436,162.281778 67.4772816,162.109778 67.5954703,161.738667 C68.2787349,159.591111 68.6078792,157.326667 69.2666141,155.161778 C69.5623088,154.190222 70.9631796,151.959111 70.1831341,151.085778 C69.9891262,150.868445 69.6559679,150.956445 69.5101275,151.172 C69.4343083,151.249333 69.3584891,151.326222 69.2826699,151.403111 C69.1087318,151.550667 69.186335,151.810667 69.3522451,151.92 C69.1136378,152.453778 68.5940534,153.294667 68.5008404,153.507111 C68.1462743,154.312445 67.8608374,155.150222 67.5722785,155.980445 C67.3251972,156.689778 67.0794539,157.412889 66.8560103,158.144445 C66.8386165,157.566667 66.8100728,156.952445 66.7605674,156.319555 C67.0553702,156.367111 67.3769326,156.241333 67.434466,155.900445 C67.6819933,154.419555 69.0855401,151.503111 67.8184679,150.191111 C67.6106341,149.976 67.2431341,150.140889 67.2404582,150.429778 C67.2279703,151.748 66.8065049,152.963111 66.5099181,154.217778 C66.2142233,152.452889 65.6736772,150.728889 64.6675121,149.468889 C63.9980734,148.629778 62.7220814,149.544 62.9602427,150.459111 C63.2505855,151.574222 63.7826578,152.626222 64.0908404,153.748445 C64.5073999,155.264889 64.7558192,156.808 64.8940777,158.373333 C65.138929,161.140889 64.8124606,163.735111 64.3727093,166.455111 C64.3553155,166.562222 64.3731553,166.659111 64.403483,166.749333 C64.3914412,166.788445 64.3793993,166.827555 64.3731553,166.871555 C64.3178519,167.270222 64.2683465,167.669333 64.219287,168.068445 C62.1008101,169.799555 59.7695935,171.021778 57.2051214,172.147555 C53.6202124,173.721333 50.0196936,175.518222 46.0191171,175.563111 C45.4241596,175.569778 45.4366475,176.433778 46.0191171,176.474222 C50.2270814,176.765333 53.9765625,175.061333 57.7804551,173.508 C59.7022482,172.723111 62.0499666,171.856 63.9378641,170.558222 C63.6497513,173.269778 63.3830461,175.976445 62.8028064,178.669333 C61.9001122,182.862222 60.3948786,186.944445 58.0030067,190.528" id="Fill-21" fill="#9BCCE4"></path>
      <path d="M83.5638805,187.954667 C83.3600607,188.584 84.3082464,188.815111 84.5397179,188.222667 C86.0329096,184.395555 88.1839442,180.909333 90.4393417,177.490222 C92.4958252,174.373778 95.0281857,171.245333 96.469642,167.786667 C96.84071,166.895555 95.4509891,166.417778 94.9719903,167.157333 C92.8432554,170.443555 90.9531281,173.936 88.8694387,177.264 C86.7482858,180.651555 84.7988411,184.142222 83.5638805,187.954667" id="Fill-22" fill="#9BCCE4"></path>
      <path d="M78.2913258,170.144889 C74.3790564,172.890667 70.3838319,175.669333 67.2261863,179.288 C66.8082888,179.767111 67.4732676,180.450667 67.9317506,179.991111 C71.294108,176.620445 75.1805097,173.868889 78.7440109,170.729333 C79.0602215,170.451111 78.639202,169.900889 78.2913258,170.144889" id="Fill-23" fill="#9BCCE4"></path>
      <path d="M68.633301,181.68 C68.2390413,182.411555 69.1943629,183.189333 69.8000243,182.576889 C70.9694236,181.395555 71.9903064,180.110667 73.223929,178.978667 C74.5993781,177.715555 76.1037197,176.594222 77.6067233,175.488445 C80.3451335,173.473333 83.0139684,171.070667 85.9642263,169.387111 C86.457943,169.105333 86.0248817,168.438667 85.530719,168.648445 C82.2423969,170.044445 79.3171147,172.532445 76.3994145,174.569778 C73.6783981,176.469778 70.2428975,178.693778 68.633301,181.68" id="Fill-24" fill="#9BCCE4"></path>
      <path d="M66.4430188,189.370667 C74.6462075,182.888445 81.0631856,174.512889 89.8608859,168.699111 C90.3639684,168.366667 89.9197573,167.590222 89.385455,167.888445 C80.2403247,172.994222 72.8662409,181.130222 65.323571,188.255111 C64.5649332,188.971555 65.6643113,189.985778 66.4430188,189.370667" id="Fill-25" fill="#9BCCE4"></path>
      <path d="M89.755185,171.563111 C82.9756128,177.272889 76.5140351,183.278222 70.465003,189.757333 C69.8374879,190.429333 70.8097573,191.404 71.476074,190.764889 C77.8506826,184.649333 84.0107676,178.302667 90.4607494,172.266222 C90.9357342,171.821778 90.2395358,171.155111 89.755185,171.563111" id="Fill-26" fill="#9BCCE4"></path>
      <path d="M71.5875728,170.598222 C70.2451275,171.775555 68.724284,172.755111 67.1900607,173.665333 C66.3257221,174.178667 67.0821299,175.415111 67.9678762,174.992 C69.735801,174.147111 71.3186378,173.091111 72.7761499,171.782667 C73.5847391,171.056445 72.396162,169.888889 71.5875728,170.598222" id="Fill-27" fill="#9BCCE4"></path>
      <path d="M113.380886,177.677778 C112.531712,178.928889 111.321726,179.896 110.535883,181.193778 C110.02165,182.042222 111.262855,182.691111 111.830607,181.948 C112.339487,181.280889 112.908577,180.654667 113.426823,179.993333 C113.886645,179.406222 114.412027,178.730222 114.388389,177.949778 C114.371441,177.396 113.679703,177.237778 113.380886,177.677778" id="Fill-28" fill="#9BCCE4"></path>
      <path d="M121.398986,180.405333 C121.708507,180.009333 121.178219,179.443111 120.831235,179.839555 C118.937985,182.001333 116.480552,183.534667 114.419609,185.52 C113.896902,186.023555 114.684976,186.802222 115.213926,186.311555 C117.306089,184.371555 119.630616,182.666667 121.398986,180.405333" id="Fill-29" fill="#9BCCE4"></path>
      <path d="M124.538347,181.360889 C124.879979,180.988445 124.370652,180.5 123.990218,180.815111 C121.246456,183.089333 118.404575,185.175555 116.080941,187.9 C115.577858,188.489333 116.386001,189.328445 116.943941,188.76 C119.422336,186.236445 122.145137,183.971555 124.538347,181.360889" id="Fill-30" fill="#9BCCE4"></path>
      <path d="M130.714042,181.238667 C127.87662,183.893333 125.014669,186.488889 122.369472,189.338667 C121.82402,189.925778 122.676317,190.783555 123.252096,190.218222 C126.023064,187.497778 128.778422,184.787555 131.380358,181.902667 C131.785321,181.453778 131.159145,180.822667 130.714042,181.238667" id="Fill-31" fill="#9BCCE4"></path>
      <path d="M135.964742,181.401778 C132.79996,183.907111 129.309603,186.195111 126.636308,189.245333 C125.997196,189.974222 126.985968,190.979111 127.70625,190.311555 C130.682821,187.553333 133.749484,184.912445 136.788495,182.222667 C137.360261,181.716445 136.538738,180.947111 135.964742,181.401778" id="Fill-32" fill="#9BCCE4"></path>
      <path d="M141.208753,180.798222 C140.394366,182.482667 138.889579,183.654667 137.566756,184.929333 C136.903562,185.568445 137.927567,186.589778 138.577828,185.936889 C140.0175,184.491555 141.495974,183.180889 142.260855,181.240445 C142.499463,180.634667 141.490176,180.216445 141.208753,180.798222" id="Fill-33" fill="#9BCCE4"></path>
      <path d="M114.803164,183.729778 C116.019839,182.759111 117.407776,182.047555 118.166414,180.621778 C118.483071,180.026667 117.667346,179.586667 117.280668,180.105778 C116.430601,181.247555 114.946329,181.891111 113.861222,182.791111 C113.195798,183.342667 114.143091,184.256889 114.803164,183.729778" id="Fill-34" fill="#9BCCE4"></path>
      <path d="M92.2549879,190.711111 C94.8818993,188.013778 97.3152485,185.437778 100.474232,183.346667 C100.835488,183.107111 100.608031,182.559555 100.180768,182.653333 C96.5111195,183.462667 93.7874272,187.240889 91.3522937,189.811555 C90.7881098,190.407111 91.6801001,191.301333 92.2549879,190.711111" id="Fill-35" fill="#9BCCE4"></path>
      <path d="M99.995234,185.668 C96.4232584,188.208 92.4623756,190.212889 89.6615261,193.678667 C89.1611195,194.297778 90.0053883,195.184889 90.5544083,194.568445 C93.435983,191.333333 97.435667,189.385778 100.684296,186.558222 C101.167754,186.136889 100.521953,185.293778 99.995234,185.668" id="Fill-36" fill="#9BCCE4"></path>
      <path d="M102.020944,189.821333 C100.358274,191.426222 98.8276184,193.140889 96.8915534,194.436445 C96.3808889,194.778222 96.8233161,195.542222 97.3741204,195.259111 C99.5108825,194.16 101.323407,192.488 102.903568,190.701333 C103.432518,190.103111 102.603859,189.258222 102.020944,189.821333" id="Fill-37" fill="#9BCCE4"></path>
      <path d="M103.920437,193.718222 C103.739809,193.846667 103.558735,193.975111 103.378107,194.103111 C103.15288,194.263111 102.961548,194.473778 102.762187,194.664 C102.199787,195.201333 103.076615,196.075111 103.615822,195.514222 C103.773258,195.350667 103.938277,195.190667 104.087239,195.018667 C104.262961,194.815555 104.408802,194.579111 104.5649,194.360445 C104.834727,193.982667 104.299533,193.449333 103.920437,193.718222" id="Fill-38" fill="#9BCCE4"></path>
      <path d="M19.7058495,171.127111 C14.1398301,173.286667 8.19471481,175.102667 3.79274272,179.322222 C3.36993932,179.728 3.99477851,180.330667 4.42917779,179.956889 C8.93685073,176.078667 14.8436104,174.608889 20.1438167,172.162667 C20.7262864,171.893778 20.305713,170.894222 19.7058495,171.127111" id="Fill-39" fill="#9BCCE4"></path>
      <path d="M27.2971329,172.348889 C21.8261104,174.956445 16.3194083,178.257333 11.5347724,181.968 C11.119551,182.289778 11.668571,182.996445 12.0971723,182.694222 C14.5983131,180.929333 17.2292384,179.362222 19.9029793,177.872445 C22.5602184,176.392 25.4056675,175.125333 27.9201881,173.411555 C28.5802609,172.961778 28.0156311,172.006667 27.2971329,172.348889" id="Fill-40" fill="#9BCCE4"></path>
      <path d="M33.2658859,171.589778 C29.4240837,173.144889 26.2593021,175.865778 22.8001638,178.081333 C22.3595206,178.363555 22.7564563,179.053333 23.2122633,178.784 C26.7173392,176.712445 29.9566019,174.278222 33.7199089,172.663111 C34.3309223,172.401333 33.8835892,171.339555 33.2658859,171.589778" id="Fill-41" fill="#9BCCE4"></path>
      <path d="M57.1243962,175.980445 C57.5757433,175.474667 56.9687439,174.551555 56.3595146,174.992445 C53.3709011,177.155111 50.4117233,179.236889 47.2554156,181.157333 C44.2346905,182.996 41.2871086,184.887111 38.6954308,187.308445 C38.2913592,187.685778 38.8796268,188.240445 39.2926183,187.903555 C42.1072937,185.607111 45.3113228,183.852889 48.4667384,182.073778 C51.4941535,180.366667 54.7851517,178.603111 57.1243962,175.980445" id="Fill-42" fill="#9BCCE4"></path>
      <path d="M54.4916869,181.081778 C51.4941535,183.668 48.6594083,186.412889 45.475895,188.782222 C44.8742476,189.230222 45.4308495,190.246222 46.0779884,189.808889 C49.429642,187.544 52.7014624,185.011555 55.4728762,182.06 C56.0901335,181.402222 55.1638016,180.501778 54.4916869,181.081778" id="Fill-43" fill="#9BCCE4"></path>
      <path d="M83.0982616,65.7462222 C83.3390989,65.0746667 83.7645783,63.604 83.4670995,62.6737778 C83.4621936,62.2124445 83.4349879,61.7497778 83.3796845,61.2875555 C83.2079763,59.8497778 81.1809283,59.7884445 81.0890534,61.2875555 C81.0105583,62.5626667 80.7732888,63.8177778 80.6716019,65.0906667 C80.6733859,65.0902222 80.6747239,65.0897778 80.6765079,65.0893333 C80.1814533,66.6297778 82.5612834,67.244 83.0982616,65.7462222" id="Fill-44" fill="#6BBEDF"></path>
      <path d="M41.7790413,58.7182222 C41.7973271,58.6746667 41.8165049,58.628 41.8347907,58.5835555 C42.2923817,58.4346667 42.6692476,58.0484445 42.6924393,57.4217778 C42.7084951,56.8715555 42.7887743,56.2817778 42.6674636,55.7391111 C42.6652336,55.7395555 42.6630037,55.74 42.6607737,55.7408889 C42.5813865,55.0591111 42.079196,54.6773333 41.5462318,54.608 C41.4240291,54.5626667 41.2902306,54.5568889 41.165798,54.6084445 C40.704193,54.6795555 40.2987834,55.0004445 40.2140443,55.5737778 C40.1948665,55.6275555 40.1725668,55.6786667 40.1591869,55.7391111 C40.1235073,55.8977778 40.1092354,56.0635555 40.1025455,56.2306667 C40.0427821,56.4377778 39.970085,56.6564445 39.9290534,56.8213333 C39.8139867,57.2817778 39.7042718,57.7373333 39.6556583,58.2071111 C39.4924242,58.7417778 39.9330674,59.3408889 40.4357039,59.4782222 C41.0645571,59.6511111 41.5502457,59.2653333 41.7790413,58.7182222" id="Fill-45" fill="#6BBEDF"></path>
      <path d="M74.8460134,75.3426667 C75.6470207,74.4506667 74.8910588,72.7648889 73.596781,73.2044445 C73.0522209,73.3893333 72.5442324,73.6533333 72.0496238,73.9453333 C70.7754156,73.7786667 69.3143355,73.6475555 68.5726456,72.5622222 C68.1021208,70.428 66.2271572,68.2151111 65.0354582,66.8288889 C62.7684649,64.192 59.8681583,61.984 56.6494115,60.648 C53.8726456,59.4955555 50.5901214,59.7475555 48.6326486,62.2177778 C46.7973786,64.5333333 46.6470783,67.7964445 46.2666445,70.6577778 C45.8955765,70.3071111 45.4513653,70.036 44.8916414,69.8933333 C44.3305795,69.7497778 43.8511348,70.4755555 44.3082797,70.8915555 C45.2466535,71.7466667 45.57223,73.1528889 45.8268932,74.3515555 C45.9820995,75.0831111 46.3264078,75.832 46.7487651,76.5191111 C46.6997057,76.58 46.6617961,76.6537778 46.6564442,76.7533333 C46.4205127,81.2257778 50.6110831,86.2484445 55.1223241,86.6213333 C60.9893902,87.1062222 65.3400728,82.4982222 70.1104369,79.8977778 C70.7352761,79.5573333 70.659011,78.732 70.2370995,78.3226667 C70.3503823,78.2635555 70.465003,78.2062222 70.5778398,78.1462222 C72.0166202,77.3791111 73.7493113,76.5648889 74.8460134,75.3426667 L74.8460134,75.3426667 L74.8460134,75.3426667 Z M68.5601578,74.4533333 C68.5806736,74.3822222 68.5887015,74.3088889 68.6043113,74.2368889 C69.0855401,74.6004445 69.6697937,74.8502222 70.282145,75.0462222 C70.2531553,75.0635555 70.2246117,75.0813333 70.1956219,75.0986667 C68.7274059,75.9657778 67.1971966,76.7404445 65.6201578,77.3906667 C62.479014,78.6857778 59.0359315,79.3822222 55.6432464,78.9084445 C54.7775698,78.7875555 53.9761165,78.5888889 53.2295207,78.3115555 C53.2415625,78.2844445 53.2602943,78.2635555 53.2683222,78.2328889 C53.9471268,75.6991111 59.1014927,70.9653333 61.8055613,73.0035555 C62.0771723,73.2084445 62.3715291,73.2195555 62.6297603,73.116 C62.8175243,73.2666667 63.0097482,73.412 63.1903762,73.572 C63.7987136,74.112 64.2406948,74.8151111 65.0412561,75.0764445 C65.4493417,75.2102222 65.8922149,75.0102222 66.1339442,74.6751111 C66.1473241,74.7044445 66.1584739,74.7351111 66.1727457,74.7644445 C66.6771663,75.824 68.269815,75.4648889 68.5601578,74.4533333 L68.5601578,74.4533333 L68.5601578,74.4533333 Z M48.6562864,74.6524445 C48.2945844,74.1213333 48.0046875,73.5031111 47.7067627,72.8884445 C48.1826396,71.42 48.8048028,70.2635555 50.4906645,69.6715555 C52.1805401,69.0791111 54.028298,69.304 55.7262015,69.7235555 C56.682415,69.9595555 57.6136529,70.2848889 58.5150091,70.6782222 C55.5415595,72.0062222 52.4566111,75.5715555 52.1341566,77.8275555 C50.7703034,77.1133333 49.6218659,76.0706667 48.6562864,74.6524445 L48.6562864,74.6524445 L48.6562864,74.6524445 Z M49.6918872,64.4271111 C51.1623331,61.836 54.0670995,62.1306667 56.3889503,63.252 C58.8784951,64.4542222 60.9942961,66.3911111 62.7970085,68.4502222 C63.6974727,69.4791111 64.4659223,70.6186667 65.1063714,71.824 C65.1540928,71.9137778 65.1951244,72.0053333 65.2366019,72.0973333 C64.2866323,71.1533333 62.9254551,70.3862222 62.0588865,69.8715555 C59.906514,68.5946667 57.4727184,67.6937778 54.9934315,67.3364445 C52.916432,67.0368889 50.5682676,67.0911111 48.8471723,68.4297778 C48.512676,68.6897778 48.2232251,68.9937778 47.96098,69.3186667 C48.4087591,67.6422222 48.8204126,65.9617778 49.6918872,64.4271111 L49.6918872,64.4271111 L49.6918872,64.4271111 Z M47.5479884,77.6395555 C47.5979399,77.7004445 47.6469994,77.7635555 47.6969509,77.8217778 C49.6963471,80.1497778 52.5413501,81.2111111 55.5214897,81.6502222 C58.5051972,82.0897778 61.5125425,81.6737778 64.3758314,80.8035555 C62.2702883,82.1288889 60.184815,83.4804445 57.7643993,84.1435555 C53.4088107,85.3364445 48.3146542,82.0742222 47.5479884,77.6395555 L47.5479884,77.6395555 L47.5479884,77.6395555 Z" id="Fill-46" fill="#6BBEDF"></path>
      <path d="M118.108881,170.227555 C114.028025,169.232 109.846375,168.558222 105.79763,167.462222 C102.670313,166.615555 101.564245,164.664445 100.658875,161.707111 C99.7958738,158.887555 99.4346175,155.908 98.308034,153.170667 C98.2308767,152.983111 98.1202699,152.835111 97.9909311,152.717333 C105.329336,151.698667 112.409954,149.078667 117.112527,143.452889 C117.233392,143.415555 117.34935,143.356445 117.454606,143.269333 C121.470792,139.939111 125.029833,135.856 128.198183,131.728 C130.380883,128.884889 133.175488,125.660889 134.016189,122.098222 C134.819873,118.693333 131.550283,117.505778 129.016583,116.368445 C125.367006,114.730222 122.261095,112.637778 119.423228,109.783555 C117.520167,107.869778 115.876229,105.770667 114.450828,103.541778 C118.128504,103.410222 121.717873,102.289333 124.707824,99.9248893 C127.635783,97.6097777 131.319703,93.8435555 131.832151,90.0004445 C132.052473,88.3506667 131.255033,86.8222222 129.511192,86.6502222 C126.890971,86.392 124.453608,86.3457778 121.876648,85.6057778 C118.757357,84.7102222 115.820925,83.1004445 112.985288,81.5493333 C110.717403,80.3084445 108.552543,78.8648889 106.872479,76.9324445 C106.706569,73.872 106.620491,70.8053333 106.372964,67.7506667 C106.015276,63.3346667 105.451538,58.8448889 104.627785,54.488 C104.178668,52.112 103.585941,49.4995555 102.119062,47.5084445 C102.335817,47.2786667 102.476305,46.9666667 102.484779,46.5866667 C102.518674,45.12 102.777797,43.3191111 104.380704,42.7946667 C106.141492,42.2186667 108.556556,43.6231111 110.076062,44.3422222 C114.083328,46.2377778 118.206108,47.4706667 122.486322,48.6284445 C123.724405,48.9635555 124.565998,47.66 124.048644,46.6035555 C123.704336,45.9004445 123.157099,45.5742222 122.414963,45.38 C122.094293,45.296 121.813317,45.316 121.578722,45.4066667 C120.767457,45.1511111 119.948611,44.9191111 119.12798,44.6937778 C119.548552,43.5168889 119.218962,42.0351111 119.00979,40.8768889 C118.661915,38.9515555 117.981772,37.0808889 117.279329,35.2604445 C115.93733,31.7817778 114.266632,28.4324445 112.490234,25.1564445 C110.713835,21.8795555 109.049827,18.5724445 106.815391,15.5693333 C105.241028,13.4533333 102.996781,10.7502222 100.310552,9.79155553 C99.1902126,8.30133333 97.5578699,7.23377778 95.9143781,6.25955555 C93.0399393,4.55644445 89.7516171,3.47511111 86.5667657,2.50666667 C77.7993932,-0.159111111 68.7938592,-0.282222222 59.9105279,1.94444445 C51.7095691,4.00044445 44.5852427,8.28844445 38.3475546,13.9124445 C32.4550667,19.2248889 27.285537,25.872 24.5912803,33.3804445 C24.2260103,34.3977778 25.3209283,35.2484445 26.2512743,35.0346667 C31.152315,33.908 35.088222,30.344 39.8180006,28.8728889 C38.8158495,32.0502222 37.6022967,36.0222222 40.1591869,38.3497778 C42.3909466,40.3817778 46.7782009,37.5448889 48.9158555,36.6066667 C51.9798422,35.2626667 54.8823786,33.1231111 58.1956766,32.4364445 C61.3658101,31.7791111 64.0605127,35.0431111 65.3869023,37.48 C66.7561074,39.996 67.9018689,43.1862222 70.3593021,44.868 C72.9291262,46.6262222 75.5596055,43.3102222 76.722315,41.4644445 C77.5179703,40.2013333 78.1655552,38.816 79.1391626,37.6737778 C80.4106948,36.1817778 82.4136589,37.072 83.886781,37.8022222 C87.9056432,39.7937778 91.6127549,42.6635555 95.4193234,45.0235555 C97.0324879,46.0235555 98.6844534,46.9551111 100.393507,47.7822222 C100.680728,47.9213333 100.984005,47.9662222 101.268104,47.9315555 C103.180084,51.2484445 103.108725,55.3191111 103.317006,59.0431111 C103.608686,64.252 103.858444,69.4386667 103.983768,74.6564445 C104.196953,83.5693333 105.398018,92.3631111 109.228225,100.442222 C108.859833,100.404889 108.491441,100.365333 108.122603,100.323111 C106.703892,100.161333 106.480449,102.393333 107.793013,102.749333 C108.763944,103.012 109.751378,103.208445 110.744162,103.344445 C112.898319,107.115555 115.668841,110.596889 118.862613,113.528445 C121.667921,116.103111 124.754654,117.821333 128.176775,119.388445 C128.878325,119.709778 129.570064,120.051111 130.246638,120.421778 C130.509776,120.565778 130.760424,120.727555 131.008844,120.895111 C131.007506,120.923111 131.007506,120.957333 131.010182,121.004445 C131.102503,122.632 129.47239,124.571555 128.630798,125.848445 C125.953935,129.909333 122.955064,133.695111 119.754603,137.356889 C119.513765,137.632445 119.274712,137.908889 119.035213,138.184889 C118.49199,137.879555 117.744949,137.925333 117.296278,138.612445 C112.848814,145.420889 105.283844,148.656445 97.4436951,149.699555 C89.0982342,150.809778 80.2496905,150.148445 72.027324,148.503555 C62.2225667,146.541333 53.2602943,142.4 46.0539048,135.420445 C38.9340383,128.524889 33.628034,119.833333 29.7121966,110.795555 C24.1292293,97.912 23.0347573,84.3008889 24.6126881,70.4706667 C25.3878277,63.6786667 26.5371572,56.8106667 29.1034132,50.44 C30.3486317,47.3493333 32.0487651,44.7071111 33.9246208,41.9702222 C35.6813956,39.4062222 37.4024909,36.9057778 38.3622724,33.9226667 C38.5759041,33.2591111 37.5327215,32.8084445 37.2254308,33.4453333 C35.1479854,37.7515555 31.4448878,41.1404445 28.8665898,45.1475555 C26.2222846,49.2564445 24.6898452,54.1684445 23.5695054,58.8804445 C22.8193417,62.0351111 22.2060983,65.2702222 21.7467233,68.5422222 C15.7677123,74.0448889 9.4443932,79.5351111 1.2581523,81.1911111 C0.487026699,81.3471111 0.217645631,82.1537778 0.324238471,82.8297778 C1.78710254,92.1013333 12.8790018,97.9004447 21.1923514,99.6937777 C21.9170934,99.8502223 22.4255279,99.4115553 22.5785043,98.8755553 C24.1715989,105.774667 26.7882524,112.420445 30.0805885,118.717778 C34.5565958,127.278667 40.5659345,135.374667 48.1848695,141.407111 C51.0156007,143.648 54.0853853,145.497778 57.3175121,147.015555 C56.5151669,147.074667 55.7569751,147.908 56.2993052,148.8 C57.8888319,151.411555 58.2246662,154.737778 58.4650577,157.718222 C58.6755674,160.323555 58.710355,162.960889 58.5404308,165.573778 C54.0827093,165.647111 49.7556645,163.858222 45.3305006,163.464 C42.0903458,163.175111 38.8555431,162.875555 35.6015625,162.786667 C29.4691292,162.619555 20.6910528,162.758222 16.9384496,168.541333 C16.6400788,169.001333 16.7988531,169.536 17.1172937,169.924445 C18.8031553,171.977333 21.2989442,172.575555 23.8451305,172.779555 C25.272315,172.893778 26.7151092,172.838222 28.1449696,172.830667 C29.9650758,172.820889 31.7673422,173.037778 33.5852184,173.084889 C35.8339259,173.142667 38.1129612,173.045333 40.3870904,172.892 C37.022949,173.620445 33.719463,174.575111 30.5546815,176.033333 C28.1364957,177.147111 25.7660316,178.400445 23.5614776,179.894222 C21.8867657,181.028445 19.7232433,182.582222 19.293304,184.698222 C18.8678247,186.792889 20.856963,188.470222 22.8015018,188.647555 C25.8619205,188.926667 29.1078732,187.446667 31.8641232,186.310222 C40.2225182,182.864445 48.7245237,179.800889 57.0682009,176.305778 C57.7550334,176.018222 58.4530157,175.752889 59.163932,175.54 C54.3222087,180.887555 49.703037,186.692 47.4891171,193.606222 C46.7835528,195.810667 46.6047087,198.736445 49.1419751,199.729778 C51.6234921,200.700889 54.7151305,198.050222 56.3791383,196.605778 C62.1650334,191.582222 66.3221541,184.185778 68.8001031,177.031555 C70.2286256,172.904889 70.1126669,169.043111 69.9967082,164.74 C69.8758434,160.260889 70.9801274,155.884889 70.6750667,151.394667 C76.529645,152.633333 82.5586074,153.168 88.4171996,153.257333 C88.5991656,155.840445 89.7997846,158.279111 90.9406402,160.580889 C91.68679,162.086222 92.4128701,163.591111 92.7852761,165.236889 C93.1509921,166.852889 92.6452336,168.060889 91.8335224,169.447111 C90.0816535,172.438222 87.8561378,175.196889 86.0039199,178.138667 C83.598222,181.96 81.213932,185.797333 79.2586893,189.872445 C78.3417233,191.784 76.7901062,195.176 78.6227002,197.066667 C80.302764,198.800445 82.8587621,197.708889 84.5914533,196.661778 C90.5499484,193.062667 93.7593295,186.391555 98.5528854,181.491111 C100.228489,186.534222 103.018635,191.783111 107.208759,194.964889 C108.730494,196.12 110.67548,196.903555 112.431362,197.617333 C114.108304,198.299111 115.835197,198.717778 117.011286,197.053333 C119.07,194.139555 115.688018,189.009778 114.259496,186.570222 C112.675768,183.864 110.733013,181.324445 109.1029,178.634667 C117.291371,178.932 125.065513,181.679111 132.906108,183.910222 C133.475197,184.072 134.219117,183.821333 134.489836,183.268 C138.56088,174.945778 123.338619,171.502667 118.108881,170.227555 L118.108881,170.227555 L118.108881,170.227555 Z M89.2498725,37.9231111 C86.3972876,36.0724445 82.8404763,33.3666667 79.2225637,34.4164445 C76.4944114,35.208 75.242057,38.9715555 73.8032767,41.0773333 C73.2627306,41.8688889 72.2440777,43.1568889 71.3141778,42.2733333 C70.1171268,41.1355555 69.3549211,39.4231111 68.5953914,37.9848889 C67.0937257,35.1395555 65.3556826,32.3675555 62.4888258,30.6964445 C59.9475455,29.2146667 57.1569539,29.8471111 54.6156735,30.9262222 C51.1882009,32.3826667 47.9150424,34.2044445 44.4902457,35.688 C43.7762075,35.9973333 43.0603853,36.2786667 42.2977336,36.4435555 C41.5997512,36.5946667 41.52527,35.6928889 41.4133252,35.2142222 C40.8237196,32.6893333 42.3646329,29.8448889 42.9729703,27.4453333 C43.2396753,26.3928889 42.3298452,25.7031111 41.3629278,25.8408889 C36.5113926,26.532 32.6629005,29.7986667 28.2270327,31.5853333 C30.9096936,25.716 35.1470934,20.5924445 39.8367324,16.2031111 C45.4326335,10.9653333 51.9343507,7.03111111 59.3137864,4.896 C67.7274849,2.46177778 76.3521389,2.42666667 84.8122209,4.612 C87.647858,5.34444445 90.4638714,6.22577778 93.1523301,7.39022222 C94.9184709,8.15511111 96.8621177,9.02444445 98.4422786,10.2631111 C98.4601184,10.2844445 98.486432,10.2995555 98.5091777,10.3173333 C99.2035922,10.8702222 99.8266476,11.4946667 100.329283,12.216 C100.591529,12.5924445 101.169984,12.5204445 101.349275,12.188 C105.621909,15.7586667 107.706936,21.6142222 110.210752,26.4844445 C111.732934,29.4453333 113.169038,32.4546667 114.390173,35.5528889 C115.068085,37.2728889 115.651893,39.0311111 116.076035,40.8306667 C116.314196,41.84 116.266028,42.8875555 116.361917,43.904 C115.792382,43.7293333 115.225521,43.5457778 114.666244,43.3391111 C112.248058,42.4435555 110.053317,41.0635555 107.581165,40.2853333 C103.618498,39.0382222 100.798471,41.084 99.9626757,44.4808889 C96.2582403,42.556 92.7313107,40.1826667 89.2498725,37.9231111 L89.2498725,37.9231111 L89.2498725,37.9231111 Z M107.520064,84.0133333 C107.279226,82.3653333 107.124466,80.7111111 107.006278,79.0533333 C109.406177,81.5906667 112.742667,83.3128889 115.772758,84.9213333 C118.345258,86.2871111 120.928908,87.3071111 123.741353,88.0737778 C124.845191,88.3746667 125.953043,88.6373333 127.090331,88.7635555 C127.57825,88.8182222 128.06706,88.8648889 128.553641,88.932 C128.901517,88.9795555 129.189183,89.1502222 129.254745,89.1346667 C129.653018,90.3022222 127.965819,92.3871111 127.429287,93.1315555 C126.429366,94.5191111 125.217597,95.7955555 123.967918,96.9622222 C120.716614,99.997333 116.833781,100.738222 112.772994,100.668445 C110.042613,95.5195555 108.367454,89.8088889 107.520064,84.0133333 L107.520064,84.0133333 L107.520064,84.0133333 Z M21.8078247,97.469333 C14.9261195,95.3084445 5.36264563,91.0448889 3.20179916,83.4466667 C10.7672149,81.3333333 16.2980006,75.8151111 21.5281857,70.2084445 C20.7120146,76.8013333 20.5296025,83.5137778 21.132588,89.9986667 C21.3769933,92.6293333 21.7868629,95.2293333 22.3372209,97.7964447 C22.2074363,97.657333 22.0357282,97.5408893 21.8078247,97.469333 L21.8078247,97.469333 L21.8078247,97.469333 Z M68.0606432,162.573778 C67.4812955,166.207111 68.1565321,169.954667 67.25027,173.529778 C65.6406735,179.880889 62.2560164,186.033778 58.1278853,191.098667 C56.2747754,193.372445 54.0938592,195.658222 51.4326062,196.976 C48.5028641,198.427111 49.7262287,194.678667 50.2435831,193.184889 C52.6983404,186.094222 57.975355,180.196889 62.9504308,174.743555 C63.6006917,174.031111 63.1707524,172.828889 62.1534375,172.825778 C57.7982949,172.813778 53.4989017,175.453333 49.5554126,177.020889 C45.0825273,178.799111 40.4869933,180.276 36.0257039,182.071555 C34.0379035,182.871111 22.6525394,188.952 21.5629733,185.390222 C21.1535497,184.052445 24.4806735,182.084 25.2937227,181.547111 C27.4019417,180.154667 29.680085,179.004445 31.9733919,177.949333 C39.5339017,174.471111 48.1121723,174.080889 56.1913744,172.587111 C57.1618598,172.408 57.423213,170.803555 56.4781492,170.400445 C53.9248271,169.311111 51.1025698,169.559555 48.3998392,169.810667 C44.8675577,170.138667 41.3259102,170.352889 37.7860467,170.596889 C34.2408313,170.840889 30.7428914,170.487555 27.2021359,170.544445 C24.5832524,170.586667 21.5125758,170.747555 19.4346845,169.007111 C21.1593477,166.982222 23.9209496,166.150667 26.4698118,165.641778 C29.8754308,164.962222 33.4317961,164.990222 36.8873665,165.123555 C39.8023908,165.235555 42.7049272,165.528 45.6092476,165.788889 C50.3220783,166.211555 54.8288592,168.236445 59.624645,167.851111 C60.3079096,167.796 60.728929,167.359111 60.7935983,166.686222 C61.1102549,163.388889 61.0834951,160.051111 60.7895844,156.753333 C60.5126214,153.651555 60.0322846,150.292889 58.3883465,147.583111 C58.3606948,147.537778 58.3281371,147.502667 58.2978094,147.462667 C62.014733,149.115555 65.9319083,150.346222 69.9391748,151.237333 C69.918213,155.071555 68.6618447,158.804889 68.0606432,162.573778 L68.0606432,162.573778 L68.0606432,162.573778 Z M114.767039,195.027555 C114.771052,195.284889 114.705938,195.419555 114.668919,195.487111 C114.044526,195.401778 113.319784,195.031111 112.80689,194.813778 C111.362758,194.202667 109.887406,193.496889 108.585992,192.617333 C106.518805,191.22 104.989487,188.686667 103.75185,186.592 C102.301028,184.135555 101.208786,181.482222 100.449256,178.737333 C100.173185,177.739111 98.9899602,177.532445 98.2603126,178.161778 C93.0876608,182.620889 89.9590049,188.907555 84.7225758,193.304445 C83.7471845,194.123555 82.4020631,195.141333 81.0881614,195.310667 C80.2175788,195.422667 80.4851759,194.480889 80.6118385,193.848445 C81.307145,190.373778 83.8203277,186.898222 85.6319599,183.909778 C87.470798,180.876445 89.3123118,177.785778 91.3616596,174.888889 C92.9400364,172.657778 94.8774393,170.416 95.5040625,167.691555 C96.0856402,165.164445 94.4475,162.496889 93.1804278,160.449778 C91.7603792,158.156445 90.0263501,155.917333 89.4907099,153.265778 C91.6448665,153.268 93.8489745,153.175111 96.0472846,152.952 C95.9250819,153.178667 95.8974302,153.463555 96.0325667,153.796 C97.8780942,158.333333 97.5355699,164.753333 101.544175,168.162667 C103.612254,169.921778 106.715043,170.408889 109.288434,170.932889 C110.977418,171.276445 112.63875,171.713778 114.315246,172.111555 C118.29932,173.057333 122.291423,174.059555 126.102451,175.574222 C128.047883,176.347111 132.499806,178.184445 132.345046,180.838667 C124.029912,178.436889 115.611308,175.876445 106.872924,176.033778 C105.857394,176.052 105.311942,177.104 105.757491,177.971111 C107.11287,180.609778 109.002997,183.014222 110.573347,185.528445 C112.252964,188.217333 114.712627,191.731555 114.767039,195.027555 L114.767039,195.027555 L114.767039,195.027555 Z" id="Fill-47" fill="#279DD3"></path>
    </g>
  </g>
</svg>