<?xml version="1.0" encoding="UTF-8" standalone="no"?>
<svg viewBox="0 0 350 200" version="1.1" xmlns="http://www.w3.org/2000/svg" xmlns:xlink="http://www.w3.org/1999/xlink">
  <title>We third</title>
  <g stroke="none" stroke-width="1" fill="none" fill-rule="evenodd">
    <g transform="translate(3.000000, 6.000000)">
      <g id="bird" transform="translate(0.156250, 14.814750)">
        <path d="M210.330268,109.402064 C211.384614,109.290498 211.41915,107.801601 210.330268,107.739395 C209.383591,107.685302 208.452488,107.591993 207.53222,107.472989 C207.433354,107.241744 207.216661,107.063915 206.859118,107.061886 C201.76548,107.036868 200.200551,101.418683 200.232378,97.1818861 C200.237795,96.451637 199.145528,96.4624555 199.104898,97.1818861 C198.997228,99.1075801 199.267417,101.521459 200.048189,103.637829 C195.488157,101.180676 194.177843,96.0290391 194.712126,90.9923488 C194.771039,90.4358719 193.823685,90.3080783 193.733622,90.8604982 C193.099118,94.7483986 193.580583,99.2948754 195.933055,102.377473 C190.53063,100.417295 188.522157,93.3954093 189.637449,88.1267972 C189.742409,87.6291459 189.020551,87.4249466 188.872252,87.9165125 C187.904583,91.1255516 188.199827,95.1486833 189.730898,98.3840925 C187.997354,96.6795018 186.589528,94.6604982 185.831102,92.3284342 C185.608315,91.6421352 184.54178,91.926121 184.744252,92.6279715 C185.81011,96.3251957 188.234362,99.323274 191.420425,101.43153 C191.587008,101.541744 191.747496,101.56 191.885638,101.519431 C193.207465,102.855516 194.892929,103.786584 196.941354,104.050285 C197.137732,104.075302 197.292126,104.007687 197.403858,103.893416 C198.104724,104.462064 198.91326,104.930641 199.835559,105.278185 C197.967937,104.774448 196.163291,104.1179 194.412819,103.33153 C191.96622,102.077936 189.601559,100.59242 187.302583,98.8972954 C184.088756,96.5280427 180.983276,93.9633808 178.072142,91.2323843 C177.358409,90.5629893 176.683953,89.8712811 176.035906,89.1633452 C176.017622,89.1241281 175.99663,89.0876157 175.979024,89.0483986 C175.930268,88.9408897 175.848331,88.8793594 175.754205,88.8550178 C173.688173,86.5513523 171.919417,84.054306 170.238693,81.3956584 C170.021323,81.0521708 169.391559,81.2746263 169.553402,81.6837011 C171.029622,85.41 173.465386,88.6636655 176.3,91.5968327 C178.514331,95.2872954 182.273953,97.7938078 185.820945,100.201601 C187.051354,101.037331 188.309528,101.859537 189.597496,102.633737 C195.666252,106.771139 203.095433,110.164769 210.330268,109.402064" id="Fill-1" fill="#6BBEDF"></path>
        <path d="M205.756693,102.300391 C206.242898,104.627046 207.681197,106.973986 210.137953,107.533843 C211.044677,107.740747 211.42863,106.374235 210.522583,106.140961 C208.548646,105.632491 207.440126,103.838648 206.970173,101.96637 C206.771764,101.175943 205.592142,101.513345 205.756693,102.300391" id="Fill-2" fill="#6BBEDF"></path>
        <path d="M220.77148,96.9614591 C221.715449,96.0527046 222.667543,95.1263701 223.556661,94.15 C224.778268,94.7740925 226.029669,95.2879715 227.25263,95.6294306 C228.057102,95.8545907 228.420063,94.7903203 227.793008,94.34879 C226.857165,93.6902135 225.841417,93.1661922 224.816189,92.6570463 C224.855465,92.6056584 224.89948,92.5583274 224.937402,92.5069395 C225.320677,91.9964413 224.506047,91.4183274 224.07537,91.8429537 C223.976504,91.9403203 223.887795,92.047153 223.790961,92.1472242 C223.348772,91.9254448 222.908614,91.6996085 222.476583,91.459573 C221.760142,91.0606406 221.075528,90.6164057 220.407165,90.1505338 C220.574425,89.8327402 220.728142,89.5102135 220.854772,89.1788968 C221.124961,88.4729893 220.086189,88.1464057 219.704945,88.6947687 C219.561386,88.9016726 219.420535,89.110605 219.280362,89.3188612 C218.760976,88.9070819 218.263937,88.4675801 217.78315,88.0084698 C217.971402,87.793452 218.148142,87.5723488 218.293055,87.3370463 C218.618094,86.8109964 217.981559,86.2092171 217.462173,86.5074021 C217.222457,86.6453381 216.988157,86.7988256 216.75589,86.9590747 C216.604205,86.7677224 216.459969,86.5493238 216.319118,86.3113167 C216.565606,86.0591103 216.802614,85.8021708 217.015244,85.5357651 C217.559008,84.8548754 216.768079,84.0448399 216.081433,84.5438434 C216.087528,84.3666904 216.019811,84.1881851 215.822079,84.0691815 C215.264094,83.7351601 214.73252,83.3592171 214.188756,83.0042349 C213.975449,82.8209964 213.743858,82.6749466 213.488567,82.5762278 C213.355843,82.4998221 213.224472,82.4186833 213.087008,82.3490391 C212.982724,82.2956228 212.882504,82.2868327 212.787024,82.2942705 C212.784992,82.2415302 212.786346,82.18879 212.770772,82.1333452 C212.669197,81.7641637 212.250031,81.4997865 211.872173,81.6235231 C211.093433,81.8791103 210.479921,82.5863701 210.035024,83.2483274 C209.635496,83.842669 210.544252,84.5337011 211.023008,84.0090036 C211.205843,83.8095374 211.400189,83.6181851 211.618913,83.4586121 C211.825449,83.3064769 212.052299,83.1901779 212.269669,83.0576512 C212.287953,83.0819929 212.313008,83.1016014 212.338063,83.12121 C212.369213,83.1678648 212.417291,83.2070819 212.470787,83.2449466 C210.882157,84.5614235 209.905685,86.394484 208.71726,88.0510676 C208.42811,88.4533808 209.067354,88.9314235 209.397134,88.575089 C210.790063,87.0672598 211.976457,85.3944484 213.502787,84.0090036 C213.532583,83.9819573 213.543417,83.9522064 213.566441,83.9238078 C213.613165,83.954911 213.65989,83.9853381 213.706614,84.0171174 C214.074992,84.5120641 214.380394,85.1517082 214.627559,85.7054804 C213.53326,86.5811032 212.432189,87.4235943 211.201102,88.1551957 C209.590126,89.1112811 207.865386,89.8597865 206.203622,90.7198577 C205.867071,90.8936299 206.112205,91.3628826 206.447402,91.2972954 C209.356504,90.7320285 212.874378,89.2607117 215.367024,87.188968 C215.478079,87.3776157 215.593874,87.5635587 215.714409,87.7413879 C214.83274,88.4547331 213.982898,89.2377224 213.109354,89.8976512 C211.618236,91.0248043 210.140661,92.1228826 208.769402,93.3947331 C208.394252,93.7422776 208.891291,94.4022064 209.320614,94.1080783 C210.959354,92.9829537 212.613669,91.8814947 214.248346,90.7482562 C215.012866,90.2188256 215.912142,89.6562633 216.713906,89.0139146 C216.986126,89.3154804 217.269858,89.6129893 217.575937,89.9098221 C217.830551,90.1566192 218.103449,90.3993594 218.378378,90.6407473 C217.593543,91.7476157 216.730157,92.7760498 215.519386,93.5090036 C214.931606,93.8646619 215.444898,94.71121 216.051638,94.4184342 C217.383622,93.7733808 218.58085,92.7692883 219.502472,91.5697865 C220.443732,92.3000356 221.462189,92.9788968 222.519921,93.5847331 C221.74863,94.5239146 221.011197,95.4969039 220.220945,96.4117438 C219.895906,96.788363 220.406488,97.3137367 220.77148,96.9614591" id="Fill-3" fill="#6BBEDF"></path>
        <path d="M155.141969,88.3965836 C157.620394,87.8387544 159.382378,85.017153 160.639197,83.0380427 C161.55811,81.5917438 163.90178,77.7734875 162.198031,76.1682918 C161.751102,75.7470463 161.134205,76.0756584 161.074614,76.6328114 C160.83422,78.8945552 160.272173,80.6390391 159.122346,82.6499288 C158.164835,84.3254448 156.681165,86.8414235 154.841984,87.6859431 C154.423496,87.8779715 154.730252,88.4892171 155.141969,88.3965836" id="Fill-4" fill="#6BBEDF"></path>
        <path d="M146.862945,83.5059431 C151.172425,80.8750178 159.261165,78.7140214 160.199039,72.8639146 C160.342598,71.9653025 159.032961,71.5575801 158.803402,72.4798577 C157.451102,77.9148043 150.460047,79.7640925 146.353039,82.6343772 C145.826882,83.0015302 146.298866,83.8501068 146.862945,83.5059431" id="Fill-5" fill="#6BBEDF"></path>
        <path d="M152.383874,75.5922064 C151.996535,75.8173665 152.338504,76.389395 152.733291,76.1885765 C156.125213,74.4603203 157.745669,70.8902135 159.893638,67.9496085 C160.201071,67.5290391 159.52526,67.0239502 159.179906,67.3992171 C156.752268,70.0355516 155.60515,73.7192527 152.383874,75.5922064" id="Fill-6" fill="#6BBEDF"></path>
        <path d="M156.454315,67.6487189 C157.558772,66.6642349 158.527795,65.6560854 158.881953,64.177331 C159.079008,63.3537722 157.940016,63.0799288 157.640709,63.8358719 C157.202583,64.9440925 156.354772,65.8927402 155.605827,66.8014947 C155.118268,67.3924555 155.869244,68.1700356 156.454315,67.6487189" id="Fill-7" fill="#6BBEDF"></path>
        <path d="M156.176,64.2158719 C156.455669,64.3565125 156.743465,64.3132384 156.996047,64.1381139 C157.350205,63.8933452 157.230346,63.3328114 156.773937,63.3192883 C156.767165,63.3186121 156.76852,63.3192883 156.763102,63.3186121 C156.68726,63.0718149 156.368992,62.9399644 156.138079,63.0035231 C155.846898,63.0833096 155.711465,63.3706762 155.769701,63.6512811 C155.817102,63.883879 155.959307,64.1070107 156.176,64.2158719" id="Fill-8" fill="#6BBEDF"></path>
        <path d="M183.511811,62.5153381 C185.693638,61.5862989 187.399417,59.5294306 188.548567,57.5307117 C189.045606,56.6659075 187.777276,55.6083986 187.127197,56.4353381 C185.791827,58.1338434 184.451039,59.7883986 182.574614,60.9148754 C180.481496,62.1711744 177.822945,61.5849466 175.639764,62.6302847 C175.233465,62.8250178 175.435937,63.4768327 175.865937,63.4626335 C178.470315,63.3801423 181.071984,63.5545907 183.511811,62.5153381" id="Fill-9" fill="#6BBEDF"></path>
        <path d="M54.9844724,120.499146 C52.9895433,123.445836 50.047937,125.250498 46.693937,126.335053 C45.0186299,126.876655 43.2607087,127.151174 41.5014331,127.15726 C39.9446299,127.162669 38.8672598,126.427011 37.4377638,126.133559 C36.971874,126.038221 36.6536063,126.477722 36.8506614,126.89694 C37.4736535,128.218149 39.5918268,128.648861 40.8838583,128.844947 C43.0148976,129.167473 45.1764094,128.870641 47.2532756,128.35879 C50.9912283,127.437189 55.6474173,125.218043 57.0498268,121.369359 C57.5116535,120.102242 55.6636693,119.49573 54.9844724,120.499146" id="Fill-10" fill="#6BBEDF"></path>
        <path d="M27.7752913,106.961139 C25.3666142,109.233701 20.5526457,111.275018 17.7803307,108.618399 C17.3767402,108.231637 16.696189,108.729288 16.9975276,109.220854 C19.5687244,113.417758 26.3336063,111.100569 28.8912598,108.074769 C29.5399843,107.307331 28.5249134,106.253879 27.7752913,106.961139" id="Fill-11" fill="#6BBEDF"></path>
        <path d="M14.5163937,83.9075801 C13.2494173,83.3916726 5.72949606,77.7173665 8.09348031,76.726121 C8.61151181,76.5090747 8.42867717,75.7795018 7.8591811,75.8788968 C2.88607874,76.7484342 11.6987087,85.1821352 14.0389921,85.6365125 C15.1962677,85.8609964 15.5748031,84.3382918 14.5163937,83.9075801" id="Fill-12" fill="#6BBEDF"></path>
        <path d="M23.0608661,95.0276512 C22.8536535,94.4319573 21.9726614,94.5252669 21.9530236,95.1770819 C21.905622,96.7444128 22.3247874,98.1934164 23.2145827,99.4902847 C23.8578898,100.427438 25.4018268,99.4929893 24.7273701,98.6072242 C23.9147717,97.539573 23.4962835,96.2812456 23.0608661,95.0276512" id="Fill-13" fill="#6BBEDF"></path>
        <path d="M85.5104094,116.132527 C82.8078425,115.620676 80.0693858,115.352242 77.3654646,114.858648 C74.7211339,114.375872 71.4368819,113.815338 70.1414646,111.174947 C69.9857165,110.857829 69.4243465,110.918683 69.3634016,111.27637 C68.8826142,114.076335 72.8406457,115.446228 74.8809449,116.100071 C78.2735433,117.186655 81.7731339,117.416548 85.2835591,117.808043 C86.2410709,117.914875 86.4509921,116.311032 85.5104094,116.132527" id="Fill-14" fill="#6BBEDF"></path>
        <path d="M110.473433,115.849217 C111.547417,115.521957 111.097102,113.983701 110.015669,114.189929 C107.995685,114.574662 105.681811,115.369146 103.625937,114.93032 C100.636929,114.292028 99.7010866,110.047794 99.6530079,107.518292 C99.6394646,106.788719 98.6101732,106.817794 98.5404252,107.518292 C98.2140315,110.810498 99.141748,114.571957 102.172063,116.360391 C104.722268,117.865516 107.923228,116.625445 110.473433,115.849217" id="Fill-15" fill="#6BBEDF"></path>
        <path d="M169.925843,124.78395 C167.825276,125.110534 165.786331,125.70758 163.685087,126.055125 C161.384079,126.435801 159.053276,126.632562 156.72789,126.797544 C152.151606,127.1221 147.542142,127.354698 142.957055,127.506833 C132.991213,127.838149 123.116787,125.420214 113.152976,126.112598 C112.794756,126.137616 112.787984,126.665694 113.152976,126.672456 C123.35989,126.869217 133.451685,129.024128 143.667402,128.8179 C148.234205,128.725943 152.82674,128.534591 157.386094,128.262776 C161.632598,128.009893 166.53189,127.801637 170.439134,125.998327 C171.179953,125.656192 170.609102,124.677794 169.925843,124.78395" id="Fill-16" fill="#6BBEDF"></path>
        <path d="M328.569433,134.501673 C324.064252,132.187189 319.357276,130.268256 314.57378,128.612349 C304.682425,125.18694 294.364457,123.115196 284.032268,121.549893 C272.578016,119.814199 261.144079,119.027153 249.559811,119.045409 C243.753118,119.054875 237.949134,119.220534 232.143795,119.328719 C227.092819,119.422705 222.047937,119.526833 217.050457,120.329431 C215.276961,120.614093 213.526488,121.074555 211.875559,121.776406 C211.534268,121.921779 211.800394,122.37548 212.108504,122.327473 C222.836835,120.67089 233.638976,120.889288 244.471591,120.808149 C256.519039,120.717544 268.467622,121.194235 280.404693,122.878541 C301.247843,125.820498 322.07948,130.989715 339.414236,143.434377 C339.781937,143.649395 340.147606,143.866441 340.511244,144.086868 C341.357024,144.59331 342.318598,143.387722 341.573039,142.712242 C337.831024,139.324021 333.039402,136.797224 328.569433,134.501673" id="Fill-17" fill="#6BBEDF"></path>
        <path d="M217.156094,161.20242 C214.888268,162.65548 212.554079,164.041601 210.099354,165.157936 C208.636,165.823274 207.054819,166.21274 205.44926,166.257367 C203.746866,166.305374 202.540835,165.464911 201.179732,164.598078 C200.68337,164.282313 200.046835,164.911139 200.368488,165.408114 C202.121669,168.114769 205.638189,168.38726 208.516142,167.787509 C212.091575,167.042384 215.199087,164.896263 218.047921,162.725125 C218.925528,162.056406 218.140016,160.571566 217.156094,161.20242" id="Fill-18" fill="#6BBEDF"></path>
        <path d="M236.768157,149.063381 C232.823669,149.855836 227.870882,150.962028 224.579858,147.978826 C223.977858,147.433843 223.232976,148.235765 223.710378,148.846335 C226.896441,152.918149 232.894772,151.912705 237.210346,150.665872 C238.250472,150.365658 237.812346,148.853096 236.768157,149.063381" id="Fill-19" fill="#6BBEDF"></path>
        <path d="M241.774441,154.704555 C241.853669,158.157687 241.144,161.336299 238.759701,163.944911 C237.892929,164.892883 236.780346,165.615694 235.715165,166.322954 C235.297354,166.600178 234.861937,166.849004 234.435323,167.112705 C234.26874,167.22427 234.091323,167.312847 233.903071,167.378434 C233.894268,167.381139 233.892913,167.382491 233.884787,167.385196 C233.696535,167.354769 233.496094,167.43726 233.44937,167.663772 C233.401291,167.895694 233.404,168.078256 233.534016,168.283808 C233.643039,168.455552 233.850929,168.609039 234.066945,168.588754 C236.50948,168.36089 239.264189,166.222206 240.846047,164.500036 C243.292646,161.835302 244.229843,157.965658 243.323795,154.494947 C243.099654,153.636228 241.753449,153.810676 241.774441,154.704555" id="Fill-20" fill="#6BBEDF"></path>
        <path d="M23.7339685,149.97484 C21.2508031,150.669929 20.7273543,153.66395 17.982126,153.680178 C16.7686457,153.687616 15.4860945,153.361708 14.3051181,153.109502 C13.3482835,152.904626 11.257874,152.593594 10.7865669,151.575302 C10.5766457,151.122278 9.99970079,151.415053 9.95229921,151.800463 C9.65434646,154.218399 15.0127559,155.048719 16.6074803,155.38274 C18.2082992,155.718114 19.878189,155.772206 21.2568976,154.785018 C22.4480315,153.93306 23.674378,152.5821 24.6007402,151.461708 C25.1397638,150.809217 24.6535591,149.7179 23.7339685,149.97484" id="Fill-21" fill="#6BBEDF"></path>
        <path d="M44.7762047,156.605231 C44.105811,159.122562 42.9424409,160.996192 40.3685354,161.833274 C38.0607559,162.584484 35.751622,162.069929 33.4221732,161.812313 C32.7869921,161.741993 32.5608189,162.718363 33.1011969,162.996263 C38.4196535,165.73605 46.4264567,163.573025 46.8246299,156.881779 C46.8957323,155.691068 45.0741575,155.486192 44.7762047,156.605231" id="Fill-22" fill="#6BBEDF"></path>
        <path d="M84.2908346,154.50847 C83.3617638,156.513274 81.6173858,158.437616 80.2562835,160.159786 C79.7396063,160.812954 76.2210551,165.377011 75.499874,163.769786 C75.147748,162.984093 73.9545827,163.554769 74.1509606,164.337082 C75.0055433,167.74153 78.6798425,164.826619 80.0531339,163.534484 C82.3527874,161.369431 85.0858268,158.330107 85.8787874,155.177189 C86.1110551,154.254235 84.7174488,153.588897 84.2908346,154.50847" id="Fill-23" fill="#6BBEDF"></path>
        <path d="M78.0094488,145.342491 C74.1137165,146.047722 69.7446457,147.162028 65.8306299,146.078149 C65.1209606,145.882064 64.6178268,146.974733 65.3180157,147.292527 C69.4568504,149.171566 74.2782677,148.227651 78.501748,147.127544 C79.6745984,146.821922 79.1674016,145.132883 78.0094488,145.342491" id="Fill-24" fill="#6BBEDF"></path>
        <path d="M112.956598,137.569395 C111.126898,139.323345 106.806583,144.17274 104.310551,141.270676 C103.677402,140.535018 102.366409,141.533701 102.957575,142.31331 C106.371843,146.819893 111.661858,141.668256 114.318378,138.929822 C115.183795,138.037295 113.852488,136.71 112.956598,137.569395" id="Fill-25" fill="#6BBEDF"></path>
        <path d="M204.136236,121.798719 C204.088157,121.397758 203.499024,121.246975 203.385937,121.696619 C202.710126,124.383665 200.946787,128.231673 202.293669,130.923452 C202.754819,131.845053 203.931732,131.135089 203.81526,130.283132 C203.587732,128.625872 203.593827,127.254626 203.850472,125.588577 C204.044142,124.329573 204.29063,123.074626 204.136236,121.798719" id="Fill-26" fill="#6BBEDF"></path>
        <path d="M198.99452,127.381744 C196.270961,126.237687 194.988409,123.05637 195.744126,120.275338 C195.900551,119.698577 195.011433,119.286797 194.753433,119.858149 C193.195276,123.318043 194.67285,127.997046 198.49748,129.18032 C199.68252,129.547473 200.066472,127.832064 198.99452,127.381744" id="Fill-27" fill="#6BBEDF"></path>
        <path d="M182.793339,125.782633 C179.983102,125.439822 176.019654,123.415409 176.24989,120.131317 C176.291197,119.543737 175.420362,119.472064 175.256488,119.997438 C173.955654,124.174733 179.272756,127.289786 182.793339,127.445302 C183.890346,127.493986 183.828047,125.909075 182.793339,125.782633" id="Fill-28" fill="#6BBEDF"></path>
        <path d="M189.470866,124.348505 C186.764236,124.081423 184.764567,122.395089 184.826189,119.576192 C184.840409,118.94669 183.918787,118.842562 183.747465,119.430142 C182.625402,123.278826 185.969921,125.898256 189.470866,126.28637 C190.709402,126.42363 190.708724,124.47089 189.470866,124.348505" id="Fill-29" fill="#6BBEDF"></path>
        <path d="M185.957732,53.649573 C185.604929,53.8618861 185.241291,54.0363345 184.870205,54.1790036 C185.682803,52.8686121 184.357591,50.7414235 183.35674,49.8881139 C182.313906,48.9982918 180.951449,48.6122064 179.596441,48.4817082 C179.528047,48.0158363 179.115654,47.5641637 178.512976,47.6764057 C176.641291,48.023274 174.781795,48.4533096 172.922299,48.8623843 C171.983071,49.0692883 171.045197,49.2849822 170.108,49.5020285 C169.640079,49.6102135 169.172157,49.7224555 168.705591,49.8380783 C168.578283,49.8691815 167.212441,50.3762989 167.04789,50.4506762 C166.991008,50.4358007 166.934126,50.4216014 166.877244,50.406726 C166.339575,50.26879 165.859465,50.9774021 166.311811,51.3770107 C166.402551,51.4567972 166.487197,51.5115658 166.575906,51.546726 C166.582677,51.7002135 166.653102,51.8482918 166.827811,51.9382206 C169.63737,53.3757295 172.522094,54.6191815 175.543606,55.515089 C174.315906,57.7862989 172.16252,58.7099288 169.973921,59.8911744 C169.909591,59.859395 169.839165,59.8370819 169.776189,59.803274 C169.347543,59.5720285 169.006252,60.0899644 169.284567,60.4395374 C169.308945,60.4699644 169.338063,60.4949822 169.363118,60.5247331 C169.37937,60.5531317 169.400362,60.5727402 169.426772,60.5930249 C171.360079,62.7601068 175.465732,62.3787544 177.997654,62.0176868 C180.755748,61.6241637 185.11737,60.1947687 185.586646,56.9323132 C185.636756,56.5881495 185.519606,56.3007829 185.326614,56.0979359 C185.88189,55.891032 186.412787,55.6212456 186.905087,55.2676157 C187.868016,54.5759075 187.013433,53.0126335 185.957732,53.649573 L185.957732,53.649573 L185.957732,53.649573 Z M171.21178,50.7887544 C173.793811,50.2782562 176.396157,49.8698577 178.977512,49.357331 C179.001213,49.3519217 179.020173,49.3431317 179.041843,49.3370463 C180.092803,49.7346263 181.195228,50.1328826 182.05726,50.8293238 C182.563102,51.2383986 182.922677,51.7374021 183.135307,52.3513523 C183.368252,53.0254804 183.171197,53.7178648 183.610677,54.3074733 C183.668913,54.3865836 183.735953,54.4460854 183.805024,54.496121 C181.355039,55.0411032 178.653827,54.4345907 176.26885,53.7996797 C173.612331,53.0930961 171.041134,52.103879 168.405606,51.3276512 C169.342803,51.1565836 170.277291,50.9733452 171.21178,50.7887544 L171.21178,50.7887544 L171.21178,50.7887544 Z M177.541921,60.3665125 C175.756236,60.7336655 173.585921,60.9067616 171.670898,60.4834875 C172.532252,60.208968 173.369906,59.7620285 174.043008,59.3827046 C175.286283,58.6815302 176.782142,57.4171174 177.234488,55.9755516 C178.733055,56.3460854 180.402268,56.6476512 182.036268,56.6429181 C180.342677,58.3975445 177.81211,58.9290036 175.452866,59.6551957 C175.12715,59.7552669 175.265969,60.2096441 175.591008,60.1555516 C178.084331,59.7363345 181.817543,59.3752669 183.534157,57.156121 C182.509606,59.215694 179.623528,59.9378292 177.541921,60.3665125 L177.541921,60.3665125 L177.541921,60.3665125 Z" id="Fill-30" fill="#279DD3"></path>
        <path d="M197.550126,48.7792171 C197.41537,49.2383274 197.468189,49.8407829 197.867717,50.1633096 C198.632913,50.7813167 199.729244,50.4567616 200.363071,49.7968327 C200.749732,49.3938434 200.999606,48.8211388 200.945433,48.2558719 C200.911575,47.9049466 200.824898,47.5181851 200.612268,47.2281139 C200.489701,47.0617794 200.361717,46.9028826 200.213417,46.7595374 C200.115228,46.6641993 199.999433,46.5857651 199.886346,46.5093594 C199.719764,46.3957651 199.519323,46.3842705 199.324976,46.3781851 C199.155008,46.3727758 198.981654,46.4505338 198.862472,46.5695374 C198.708079,46.7237011 198.670157,46.9103203 198.686409,47.1111388 C198.681669,47.1151957 198.676252,47.116548 198.671512,47.1212811 C198.217811,47.5939146 197.738378,48.1368683 197.550126,48.7792171 L197.550126,48.7792171 L197.550126,48.7792171 Z M199.055465,48.8015302 C199.062236,48.7812456 199.067654,48.7602847 199.074425,48.74 C199.082551,48.7170107 199.092031,48.6946975 199.100835,48.6723843 C199.115055,48.640605 199.138756,48.5858363 199.148913,48.5635231 C199.182094,48.493879 199.226787,48.4309964 199.262677,48.3627046 C199.266063,48.3769039 199.269449,48.390427 199.272835,48.4046263 C199.273512,48.428968 199.273512,48.4526335 199.272835,48.4769751 C199.266063,48.5046975 199.260646,48.5324199 199.251843,48.5594662 L199.251843,48.5601423 C199.246425,48.5709609 199.241685,48.5817794 199.235591,48.5919217 C199.22137,48.6182918 199.205118,48.6433096 199.188866,48.6676512 C199.148236,48.7136299 199.104898,48.7582562 199.05885,48.7988256 C199.058173,48.7995018 199.056819,48.8008541 199.055465,48.8015302 L199.055465,48.8015302 L199.055465,48.8015302 Z M199.222047,48.6419573 L199.222047,48.6419573 C199.209181,48.6730605 199.202409,48.6879359 199.222047,48.6419573 L199.222047,48.6419573 L199.222047,48.6419573 Z M198.691827,47.172669 L198.691827,47.1774021 C198.689795,47.1611744 198.689118,47.1564413 198.686409,47.1341281 C198.688441,47.1483274 198.689795,47.1584698 198.691827,47.172669 L198.691827,47.172669 L198.691827,47.172669 Z" id="Fill-31" fill="#3092C2"></path>
        <path d="M170.217024,39.2913879 C170.18452,39.3887544 170.145244,39.4881495 170.105291,39.5868683 C169.886567,39.5774021 169.659039,39.6409609 169.478236,39.7951246 C169.008283,40.1981139 169.031984,40.9763701 169.212787,41.5051246 C169.434898,42.1535587 170.152016,42.3171886 170.66463,41.8878292 C171.509732,41.1792171 172.988661,37.7916726 171.306583,37.2466904 C170.659213,37.0364057 170.225827,37.7923488 170.481118,38.2913523 C170.476378,38.3420641 170.464189,38.3724911 170.437102,38.4881139 C170.372094,38.7599288 170.305732,39.0263345 170.217024,39.2913879 L170.217024,39.2913879 L170.217024,39.2913879 Z M170.677496,38.5171886 C170.702551,38.5354448 170.717449,38.5591103 170.74589,38.5746619 C170.721512,38.5611388 170.699165,38.5408541 170.677496,38.5171886 L170.677496,38.5171886 L170.677496,38.5171886 Z" id="Fill-32" fill="#3092C2"></path>
        <path d="M26.1121732,148.521779 C26.0133071,148.493381 25.9117323,148.485943 25.8108346,148.491352 C22.0566299,144.045623 15.6777323,140.271993 9.87781102,142.492491 C5.08415748,144.32758 3.14204724,149.671246 5.26022047,154.222456 C7.70749606,159.480249 15.0946929,161.030676 20.2580787,160.170605 C23.2707874,159.668221 25.7702047,157.882491 27.4834331,155.411139 C28.9786142,153.256228 29.1323307,149.390641 26.1121732,148.521779 L26.1121732,148.521779 L26.1121732,148.521779 Z M25.693685,152.568577 C25.5054331,153.632171 24.6880945,154.542278 23.9689449,155.293488 C22.4141732,156.91694 20.0833701,157.523452 17.9103465,157.641103 C14.1182205,157.846655 9.00697638,156.247544 7.47048819,152.425907 C6.06604724,148.932206 8.52280315,145.586584 11.8707087,144.629822 C16.577685,143.284947 21.0158268,147.172171 24.7740945,149.63879 C24.7835748,149.698968 24.788315,149.759146 24.8113386,149.820676 C25.1695591,150.753096 25.8805827,151.508363 25.693685,152.568577 L25.693685,152.568577 L25.693685,152.568577 Z" id="Fill-34" fill="#3092C2"></path>
        <path d="M100.903732,92.7611744 C96.9511181,94.2683274 95.5290709,99.0805338 95.0083307,102.862954 C94.4286772,107.075409 94.7320472,111.560356 96.1094016,115.599039 C97.0831654,118.454448 99.2697323,121.919751 102.72937,121.402491 C102.818756,121.388968 102.895276,121.357189 102.960961,121.313238 C107.580583,122.668256 111.934756,119.442313 113.788157,115.016192 C115.930709,109.899715 115.256252,103.295018 112.548945,98.5274377 C110.46463,94.8579359 105.31885,91.0775445 100.903732,92.7611744 L100.903732,92.7611744 L100.903732,92.7611744 Z M111.390315,113.36637 C110.80389,115.179822 109.719071,116.902669 108.078976,117.924342 C106.144315,119.129253 103.736992,118.661352 101.610016,118.39427 C101.133969,118.334769 100.803512,118.592384 100.639638,118.950747 C98.6866929,117.129181 98.0095276,113.559075 97.6526614,111.262171 C96.9883622,106.987509 97.1705197,101.806121 99.2114961,97.9013167 C101.373685,93.7659431 105.548409,94.8707829 108.516425,97.6518149 C112.522535,101.405836 112.986394,108.437865 111.390315,113.36637 L111.390315,113.36637 L111.390315,113.36637 Z" id="Fill-35" fill="#279DD3"></path>
        <path d="M24.9989134,99.802669 C23.8362205,100.477473 24.6488189,102.106335 25.8731339,101.87306 C29.2257795,101.233416 29.1682205,96.7349466 28.5953386,94.1892171 C27.9276535,91.2235943 25.783748,88.3222064 22.4487087,88.9138434 C17.1932283,89.8469395 20.6752126,101.246263 24.8187874,99.703274 C25.3551024,99.5038078 25.2528504,98.7803203 24.6867402,98.7275801 C23.5673858,98.6220996 22.7046772,96.0046975 22.4608976,95.1885765 C22.1392441,94.1175445 21.5562047,91.6340214 23.0940472,91.252669 C24.8980157,90.8057295 25.8507874,93.6307117 26.1663465,94.8579359 C26.586189,96.4935587 26.6552598,98.8425267 24.9989134,99.802669" id="Fill-36" fill="#3092C2"></path>
        <path d="M312.343874,120.998826 C307.01052,119.315872 301.576945,117.962206 296.096646,116.85331 C278.559417,113.30484 260.623339,112.709146 242.784772,113.515125 C242.977764,113.014769 242.738047,112.304804 242.164488,112.145907 C238.243024,111.060676 234.580913,109.570427 230.98652,107.87395 C236.883953,109.046406 243.463291,107.642705 248.352425,104.460036 C248.659181,104.260569 248.762787,103.961032 248.735024,103.674342 C249.072929,103.206441 248.841339,102.55395 248.170945,102.491068 C246.641906,102.347046 244.850126,102.993452 243.291969,103.089466 C241.116236,103.224021 238.924929,103.079324 236.774252,102.740569 C232.778976,102.111068 228.918457,100.516014 227.043386,96.784306 C229.730378,98.0669751 232.638803,98.7850534 235.728031,98.5463701 C236.79863,98.4632028 237.118252,97.2089324 236.256898,96.5963345 C234.27822,95.1879004 232.27178,93.7781139 230.417024,92.2046975 C233.943701,93.2804626 237.899024,93.3075089 241.500866,93.2885765 C244.006378,93.2757295 246.532205,93.1384698 248.994378,92.6489324 C250.624992,92.3250534 252.993717,91.5785765 253.299795,89.6582918 C253.381055,89.1457651 253.175874,88.63121 252.630756,88.4824555 C249.265921,87.5682918 245.73789,88.095694 242.335134,87.266726 C240.744472,86.8786121 239.184283,86.3458007 237.66811,85.7054804 C241.496126,85.8474733 245.439937,85.1124911 248.980157,84.1050178 C251.216835,83.4687544 254.313512,82.6384342 255.833748,80.7587189 C257.359402,78.8715658 255.153197,77.3928114 253.576756,76.7626335 C252.680866,76.4042705 252.288787,77.8546263 253.178583,78.2041993 C254.490929,78.7201068 255.235811,79.2718505 253.870646,80.2292883 C253.010646,80.8317438 251.952913,81.2090391 250.980504,81.5836299 C248.96526,82.3585053 246.856567,82.8852313 244.739748,83.2949822 C240.628677,84.0894662 236.086929,84.3105694 232.112646,82.8081495 C231.086063,82.4200356 230.541622,83.9650534 231.39485,84.507331 C234.271449,86.3356584 237.393181,87.7211032 240.649669,88.7224911 C242.311433,89.2329893 244.019244,89.5636299 245.750079,89.7096797 C247.459244,89.8537011 249.123039,89.77121 250.788866,90.034911 C249.842189,90.6556228 248.158079,90.8219573 247.368504,90.9524555 C245.225276,91.3060854 243.016362,91.3453025 240.848756,91.3567972 C235.848567,91.3831673 229.936236,91.3703203 226.106866,87.6852669 C225.36537,86.9725979 224.031354,87.9151601 224.644189,88.8124199 C226.719024,91.8530961 229.406693,94.1527046 232.286,96.2981495 C228.405843,95.6706762 224.894063,93.567153 221.808898,91.0674021 C218.032346,88.0064413 216.166756,83.3213523 212.680709,79.9919573 C215.274929,84.6709609 217.251575,89.7103559 221.438488,93.1452313 C222.98852,94.4170819 224.651638,95.5624911 226.413622,96.4725979 C226.844299,101.238149 231.756457,103.293665 235.484252,104.197687 C237.764945,104.750783 240.141118,104.928612 242.482756,104.906975 C242.947291,104.902242 243.502567,104.903594 244.090346,104.888043 C238.048,107.597402 230.635748,107.728577 224.77285,104.696014 C223.334551,104.004306 222.60389,105.313345 223.457118,105.920534 C227.554646,108.839502 232.253496,111.011317 237.066787,112.63274 C233.143969,112.864662 229.231984,112.59758 225.349795,111.703025 C222.65874,111.082989 220.110567,110.066726 217.619276,108.892242 C215.088709,107.698826 212.894016,105.890783 210.39189,104.696014 C210.064819,104.540498 209.78989,104.90968 210.014709,105.183523 C211.275591,106.721779 213.076173,107.962527 214.867276,109.039644 C212.755874,109.302669 210.592331,108.972028 208.491764,108.70968 C207.954094,107.80363 207.628378,106.960463 207.13811,106.143665 C206.598409,107.104484 206.681701,107.780641 206.746709,108.454769 C206.086472,108.346584 205.428268,108.221495 204.772094,108.088968 C204.617701,106.99089 204.438929,105.895516 204.23578,104.800819 C203.924961,103.127331 203.56674,101.411246 202.783937,99.8851601 C202.556409,99.4416014 201.020598,98.2569751 201.019244,99.4558007 C201.018567,100.123843 201.687606,101.027865 201.855543,101.710107 C202.283512,103.447829 202.485307,105.24911 202.668142,107.025374 C202.689811,107.231601 202.697937,107.433772 202.71622,107.638648 C197.569087,106.38911 193.447181,104.91847 189.499307,103.048897 C181.705811,99.357758 174.714079,94.0282918 169.285244,87.3241993 C163.762961,80.5051601 160.423181,72.1336655 159.729764,63.4031317 C159.285543,57.8099644 159.36748,52.1525623 160.362913,46.6209253 C161.356992,41.0994306 163.555748,36.0607117 166.279984,31.1890036 C168.174016,27.8034875 170.410693,24.640427 173.123417,21.8587189 C175.814472,19.0979715 179.465071,18.4353381 182.938929,17.1506406 C183.790126,16.8355516 183.660787,15.7658719 182.971433,15.5366548 C181.837858,15.3831673 181.23789,14.8253381 180.766583,14.1092883 C182.091795,14.7401423 183.454252,15.2290036 184.992094,15.1918149 C185.621858,15.1762633 186.139213,14.4433096 185.752551,13.8685765 C184.86885,12.5568327 184.20726,11.2166904 183.706835,9.8413879 C185.717339,12.3702135 189.021906,15.0721352 192.134835,15.3094662 C192.666409,15.5366548 193.274504,15.5170463 193.233197,15.0937722 C192.908157,11.7623488 192.005496,8.49245552 193.303622,5.39498221 C193.555528,6.29359431 193.644913,7.24427046 193.835197,8.15843416 C194.095228,9.41270463 194.800157,10.5980071 195.419764,11.7008185 C196.81811,14.1870463 198.60515,15.9558719 201.061906,17.3893238 C206.305874,20.4489324 211.396126,23.4104982 214.953953,28.4931673 C218.809732,34.0004626 219.69411,40.5747331 219.623685,47.1388612 C219.588472,50.4364769 219.306094,53.7266548 219.128677,57.0181851 C218.967512,60.0169395 218.56189,63.4497865 219.396835,66.3707829 C219.581701,67.0178648 220.440346,67.2768327 220.975984,66.9914947 C223.022378,70.6305694 227.612205,72.6374021 231.303433,74.0566548 C234.297181,75.2074733 237.298378,76.4563345 240.452614,77.0905694 C244.235937,77.8519217 247.871638,76.8958363 251.642094,76.6652669 C252.190598,76.6314591 252.175024,75.8816014 251.642094,75.8254804 C248.299606,75.4765836 244.902945,75.9451601 241.586189,75.3751601 C238.66422,74.873452 235.889197,73.5759075 233.144646,72.5082562 C228.59748,70.7401068 224.339465,68.88 221.992409,64.3619217 C221.701228,61.6586477 221.580016,59.3076512 221.704614,57.0181851 C221.883386,53.7266548 222.095339,50.4358007 222.135291,47.1388612 C222.212488,40.7282206 221.209606,34.4048043 217.827843,28.858968 C215.724811,25.4101158 212.778694,22.5411619 209.48988,20.1717729 C208.082111,19.1575621 206.611553,18.2348838 205.117449,17.3974377 C202.212409,15.7692527 199.43874,14.6285765 197.442457,11.8299644 C196.563496,10.597331 195.716362,9.21323843 195.267402,7.76423488 C194.813024,6.2983274 194.765622,4.80740214 193.960472,3.46117438 C193.697732,3.02099644 193.062551,3.03046263 192.797102,3.46117438 C190.886142,6.56540925 191.061528,10.3681139 192.06915,13.7827046 C189.685528,12.6508185 187.614079,11.7163701 185.671291,9.75078292 C184.119228,8.18074733 182.926063,6.22800712 182.448661,4.10217082 C182.353858,3.2069395 182.290882,2.29480427 182.250929,1.36170819 C182.207591,0.354911032 180.76252,0.367081851 180.694803,1.36170819 C180.638598,2.18323843 180.685323,2.98177936 180.81737,3.75800712 C181.074016,7.09213523 181.733575,10.2437011 183.315433,13.2147331 C181.869008,12.8239146 180.56885,11.983452 179.184724,11.340427 C178.436457,10.9935587 177.478945,11.7346263 177.981402,12.5426335 C178.624031,13.5764769 179.374331,15.1275801 180.420551,15.9328826 C178.986992,16.2344484 177.566299,16.5759075 176.189622,17.1012811 C173.958362,17.9525623 172.207213,19.4015658 170.579307,21.1129181 C167.050598,24.8229893 164.432,29.3079359 162.116772,33.8388612 C158.145197,41.6112811 156.756331,50.2458007 156.896504,58.8803203 C155.649165,59.1561922 155.095921,60.6417082 154.605654,61.6241637 C153.612929,63.6147687 152.392677,65.1138078 150.770189,66.647331 C147.482551,69.7562989 143.141244,72.1884342 138.478283,71.3641993 C137.43274,71.1789324 136.64452,72.6286121 137.711732,73.1790036 C141.736126,75.2548043 146.210835,75.996548 150.221008,74.4758719 C148.855843,76.972242 145.869543,78.8587189 143.735795,80.3719573 C140.748142,82.491032 136.92148,83.1232384 134.237197,85.6987189 C133.834961,86.0841281 133.88778,86.6899644 134.237197,87.0821352 C137.20115,90.4122064 142.854803,88.8847687 146.438362,87.6284698 C148.886315,86.770427 151.886835,85.509395 154.318535,83.7459786 C153.130787,85.3978292 151.584142,86.8894306 150.325969,88.1572242 C148.854488,89.6400356 147.228614,92.4670463 150.269764,93.2378648 C152.983843,93.9261922 156.059528,91.2736299 157.955591,89.7164413 C160.023654,88.0186121 162.171622,85.9468683 163.418961,83.5025623 C168.675795,92.2445907 176.727969,99.3645196 185.820945,104.214591 C186.253654,104.44516 186.692457,104.665587 187.130583,104.886014 C187.500315,107.059181 188.057622,108.852349 188.220819,110.842954 C188.331874,112.193238 188.648787,115.440819 187.007339,116.037189 C185.894756,116.442206 186.083008,117.884448 187.003953,118.143416 C186.925402,118.416584 186.865811,118.699217 186.826535,118.991993 C184.811291,119.234733 182.796047,119.474769 180.780126,119.710747 C180.714441,119.278007 180.740173,118.992669 180.891181,118.943986 C181.308315,118.808754 181.210803,118.240107 180.790961,118.204947 C178.592205,118.023737 179.928252,122.393737 180.211307,123.28694 C180.474047,124.11726 180.936551,125.477011 181.598142,126.705587 C181.507402,126.883416 181.399055,127.048399 181.277843,127.20121 C177.744394,126.716406 175.362126,123.358612 174.416803,119.856797 C173.955654,118.148826 173.68411,115.148043 175.874063,114.69637 C178.699197,114.889075 181.799937,116.067616 183.721732,117.494306 C184.270236,117.901352 185.25348,117.495658 185.365213,116.826263 C185.44715,116.338078 185.482362,116.045302 185.316457,115.574021 C185.110598,114.989822 184.390094,114.741673 183.918787,115.205516 C183.268031,115.148719 182.674835,114.976975 182.073512,114.797117 C180.018992,113.575302 177.501969,112.70306 175.121055,113.071566 C174.502803,113.166904 174.010504,113.413025 173.611654,113.753808 C173.142378,113.896477 172.681228,114.090534 172.232945,114.35694 C171.87337,114.570605 172.109701,115.184555 172.522772,115.044591 C172.118504,116.299537 172.090063,118.003452 172.259354,119.293559 C172.570173,121.660107 173.885906,124.582456 175.818535,126.736014 C174.131717,127.486548 172.512614,125.75153 171.890976,125.178826 C170.934142,124.297794 170.249528,123.236904 169.693575,122.067829 C169.048913,120.711459 168.734031,119.080569 168.956819,117.59032 C169.239874,115.700463 170.708646,114.891779 172.295921,114.172349 C172.746236,113.968826 172.51126,113.256833 172.050787,113.268327 C167.649213,113.380569 166.669354,117.64306 167.385795,121.20032 C166.340252,121.309181 165.294709,121.420747 164.247811,121.524199 C142.02663,123.716975 119.842693,124.374875 97.6452126,121.596548 C94.1205669,121.155694 90.6006614,120.67968 87.0875276,120.155658 C87.8269921,118.492989 87.1376378,117.24548 86.1178268,116.250854 C86.4354173,112.581352 81.4318425,108.291139 79.2710079,106.647402 C75.7687087,103.983345 69.4168976,100.559288 65.765622,104.858968 C62.1353386,109.132954 64.4275433,113.498897 67.9860472,116.650463 C61.1561575,115.098683 54.3912756,113.200036 47.660252,111.296655 C40.0042205,109.130925 32.8851811,105.990854 25.8975118,102.213167 C22.7358268,100.50452 19.2822835,98.3807117 17.2318268,95.3562633 C15.8720787,93.3521352 15.0303622,90.9707117 13.5656535,89.0429893 C14.6308346,88.2403915 15.4224409,87.1585409 15.9465669,85.9374021 C17.1437953,83.1489324 16.9846614,80.0041281 16.405685,77.0878648 C15.3445669,71.7448754 11.9025354,65.1354448 5.90149606,64.466726 C0.402913386,63.8541281 -0.105637795,69.8766548 0.639244094,73.7997153 C1.57711811,78.7458007 4.214,84.3977936 8.09754331,87.7197509 C8.37653543,87.9584342 8.66433071,88.1768327 8.96228346,88.3688612 C9.03744882,88.6663701 9.21486614,88.9483274 9.53651969,89.1613167 C10.4892913,89.7914947 11.1732283,90.0491103 11.9126929,89.9030605 C12.7456063,91.2357651 13.2853071,92.8024199 13.8954331,94.2101779 C14.8373701,96.3840214 16.1205984,98.1643416 17.8324724,99.7945552 C19.071685,100.974448 20.4449764,101.989359 21.8846299,102.912989 C21.2203307,102.833879 20.5912441,102.795338 20.0495118,102.786548 C16.860063,102.738541 11.2382362,103.601317 11.0648819,107.725872 C10.9775276,109.801673 12.8024882,111.653665 14.4452913,112.619893 C17.0571181,114.155445 20.3989291,114.634164 23.379811,114.646335 C26.1677008,114.657829 29.0429449,114.008719 30.7114803,111.621886 C31.459748,110.550854 31.6649291,109.224911 31.4211496,107.998363 C36.1389606,110.315552 41.0470551,112.117509 46.0465669,113.663879 C43.2444567,113.915409 40.3949449,114.901246 37.8968819,116.040569 C33.0781732,118.238078 27.360189,125.38573 31.4306299,130.588754 C35.4164252,135.683594 43.8125984,133.984413 49.011874,132.196655 C53.3626614,130.701673 60.4566457,127.432456 60.3130866,121.894057 C60.2568819,119.731032 58.8984882,118.044698 57.1879685,116.781637 C58.811811,117.20694 60.4370079,117.627509 62.0594961,118.051459 C66.6127559,119.240142 71.212063,120.228683 75.8371024,121.090107 C77.334315,121.543808 78.8484567,121.798043 80.4560472,121.906228 C85.9322835,122.825125 91.4356063,123.593915 96.9368976,124.299822 C108.043764,125.725836 119.151307,126.449324 130.351622,126.368861 C143.074882,126.27758 155.738551,125.306619 168.37852,123.999609 C168.919575,125.034128 169.611638,125.958434 170.420173,126.801601 C164.484142,127.147117 158.545402,127.453416 152.605307,127.807046 C150.237937,127.948363 147.868535,128.088327 145.499134,128.220854 C145.451055,127.444626 144.759669,126.651495 143.894252,126.979431 C142.688898,127.435836 141.499118,127.947687 140.318142,128.488612 C132.395307,128.861851 124.465024,129.035623 116.540835,128.579217 C104.502866,127.886157 92.9037008,125.05847 81.0560157,123.111815 C74.6249764,122.054982 68.0971024,121.677011 61.8969764,119.516014 C61.5313071,119.388897 61.2814331,119.976477 61.6328819,120.142811 C66.3987717,122.403203 71.6352913,123.15847 76.8054488,123.937402 C82.4706142,124.790712 88.039622,126.135587 93.6587402,127.240427 C105.274157,129.52516 116.910567,130.853808 128.757575,130.866655 C131.072126,130.869359 133.385323,130.823381 135.697843,130.759146 C133.192331,132.060071 130.713906,133.419822 128.232094,134.679502 C124.328236,136.659964 119.891449,139.159039 115.388299,139.385552 C115.148583,137.931139 113.692,136.987224 112.210362,136.743132 C107.895465,131.077616 95.2257008,137.258363 99.0889291,143.42694 C99.256189,143.693345 99.4356378,143.93879 99.6252441,144.165979 C97.7955433,144.636584 96.0044409,145.373594 94.2343307,145.952384 C91.2283937,146.934164 88.1269764,147.763132 84.9388819,147.608292 C84.427622,147.58395 84.3037008,148.422384 84.8169921,148.508932 C85.0113386,148.606299 84.6951024,148.771281 84.476378,149.01605 C83.6312756,147.273594 80.8772441,148.252669 78.7583937,149.391317 C79.5032756,147.333096 78.8972126,144.393167 76.2637165,143.038149 C75.4368976,142.883986 75.3908504,142.827189 75.3265197,142.777829 C70.859937,139.334164 63.4138268,136.188007 59.577685,142.170641 C58.1271969,144.43306 58.3472756,147.393274 59.9291339,149.500854 C60.8196063,150.688185 62.1712283,151.397473 63.5648346,151.868078 C62.444126,152.025623 61.3227402,152.173701 60.2020315,152.296762 C56.9502835,152.654448 53.3342205,152.330569 50.0350709,153.001317 C49.5488661,152.21968 48.8303937,151.489431 47.8410551,150.840996 C47.1009134,150.356192 46.3763465,150.802456 46.1176693,151.451566 C38.8896063,147.067367 23.8308031,157.464626 30.6349606,164.819181 C37.4337008,172.168327 52.3306614,162.12605 50.7129134,154.670747 C54.1535906,154.374591 57.7012598,154.766762 61.1141732,154.442883 C64.266378,154.144021 67.4097795,153.674769 70.5369291,153.182527 C71.8255748,152.97968 73.1318268,152.781566 74.4258898,152.530036 C71.5486142,155.141352 68.8433386,158.583665 68.4370394,162.349858 C67.7659685,168.571851 75.5317008,169.273701 79.8174803,167.750996 C83.3949449,166.479822 87.0543465,163.747473 88.600315,160.199004 C89.7433701,157.576868 90.4808031,154.07911 89.3567087,151.337295 C88.7580945,149.876121 87.5764409,148.882847 86.0663622,148.658363 C88.346378,148.840925 90.5905039,148.496085 92.8305669,147.941637 C95.619811,147.251281 98.5133386,146.475053 101.247732,145.523025 C98.5126614,146.632598 95.6516378,147.787473 92.9199528,149.204021 C92.6152283,149.362242 92.8278583,149.876797 93.1549291,149.760498 C96.6971811,148.499466 100.263134,147.400036 103.848047,146.389858 C106.419921,146.732669 109.299906,145.908434 111.469543,144.706228 C111.778331,144.53516 112.09389,144.338399 112.406063,144.128114 C116.265906,143.167295 120.147417,142.259217 124.047213,141.328826 C135.01526,138.711423 145.537055,134.677473 156.205795,131.082349 C156.861291,130.861922 157.035323,130.222278 156.880252,129.705694 C159.533386,129.552883 162.18652,129.406157 164.841008,129.285125 C167.534772,129.162064 170.22515,129.002491 172.914173,128.831423 C174.241417,129.594128 175.857134,130.023488 176.551906,128.430463 C176.680567,128.135658 176.676504,127.804342 176.578992,127.511566 C176.885071,127.796904 177.204693,128.059929 177.534472,128.299964 C179.601858,129.696904 181.67737,130.168861 183.87274,129.295267 C184.262787,129.37032 184.581055,129.429822 184.917606,129.406157 C185.792504,129.344626 186.14463,128.510249 185.959087,127.871957 C187.320189,127.758363 188.681291,127.643416 190.041717,127.52306 C190.759512,128.324982 191.62222,128.993025 192.506598,128.980854 C193.004315,128.974093 193.440409,128.527829 193.452598,128.051815 C194.886835,129.694875 197.720772,130.84637 199.798992,130.19726 C200.271654,131.669929 201.209528,132.774093 202.975575,132.546904 C205.570472,132.213559 207.204472,128.266833 208.162661,125.809004 C229.762882,123.748078 251.42811,122.119217 273.074378,124.637224 C273.428535,124.67847 273.782016,124.729858 274.13685,124.773132 C272.75137,126.000356 271.631339,127.434484 270.350819,128.861174 C268.31052,131.134413 265.710205,132.935018 263.339449,134.846512 C258.459118,138.781068 253.34652,142.182811 248.076819,145.560214 C245.244913,147.375694 242.417748,149.19726 239.534378,150.925516 C239.579748,148.218861 236.444472,145.356014 234.102157,144.138932 C230.102819,142.061779 223.543795,140.574911 219.883039,144.076726 C218.350614,145.542633 217.934157,147.857117 218.756236,149.763879 C219.649417,151.833594 222.257181,152.857295 224.250756,153.440142 C226.954677,154.230569 229.858362,154.383381 232.651669,154.142669 C233.143291,154.100071 233.649811,154.044626 234.157008,153.96484 C229.262457,156.518007 224.755244,157.920356 219.943307,158.886584 C219.578992,158.768932 219.174047,158.843986 218.904535,159.08605 C218.412236,159.178007 217.920614,159.271317 217.420866,159.35516 C217.15474,159.399786 217.085669,159.751388 217.220425,159.946121 C216.37126,159.693238 215.485528,159.537046 214.623496,159.397758 C212.001512,158.972456 209.351764,158.844662 206.699307,158.933238 C203.066315,159.05427 196.218142,159.308505 194.536063,163.355979 C193.764772,165.210676 194.888866,167.051851 196.087449,168.414982 C198.762929,171.456335 202.921402,172.340747 206.795465,171.828221 C210.474504,171.342064 213.967323,169.705089 216.928567,167.510285 C218.723732,166.179609 222.196236,162.81032 221.145953,160.221317 C225.080283,159.98669 229.015969,158.614093 232.55822,157.113025 C233.085732,156.889217 233.605118,156.649858 234.123827,156.410498 C232.659118,158.149573 231.518772,160.218612 230.849055,161.767687 C229.097906,165.819217 228.444441,172.271779 234.323591,172.843808 C236.616472,173.066263 238.839606,171.430641 240.439748,169.999217 C242.666268,168.007936 244.42148,165.39121 245.689134,162.706192 C246.713008,160.537082 247.582488,157.941993 247.144362,155.517295 C246.773953,153.467865 245.00452,151.42452 242.748205,151.862669 C241.859764,152.035089 241.861118,153.223096 242.514583,153.651103 C243.880425,154.545658 244.839969,154.728221 244.925969,156.603203 C245.014677,158.527544 244.215622,160.50395 243.388803,162.198399 C241.869244,165.316157 238.686567,170.245338 234.807764,170.603025 C230.144126,171.032384 231.948094,164.470961 232.950976,162.174057 C234.274157,159.145552 237.235402,154.087224 241.128425,154.244093 C241.735843,154.26911 241.827937,153.375907 241.268598,153.211601 C243.143669,151.528648 245.710126,149.891673 248.273197,148.272954 C253.502945,144.971281 258.637213,141.721673 263.498583,137.881779 C265.956016,135.94121 268.489969,134.029039 270.820094,131.937687 C273.05474,129.93153 274.82485,127.414199 276.716173,125.10242 C286.948819,126.490569 297.100205,128.690783 307.000362,131.589466 C315.174425,133.982384 323.302441,137.086619 330.514929,141.664199 C333.921748,143.826548 337.107811,146.51968 339.536803,149.760498 C340.238346,150.696299 341.759937,149.888968 341.145748,148.821317 C337.142346,141.862313 328.900567,137.72694 321.820803,134.600391 C313.434787,130.897758 304.570016,128.419644 295.657843,126.349929 C284.303134,123.713594 272.721575,122.045516 261.084488,121.366655 C249.056,120.66548 236.979433,121.213167 224.978031,122.119217 C219.639937,122.522883 214.309969,123.014448 208.982031,123.531032 C209.36463,122.271352 209.774315,120.543772 209.691024,119.209715 C227.38874,117.231281 245.116252,115.731566 262.971071,116.185267 C278.528268,116.581495 294.021134,118.655943 308.977008,123.013096 C315.726992,124.979359 322.581937,127.195801 328.606,130.885587 C333.820173,134.079075 339.428457,138.748612 341.233102,144.822527 C341.680031,146.327651 343.886913,145.698826 343.569323,144.179502 C341.829685,135.868861 333.561496,129.991708 326.459386,126.347224 C322.000929,124.05911 317.109764,122.502598 312.343874,120.998826 L312.343874,120.998826 L312.343874,120.998826 Z M157.227638,87.7292171 C155.890236,88.9503559 152.492898,92.2209253 150.420094,91.2878292 C150.33748,91.2513167 153.762583,87.4648399 154.189197,86.9306762 C155.973528,84.6939502 157.945433,82.2307117 158.10863,79.2617082 C158.160772,78.3083274 156.727213,77.9141281 156.293827,78.7708185 C154.598882,82.1218505 150.027339,84.1902135 146.734283,85.5141281 C144.362173,86.4675089 138.973291,88.4520285 136.410898,86.5161922 C139.387717,84.4545907 143.029512,83.4816014 145.937937,81.2252669 C148.329685,79.3698932 151.56315,76.8451246 152.020236,73.6205338 C152.676409,73.2398577 153.315654,72.7915658 153.932551,72.2661922 C154.541323,71.7469039 153.765969,70.866548 153.113858,71.2066548 C150.789827,72.4156228 148.528094,73.4427046 145.872252,73.5488612 C144.958756,73.5853737 144.063543,73.4798932 143.188646,73.2797509 C145.55263,72.6962278 147.818425,71.4487189 149.602079,70.0375801 C151.590913,68.4634875 153.507969,66.6141993 154.820992,64.4261566 C155.704693,62.9534875 156.079165,61.2630961 156.91885,59.76 C156.969638,61.5524911 157.078661,63.3436299 157.24863,65.1259786 C157.797134,70.8760142 159.516457,76.2602491 162.109323,81.1799644 C161.360378,83.8237367 159.211055,85.9184698 157.227638,87.7292171 L157.227638,87.7292171 L157.227638,87.7292171 Z M4.63655118,78.6186833 C3.59574803,75.9708541 1.2392126,69.9611744 3.85577953,67.5337722 C5.07670866,66.40121 7.41089764,67.4370819 8.50790551,68.1909964 C10.5556535,69.5980783 11.9113386,72.1580071 12.801811,74.4014947 C14.2807402,78.1304982 15.488126,84.6743416 11.4610236,87.1767972 C11.2754803,87.0604982 11.0892598,86.9448754 10.9050709,86.8231673 C10.410063,86.4945552 9.92927559,86.5520285 9.56292913,86.8028826 C7.19014173,84.8082206 5.61505512,81.1062633 4.63655118,78.6186833 L4.63655118,78.6186833 L4.63655118,78.6186833 Z M27.0392126,111.692206 C25.0476693,112.511032 22.622063,112.406228 20.5323307,112.121566 C18.5685512,111.853132 16.3088504,111.321673 14.7317323,110.054555 C14.0091969,109.474413 12.9893858,108.190391 13.4627244,107.194413 C14.5082677,104.994199 18.657937,104.823808 20.6752126,104.826512 C23.064252,104.829217 26.8509606,105.139573 27.8944724,107.741423 C28.0346457,108.091673 28.5431969,108.136299 28.6935276,107.83879 C29.301622,109.316192 28.9928346,110.889609 27.0392126,111.692206 L27.0392126,111.692206 L27.0392126,111.692206 Z M54.0723307,126.779964 C49.7621732,129.74694 43.8552598,131.571886 38.6092598,131.221637 C35.8328819,131.03637 32.7470394,129.603594 32.745685,126.485836 C32.7443307,123.654093 35.1096693,120.722278 37.299622,119.160356 C39.4895748,117.598434 42.2943937,116.699146 44.8777795,116.068968 C47.5491969,115.417829 50.8618898,114.905979 52.8107717,117.266441 C53.0078268,117.504448 53.2868189,117.436157 53.4554331,117.253594 C55.3372756,118.356406 57.714126,119.841922 57.7046457,122.135445 C57.6965197,124.107794 55.5160472,125.785338 54.0723307,126.779964 L54.0723307,126.779964 L54.0723307,126.779964 Z M67.665748,106.67242 C69.8726299,103.366014 75.6278583,107.020641 77.7656693,108.525089 C79.5865669,109.807082 81.2808346,111.331815 82.6947559,113.051957 C83.2222677,113.692954 84.3517795,115.117616 84.5576378,116.219751 C84.1865512,116.553096 84.0043937,117.108221 84.2915118,117.658612 C84.4790866,118.01968 84.6138425,118.377367 84.7289606,118.766833 C84.6957795,118.785765 84.6477008,118.813488 84.5684724,118.85879 C83.8472913,119.275302 82.7529921,119.23 81.9525827,119.246228 C81.7277638,119.250961 81.5015906,119.241495 81.2754173,119.23879 C79.4260787,118.92911 77.5794488,118.599146 75.7362047,118.251601 C71.1159055,116.529431 64.0930236,112.024875 67.665748,106.67242 L67.665748,106.67242 L67.665748,106.67242 Z M47.8444409,157.569431 C47.2519213,159.453879 45.5468189,161.011068 43.9940787,162.126726 C40.743685,164.460819 35.710315,166.180285 32.426063,163.030071 C29.5440472,160.266619 33.552189,156.36452 35.8037638,154.83911 C39.2173543,152.525979 43.4394803,151.716619 47.0792441,153.905338 C47.1029449,153.919537 47.1246142,153.92089 47.1476378,153.931708 C46.9458425,154.02637 46.7440472,154.122384 46.5469921,154.231246 C45.9456693,154.561886 46.3546772,155.527438 47.0122047,155.332705 C47.295937,155.248861 47.582378,155.173132 47.8694961,155.106192 C48.1146299,155.831708 48.1430709,156.619431 47.8444409,157.569431 L47.8444409,157.569431 L47.8444409,157.569431 Z M61.3071654,143.682527 C63.7354803,138.215125 70.9432283,141.490427 74.6879528,143.539181 C74.5342362,143.833986 74.5173071,144.198434 74.738063,144.56153 C75.3163622,145.514235 76.4323307,146.310747 76.3944094,147.523772 C76.3700315,148.306085 75.1931181,148.869324 74.6242992,149.154662 C72.1140472,150.417722 68.7424409,150.488043 66.0270079,150.047189 C62.8321417,149.528577 59.6684252,147.372989 61.3071654,143.682527 L61.3071654,143.682527 L61.3071654,143.682527 Z M86.6778425,157.15089 C85.9566614,160.244982 83.8811496,162.420854 81.2198898,164.070676 C78.69,165.640036 70.5010394,167.694875 70.9310394,162.349858 C71.2134173,158.842633 74.4949606,155.368541 76.9049921,153.095302 C77.3898425,152.638221 78.1340472,151.929609 78.9838898,151.262242 C79.2175118,151.170285 79.451811,151.081708 79.6813701,150.979609 C79.9149921,150.876157 80.0362047,150.688185 80.0836063,150.479253 C81.4921102,149.584698 83.0130236,149.07758 84.1134173,150.039751 C84.1208661,150.045836 84.128315,150.048541 84.1357638,150.05395 C84.1730079,150.557687 84.4702835,151.040463 85.070252,151.21153 C87.6739528,151.951922 87.1701417,155.039253 86.6778425,157.15089 L86.6778425,157.15089 L86.6778425,157.15089 Z M100.754756,141.862989 C99.6326929,139.81153 102.797087,137.705302 104.240803,137.008185 C106.579055,135.879004 109.388614,135.924982 110.829622,138.175907 C110.862126,138.284769 110.919008,138.388897 111.002299,138.482206 C111.037512,138.547794 111.076787,138.606619 111.109291,138.674911 C111.212898,138.8879 111.426205,138.921032 111.603622,138.849359 C112.476488,139.239502 113.251165,139.580285 112.655937,140.57694 C111.943559,141.771032 110.486299,142.558754 109.287717,143.160534 C109.006693,143.301851 108.706031,143.43032 108.39589,143.547972 C107.76274,143.717687 107.130945,143.890783 106.500504,144.068612 C104.27737,144.441174 101.923543,143.999644 100.754756,141.862989 L100.754756,141.862989 L100.754756,141.862989 Z M123.61789,139.773665 C120.677638,140.547865 117.674409,141.250391 114.663732,141.974555 C114.940693,141.562776 115.154677,141.119893 115.286724,140.648612 C119.503433,141.33694 124.31063,138.825018 127.973417,137.194128 C132.800252,135.045979 137.567496,132.774769 142.340835,130.514377 C145.95622,130.345338 149.569575,130.133025 153.183606,129.920712 C143.391118,133.406975 133.682598,137.124484 123.61789,139.773665 L123.61789,139.773665 L123.61789,139.773665 Z M218.624866,160.20306 C218.628252,160.303132 218.630283,160.401851 218.632315,160.496512 C218.331654,160.345053 218.018803,160.217936 217.699858,160.105694 C218.007291,160.146263 218.315402,160.179395 218.624866,160.20306 L218.624866,160.20306 L218.624866,160.20306 Z M214.380394,166.397331 C211.702882,168.198612 208.55474,169.428541 205.323984,169.667224 C202.194126,169.89847 199.039213,168.712491 197.214929,166.081566 C196.566882,165.147117 196.416551,164.189004 197.391669,163.445907 C200.287228,161.240961 204.977953,161.181459 208.437591,161.115196 C211.589795,161.055018 215.43948,160.955623 218.475213,162.138221 C218.330976,162.640605 218.070268,163.132847 217.588126,163.703523 C216.687496,164.770498 215.531575,165.622456 214.380394,166.397331 L214.380394,166.397331 L214.380394,166.397331 Z M226.865291,151.814662 C224.421402,151.360285 218.509071,149.435267 221.389055,145.942242 C223.715795,143.121317 229.202866,144.608185 231.969087,145.791459 C233.595638,146.487224 235.317669,147.477794 236.384882,148.926797 C237.108772,149.909929 237.103354,150.822064 236.779669,151.792349 C233.810976,152.876228 229.695165,152.341388 226.865291,151.814662 L226.865291,151.814662 L226.865291,151.814662 Z M216.736252,110.857153 C216.984772,110.742883 217.137134,110.573843 217.219748,110.383167 C219.624362,111.703025 222.244315,112.67669 224.88052,113.404235 C226.471858,113.843737 228.091638,114.145979 229.725638,114.340036 C222.529402,114.907331 215.351449,115.645018 208.180945,116.457082 C208.367843,114.747082 208.577087,113.020854 208.525622,111.329786 C211.284394,111.696263 214.152189,112.049893 216.736252,110.857153 L216.736252,110.857153 L216.736252,110.857153 Z M190.00515,106.241032 C191.199669,108.622456 192.406378,112.260178 191.043921,114.339359 C190.830614,114.664591 190.82926,114.974947 190.949118,115.231886 C190.609181,115.165623 190.265858,115.126406 189.93337,115.151423 C190.128394,114.072954 190.099276,112.914021 190.034268,112.03637 C189.900866,110.226299 189.571764,107.262028 188.402299,105.50605 C188.933197,105.758256 189.466803,106.003701 190.00515,106.241032 L190.00515,106.241032 L190.00515,106.241032 Z M187.013433,121.890676 C187.336441,123.172669 187.928283,124.410036 188.591228,125.506762 C186.878,125.662278 185.164094,125.80089 183.450189,125.93274 C182.810945,125.030071 182.164252,123.747402 181.662472,122.525587 C183.446803,122.316655 185.230457,122.104342 187.013433,121.890676 L187.013433,121.890676 L187.013433,121.890676 Z M192.412472,120.756085 C191.553827,122.782527 191.675717,124.99694 192.701622,126.923986 C192.153118,126.444591 191.494236,126.045658 190.999906,125.493238 C189.94285,124.309288 189.216252,122.800783 188.778803,121.289573 C188.388756,119.943345 188.444283,118.568719 189.188488,117.363132 C189.93811,116.147402 191.408913,116.725516 192.493055,116.810712 C193.330031,116.876299 194.116898,116.647082 194.933559,116.549039 C193.839937,117.787082 193.002283,119.363879 192.412472,120.756085 L192.412472,120.756085 L192.412472,120.756085 Z M199.492236,125.11121 C199.394047,125.844164 199.329039,126.90032 199.40285,127.98758 C198.041748,127.617722 196.59126,127.769858 195.390646,126.71573 C194.195449,125.666335 193.759354,123.640569 194.198157,122.157082 C194.683685,120.51605 197.50137,114.406975 199.714346,116.768114 C199.942551,117.01153 200.338693,116.758648 200.258787,116.452349 C199.771906,114.590214 198.19411,114.144626 196.590583,115.114235 C196.32852,115.272456 196.078646,115.457046 195.837575,115.656512 C194.80422,115.436762 193.804724,115.612562 192.75715,115.551032 C192.842472,115.444199 192.914252,115.313025 192.958945,115.146014 C193.678772,112.45694 192.885134,109.343915 191.422457,106.850249 C194.404016,108.082206 197.478346,109.097117 200.598724,109.895658 C201.362567,110.091744 202.132504,110.260783 202.90515,110.419004 C203.012819,112.834911 203.001307,115.23121 202.970835,117.696477 C200.600756,118.602527 199.754976,123.14089 199.492236,125.11121 L199.492236,125.11121 L199.492236,125.11121 Z M206.374268,124.016512 C205.655795,125.933416 204.537118,128.929466 202.78326,130.171566 C202.754819,130.185089 202.741276,130.193879 202.721638,130.204698 C202.599748,130.199964 202.476504,130.179004 202.369512,130.127616 C201.984205,129.945053 201.802047,129.446726 201.67,129.076192 C201.226457,127.825979 201.276567,126.412811 201.367307,125.11121 C201.504094,123.153737 201.976756,120.347011 203.478709,118.833772 C204.211402,119.309786 205.476346,118.981174 205.474315,117.83847 C205.469575,115.486797 205.340236,113.150676 205.101874,110.825374 C205.689654,110.923416 206.277433,111.015374 206.867244,111.099893 C206.840835,113.564484 206.448079,116.002028 205.723512,118.463238 C205.384252,119.614733 206.695244,120.152278 207.458409,119.684377 C207.704898,120.994093 206.714882,123.107758 206.374268,124.016512 L206.374268,124.016512 L206.374268,124.016512 Z" id="Fill-37" fill="#279DD3"></path>
      </g>
      <g id="refresh" transform="translate(92.250000, 0.960147)" fill="#99E0FF">
        <path d="M39.3077929,29.5450481 C36.7236799,32.6978326 34.2428828,35.9020146 31.555454,38.9513096 C28.8162803,42.1039205 25.1984874,43.3442322 21.167431,43.8094142 C19.5652531,44.0162197 17.9113305,44.0162197 16.3091527,44.0677908 C13.4150921,44.1712803 12.5880439,42.1556653 11.399477,39.8815 C9.64223849,36.6255732 8.24669247,33.2145858 7.9883159,29.5450481 C10.469113,29.5450481 13.98359,31.5606632 15.6373389,32.2326506 C17.187772,32.8527197 17.8597594,30.3720962 16.3091527,29.7518536 C13.8801004,28.7699184 10.6759184,26.8576192 7.83325523,26.8576192 C7.47156276,26.0307448 6.12776151,26.0307448 5.50769247,26.8060481 C5.19757113,27.2194854 4.93919456,27.5811778 4.62907322,27.9946151 C1.88989958,30.1652908 -0.177460251,34.6099582 0.080916318,37.9693745 C0.184405858,39.3647469 2.20002092,39.7781841 2.61345816,38.3310669 C3.28527197,35.8504435 4.26720711,33.5762782 5.5592636,31.4057762 C6.12776151,34.8167636 7.47156276,38.0726904 9.12531172,41.1735565 C10.1074205,43.0342845 10.9858661,45.1014707 12.8981653,46.1351506 C14.5520879,47.0137699 16.9811402,46.6003326 18.738205,46.5485879 C22.9762406,46.3417824 27.2141025,45.6699686 30.7801506,43.1891715 C32.6924498,41.8455439 34.1395669,39.9332448 35.5866841,38.1244351 C37.4472385,35.8504435 39.2562218,33.5762782 41.1167762,31.3540314 C42.2020272,30.1137197 40.3932176,28.2529916 39.3077929,29.5450481" id="Fill-1"></path>
        <path d="M27.3175921,10.6293828 C25.8187301,9.90582427 24.5266736,12.1282448 26.0255356,12.8518033 C27.9894059,13.8337385 29.9532762,14.8156736 31.9173201,15.7976088 C33.6228138,16.6244833 35.2249916,17.5031025 37.1888619,17.2964707 C37.8606757,17.2447259 38.2225418,16.7795439 38.3776025,16.2627908 C38.4291736,16.1594749 38.5326632,16.0044142 38.5326632,15.7976088 C39.1011611,12.4899372 39.8762908,9.23401046 40.9099707,6.02965481 C41.4267238,4.42747699 38.8943556,3.75566318 38.4291736,5.357841 C37.8091046,7.37345607 37.2404331,9.38907113 36.7754247,11.4562573 C35.5349393,8.35539121 34.036251,5.30609623 31.9173201,2.8254728 C29.2297176,-0.275566946 24.5266736,0.0345543933 20.8055649,0.241359833 C12.94991,0.706368201 4.83570502,4.27258996 2.35508159,12.2833054 C1.83815481,13.8854833 4.37069665,14.5572971 4.83570502,12.9551192 C7.00638075,6.02965481 14.138477,3.39397071 20.7538201,2.87704393 C24.4749289,2.56692259 28.4028431,2.41186192 30.8318954,5.66796234 C32.7441946,8.25207531 33.9845063,11.4562573 35.1215021,14.4539812 C34.1913117,14.1438598 33.3126925,13.6269331 32.4340732,13.2134958 C30.7285795,12.3348766 29.0230858,11.5080021 27.3175921,10.6293828" id="Fill-2"></path>
      </g>
    </g>
  </g>
</svg>