<?xml version="1.0" encoding="UTF-8" standalone="no"?>
<svg viewBox="0 0 576 321" version="1.1" xmlns="http://www.w3.org/2000/svg" xmlns:xlink="http://www.w3.org/1999/xlink">
  <title>Work birds</title>
  <g stroke="none" stroke-width="1" fill="none" fill-rule="evenodd">
    <path d="M395.247068,252.193085 C399.68674,255.678079 404.472568,258.178803 409.50248,260.019193 C409.525557,260.327112 409.714612,260.623461 410.115797,260.758731 C413.804577,262.004643 416.921756,264.163631 420.74101,265.17727 C424.372984,266.141961 428.208215,266.389364 431.944036,266.58515 C439.245264,266.966933 446.47726,267.039908 453.714582,265.916807 C455.338852,265.664955 456.966673,265.361487 458.593606,265.02331 C462.540671,264.815955 466.41318,264.232156 470.084208,263.171351 C470.791609,262.967555 471.102261,262.275184 471.061433,261.63176 C484.487845,258.130746 497.26455,252.165497 508.28651,243.961166 C509.932082,242.736612 508.673495,240.094388 506.922301,240.722684 C506.615198,238.959718 506.064012,237.263498 505.784424,235.493413 C505.532352,233.895976 503.098609,234.570548 503.36222,236.162646 C503.678198,238.076901 504.197432,239.826517 505.141817,241.520068 C505.182645,241.593043 505.235013,241.63754 505.282942,241.693606 C504.689151,242.064709 504.092698,242.431364 503.495357,242.793568 C501.76724,240.155794 500.020484,237.559847 498.459232,234.797482 C497.749168,233.540001 495.947382,234.643523 496.553599,235.914353 C497.892956,238.726555 499.225213,241.680257 501.027886,244.256625 C499.713381,245.018411 498.390888,245.757059 497.060407,246.473459 C493.642339,243.179801 489.468053,240.714675 486.008269,237.437036 C485.009742,236.491032 483.577189,237.934511 484.505597,238.94281 C487.057388,241.715854 489.891428,244.418593 492.946477,246.73332 C491.939074,247.312669 490.927234,247.883119 489.908293,248.44111 C485.160631,246.87126 480.222139,246.02493 475.417672,244.631288 C470.429476,243.18425 463.840975,240.981656 461.483564,235.875196 C461.081491,235.004837 459.6516,235.625124 459.948052,236.52485 C461.643328,241.680257 466.796614,244.216578 471.461731,246.179779 C476.154363,248.15455 481.079541,249.449409 486.050873,250.479066 C483.157364,251.958142 480.217701,253.346444 477.231884,254.623504 C461.488002,255.233111 446.797676,247.708691 437.61123,234.366752 C436.872764,233.293488 435.128671,234.280428 435.848498,235.399969 C443.392922,247.121333 455.687671,255.719906 469.18154,257.531819 C460.648352,259.123026 451.915459,258.241099 443.409786,255.857847 C432.711792,252.860538 421.440422,246.761798 415.664056,236.890614 C415.20429,236.1048 414.030022,236.799841 414.45251,237.600784 C419.997218,248.117173 430.911781,254.497133 441.789066,258.272246 C444.655947,259.267196 447.73851,260.109077 450.916932,260.724914 C449.459527,260.853064 447.995908,260.949178 446.526077,261.018593 C441.322199,260.516668 436.134298,259.50392 430.890479,257.80325 C417.669985,253.514642 405.606007,245.307641 397.421638,233.97874 C396.787018,233.101262 395.329613,233.908435 395.945593,234.842869 C403.70925,246.611399 415.222041,254.81662 428.243718,259.874134 C428.875674,260.119756 429.520945,260.35292 430.167102,260.584303 C418.785672,259.489681 407.730872,256.80118 398.130814,250.261921 C388.05235,243.396056 379.779223,233.311287 374.495463,222.35171 C374.253154,221.848895 373.395753,222.20754 373.593683,222.732603 C377.953472,234.324925 385.520974,244.559204 395.247068,252.193085" id="Fill-1" fill="#6CBDDD"></path>
    <path d="M501.189426,208.441101 C506.04271,211.688482 512.337422,211.498035 517.870592,210.664164 C519.500188,210.418541 521.241618,210.034978 522.940445,209.472538 C519.839243,211.223044 516.601354,212.581089 513.596898,211.277331 C512.340085,210.731799 511.340671,212.342585 512.5105,213.140859 C518.316157,217.0993 525.912948,211.364544 530.662385,208.124283 C531.796712,207.350927 531.109725,205.223977 529.673622,205.771289 C529.59729,205.799767 529.518296,205.838924 529.441076,205.870072 C530.539012,204.861773 531.448781,203.674597 532.061211,202.267606 C532.982518,200.153115 530.179542,198.366121 528.909416,200.420986 C524.393413,207.727371 509.633856,209.907717 502.303338,206.529515 C501.019898,205.937707 499.991194,207.639267 501.189426,208.441101" id="Fill-2" fill="#6CBDDD"></path>
    <path d="M413.855169,178.408389 C415.202515,177.170486 413.357237,174.69913 411.879418,175.84092 C404.722865,181.36476 395.366892,185.151443 387.502051,178.900524 C386.683703,178.24998 385.19257,179.115889 385.921272,180.124188 C392.932261,189.829843 406.551279,185.124745 413.855169,178.408389" id="Fill-3" fill="#6CBDDD"></path>
    <path d="M341.182836,220.21675 C340.124841,219.524379 338.867141,221.140505 339.828389,221.977046 C346.01038,227.348707 354.166346,224.032801 360.681178,221.047062 C362.214028,220.344011 361.12053,217.825489 359.542414,218.338093 C353.776699,220.211411 346.93435,223.980295 341.182836,220.21675" id="Fill-4" fill="#6CBDDD"></path>
    <path d="M392.410365,295.628252 C397.024002,292.790242 401.220477,289.428949 405.444467,286.050748 C408.012234,283.997662 410.590652,281.960596 413.254278,280.032992 C415.217603,278.611762 417.425901,277.51091 419.293368,275.975768 C420.322072,275.130328 419.222361,273.335324 418.003715,273.754485 C417.901643,273.789192 417.800459,273.831909 417.699275,273.870176 C417.677086,273.24633 417.284776,272.695459 416.471753,272.789793 C410.641244,273.464365 404.451266,276.215161 399.114251,278.608202 C398.276377,278.983756 398.886144,280.253696 399.719581,280.046341 C403.853925,279.015794 408.342414,278.102718 412.554865,276.826548 C410.346568,278.477382 408.27052,280.411215 406.33826,282.021112 C401.444147,286.096134 396.695598,290.385632 391.534324,294.125148 C390.645857,294.768573 391.438465,296.22629 392.410365,295.628252" id="Fill-5" fill="#6CBDDD"></path>
    <path d="M392.930486,277.760982 C399.311294,273.54179 407.631463,272.492554 415.057839,271.919434 C417.13655,271.759245 417.10726,268.905217 415.057839,268.704981 C410.922607,268.300949 406.36755,269.682132 402.459538,270.871978 C398.629633,272.037796 394.865409,273.667271 391.761544,276.240969 C390.913906,276.94402 392.022493,278.36169 392.930486,277.760982" id="Fill-6" fill="#6CBDDD"></path>
    <path d="M424.670323,270.437689 C423.026526,271.565239 422.604039,273.653032 421.91794,275.449815 C420.778288,278.431995 419.928875,281.523637 419.23035,284.635747 C418.097798,289.677242 417.337143,295.404878 419.162894,300.370728 C419.652837,301.703854 421.732436,301.18146 421.317936,299.77447 C419.864969,294.840658 421.151959,289.314147 422.419422,284.474669 C423.06913,281.989964 423.916769,279.558655 424.846952,277.166504 C425.523287,275.425787 426.960278,273.636123 426.915012,271.728987 C426.889272,270.666402 425.640448,269.771126 424.670323,270.437689" id="Fill-7" fill="#6CBDDD"></path>
    <path d="M474.420921,279.847885 C471.283328,279.814957 468.719111,276.915542 466.69543,274.80817 C464.750744,272.783563 462.924993,270.686871 460.723796,268.929245 C459.458996,267.920056 457.71579,269.538852 458.907809,270.750057 C463.014639,274.922972 467.848396,282.536385 474.648141,281.530756 C475.626253,281.385696 475.352879,279.858564 474.420921,279.847885" id="Fill-8" fill="#6CBDDD"></path>
    <path d="M258.293576,236.190234 C258.649495,236.861246 259.027604,237.558957 259.42524,238.272687 C256.054213,237.299096 252.738217,236.216042 249.516304,235.041325 C248.841744,234.794812 248.176059,234.533171 247.516588,234.25996 C247.249426,233.911994 246.981377,233.564919 246.719542,233.218733 C238.289313,222.101637 234.909411,208.092245 227.633923,196.293457 C227.193684,195.578838 226.140127,196.205353 226.518236,196.947561 C232.315016,208.319179 235.65054,220.794319 242.17336,231.712959 C239.143164,230.089714 236.238117,228.249324 233.367686,226.344858 C230.349916,222.720144 227.696941,218.972618 225.743379,214.54162 C222.831231,207.939176 221.3614,200.79832 218.640969,194.115781 C218.387121,193.492825 217.420548,193.715309 217.608714,194.400561 C219.538312,201.457763 220.747195,208.710752 223.18005,215.625564 C223.868811,217.582536 224.736864,219.430046 225.714089,221.20903 C224.412898,220.350241 223.103718,219.50391 221.775899,218.686948 C221.699568,218.639781 221.621461,218.615753 221.543354,218.602404 C220.426779,217.726706 219.318192,216.840328 218.261085,215.890765 C216.592436,214.393001 215.253966,212.579309 213.751295,210.924025 C212.81046,209.888139 211.456014,211.203466 211.953059,212.315887 C213.879994,216.632973 218.595703,219.026904 222.398092,221.463552 C222.611999,221.600603 222.837444,221.611282 223.042475,221.546316 C224.922368,223.089468 226.827113,224.605031 228.767362,226.072537 C230.081867,227.930726 231.498443,229.727509 232.965612,231.497595 C238.576001,238.266457 247.334634,248.8576 257.068717,249.751987 C257.299487,249.960233 257.524932,250.172928 257.760141,250.377613 C258.793283,251.28001 259.949799,252.229573 261.187972,253.104381 C253.449168,255.120089 248.658015,262.226238 241.812115,265.949735 C241.150869,266.30927 241.60886,267.459959 242.331349,267.184968 C249.77814,264.345178 255.100953,258.039083 262.785615,255.613114 C263.318163,255.444916 263.618165,255.090721 263.731775,254.690249 C266.264926,256.050963 269.01731,256.831438 271.751942,256.139067 C272.612894,255.921032 272.947511,255.013296 272.740705,254.274648 C275.319123,255.896114 278.157602,256.883054 281.256141,256.844787 C283.071241,256.822539 283.550534,254.001438 281.693718,253.605416 C275.6209,252.311447 271.025014,248.587059 267.288305,243.959386 C269.819681,244.559204 272.367922,245.073587 274.9206,245.525675 C279.709978,251.323616 285.669186,255.881875 293.072485,257.717816 C294.798827,258.144985 296.084042,255.474284 294.32841,254.728516 C289.120982,252.517022 284.573913,249.907726 280.502586,246.399594 C282.953193,246.73243 285.397586,247.02077 287.814465,247.220116 C288.621275,247.286861 289.428972,247.335808 290.237557,247.375855 C294.017757,250.339346 298.260386,252.643393 302.980533,253.884856 C304.968711,254.407249 305.710727,251.513173 303.818408,250.838601 C301.23999,249.920185 298.80536,248.769497 296.497654,247.431921 C299.638797,247.334028 302.774615,247.048358 305.884693,246.584701 C309.537969,249.299009 313.785036,251.099352 318.475893,251.328956 C319.967027,251.401931 320.289218,249.037368 318.828262,248.71788 C315.812268,248.058437 313.014618,247.082176 310.435312,245.780197 C313.734444,245.101175 316.994523,244.228147 320.188921,243.171791 C320.580344,243.04275 320.975317,242.9057 321.369402,242.76954 C323.351367,245.426002 325.806411,247.513795 328.841045,247.800355 C330.436025,247.950754 330.944608,245.584411 329.635428,244.856443 C327.856719,243.866832 326.355823,242.708134 325.053744,241.402596 C327.482161,240.433454 329.910578,239.321923 332.239586,238.036853 C333.581606,240.437014 335.29996,242.721483 337.524234,243.709313 C338.694063,244.229037 340.507388,243.025842 339.5275,241.700725 C338.112699,239.78558 336.545234,238.141866 335.130432,236.312155 C336.774229,235.25135 338.343469,234.094432 339.790224,232.822711 C340.436381,234.985259 341.420707,237.400548 343.254446,238.381259 C344.171315,238.871615 345.635821,238.045753 345.18138,236.895954 C344.762443,235.833369 344.016876,234.979029 343.450601,233.992089 C342.840834,232.930394 342.430772,231.769915 342.060652,230.605878 C343.007699,229.589569 343.888177,228.518975 344.670135,227.374515 C345.982865,225.452251 343.167463,223.539776 341.586684,224.988594 C338.708264,227.624588 335.648778,229.953554 332.446392,231.998629 C330.756441,228.609748 329.521818,224.998383 328.42477,221.380788 C328.036898,220.100168 326.123277,220.629681 326.429492,221.932549 C327.350799,225.848273 328.437196,229.756877 330.036614,233.455457 C327.414705,234.978139 324.704038,236.312155 321.921476,237.469963 C320.646912,235.500532 319.570279,233.330865 318.535361,230.99923 C315.890375,225.03932 313.965215,218.730555 312.393312,212.409331 C312.072008,211.118922 310.168151,211.671573 310.424661,212.953082 C311.806622,219.860775 313.581781,226.795166 316.333277,233.291708 C316.996299,234.857108 317.82086,236.766023 318.828262,238.679388 C314.345987,240.304414 309.703059,241.49337 304.957172,242.250706 C302.593549,240.332002 300.483773,238.026174 298.639383,235.304746 C297.897366,234.211013 296.160374,235.189944 296.852685,236.351312 C298.193818,238.603744 299.792348,240.762731 301.604785,242.714364 C297.928432,243.144203 294.203261,243.325751 290.458564,243.271464 C285.592854,239.337942 281.449634,234.489564 277.9934,229.114343 C277.206117,227.890679 275.311135,228.980852 276.03895,230.259692 C278.614705,234.788583 281.754073,239.22314 285.456167,243.056989 C282.345201,242.841625 279.208496,242.4812 276.07179,241.992625 C275.950192,241.853794 275.827706,241.720304 275.707883,241.579694 C270.511106,235.498752 266.783273,228.064217 263.548046,220.794319 C263.191239,219.993376 261.851882,220.567385 262.13857,221.389687 C264.419649,227.933396 267.53239,235.019966 271.723539,241.237068 C269.173524,240.746712 266.632384,240.178042 264.112546,239.540847 C262.579697,237.183404 261.191523,234.731627 259.890331,232.335916 C253.155379,219.927521 249.722222,206.135273 243.867749,193.332636 C243.447037,192.411551 241.853832,193.080784 242.231053,194.025007 C247.835229,208.054868 251.169864,222.76464 258.293576,236.190234 L258.293576,236.190234 L258.293576,236.190234 Z M239.643759,233.415409 C241.485486,234.494013 243.367154,235.504092 245.291426,236.435856 C245.576339,236.824759 245.849714,237.219001 246.145278,237.603454 C247.426055,239.264967 248.737009,240.903341 250.093231,242.499889 C246.250012,240.029423 242.787565,236.757124 239.643759,233.415409 L239.643759,233.415409 L239.643759,233.415409 Z M271.084482,253.12218 C267.606946,252.199315 264.454264,250.624126 261.563418,248.617317 C261.798627,247.766537 261.444483,246.691493 260.481459,246.560672 C259.76607,246.462779 259.063995,246.322169 258.369908,246.156641 C255.845632,244.011002 253.523725,241.575244 251.351818,239.023794 C254.800064,240.364929 258.353044,241.554775 261.980581,242.578203 C264.461365,246.471679 267.495999,250.381173 271.084482,253.12218 L271.084482,253.12218 L271.084482,253.12218 Z" id="Fill-9" fill="#6CBDDD"></path>
    <path d="M346.985829,191.096224 C346.417779,189.074286 346.079611,186.993613 345.572803,184.955657 C345.187594,183.408946 342.863023,184.06572 343.203854,185.610651 C343.656519,187.670855 343.94232,189.745299 344.61688,191.751218 C345.118362,193.243642 347.419856,192.638485 346.985829,191.096224" id="Fill-10" fill="#6CBDDD"></path>
    <path d="M328.315598,262.983574 C323.755215,260.20252 321.143957,254.695589 316.0386,252.83562 C314.446283,252.255381 313.505449,254.701818 314.9096,255.518781 C317.561687,257.061932 319.718504,259.406027 321.945441,261.48314 C323.561723,262.990694 325.712328,265.010851 328.117668,264.498247 C328.843708,264.343398 328.896075,263.336879 328.315598,262.983574" id="Fill-11" fill="#6CBDDD"></path>
    <path d="M351.630532,248.0086 C353.376401,248.930575 354.919013,246.211817 353.164269,245.377056 C351.780533,244.719392 350.393246,244.140933 348.958918,243.602521 C347.585833,243.087247 346.865118,245.150122 348.00122,245.87898 C349.190576,246.642547 350.379933,247.349157 351.630532,248.0086" id="Fill-12" fill="#6CBDDD"></path>
    <path d="M322.82592,170.313519 C323.735688,170.814554 324.711138,171.270202 325.719428,171.693812 C325.632446,171.86646 325.590729,172.068476 325.634221,172.29096 C326.563516,176.988939 334.407055,177.857517 338.086959,178.289137 C342.795567,178.841788 350.867214,179.361511 353.913386,174.834401 C354.895936,173.373124 352.961013,171.478447 351.511596,172.42623 C350.484667,173.096353 349.353891,173.575139 348.176961,173.940904 C349.088505,173.508394 349.960108,172.975322 350.772243,172.316768 C352.108937,171.231935 350.675497,168.953695 349.118682,169.468079 C343.89439,171.192777 339.870106,172.069366 334.3538,171.01123 C330.686322,170.30818 326.77476,168.427742 322.997222,169.002642 C322.367929,169.097865 322.322662,170.036749 322.82592,170.313519 L322.82592,170.313519 L322.82592,170.313519 Z M336.70411,174.910045 C336.718311,174.912715 336.731625,174.914495 336.744939,174.917165 C333.738708,174.799693 330.010874,174.337816 328.072401,172.600658 C330.935732,173.604507 333.957052,174.356504 336.70411,174.910045 L336.70411,174.910045 L336.70411,174.910045 Z" id="Fill-13" fill="#6CBDDD"></path>
    <path d="M216.490364,109.605561 C220.982403,110.764259 227.009067,111.782347 231.189566,109.211318 C232.707327,108.278664 231.724776,105.619532 229.944292,106.248717 C226.299004,107.535567 221.90016,107.230318 218.151913,106.661648 C214.87497,106.163283 210.046538,105.313393 207.85333,102.52166 C207.355398,101.888025 206.268113,102.571497 206.518411,103.301245 C207.85688,107.20184 212.901881,108.680026 216.490364,109.605561" id="Fill-14" fill="#6CBDDD"></path>
    <path d="M193.636084,179.94798 C195.917163,179.604464 194.976329,176.027806 192.67306,176.446077 C187.871256,177.317325 182.70732,176.469215 179.38866,172.631806 C178.495756,171.599479 176.824444,172.936164 177.524744,174.074394 C180.958788,179.66142 187.567704,180.863725 193.636084,179.94798" id="Fill-15" fill="#6CBDDD"></path>
    <path d="M69.6820788,223.667037 C69.846281,223.250546 74.7927607,224.744751 75.344835,224.861333 C75.8267906,224.961896 76.3185095,225.018852 76.8137788,225.048219 C82.4099666,227.540044 88.4614825,228.751248 94.5724663,227.202758 C96.0059069,226.839663 95.7360828,224.366528 94.2165469,224.564984 C90.9236276,224.994823 87.8375142,224.628169 84.8250699,223.882402 C88.6940283,222.523467 91.8822133,219.826068 94.1029368,216.277888 C94.9985043,214.846869 92.8017455,213.083903 91.7375378,214.448177 C88.5662169,218.51519 84.333351,221.332731 79.4161614,222.2022 C77.5859728,221.548986 75.7540091,220.846826 73.8900925,220.187382 C72.7193753,219.772671 71.8832756,220.92692 72.0208504,221.931659 C70.3601894,221.77325 68.8158014,221.969037 68.7944995,223.546005 C68.7865113,224.091537 69.504563,224.117345 69.6820788,223.667037" id="Fill-16" fill="#6CBDDD"></path>
    <path d="M159.703926,258.053322 C166.483257,258.294495 173.28744,252.620255 177.616164,247.925836 C182.277731,242.869213 185.574201,236.216042 185.043428,229.214906 C184.960884,228.134522 183.425371,228.123843 183.362353,229.214906 C182.977144,235.928592 179.306116,241.787939 174.659638,246.431631 C170.072628,251.014808 164.724075,252.856088 158.978773,255.369271 C157.582611,255.979768 158.399184,258.007045 159.703926,258.053322" id="Fill-17" fill="#6CBDDD"></path>
    <path d="M148.310957,259.905281 C157.002134,256.66947 168.244214,251.56212 169.107829,241.024373 C169.193037,239.984036 167.495985,239.757992 167.293617,240.77786 C165.390647,250.366934 154.754783,253.358013 147.193495,257.247039 C145.742303,257.992806 146.762131,260.481071 148.310957,259.905281" id="Fill-18" fill="#6CBDDD"></path>
    <path d="M129.956704,259.556426 C125.820584,261.677146 122.003993,264.924527 118.151011,267.454619 C117.101005,268.14521 117.756039,269.828082 119.012851,269.503254 C123.923827,268.234204 128.494861,264.490238 132.723289,261.791948 C133.673887,261.185011 133.677437,260.198071 133.196369,259.529728 C140.73813,258.813328 150.548545,253.911554 151.616303,246.45922 C151.776067,245.345018 150.218365,244.837754 149.888186,245.982213 C147.863617,253.008268 136.45201,256.254759 130.022385,256.492372 C128.046633,256.565347 128.074148,259.330382 129.956704,259.556426" id="Fill-19" fill="#6CBDDD"></path>
    <path d="M113.061631,255.830259 C119.586227,256.269888 125.904017,254.789032 131.514406,251.41528 C132.747254,250.674852 131.671508,248.969732 130.414695,249.528613 C124.939218,251.963481 118.992437,252.591777 113.061631,252.671871 C111.012211,252.699459 111.052152,255.694988 113.061631,255.830259" id="Fill-20" fill="#6CBDDD"></path>
    <path d="M93.3156539,245.421553 C98.9872859,247.105314 104.598562,250.185387 110.56132,247.880449 C112.011625,247.320679 111.472864,245.099395 109.908062,245.505207 C104.595012,246.88283 99.2526721,243.485939 94.1748307,242.295203 C92.1458243,241.819977 91.3132749,244.827965 93.3156539,245.421553" id="Fill-21" fill="#6CBDDD"></path>
    <path d="M79.1756274,233.604966 C86.0774444,237.351602 96.1993992,239.92263 103.344413,235.522781 C104.79738,234.628394 103.531692,232.671422 102.048547,233.299718 C95.0464336,236.264099 87.1443148,232.824491 80.5602512,230.311308 C78.6350916,229.57711 77.4102321,232.646504 79.1756274,233.604966" id="Fill-22" fill="#6CBDDD"></path>
    <path d="M181.23305,251.253311 C180.502572,252.469856 182.233352,253.845699 183.206139,252.779554 C193.773659,241.20414 200.576067,224.90049 203.481114,209.624717 C203.704784,208.44822 201.968679,207.936506 201.673115,209.124572 C199.738192,216.907074 196.881962,224.402125 193.262413,231.550991 C189.769788,238.447115 185.20053,244.646417 181.23305,251.253311" id="Fill-23" fill="#6CBDDD"></path>
    <path d="M186.862966,267.314899 C177.82297,263.873511 167.709891,258.193932 157.819595,258.562366 C155.853607,258.635341 155.219875,261.840895 157.334089,262.156823 C162.380865,262.908819 167.180007,263.968735 172.013764,265.627578 C176.758763,267.255273 181.510863,269.218475 186.558526,269.57089 C187.936937,269.667893 187.991079,267.744738 186.862966,267.314899" id="Fill-24" fill="#6CBDDD"></path>
    <path d="M155.518102,267.896028 C158.0193,270.8435 162.337374,271.484255 165.89923,272.240701 C167.8022,272.644733 168.541553,269.950893 166.699826,269.328827 C163.601287,268.282261 160.808075,267.243704 158.23587,265.17015 C156.316035,263.623439 153.891169,265.978213 155.518102,267.896028" id="Fill-25" fill="#6CBDDD"></path>
    <path d="M237.990199,247.625927 C235.98782,248.450899 234.037808,249.415591 232.082471,250.344686 C230.159086,251.258651 227.890433,252.785783 225.662609,252.616695 C224.406685,252.520582 224.226506,254.174975 225.077695,254.782803 C226.865279,256.058083 229.86441,254.594136 231.609391,253.916004 C234.209111,252.905925 236.593149,251.477576 239.128963,250.334896 C240.650274,249.648755 239.53725,246.988732 237.990199,247.625927" id="Fill-26" fill="#6CBDDD"></path>
    <path d="M268.76435,265.439801 C269.003996,264.343398 269.521455,263.399175 270.151636,262.47987 C271.019689,261.213489 269.106955,259.813618 268.069375,260.869083 C266.935936,262.023332 266.382087,263.499738 266.378536,265.115864 C266.375874,266.470348 268.467011,266.804075 268.76435,265.439801" id="Fill-27" fill="#6CBDDD"></path>
    <path d="M107.813375,256.204032 C106.489106,260.673297 106.213957,266.812084 109.699481,270.376283 C110.306585,270.998349 111.317538,270.202745 110.888837,269.456978 C108.730244,265.702332 110.066051,260.992785 110.771677,257.021885 C111.113395,255.09695 108.384976,254.275538 107.813375,256.204032" id="Fill-28" fill="#6CBDDD"></path>
    <path d="M87.3307064,248.000591 C84.0226982,248.970622 80.9525613,250.187167 78.3297643,252.493884 C77.2105268,253.479044 78.8303591,255.055123 79.9504842,254.118019 C82.2413265,252.200205 85.1357227,251.118041 87.9102957,250.108852 C89.211487,249.635406 88.6984662,247.600119 87.3307064,248.000591" id="Fill-29" fill="#6CBDDD"></path>
    <path d="M435.908853,283.137093 C438.457981,281.989964 440.759474,280.532247 443.117772,279.036262 C444.446479,278.193492 447.726084,276.926221 448.015435,275.160585 C448.049163,274.9559 447.998571,274.739645 447.801529,274.632853 C446.233176,273.780293 443.723989,275.715906 442.415697,276.437645 C439.772486,277.894473 437.202056,279.382448 434.724822,281.106256 C433.467122,281.981065 434.535768,283.755599 435.908853,283.137093" id="Fill-30" fill="#6CBDDD"></path>
    <path d="M435.915954,289.290119 C443.952985,285.714351 450.222845,279.258746 458.640648,276.37446 C459.546866,276.063872 459.460771,274.514491 458.401889,274.610604 C449.32284,275.434686 442.356229,282.996483 434.717722,287.235254 C433.349962,287.99437 434.549081,289.898836 435.915954,289.290119" id="Fill-31" fill="#6CBDDD"></path>
    <path d="M436.394359,296.860815 C445.119264,291.676041 454.35719,286.752018 462.215817,280.276835 C462.895703,279.717064 462.031201,278.79064 461.331788,279.128816 C452.246526,283.520656 443.535822,289.13349 435.181926,294.781032 C433.910912,295.640711 435.047901,297.660869 436.394359,296.860815" id="Fill-32" fill="#6CBDDD"></path>
    <path d="M454.670505,292.913944 C457.950998,290.83594 461.424096,289.089883 464.669086,286.952254 C465.96939,286.096134 464.785359,284.018131 463.443339,284.849332 C460.137106,286.896188 456.800696,288.878078 453.654227,291.170556 C452.625522,291.918994 453.552155,293.621444 454.670505,292.913944" id="Fill-33" fill="#6CBDDD"></path>
    <path d="M485.370987,282.18041 C489.43255,279.855894 493.00772,276.810529 497.03733,274.430837 C497.926684,273.905774 497.324905,272.306557 496.31484,272.712368 C491.849429,274.506482 488.066565,277.36229 484.20027,280.173602 C483.014464,281.035951 484.045831,282.939527 485.370987,282.18041" id="Fill-34" fill="#6CBDDD"></path>
    <path d="M507.72911,274.046384 C501.699784,275.501431 496.144425,278.522768 490.865991,281.710524 C489.733439,282.394885 490.731079,284.080426 491.89647,283.477939 C497.331119,280.668407 502.521683,277.477092 508.141835,275.027095 C508.716986,274.776133 508.295386,273.909334 507.72911,274.046384" id="Fill-35" fill="#6CBDDD"></path>
    <path d="M508.201303,281.90631 C511.802212,280.400536 515.283298,278.663378 518.674739,276.732215 C519.517939,276.251649 518.950776,274.81974 518.005504,275.141897 C514.420571,276.361111 511.058421,278.111617 507.540944,279.503479 C506.058686,280.089948 506.733246,282.520366 508.201303,281.90631" id="Fill-36" fill="#6CBDDD"></path>
    <path d="M518.707579,280.560725 C524.594893,280.793888 530.286939,279.408256 536.139638,279.087879 C537.089347,279.036262 537.103549,277.582105 536.139638,277.597234 C530.296703,277.689787 524.546964,278.896542 518.707579,278.958838 C517.674437,278.970407 517.681538,280.520677 518.707579,280.560725" id="Fill-37" fill="#6CBDDD"></path>
    <path d="M543.206544,281.505838 C551.020793,282.228467 558.929125,281.390146 566.7629,281.672256 C568.035689,281.718533 567.962907,279.881703 566.7629,279.736643 C558.95664,278.795089 551.030556,279.533737 543.206544,279.903951 C542.164526,279.952898 542.191154,281.411505 543.206544,281.505838" id="Fill-38" fill="#6CBDDD"></path>
    <path d="M573.127731,283.905999 C573.13572,283.908669 573.138382,283.908669 573.145483,283.911338 C573.1943,283.959395 573.244004,284.005672 573.307022,284.049279 C573.317673,284.058178 573.316786,284.057288 573.330987,284.071527 C573.338975,284.083096 573.3372,284.081316 573.347851,284.097335 C573.672705,284.604599 574.322413,284.809285 574.858511,284.494247 C575.466503,284.137382 575.591652,283.256345 575.081294,282.7562 C574.823896,282.504348 574.544308,282.316571 574.20614,282.19287 C574.091643,282.143033 573.970044,282.119895 573.842233,282.123454 C573.536018,282.167951 573.475663,282.175071 573.660279,282.143923 C573.481876,282.148373 573.300809,282.18219 573.127731,282.227577 C572.264117,282.452731 572.336011,283.647027 573.127731,283.905999" id="Fill-39" fill="#6CBDDD"></path>
    <path d="M295.965106,257.166944 C288.397605,260.178492 281.13188,264.238386 275.489538,270.198295 C274.735096,270.996569 275.839245,272.009318 276.65848,271.370343 C282.956743,266.457889 289.889625,263.149103 297.029314,259.697926 C298.430801,259.021574 297.421624,256.587595 295.965106,257.166944" id="Fill-40" fill="#6CBDDD"></path>
    <path d="M307.791213,258.286485 C302.471063,259.36331 297.384345,262.573313 292.830176,265.401534 C287.753222,268.553691 283.024199,272.181966 278.375059,275.925932 C277.716475,276.457224 278.582752,277.571425 279.275952,277.097089 C283.767991,274.023246 288.295533,270.97966 292.956212,268.168349 C298.029616,265.109634 303.44385,263.094816 308.716958,260.4873 C310.003061,259.850995 309.058677,258.030184 307.791213,258.286485" id="Fill-41" fill="#6CBDDD"></path>
    <path d="M298.794709,273.665491 C304.939421,270.198295 311.187979,268.00193 317.882103,265.912358 C319.232998,265.490527 319.054595,263.127744 317.533284,263.32798 C310.346554,264.276653 303.690597,267.849751 297.639081,271.682711 C296.393807,272.471195 297.502393,274.395239 298.794709,273.665491" id="Fill-42" fill="#6CBDDD"></path>
    <path d="M313.115802,274.686249 C314.905162,274.397019 316.595113,273.883526 318.305478,273.295277 C319.673238,272.82539 319.126489,270.725138 317.703699,271.107811 C315.974695,271.573248 314.276755,272.163277 312.529112,272.552179 C311.116973,272.865437 311.740054,274.908733 313.115802,274.686249" id="Fill-43" fill="#6CBDDD"></path>
    <path d="M339.221285,267.840852 C343.218055,265.041109 347.627549,263.099266 352.267814,261.633539 C353.84593,261.135175 353.199772,258.772391 351.585265,259.150615 C346.520738,260.336901 341.655915,262.453172 338.051456,266.321729 C337.330741,267.095084 338.290214,268.494066 339.221285,267.840852" id="Fill-44" fill="#6CBDDD"></path>
    <path d="M369.016436,260.095728 C360.216087,262.172841 351.942072,265.416663 344.379009,270.433239 C343.361843,271.107811 344.260073,272.68478 345.33937,272.080513 C352.953025,267.817713 361.31846,264.919188 369.699872,262.578653 C371.297515,262.131904 370.626505,259.715725 369.016436,260.095728" id="Fill-45" fill="#6CBDDD"></path>
    <path d="M394.799728,258.089809 C380.864733,259.430945 369.604901,267.884459 357.605716,274.272428 C356.58145,274.81796 357.480567,276.250759 358.495958,275.79956 C370.291,270.56495 381.55882,262.529706 394.799728,261.749231 C397.157139,261.610401 397.121636,257.866435 394.799728,258.089809" id="Fill-46" fill="#6CBDDD"></path>
    <path d="M386.939326,270.431459 C389.69881,268.556361 392.429891,266.721311 395.460975,265.3072 C396.816309,264.674455 395.852397,262.446052 394.45091,262.90259 C391.116274,263.989203 388.453536,266.208707 385.69849,268.303619 C384.47008,269.238053 385.600856,271.340085 386.939326,270.431459" id="Fill-47" fill="#6CBDDD"></path>
    <path d="M375.293397,258.377259 C377.353469,257.331583 379.403777,256.268108 381.151421,254.738306 C382.365629,253.675721 380.820354,251.943013 379.511174,252.606906 C377.563825,253.594736 375.722098,254.778353 373.787175,255.793771 C372.077697,256.690828 373.584807,259.244948 375.293397,258.377259" id="Fill-48" fill="#6CBDDD"></path>
    <path d="M364.594516,253.412299 C366.03772,253.031406 367.41258,252.531261 368.683594,251.740107 C370.044253,250.892887 369.163774,248.456239 367.55548,249.056056 C366.303106,249.523273 365.047181,250.011849 363.756641,250.366044 C361.799528,250.904456 362.62764,253.932023 364.594516,253.412299" id="Fill-49" fill="#6CBDDD"></path>
    <path d="M30.6321382,253.948041 C20.4436149,258.391498 9.90449786,262.108766 0.599116054,268.323198 C-0.104734362,268.793085 0.544086135,269.929534 1.26480056,269.466767 C10.6766919,263.421423 21.3143303,259.871464 31.5365815,255.499202 C32.5936885,255.047114 31.6830321,253.489724 30.6321382,253.948041" id="Fill-50" fill="#6CBDDD"></path>
    <path d="M48.854142,252.645173 C50.3426126,252.054255 49.7550351,249.651424 48.1786942,250.188947 C33.9481346,255.040884 20.4453901,261.739442 8.41957762,270.833711 C7.38199737,271.618635 8.33614516,273.386941 9.46337092,272.625154 C21.6675868,264.377216 35.1978463,258.064891 48.854142,252.645173" id="Fill-51" fill="#6CBDDD"></path>
    <path d="M23.5022133,274.624843 C22.4033901,275.342133 23.3717392,277.028564 24.532693,276.392259 C31.8143939,272.39733 39.2540839,268.624886 46.448802,264.484008 C49.7346207,262.592892 52.9858239,260.651939 56.3746018,258.949489 C59.4163362,257.421466 62.6764151,256.843007 65.7518775,255.53124 C66.9509972,255.019526 66.5586871,253.089252 65.3986209,252.822271 C64.4382601,252.600676 63.4725738,252.622925 62.5157632,252.778664 C66.9722991,251.037947 71.4164089,249.266082 75.8338912,247.431921 C78.1593491,246.466339 76.8066782,243.218958 74.4918713,244.240606 C61.1781812,250.117752 47.4943705,255.151237 34.3661845,261.445763 C33.3845217,261.917429 34.086597,263.602971 35.109976,263.214958 C41.6558736,260.731143 48.2159725,258.274916 54.7592074,255.775083 C51.9145156,257.22746 49.1905346,258.952159 46.4816425,260.615451 C38.8173949,265.322329 31.0448626,269.698151 23.5022133,274.624843" id="Fill-52" fill="#6CBDDD"></path>
    <path d="M65.6870842,261.498269 C58.9042029,264.396795 52.6636326,268.868729 46.862414,273.377151 C45.9579706,274.080202 47.1428891,275.602884 48.081948,274.963019 C54.1973697,270.798113 60.7956345,267.731389 67.1515901,264.009672 C68.8131387,263.03697 67.3575085,260.784539 65.6870842,261.498269" id="Fill-53" fill="#6CBDDD"></path>
    <path d="M143.589035,262.33659 C139.138712,261.698505 135.404666,263.61454 131.811745,266.087675 C127.515861,269.044937 123.515541,272.228242 119.058118,274.95323 C117.843021,275.696328 118.691547,277.335592 119.973212,277.128237 C124.182113,276.449215 127.78391,273.318415 131.148723,270.912915 C135.009693,268.15233 138.892853,265.978213 143.589035,265.060688 C144.906203,264.803496 144.970996,262.535046 143.589035,262.33659" id="Fill-54" fill="#6CBDDD"></path>
    <path d="M152.061868,268.504745 C148.098826,266.840562 141.806776,270.811462 138.522732,272.68122 C133.804361,275.368831 129.228889,278.818228 125.46289,282.746411 C124.462588,283.790307 125.9981,285.326339 127.043669,284.331389 C130.659667,280.891781 134.879219,278.172133 139.175103,275.673189 C141.383401,274.38901 143.687557,273.268579 146.083133,272.384871 C148.067761,271.651563 150.061264,271.670252 152.061868,271.175447 C153.525486,270.812352 153.219271,268.990651 152.061868,268.504745" id="Fill-55" fill="#6CBDDD"></path>
    <path d="M95.8328289,272.82361 C93.1621027,274.418378 90.6538035,276.240969 88.0611842,277.955878 C87.1718297,278.544127 87.7318923,280.215429 88.8262776,279.77491 C91.8085442,278.577055 94.5396258,276.973388 97.3106485,275.359041 C98.9429069,274.408589 97.4588743,271.852689 95.8328289,272.82361" id="Fill-56" fill="#6CBDDD"></path>
    <path d="M212.259274,240.324882 C204.405084,243.816996 197.463326,249.00177 189.776889,252.83473 C188.67274,253.386491 189.45026,255.233111 190.617427,254.832639 C198.858601,252.001749 205.994739,246.760908 213.625258,242.668087 C215.193611,241.827096 213.817863,239.632511 212.259274,240.324882" id="Fill-57" fill="#6CBDDD"></path>
    <path d="M231.516195,238.620652 C230.023287,239.244498 228.714995,239.971577 227.426229,240.953178 C227.395164,240.977206 227.368537,241.003904 227.339247,241.029712 C217.801319,246.248304 206.716341,251.41884 199.578428,259.746872 C198.811559,260.642149 199.971625,261.803517 200.86453,261.037281 C209.592098,253.54223 220.330033,249.251843 229.55997,242.524807 C229.753462,242.383307 229.883937,242.214219 229.970919,242.034452 C230.740451,241.506719 231.51797,240.987885 232.30259,240.49041 C233.237211,239.898602 232.623894,238.156995 231.516195,238.620652" id="Fill-58" fill="#6CBDDD"></path>
    <path d="M167.444505,163.423625 C169.392742,164.49778 171.24157,165.685846 173.374423,166.359528 C173.431228,166.377327 173.48537,166.383557 173.5404,166.394236 C173.76407,166.674566 174.015255,166.941547 174.32147,167.18094 C175.506388,168.105585 177.088942,167.850173 177.727999,166.667447 C177.744863,166.709274 177.749301,166.751101 177.775929,166.792928 C178.020901,167.17827 178.322678,167.507547 178.648419,167.812796 C177.921492,168.015701 177.300186,168.701843 177.613502,169.525035 C180.929498,178.24998 194.316857,181.344291 200.932874,174.869108 C202.725784,173.114152 200.441155,170.273472 198.306526,171.456199 C195.161833,173.199586 192.127199,174.020998 188.548479,173.359775 C185.593728,172.814243 183.520342,171.166079 181.384826,169.360397 C184.857924,170.496846 189.526592,169.994032 192.362408,169.656746 C197.294686,169.071167 206.690601,167.904459 207.808063,161.599254 C207.883508,161.171194 207.880845,160.780512 207.820489,160.425427 C209.53263,160.158446 210.990035,158.155197 209.806892,156.488344 C207.419304,153.124382 203.520168,150.571152 200.192633,148.174551 C196.795866,145.727223 192.917145,143.606503 188.898185,142.293845 C188.919487,142.241339 188.94789,142.191503 188.968304,142.138106 C189.393455,141.048823 187.721255,140.075232 186.988115,140.982968 C183.546082,145.238648 179.531561,148.973714 176.307873,153.406492 C174.782124,155.504964 172.589803,159.442936 172.488619,162.808679 C171.132397,162.241789 169.7602,161.714946 168.381789,161.193443 C167.074385,160.697747 166.255149,162.767742 167.444505,163.423625 L167.444505,163.423625 L167.444505,163.423625 Z M177.919717,160.200273 C178.557886,157.736036 180.104049,155.489835 181.513525,153.411831 C183.485727,150.504406 186.075683,147.603211 187.845516,144.447493 C191.292875,146.602921 194.437568,148.929217 197.458888,151.72629 C199.710677,153.810523 201.714831,156.41359 204.058041,158.467565 C203.423421,158.753235 202.858033,159.293427 202.511877,160.135307 C201.034945,163.717305 195.180472,165.20439 191.899091,166.222478 C188.908836,167.149792 181.539265,168.538095 179.054931,165.802428 C178.745165,165.461582 178.306701,165.511418 178.002261,165.742802 C178.005812,165.708094 178.019125,165.680506 178.020901,165.644909 C178.119422,163.693276 177.400483,162.205301 177.919717,160.200273 L177.919717,160.200273 L177.919717,160.200273 Z" id="Fill-59" fill="#2F91C1"></path>
    <path d="M134.404364,164.241478 C134.833065,165.175022 136.095203,165.564814 137.021836,165.309402 C137.903202,165.066449 138.399359,164.438154 138.585751,163.679037 C138.60439,163.681707 138.622141,163.684377 138.639893,163.686157 C138.78013,162.881653 138.753503,162.07537 138.718887,161.268197 C138.888415,160.852597 138.939895,160.404958 138.954096,159.945751 C138.963859,159.600455 138.769479,158.751455 138.766817,158.763914 C138.983386,157.337344 138.430424,155.921454 136.921539,155.504964 C135.522714,155.119621 134.067972,155.967731 133.672111,157.355143 C133.480394,158.027046 133.420926,158.747895 133.500809,159.442936 C133.481282,161.08665 133.734242,162.780201 134.404364,164.241478" id="Fill-60" fill="#2F91C1"></path>
    <path d="M44.3425762,220.294175 C50.9159888,223.47659 58.9849726,223.493499 66.4353136,222.691666 C68.1465666,227.774097 72.4575394,232.403551 75.9927679,236.138617 C80.4777063,240.875753 85.5946012,244.969465 91.0416756,248.533663 C98.6074019,253.484384 106.847689,256.681929 115.433243,258.945039 C116.059874,261.783939 115.751884,264.545414 115.714606,267.376304 C114.699215,267.556072 113.840039,268.43622 114.2501,269.684802 C115.349811,273.032746 114.6717,277.640841 114.100987,281.033281 C113.743292,283.158451 113.196544,286.653235 111.721387,288.893207 C107.726392,281.894741 104.069565,274.747655 103.531692,266.626087 C105.126672,265.013521 103.854771,261.62375 101.294992,262.539496 C97.4668625,263.909109 94.0416938,266.01648 90.6005487,268.15322 C86.95171,270.419 83.1954743,272.247821 79.3309538,274.10067 C73.1161233,277.07929 67.0699328,280.558945 61.7391313,284.940996 C63.2577796,277.768102 71.3498404,270.84795 76.0060816,266.845902 C79.7046247,263.667936 83.7990282,260.830816 88.0842613,258.50719 C89.4475831,257.767652 94.121576,254.807721 95.5283892,256.507501 C96.1692215,257.280856 97.2494055,256.432746 97.0781027,255.602435 C96.3973294,252.302547 91.6603184,253.005598 89.3668134,253.597406 C86.3889847,254.365422 83.516778,255.787542 80.8016728,257.467743 C80.3987118,257.191863 79.9052177,257.044133 79.3815459,257.135797 C75.7193935,257.781891 71.2584197,260.276385 67.3042538,260.233668 C70.7853399,253.129299 81.961739,245.806896 88.7100047,250.182717 C89.5611933,250.735368 90.5561697,249.452078 89.7946267,248.773056 C80.8425014,240.78498 64.5119292,251.822871 61.8527415,261.441313 C61.5953435,262.375747 61.9858784,263.697304 62.9391386,264.118244 C65.7012855,265.335678 68.4217162,265.263593 71.0835666,264.588131 C63.3083716,271.063314 54.0518066,281.106256 56.8512319,291.277349 C57.3740161,293.174695 59.7997705,293.797651 61.1879445,292.425368 C66.9039555,286.776046 73.7125766,282.61025 80.8256374,278.970407 C84.249031,277.21812 87.728342,275.678529 91.0194862,273.67528 C94.2982042,271.680041 97.4899395,269.410701 101.012742,267.86043 C100.244098,277.063271 104.418384,286.465458 108.7977,294.284447 C109.559243,295.642491 111.077892,295.771532 112.367544,295.222441 C116.704257,293.376711 118.231781,287.365185 119.003088,283.213628 C119.883566,278.478272 120.530612,272.509462 117.762252,268.246663 C118.127934,266.505946 118.409297,264.74743 118.644506,262.983574 C118.774092,262.012653 118.939182,260.869083 118.8593,259.794929 C120.838602,260.257696 122.832992,260.681307 124.839809,261.067539 C136.113842,263.235426 147.75267,264.329159 159.198893,263.069898 C164.787093,262.454952 170.609613,261.207259 175.850769,258.884523 C182.249329,261.225058 188.05321,264.791037 193.141702,269.338616 C195.672191,271.598167 197.876938,274.220812 199.537599,277.183413 C200.478433,278.861834 200.908909,280.493089 201.077549,282.169731 C200.867193,282.011322 200.659499,281.850244 200.458906,281.685605 C197.947944,279.626291 195.373077,277.631051 192.554125,276.011365 C186.317992,272.426698 178.320902,271.872267 171.345416,270.877318 C171.227368,270.860409 171.119971,270.869308 171.0179,270.887107 C170.283872,270.499984 169.223214,271.355214 169.79659,272.132129 C172.054592,275.195293 174.429755,278.176583 176.339825,281.47825 C178.330666,284.920527 178.71055,287.889358 177.175925,290.890226 C175.529465,285.240015 169.834756,279.91463 165.778519,276.098579 C160.976715,271.579478 155.119579,268.467368 150.276946,264.055949 C149.034335,262.923058 146.435502,264.009672 147.183732,265.860741 C149.42842,271.418399 155.890885,274.560768 160.22316,278.36169 C162.878797,280.691545 165.31964,283.255455 167.57853,285.970653 C169.727359,288.554141 171.053403,291.634214 173.107261,294.2444 C173.717916,295.021315 174.496323,295.209982 175.225913,295.038224 C175.445145,296.65613 176.982433,298.06401 178.635993,296.833227 C187.677764,290.103522 179.659372,279.817627 173.549276,273.39584 C179.362921,275.09117 185.404673,275.984667 190.532219,279.478561 C192.895843,281.088457 194.994968,283.126414 197.05504,285.098515 C198.276349,286.268782 199.637895,288.249782 201.407729,288.550581 C202.4817,290.227223 205.648583,290.079493 206.323143,287.785235 C208.35925,280.861523 204.087331,273.788302 199.199431,268.99332 C200.693227,269.015569 202.182585,268.99777 203.611588,269.060956 C205.852726,269.159739 206.906283,266.247864 205.398285,264.735861 C202.132881,261.460892 199.521623,258.153885 195.118341,256.315274 C191.512994,254.809501 187.699953,254.208793 183.838983,253.988089 C185.471242,252.614915 186.9606,251.059305 188.25469,249.28388 C188.408242,249.072965 188.503213,248.851371 188.558243,248.626217 C198.530196,240.36048 204.737926,228.837572 209.72346,216.922203 C212.288564,219.580445 213.473482,223.232747 215.38089,226.370666 C217.486228,229.836082 220.393051,232.821821 223.332714,235.575287 C226.385986,238.435545 229.660267,241.049291 233.102299,243.416524 C228.464697,243.76004 223.255494,246.421842 220.157842,248.204386 C215.503376,250.882208 204.031413,258.92724 208.323747,265.672075 C208.918425,266.606509 210.171687,267.305109 211.295363,266.885059 C215.132368,265.44959 219.038605,264.227706 222.959043,263.04854 C222.913776,263.093926 222.867622,263.139313 222.822355,263.18381 C218.580614,267.431481 212.478506,273.879076 212.084421,280.134445 C211.877615,283.437002 215.488287,286.178009 218.440376,284.551203 C223.051351,282.010432 229.074464,281.355439 234.158519,280.087278 C242.508865,278.004825 250.509505,275.395529 257.83026,271.198585 C256.451849,276.910202 256.339126,283.059668 258.495057,288.272031 C259.15009,289.857009 260.853355,290.916034 262.510466,289.910405 C271.727089,284.31626 278.592516,271.500274 279.179206,260.841495 C279.201395,260.438354 279.141927,260.086829 279.032755,259.77713 C282.353189,260.145564 285.679837,260.372498 288.990508,260.436574 C294.39054,260.541586 299.845603,260.264816 305.257174,259.598253 C305.461317,259.828747 305.743568,259.989825 306.103037,259.996055 C308.12228,260.030762 310.119334,261.491149 311.746267,262.555514 C314.166696,264.138713 316.585349,265.705892 318.951636,267.373635 C324.418237,271.225283 330.090757,275.09384 334.710607,279.960017 C335.60795,280.90513 337.199379,281.116935 338.307078,280.425454 C345.410376,275.990007 341.625738,267.376304 337.774531,260.878873 C348.371341,261.333631 358.927322,262.239587 369.298686,264.637968 C372.42119,265.359707 374.221201,261.835555 372.277403,259.506589 C367.529741,253.819001 361.677043,249.315918 355.181737,245.951955 C358.226134,245.985773 361.322898,246.399594 364.233271,246.519735 C364.344218,246.524185 364.467592,246.527745 364.584752,246.531304 C362.093317,247.051028 362.798055,251.030827 365.288603,251.027267 C369.954607,251.020148 374.152858,252.311447 378.698152,251.457107 C385.327482,258.21529 393.11244,264.152062 401.604799,268.486946 C387.749686,268.15144 373.101964,276.65924 369.462001,290.378512 C368.867323,292.617594 371.223846,294.205242 373.160544,293.228981 C376.846661,291.372572 380.423606,289.28211 384.223333,287.658864 C382.762377,288.578169 381.693732,289.300798 381.281007,289.592698 C377.771519,292.073843 374.664103,294.587915 371.920596,297.913611 C368.469687,302.097206 363.371431,308.576839 364.641558,314.445975 C367.047785,325.555952 382.911491,316.677048 388.214777,313.618333 C396.642343,308.755716 405.306893,303.158901 412.914335,296.943579 C412.726168,299.239617 412.726168,301.46624 412.715517,303.161571 C412.690665,307.048817 413.035046,315.527249 418.745731,315.257598 C421.75285,315.115208 423.825348,312.278978 425.363523,310.024767 C427.588684,306.763147 429.387808,303.164241 431.099948,299.614281 C434.506478,292.549959 438.093186,283.765389 436.445839,275.793331 C436.4343,275.734595 436.409448,275.690098 436.395247,275.634922 C438.08431,275.458714 439.777811,275.210422 441.473088,274.867796 C442.089956,274.743205 442.542621,274.483343 442.871913,274.152287 C443.238483,274.501142 443.759492,274.735195 444.45713,274.749434 C449.121359,274.842878 453.816654,274.462875 458.487984,273.693079 C458.097449,273.978749 457.851589,274.460205 458.008691,275.025315 C459.458996,280.242127 463.948372,284.270873 467.976207,287.614367 C471.578004,290.604556 476.402885,293.728236 481.285459,293.24055 C490.173679,292.353283 487.63964,282.148373 484.851753,275.894784 C490.509184,274.260859 495.973122,273.581837 501.973158,273.907554 C508.456038,274.260859 514.940693,275.957079 521.242506,277.440605 C525.325371,278.401737 530.507947,280.533137 534.777203,279.651209 C538.630185,278.854715 539.334036,275.129438 537.879293,271.890066 C535.127797,265.762848 529.592852,261.751011 523.509384,259.21291 C524.470632,259.147945 525.435431,259.087429 526.406443,259.034033 C532.397603,258.705646 538.542315,258.22686 544.017792,255.573067 C545.555967,254.828189 545.533777,252.736837 544.52815,251.608396 C536.25236,242.327241 519.353737,243.071228 509.944509,250.303748 C509.073793,250.972981 509.833561,252.433368 510.8312,251.825541 C517.686863,247.652625 531.729256,245.584411 538.414503,251.875378 C533.668617,252.907705 528.92628,253.330425 523.991339,253.574268 C519.012907,253.82078 513.831218,254.10467 509.115509,255.821359 C507.169048,255.691428 505.216373,255.678079 503.277013,255.790212 C502.683222,255.824919 502.056591,255.873866 501.418421,255.931712 C503.789146,254.345843 506.083538,252.69679 508.289173,251.000569 C516.012888,245.062018 521.278897,237.878445 525.98573,229.43116 C528.986636,224.04793 535.322177,214.503353 531.575705,208.174119 C541.5947,205.133204 550.264575,197.932722 552.261629,187.654836 C553.688856,180.310184 549.33883,175.930803 542.572813,174.425919 C543.807436,171.143831 545.239989,163.77782 542.939383,160.905103 C542.808909,158.374121 542.147662,155.798643 541.525469,153.441199 C540.214514,148.46912 537.963613,143.777371 535.939932,139.071383 C533.257667,132.832923 531.663575,125.21239 526.372715,120.618534 C526.054074,119.96354 525.434543,119.441147 524.632171,119.307656 C524.551402,119.25604 524.480395,119.197304 524.398738,119.146578 C524.040156,118.925873 523.683349,119.029996 523.443703,119.264939 C520.939841,119.349483 518.484797,120.319515 516.080345,120.982518 C512.87352,121.866226 509.656933,122.567496 506.3507,122.965298 C501.127295,123.593594 495.832885,122.271147 490.640545,122.622673 C489.512432,116.624496 488.756215,110.533765 487.328987,104.614792 C484.57039,93.1701996 479.468584,79.8469491 469.209942,73.3228192 C466.872058,70.0843376 463.042153,67.8149976 459.434143,66.2113307 C452.400077,63.0849812 444.741155,60.9393425 437.122174,59.9862197 C418.153716,57.6127571 400.087926,66.831617 385.866242,78.6366345 C370.309639,91.5496239 360.08295,108.661337 354.303033,127.385617 C352.177281,122.560377 351.683787,117.305298 350.971948,112.058228 C349.946794,104.51156 348.713059,96.9835807 347.49175,89.4662808 C345.164516,75.1445208 343.087581,60.0227072 337.366244,46.5944441 C332.913259,36.1439111 326.484522,26.2024222 318.138613,18.4466191 C314.179122,14.7658387 305.57404,6.97443816 299.217197,8.96166802 C297.726951,7.92400119 296.296173,6.76886266 294.811253,5.74988451 C291.89733,3.75019553 288.473049,2.78016394 285.080721,1.95786193 C276.949606,-0.0133490586 268.68358,0.169088076 260.461932,1.37673291 C245.631369,3.55440934 231.388384,9.38616808 219.380323,18.3745342 C208.290906,26.6749789 199.273988,37.8258925 192.976613,50.1461837 C189.704995,56.5457224 187.316519,63.414258 186.03663,70.490149 C184.91828,76.6814424 184.120346,84.4043178 186.65616,90.3161708 C186.728054,90.4825891 186.815037,90.6214193 186.910008,90.7486803 C185.932783,90.2369664 184.927155,89.8373846 183.905552,89.5784129 C175.255203,80.3373046 161.416066,77.7805149 149.264218,78.2931187 C136.052599,78.8511094 123.531517,83.932651 113.125537,91.9963724 C102.898848,99.9212635 95.5328271,110.330859 90.8029168,122.345012 C87.7576321,130.081237 85.1756638,138.095121 82.856419,146.076969 C80.7546311,153.313048 79.4543274,160.206502 75.6936537,166.785808 C75.3661369,166.833865 75.0838867,167.057239 74.9969039,167.517337 C74.8646546,168.221277 74.6773753,168.898519 74.4661315,169.562412 C74.3525213,169.5989 74.2389112,169.641617 74.125301,169.699463 C70.8164052,171.388564 67.7870969,173.511954 64.4009818,175.099602 C61.7258176,176.353523 57.7175093,176.700599 55.3450097,178.492933 C54.8586163,178.047964 53.8840542,178.291807 53.9195573,179.09097 C54.0606824,182.252917 54.5648275,187.221437 56.6719409,190.347787 C52.9148175,193.263221 48.9446751,195.932143 45.41921,199.125238 C38.9230168,205.008613 34.3155924,215.440457 44.3425762,220.294175 L44.3425762,220.294175 L44.3425762,220.294175 Z M199.086709,263.47482 C197.03285,263.351118 194.967453,263.351118 192.99969,263.486389 C192.745842,263.503298 192.517734,263.560254 192.303827,263.634118 C187.951138,260.91803 183.055251,258.887193 178.128298,257.781891 C179.353157,257.138466 180.533638,256.426517 181.663526,255.640702 C188.004393,256.294806 195.089051,258.276696 199.086709,263.47482 L199.086709,263.47482 L199.086709,263.47482 Z M228.766474,255.979768 C223.559934,257.430366 218.345405,258.857825 213.232061,260.606552 C215.142131,257.526479 221.180334,253.435438 222.632413,252.449387 C226.048706,250.128431 233.650823,245.096726 238.415349,246.784937 C240.271278,247.86888 242.168035,248.882519 244.101183,249.824072 C239.935773,250.27972 235.798765,252.423579 232.051405,255.115639 C230.933055,255.400419 229.828019,255.684309 228.766474,255.979768 L228.766474,255.979768 L228.766474,255.979768 Z M273.75077,260.841495 C273.310531,268.357015 268.752811,277.689787 262.671117,283.009832 C261.637975,277.243039 263.032362,270.779424 265.538886,265.723691 C266.983865,262.808257 263.648342,260.48463 261.239452,262.397106 C254.101539,268.062446 245.766281,271.259991 237.069779,273.649472 C233.02153,274.762784 228.927126,275.705227 224.854025,276.721535 C222.624425,277.277746 220.361985,277.7948 218.188304,278.545907 C218.126173,278.567265 218.067593,278.601083 218.00635,278.624221 C219.635058,274.081092 224.021475,269.643865 227.278004,266.338638 C230.165299,263.407184 233.292241,260.725803 236.728949,258.630001 C240.431042,257.242589 244.084318,255.751054 247.833454,254.463315 C248.996183,254.064623 249.518079,253.164007 249.513641,252.258941 C257.450376,255.539249 265.878829,257.855756 274.420005,259.169303 C274.047222,259.589354 273.791599,260.142005 273.75077,260.841495 L273.75077,260.841495 L273.75077,260.841495 Z M320.566143,262.935518 C318.273525,261.506278 315.390668,259.632071 312.407513,258.480492 C317.970861,257.420577 323.4419,255.928152 328.707908,253.96851 C333.380126,252.229573 338.571577,249.884588 343.252671,246.828543 C343.60859,247.253933 344.060368,247.595669 344.578714,247.779886 C350.451827,249.865899 355.937955,252.907705 360.758398,256.80118 C351.263962,255.359482 341.643489,254.793482 332.045206,254.453526 C329.724186,254.371652 328.14607,257.164275 329.370042,259.128366 C331.325379,262.264505 336.831922,269.020019 335.961206,273.491953 C330.994312,269.727519 325.870317,266.243414 320.566143,262.935518 L320.566143,262.935518 L320.566143,262.935518 Z M350.929344,240.50287 C353.384389,237.870435 355.333513,234.891815 356.481153,231.537642 C358.607793,231.338296 360.687392,230.936044 362.655155,230.310418 C364.795996,234.047265 367.170271,237.642611 369.765553,241.078659 C368.437734,240.947838 367.120567,240.869524 365.863754,240.801888 C360.94479,240.535797 355.834108,239.920851 350.929344,240.50287 L350.929344,240.50287 L350.929344,240.50287 Z M357.811634,220.712445 C358.398324,222.06426 359.017855,223.399166 359.664013,224.719833 C357.359857,225.072248 355.056588,225.408644 352.689414,225.439792 C348.50359,225.494968 344.472205,224.628169 340.549104,223.219398 C336.884289,221.904071 332.101124,219.517259 329.716198,216.325055 C328.095478,214.155388 331.688399,211.447309 333.211486,210.340227 C339.280753,205.930588 348.569271,203.392487 350.823722,195.865397 C352.2474,204.402565 354.398004,212.8454 357.811634,220.712445 L357.811634,220.712445 L357.811634,220.712445 Z M431.749656,277.777891 C432.941675,280.007184 431.596993,283.639018 430.937521,285.848732 C429.886627,289.367544 428.359991,292.733286 426.749034,296.023384 C425.310268,298.961067 423.82091,301.860483 422.162024,304.680694 C421.235391,306.255883 420.200474,308.311638 418.722654,309.518393 C418.489221,309.030707 418.351646,308.498524 418.209633,307.976131 C417.622056,305.815364 417.526197,303.530895 417.47028,301.305162 C417.358445,296.773601 418.228273,292.565088 418.704015,288.119852 C418.844253,286.800965 417.089508,286.330188 416.266722,287.107993 C415.210503,288.105613 414.477362,289.528622 413.958128,291.146528 C413.769074,291.133179 413.576469,291.138519 413.381202,291.179456 C410.573788,291.769484 408.086791,293.80922 405.78086,295.403098 C401.775214,298.171693 397.767794,300.938508 393.683154,303.589631 C389.381944,306.381364 384.976888,309.040496 380.384552,311.325855 C377.787495,312.618044 373.834217,314.695157 370.915856,314.041054 C368.061401,313.400299 373.330072,305.190628 374.335699,303.712442 C376.401984,300.676866 378.799336,298.076469 381.630714,295.771532 C385.310618,292.776003 389.227505,290.020758 393.215399,287.455068 C393.86422,287.037688 395.060677,286.185128 396.417785,285.360156 C396.446188,285.355707 396.472815,285.353037 396.501218,285.349477 C396.964534,285.280952 397.327554,285.029989 397.587615,284.687364 C399.663663,283.557143 401.862197,282.761539 402.996524,283.753819 C403.389721,284.098225 404.064281,283.88731 404.057181,283.313301 C404.014577,279.77669 400.700356,279.835426 396.605065,281.272674 C390.42485,278.766611 383.435162,281.860923 377.289563,285.197298 C384.412387,274.755664 400.654202,269.957122 412.366699,272.951761 C418.536263,274.933651 424.950799,276.005136 431.465631,275.920592 C431.328056,276.464344 431.383086,277.092639 431.749656,277.777891 L431.749656,277.777891 L431.749656,277.777891 Z M492.506237,262.963996 C495.894128,262.04914 498.867518,260.885992 502.433812,260.62969 C503.700388,260.538917 504.972289,260.527347 506.24419,260.572734 C506.76875,261.027492 507.478813,261.282904 508.260771,261.125385 C508.758703,261.023932 509.254859,260.934939 509.751904,260.843275 C511.167593,261.013253 512.575294,261.248197 513.963468,261.536536 C520.98422,262.992474 528.401721,266.336858 532.316833,272.633164 C532.620386,273.121739 532.927488,274.782362 533.573646,274.624843 C533.169797,274.749434 532.477485,274.654211 532.168608,274.652431 C530.034867,274.638192 527.869173,274.087321 525.778924,273.717107 C521.014398,272.874337 516.25076,271.998638 511.438305,271.473576 C502.531446,270.502654 492.195584,269.874358 483.753817,273.643242 C483.695237,273.53467 483.636657,273.423428 483.580739,273.320195 C481.871262,270.223214 477.665023,272.942862 478.976865,276.018485 C480.11563,278.690077 485.434893,289.034707 478.833965,287.829732 C471.157291,286.428971 465.288617,278.852935 460.141544,273.780293 C459.995094,273.635233 459.828229,273.552469 459.657813,273.495513 C470.320304,271.584818 480.831019,267.632606 490.519835,262.464741 C490.948535,262.947087 491.625759,263.201609 492.506237,262.963996 L492.506237,262.963996 L492.506237,262.963996 Z M421.640128,65.7236451 C431.446104,63.6055945 441.058588,65.2866859 450.553025,67.9289096 C453.4918,68.7467619 457.188568,69.7319225 460.557819,71.2439258 C460.063437,72.0911461 460.134444,73.2792123 461.189775,73.8585614 C476.157026,82.0860312 480.95528,98.6495432 483.890505,114.43881 C485.536964,123.291015 487.009458,131.918957 490.822499,140.143757 C493.565119,146.05828 498.004791,151.87491 504.725542,153.032718 C505.694779,153.200026 506.073775,151.883809 505.132941,151.550973 C498.779648,149.300321 495.412172,139.39354 493.423107,133.626747 C492.500912,130.953375 491.801499,128.224828 491.213034,125.467802 C496.017501,127.070579 501.437948,127.647258 506.3507,127.659717 C509.633856,127.668617 512.966716,126.904161 516.152238,126.195771 C519.256103,125.504289 522.742515,125.032623 525.517976,123.441415 C525.548153,123.424506 525.570343,123.403148 525.598745,123.385349 C528.667995,128.596821 529.109122,135.504514 531.13369,141.103109 C532.522752,144.944078 534.034299,148.735211 535.258271,152.634026 C535.869813,154.580319 536.308278,156.567549 536.661534,158.575247 C537.090235,161.005666 536.697925,163.452103 537.420415,165.820226 C537.603256,166.417374 538.037282,166.913069 538.57693,167.245906 C538.553853,167.728252 538.524563,168.209708 538.489948,168.688494 C538.364799,170.433661 537.626333,171.682243 537.284615,173.319727 C537.267751,173.400712 537.267751,173.478136 537.257988,173.557341 C531.989317,172.870309 526.85822,172.310539 522.637781,168.409054 C521.764403,167.601881 520.365578,168.627978 520.978895,169.692343 C523.637195,174.303998 529.993151,175.937033 534.753239,177.198074 C538.343497,178.149417 546.440883,178.934341 547.011597,183.788059 C547.957756,191.821523 540.261556,198.194363 533.833706,201.129376 C526.559994,204.450622 517.867042,204.583223 510.131788,203.124616 C507.77704,202.680537 505.901585,206.148622 508.387694,207.272613 C514.614063,210.087484 522.180677,210.462148 529.288413,208.782836 C529.28575,211.752557 527.607337,215.051554 526.362951,217.564737 C524.712941,220.897552 522.749616,224.081748 520.812918,227.250814 C516.039516,235.064463 511.116113,241.561895 503.642695,247.001191 C486.136968,259.741533 465.838916,267.326468 444.45713,270.113751 C443.834049,270.194736 443.344993,270.462607 442.980198,270.823031 C442.380194,269.908176 441.318649,269.251402 439.978404,269.432059 C409.577037,273.549799 381.525092,251.722308 367.154295,225.577732 C367.077075,225.385506 366.975891,225.206628 366.862281,225.03754 C364.679723,221.007014 362.820245,216.877706 361.330887,212.727928 C357.828498,202.967097 356.173163,192.308318 355.069902,182.036663 C353.853918,170.722891 353.910723,159.214222 355.432922,147.934268 C357.939446,129.359497 364.718777,111.388995 376.204941,96.510134 C387.344949,82.0798017 403.614279,69.6180105 421.640128,65.7236451 L421.640128,65.7236451 L421.640128,65.7236451 Z M190.754114,89.2037493 C190.882813,86.3906577 190.336952,83.5811258 190.275709,80.7609147 C190.202927,77.4165305 190.565947,74.0748162 191.154412,70.787388 C192.347319,64.1217581 194.802363,57.7302288 197.862737,51.7169229 C203.759814,40.1308299 212.470518,29.7915391 222.848095,21.9947989 C233.917985,13.6783354 246.991141,8.52381889 260.540927,6.0578028 C268.766125,4.56092836 277.088069,4.61343466 285.284864,6.26426824 C288.718021,6.95485954 291.742891,8.09931883 294.935514,9.50452973 C295.690844,9.83647633 296.4515,10.180882 297.226356,10.4736714 C297.284937,10.862574 297.632868,11.2016401 298.122811,11.0850583 C298.359795,11.0281023 298.599442,10.9916149 298.839976,10.9702564 C299.411577,11.1010771 299.993829,11.1847312 300.592945,11.1829514 C300.670164,11.1829514 300.740283,11.1687124 300.804189,11.1446841 C303.763378,11.8539641 306.745645,14.4089739 308.759562,16.0793861 C311.731178,18.5427324 314.558118,21.2072045 317.128548,24.0906011 C325.123863,33.0593886 330.916205,44.0260853 334.420369,55.4795775 C338.469506,68.7147242 340.210049,82.926132 342.318937,96.5759894 C343.329002,103.114358 344.346168,109.655397 345.168954,116.220464 C345.879905,121.900933 346.718668,127.860843 349.945019,132.73147 C350.596502,133.71485 351.505383,134.1438 352.414265,134.187407 C349.755077,144.92895 348.47075,156.081643 348.420157,167.194289 C348.070451,167.043 347.654177,166.985154 347.178434,167.078598 C341.329286,168.231066 335.745525,168.46245 329.843122,167.396305 C324.345455,166.404025 317.712575,164.681107 313.441543,160.884634 C312.658698,160.188703 311.56165,161.269977 312.289465,162.039773 C316.716711,166.721733 322.72296,169.378195 328.819743,171.118913 C334.637826,172.780425 343.098232,174.426809 348.445897,170.708652 C348.516904,174.501564 348.721934,178.283797 349.069866,182.036663 C349.350341,185.061559 349.691171,188.106925 350.108333,191.15229 C349.658331,191.15407 349.237618,191.384563 349.162174,191.933655 C348.275482,198.370571 342.671306,201.096449 337.245534,203.35066 C332.605269,205.278264 325.801973,207.289522 324.097821,212.734158 C321.466148,221.144955 332.915034,226.402704 338.980751,228.923006 C342.245268,230.279271 345.98819,231.183447 349.814545,231.529632 C347.18731,234.458416 344.518359,237.347152 341.357689,239.717055 C336.492866,243.364908 330.929519,246.02671 325.23481,248.082465 C313.417579,252.347044 300.666614,254.036145 288.148195,253.879516 C273.930949,253.700639 259.180268,250.219204 246.296166,244.254845 C238.660321,240.719124 231.794895,235.719457 225.476218,230.192947 C222.579159,227.658405 219.831213,224.828405 217.517294,221.747442 C215.613436,219.212011 213.486796,216.697938 210.577311,215.305187 C210.523168,215.279378 210.469914,215.274929 210.415771,215.26069 C210.765478,214.40279 211.110746,213.544891 211.450689,212.686101 C217.800432,196.640533 223.681532,180.019175 225.211719,162.725025 C225.993676,153.900407 225.294264,144.710025 222.448685,136.291219 C219.729141,128.245296 214.903373,121.154276 209.750087,114.502885 C205.391185,108.878482 200.594706,103.254968 195.715682,98.0639645 C193.6778,95.8951874 191.031039,93.2458442 188.079837,91.4223628 C189.28162,91.5540735 190.692871,90.5368753 190.754114,89.2037493 L190.754114,89.2037493 L190.754114,89.2037493 Z M57.7698765,185.547465 C56.7571485,183.931339 56.3240098,181.892493 55.8660188,179.991587 C58.4666263,181.049722 62.4545203,179.80648 64.8935883,179.131908 C66.5693381,178.66914 68.3196445,178.064873 70.0140335,177.313766 C67.7515938,180.072571 65.0790924,182.572405 62.6586635,185.089147 C61.7178294,186.067188 60.7184151,186.976704 59.6985864,187.862192 C58.9938484,187.211648 58.3565664,186.482789 57.7698765,185.547465 L57.7698765,185.547465 L57.7698765,185.547465 Z M56.186435,197.037445 C57.7823026,195.757715 59.2530216,194.449507 60.6580597,193.106592 C60.8843924,193.146639 61.1045121,193.197366 61.3468212,193.213384 C62.7918004,193.304158 63.3261232,191.922086 62.9524523,190.818563 C65.2228802,188.44866 67.3406445,185.945267 69.4912493,183.227399 C71.6107887,180.547798 74.47767,177.149127 76.0060816,173.537762 C76.2164379,173.345536 76.4374452,173.161319 76.6344878,172.959303 C77.3054978,172.272271 77.3694035,171.454419 77.0800526,170.779846 C77.8025422,170.950714 78.6013636,170.805655 79.2572847,170.1649 C83.6738795,165.852264 85.0132368,159.393989 86.4111742,153.604058 C88.1676937,146.33327 90.5055777,139.221782 92.9428706,132.15657 C97.2174527,119.761524 102.438194,108.746771 112.124348,99.6542823 C121.431505,90.9177684 133.376547,85.1687738 146.048518,83.6959277 C157.972259,82.3102954 168.970254,85.3325223 179.809373,89.7136833 C179.44369,90.1924696 179.453454,90.9480263 180.205233,91.0539288 C186.09166,91.8824604 190.464763,96.6694328 194.166856,100.949141 C198.637594,106.118786 201.765423,112.095605 205.577576,117.730688 C210.112219,124.434585 214.438281,131.299561 216.840071,139.090961 C219.324405,147.146673 219.490383,155.644684 218.696887,163.975386 C217.187114,179.817159 211.297138,195.195275 205.624618,209.936195 C200.260976,223.871722 192.978388,236.715297 182.359388,247.319789 C182.01057,247.667754 181.813527,248.070006 181.733645,248.485607 C174.285079,253.251221 166.336806,256.121268 157.287047,257.013875 C146.724853,258.054212 135.976267,256.891954 125.592477,254.911843 C114.394776,252.775994 103.774001,249.470767 93.9955397,243.467251 C88.8582305,240.313313 84.1416339,236.497262 79.8022585,232.319007 C76.5590436,229.196217 73.7658314,225.350798 70.4977642,222.180842 C71.0986555,222.094518 71.6942212,222.005524 72.279136,221.91564 C77.0143718,221.185002 81.727418,220.019184 86.1688651,218.201932 C89.7351589,216.743325 93.5215723,214.853988 95.0517591,211.103793 C96.1221798,208.481148 92.5443475,207.270833 90.83842,208.644006 C85.1383855,213.232523 77.822069,215.081812 70.7311976,216.287677 C63.3864786,217.536259 53.7660061,218.540998 46.7869697,215.222422 C37.5339551,210.821683 52.5207323,199.978687 56.186435,197.037445 L56.186435,197.037445 L56.186435,197.037445 Z" id="Fill-61" fill="#279DD3"></path>
    <path d="M198.274574,96.1790774 C202.036135,100.626094 207.21516,103.893943 212.740342,105.672928 C216.085628,106.749752 219.559614,107.128865 223.058452,107.119966 C225.08657,107.114626 227.768835,107.108397 229.995772,106.409796 C230.483053,106.512139 230.994298,106.436494 231.435425,106.094758 C231.756729,105.846466 232.033654,105.561686 232.288389,105.259107 C232.520935,105.07845 232.74283,104.886223 232.939872,104.667299 C233.36591,104.193852 233.539876,103.607384 233.50526,103.044943 C234.921837,98.9200841 233.490171,92.9121178 232.330993,89.5081078 C230.786605,84.9765474 228.053748,80.2474209 223.894551,77.6835117 C224.026801,77.4441186 224.059641,77.1495494 223.90964,76.9003669 C220.912285,71.9265077 213.269339,76.7882348 209.922277,78.7977131 C206.51486,80.8436789 203.395906,83.3604214 200.515711,86.0934186 C198.559487,87.9489378 196.154147,90.2974822 195.469823,93.0046712 C195.006506,94.837942 196.739061,96.2992189 198.274574,96.1790774 L198.274574,96.1790774 L198.274574,96.1790774 Z M210.185001,84.1515756 C212.441227,82.2764778 214.893609,80.6042857 217.496879,79.2524711 C218.222919,78.8760276 219.578253,78.1418294 220.80755,77.8383608 C224.963197,80.3195058 226.922972,86.2705161 228.061736,90.6881646 C228.445171,92.1752497 228.741622,93.6525456 228.934227,95.1476401 C226.782734,96.4522881 224.857575,97.3991813 222.08744,97.6955304 C219.09541,98.0159079 216.049237,97.8219015 213.047444,97.8227915 C212.223771,97.8227915 211.994775,99.1585873 212.848626,99.3000873 C217.950432,100.148197 223.914966,101.560528 228.985706,99.9346125 C228.908487,100.311946 228.814404,100.68305 228.714995,101.052374 C227.135991,101.277528 225.535685,101.751864 224.027688,101.905824 C221.119091,102.202173 218.138599,102.040204 215.235327,101.754534 C209.387955,101.177855 204.143248,99.0428954 199.932572,95.0693256 C199.960087,95.0203791 199.992927,94.9803319 200.018667,94.9278256 C202.159508,90.46924 206.478469,87.2334282 210.185001,84.1515756 L210.185001,84.1515756 L210.185001,84.1515756 Z" id="Fill-62" fill="#2F91C1"></path>
    <path d="M264.460477,84.9569688 C267.489786,83.4743333 269.345714,84.3073146 271.318803,86.7795602 C272.739817,88.5603247 273.83509,91.7044729 276.417059,91.7160421 C277.163513,91.7196019 278.006713,91.1696207 278.149614,90.3935954 C278.706126,87.3660289 274.532728,84.2076416 272.182418,82.7686131 C269.27027,80.9851789 266.206346,81.4114588 263.508105,83.3239339 C262.516679,84.0260944 263.359879,85.4962707 264.460477,84.9569688" id="Fill-63" fill="#2F91C1"></path>
    <path d="M204.651831,69.7426017 C206.335569,70.4349729 207.969603,69.1881708 209.625826,68.8081676 C211.376132,68.4076958 213.349221,68.9843752 214.824378,69.9116898 C215.536217,70.3593282 216.44066,69.4667212 215.983557,68.7503217 C214.62201,66.6207019 213.227623,64.974318 210.605713,64.5854154 C208.438245,64.2632581 204.491179,64.6726292 203.501528,66.9063717 C202.954779,68.1407147 203.418983,69.2344475 204.651831,69.7426017" id="Fill-64" fill="#2F91C1"></path>
    <path d="M380.688104,168.444651 C384.102622,168.827324 387.501163,168.405494 390.910356,168.231066 C387.467435,170.217406 382.707347,173.431859 383.52392,177.567398 C383.7183,178.552558 384.897893,178.984178 385.769496,178.6727 C390.915681,180.384939 394.93109,182.200411 400.503313,180.893983 C404.155702,180.037864 410.038578,177.627914 411.871429,173.770926 C412.444806,173.466567 412.885933,172.957523 413.112265,172.363045 C414.322036,172.388853 415.479439,172.411101 416.544535,171.382334 C417.9762,170.000261 416.869389,167.602771 414.968194,167.567173 C414.879436,167.565393 414.795116,167.572513 414.709021,167.576962 C414.399255,167.172931 413.895998,166.942437 413.269367,167.128434 C412.372912,167.393635 411.79421,168.070878 411.206632,168.74812 C407.212525,166.19845 402.572261,164.335811 397.979925,163.344421 C393.33966,162.343241 388.682532,163.283015 384.020965,163.35688 C386.406778,158.39904 393.906824,154.348045 398.703302,154.737838 C398.9607,154.759196 399.172832,154.71203 399.350348,154.625706 C401.590598,155.370583 403.564574,156.54797 405.296242,158.243301 C407.313709,160.218071 408.122294,162.959968 409.164312,165.498069 C409.948933,167.410544 412.507824,166.689695 412.225574,164.651739 C411.396574,158.67759 405.488846,154.045467 399.77106,152.788875 C399.620172,152.509435 399.380525,152.274492 399.052121,152.15079 C391.245861,149.214887 378.919159,157.809011 378.085722,165.835355 C377.926845,167.362487 379.398452,168.300481 380.688104,168.444651 L380.688104,168.444651 L380.688104,168.444651 Z M406.753647,172.424451 C406.533527,172.630916 406.310745,172.839161 406.075536,173.049186 C404.169903,174.754306 401.724622,175.861388 399.364549,176.751325 C395.281684,178.290917 391.146452,177.061913 386.965065,176.848329 C387.09554,176.40069 387.218913,175.953942 387.414181,175.529442 C387.811816,174.664423 388.426909,173.926665 389.062415,173.230734 C390.321891,171.848661 391.852077,170.702422 393.341435,169.584661 C393.847356,169.204658 393.95209,168.643107 393.805639,168.17767 C394.126056,168.18301 394.446472,168.18034 394.767775,168.196359 C399.098275,168.407274 402.958358,170.470148 406.753647,172.424451 L406.753647,172.424451 L406.753647,172.424451 Z" id="Fill-65" fill="#2F91C1"></path>
    <path d="M442.683746,157.40142 C443.603278,157.147788 444.430502,156.235602 444.566302,155.249552 C444.82015,154.384533 444.869854,153.420731 444.952399,152.539693 C445.064234,151.348957 445.279028,150.190258 444.987902,149.012872 C444.701214,147.855953 443.571325,147.038991 442.401496,147.038991 C441.096754,147.038991 440.278406,147.886211 439.81509,149.012872 C439.427218,149.957985 439.507987,151.123803 439.451182,152.137441 C439.385501,153.312158 439.304732,154.467297 439.564792,155.625105 C439.868344,156.97692 441.399419,157.755615 442.683746,157.40142" id="Fill-66" fill="#2F91C1"></path>
    <path d="M377.572701,149.388425 C377.537198,149.256714 377.501695,149.124114 377.465304,148.991513 C377.391635,148.715632 377.243409,148.46378 377.065893,148.233286 C377.043704,148.157642 377.023289,148.081997 377.011751,148.009912 C377.003763,147.918249 377.000212,147.826585 376.995774,147.734922 C377.00465,147.020302 377.443114,146.398236 377.470629,145.412185 C377.488381,144.791009 377.241634,144.237468 376.852874,143.813858 C376.731276,143.241629 376.243995,143.037833 375.756714,143.105468 C375.131858,142.899003 374.43067,142.93193 373.824453,143.314603 C371.007277,145.093588 371.709352,149.544164 373.597233,151.708491 C375.213515,153.562231 378.167379,151.596359 377.572701,149.388425" id="Fill-67" fill="#2F91C1"></path>
    <path d="M202.643239,137.058345 C202.689393,137.466826 202.924602,138.587257 202.711583,138.941452 C202.187023,139.81537 202.439096,140.766713 203.041762,141.504471 C203.102118,141.579226 203.163361,141.653091 203.223716,141.726955 C204.041177,142.729025 205.548286,142.258248 206.171367,141.346062 C206.23261,141.256179 206.294741,141.166295 206.355983,141.076411 C206.931135,140.234531 206.590304,139.226232 206.025804,138.512502 C206.029354,138.516952 205.889117,137.782753 205.867815,137.711558 C205.761305,137.357363 205.611304,137.015628 205.468404,136.674782 C205.133787,135.876508 204.742364,135.119171 204.292362,134.380523 C203.640878,133.311709 202.015721,134.016539 202.303296,135.220624 C202.447972,135.828451 202.57312,136.436278 202.643239,137.058345" id="Fill-68" fill="#2F91C1"></path>
  </g>
</svg>